<?xml version="1.0" encoding="UTF-8"?>
<svg xmlns="http://www.w3.org/2000/svg" xmlns:xlink="http://www.w3.org/1999/xlink" width="206.227pt" height="104.19pt" viewBox="0 0 206.227 104.19">
<defs>
<g>
<g id="glyph-0-0">
<path d="M 1.0625 -1.109375 C 1.0625 -0.910156 1.132812 -0.75 1.28125 -0.625 C 1.425781 -0.507812 1.601562 -0.453125 1.8125 -0.453125 C 2.050781 -0.453125 2.289062 -0.507812 2.53125 -0.625 C 2.914062 -0.820312 3.109375 -1.132812 3.109375 -1.5625 L 3.109375 -2.125 C 3.023438 -2.070312 2.914062 -2.023438 2.78125 -1.984375 C 2.644531 -1.953125 2.507812 -1.929688 2.375 -1.921875 L 1.953125 -1.859375 C 1.703125 -1.828125 1.507812 -1.773438 1.375 -1.703125 C 1.164062 -1.578125 1.0625 -1.378906 1.0625 -1.109375 Z M 2.765625 -2.53125 C 2.921875 -2.550781 3.023438 -2.617188 3.078125 -2.734375 C 3.109375 -2.796875 3.125 -2.890625 3.125 -3.015625 C 3.125 -3.253906 3.039062 -3.425781 2.875 -3.53125 C 2.707031 -3.632812 2.460938 -3.6875 2.140625 -3.6875 C 1.773438 -3.6875 1.515625 -3.585938 1.359375 -3.390625 C 1.273438 -3.285156 1.21875 -3.125 1.1875 -2.90625 L 0.53125 -2.90625 C 0.550781 -3.425781 0.71875 -3.785156 1.03125 -3.984375 C 1.351562 -4.179688 1.726562 -4.28125 2.15625 -4.28125 C 2.644531 -4.28125 3.046875 -4.1875 3.359375 -4 C 3.660156 -3.8125 3.8125 -3.519531 3.8125 -3.125 L 3.8125 -0.71875 C 3.8125 -0.644531 3.828125 -0.585938 3.859375 -0.546875 C 3.890625 -0.503906 3.953125 -0.484375 4.046875 -0.484375 C 4.078125 -0.484375 4.113281 -0.484375 4.15625 -0.484375 C 4.195312 -0.484375 4.238281 -0.488281 4.28125 -0.5 L 4.28125 0.015625 C 4.164062 0.046875 4.078125 0.0664062 4.015625 0.078125 C 3.960938 0.0859375 3.890625 0.09375 3.796875 0.09375 C 3.554688 0.09375 3.378906 0.00390625 3.265625 -0.171875 C 3.210938 -0.265625 3.171875 -0.394531 3.140625 -0.5625 C 3.003906 -0.375 2.800781 -0.207031 2.53125 -0.0625 C 2.257812 0.0703125 1.960938 0.140625 1.640625 0.140625 C 1.253906 0.140625 0.9375 0.0234375 0.6875 -0.203125 C 0.445312 -0.441406 0.328125 -0.738281 0.328125 -1.09375 C 0.328125 -1.488281 0.445312 -1.789062 0.6875 -2 C 0.925781 -2.21875 1.242188 -2.347656 1.640625 -2.390625 Z M 2.171875 -4.28125 Z M 2.171875 -4.28125 "/>
</g>
<g id="glyph-0-1">
<path d="M 0.46875 -5.765625 L 1.140625 -5.765625 L 1.140625 -3.671875 C 1.296875 -3.878906 1.476562 -4.035156 1.6875 -4.140625 C 1.90625 -4.242188 2.140625 -4.296875 2.390625 -4.296875 C 2.910156 -4.296875 3.332031 -4.113281 3.65625 -3.75 C 3.976562 -3.394531 4.140625 -2.867188 4.140625 -2.171875 C 4.140625 -1.515625 3.976562 -0.960938 3.65625 -0.515625 C 3.34375 -0.078125 2.898438 0.140625 2.328125 0.140625 C 2.015625 0.140625 1.75 0.0585938 1.53125 -0.09375 C 1.394531 -0.1875 1.253906 -0.332031 1.109375 -0.53125 L 1.109375 0 L 0.46875 0 Z M 2.296875 -0.484375 C 2.671875 -0.484375 2.953125 -0.632812 3.140625 -0.9375 C 3.328125 -1.238281 3.421875 -1.640625 3.421875 -2.140625 C 3.421875 -2.578125 3.328125 -2.941406 3.140625 -3.234375 C 2.953125 -3.523438 2.675781 -3.671875 2.3125 -3.671875 C 1.988281 -3.671875 1.707031 -3.550781 1.46875 -3.3125 C 1.226562 -3.070312 1.109375 -2.679688 1.109375 -2.140625 C 1.109375 -1.742188 1.15625 -1.425781 1.25 -1.1875 C 1.4375 -0.71875 1.785156 -0.484375 2.296875 -0.484375 Z M 2.296875 -0.484375 "/>
</g>
<g id="glyph-0-2">
<path d="M 2.125 -4.3125 C 2.601562 -4.3125 2.988281 -4.195312 3.28125 -3.96875 C 3.570312 -3.738281 3.75 -3.34375 3.8125 -2.78125 L 3.125 -2.78125 C 3.082031 -3.039062 2.988281 -3.253906 2.84375 -3.421875 C 2.695312 -3.585938 2.457031 -3.671875 2.125 -3.671875 C 1.675781 -3.671875 1.359375 -3.453125 1.171875 -3.015625 C 1.046875 -2.734375 0.984375 -2.382812 0.984375 -1.96875 C 0.984375 -1.550781 1.070312 -1.195312 1.25 -0.90625 C 1.425781 -0.625 1.703125 -0.484375 2.078125 -0.484375 C 2.367188 -0.484375 2.597656 -0.570312 2.765625 -0.75 C 2.941406 -0.925781 3.0625 -1.171875 3.125 -1.484375 L 3.8125 -1.484375 C 3.738281 -0.929688 3.546875 -0.523438 3.234375 -0.265625 C 2.921875 -0.00390625 2.519531 0.125 2.03125 0.125 C 1.476562 0.125 1.039062 -0.0703125 0.71875 -0.46875 C 0.394531 -0.875 0.234375 -1.378906 0.234375 -1.984375 C 0.234375 -2.710938 0.410156 -3.28125 0.765625 -3.6875 C 1.117188 -4.101562 1.570312 -4.3125 2.125 -4.3125 Z M 2.015625 -4.28125 Z M 2.015625 -4.28125 "/>
</g>
</g>
<clipPath id="clip-0">
<path clip-rule="nonzero" d="M 13 13.058594 L 72 13.058594 L 72 101 L 13 101 Z M 13 13.058594 "/>
</clipPath>
<clipPath id="clip-1">
<path clip-rule="nonzero" d="M 25 99 L 29 99 L 29 104.191406 L 25 104.191406 Z M 25 99 "/>
</clipPath>
<clipPath id="clip-2">
<path clip-rule="nonzero" d="M 28 99 L 30 99 L 30 104.191406 L 28 104.191406 Z M 28 99 "/>
</clipPath>
<clipPath id="clip-3">
<path clip-rule="nonzero" d="M 30 100 L 35 100 L 35 104.191406 L 30 104.191406 Z M 30 100 "/>
</clipPath>
<clipPath id="clip-4">
<path clip-rule="nonzero" d="M 35 100 L 39 100 L 39 104.191406 L 35 104.191406 Z M 35 100 "/>
</clipPath>
<clipPath id="clip-5">
<path clip-rule="nonzero" d="M 0 13.058594 L 4 13.058594 L 4 18 L 0 18 Z M 0 13.058594 "/>
</clipPath>
<clipPath id="clip-6">
<path clip-rule="nonzero" d="M 24 13.058594 L 25 13.058594 L 25 18 L 24 18 Z M 24 13.058594 "/>
</clipPath>
<clipPath id="clip-7">
<path clip-rule="nonzero" d="M 26 13.058594 L 30 13.058594 L 30 18 L 26 18 Z M 26 13.058594 "/>
</clipPath>
<clipPath id="clip-8">
<path clip-rule="nonzero" d="M 33 13.058594 L 36 13.058594 L 36 18 L 33 18 Z M 33 13.058594 "/>
</clipPath>
<clipPath id="clip-9">
<path clip-rule="nonzero" d="M 75 13.058594 L 79 13.058594 L 79 18 L 75 18 Z M 75 13.058594 "/>
</clipPath>
<clipPath id="clip-10">
<path clip-rule="nonzero" d="M 78 13.058594 L 81 13.058594 L 81 18 L 78 18 Z M 78 13.058594 "/>
</clipPath>
<clipPath id="clip-11">
<path clip-rule="nonzero" d="M 87 13.058594 L 91 13.058594 L 91 18 L 87 18 Z M 87 13.058594 "/>
</clipPath>
<clipPath id="clip-12">
<path clip-rule="nonzero" d="M 96 13.058594 L 100 13.058594 L 100 18 L 96 18 Z M 96 13.058594 "/>
</clipPath>
<clipPath id="clip-13">
<path clip-rule="nonzero" d="M 108 13.058594 L 110 13.058594 L 110 18 L 108 18 Z M 108 13.058594 "/>
</clipPath>
<clipPath id="clip-14">
<path clip-rule="nonzero" d="M 119 13.058594 L 123 13.058594 L 123 18 L 119 18 Z M 119 13.058594 "/>
</clipPath>
<clipPath id="clip-15">
<path clip-rule="nonzero" d="M 189.3125 36.671875 L 206 36.671875 L 206 53 L 189.3125 53 Z M 189.3125 36.671875 "/>
</clipPath>
<clipPath id="clip-16">
<path clip-rule="nonzero" d="M 181 28.128906 L 206.226562 28.128906 L 206.226562 61.6875 L 181 61.6875 Z M 181 28.128906 "/>
</clipPath>
<clipPath id="clip-17">
<path clip-rule="nonzero" d="M 189.3125 74 L 206 74 L 206 90.363281 L 189.3125 90.363281 Z M 189.3125 74 "/>
</clipPath>
<clipPath id="clip-18">
<path clip-rule="nonzero" d="M 181 65.347656 L 206.226562 65.347656 L 206.226562 98.90625 L 181 98.90625 Z M 181 65.347656 "/>
</clipPath>
<clipPath id="clip-19">
<path clip-rule="nonzero" d="M 140.5 31 L 206.226562 31 L 206.226562 77.550781 L 140.5 77.550781 Z M 140.5 31 "/>
</clipPath>
<clipPath id="clip-20">
<path clip-rule="nonzero" d="M 147 13.058594 L 153 13.058594 L 153 18 L 147 18 Z M 147 13.058594 "/>
</clipPath>
<clipPath id="clip-21">
<path clip-rule="nonzero" d="M 177 13.058594 L 180 13.058594 L 180 18 L 177 18 Z M 177 13.058594 "/>
</clipPath>
<clipPath id="clip-22">
<path clip-rule="nonzero" d="M 189 13.058594 L 193 13.058594 L 193 18 L 189 18 Z M 189 13.058594 "/>
</clipPath>
</defs>
<path fill="none" stroke-width="0.458" stroke-linecap="round" stroke-linejoin="miter" stroke="rgb(81.999207%, 82.699585%, 83.099365%)" stroke-opacity="1" stroke-dasharray="1.22 1.83" stroke-miterlimit="10" d="M 0.0018375 0.00100625 L 53.997931 0.00100625 " transform="matrix(1, 0, 0, -1, 6.7091, 31.9346)"/>
<path fill="none" stroke-width="0.458" stroke-linecap="round" stroke-linejoin="miter" stroke="rgb(81.999207%, 82.699585%, 83.099365%)" stroke-opacity="1" stroke-dasharray="1.22 1.83" stroke-miterlimit="10" d="M 0.0018375 0.00170625 L 53.997931 0.00170625 " transform="matrix(1, 0, 0, -1, 6.7091, 50.5603)"/>
<path fill="none" stroke-width="0.458" stroke-linecap="round" stroke-linejoin="miter" stroke="rgb(81.999207%, 82.699585%, 83.099365%)" stroke-opacity="1" stroke-dasharray="1.22 1.83" stroke-miterlimit="10" d="M 0.0018375 0.0000625 L 53.997931 0.0000625 " transform="matrix(1, 0, 0, -1, 6.7091, 69.086)"/>
<path fill="none" stroke-width="0.458" stroke-linecap="round" stroke-linejoin="miter" stroke="rgb(81.999207%, 82.699585%, 83.099365%)" stroke-opacity="1" stroke-dasharray="1.22 1.83" stroke-miterlimit="10" d="M 0.0018375 0.00081875 L 53.997931 0.00081875 " transform="matrix(1, 0, 0, -1, 6.7091, 87.6141)"/>
<path fill="none" stroke-width="0.61" stroke-linecap="butt" stroke-linejoin="miter" stroke="rgb(42.698669%, 43.099976%, 44.299316%)" stroke-opacity="1" stroke-miterlimit="10" d="M 0.0008375 0.0011375 L 5.860212 -10.748863 " transform="matrix(1, 0, 0, -1, 28.7101, 32.1652)"/>
<path fill-rule="nonzero" fill="rgb(42.698669%, 43.099976%, 44.299316%)" fill-opacity="1" d="M 33.332031 43.183594 L 35.410156 44.449219 L 35.46875 42.019531 Z M 33.332031 43.183594 "/>
<path fill="none" stroke-width="0.61" stroke-linecap="butt" stroke-linejoin="miter" stroke="rgb(42.698669%, 43.099976%, 44.299316%)" stroke-opacity="1" stroke-miterlimit="10" d="M -0.0005375 0.00170625 L 6.268994 -10.900638 " transform="matrix(1, 0, 0, -1, 19.7271, 50.5603)"/>
<path fill-rule="nonzero" fill="rgb(42.698669%, 43.099976%, 44.299316%)" fill-opacity="1" d="M 24.761719 61.757812 L 26.867188 62.976562 L 26.871094 60.542969 Z M 24.761719 61.757812 "/>
<path fill="none" stroke-width="0.61" stroke-linecap="butt" stroke-linejoin="miter" stroke="rgb(42.698669%, 43.099976%, 44.299316%)" stroke-opacity="1" stroke-miterlimit="10" d="M 0.0005125 -0.001375 L 11.516138 -29.114656 " transform="matrix(1, 0, 0, -1, 38.3198, 50.2955)"/>
<path fill-rule="nonzero" fill="rgb(42.698669%, 43.099976%, 44.299316%)" fill-opacity="1" d="M 48.574219 79.527344 L 50.480469 81.042969 L 50.835938 78.632812 Z M 48.574219 79.527344 "/>
<path fill-rule="nonzero" fill="rgb(90.19928%, 90.59906%, 90.99884%)" fill-opacity="1" d="M 35.058594 31.933594 C 35.058594 35.640625 32.054688 38.648438 28.34375 38.648438 C 24.640625 38.648438 21.632812 35.640625 21.632812 31.933594 C 21.632812 28.226562 24.640625 25.222656 28.34375 25.222656 C 32.054688 25.222656 35.058594 28.226562 35.058594 31.933594 "/>
<path fill="none" stroke-width="0.61" stroke-linecap="butt" stroke-linejoin="miter" stroke="rgb(100%, 100%, 100%)" stroke-opacity="1" stroke-miterlimit="10" d="M 0.00179375 0.00100625 C 0.00179375 -3.706025 -3.002112 -6.713837 -6.71305 -6.713837 C -10.416175 -6.713837 -13.423987 -3.706025 -13.423987 0.00100625 C -13.423987 3.708038 -10.416175 6.711944 -6.71305 6.711944 C -3.002112 6.711944 0.00179375 3.708038 0.00179375 0.00100625 Z M 0.00179375 0.00100625 " transform="matrix(1, 0, 0, -1, 35.0568, 31.9346)"/>
<path fill-rule="nonzero" fill="rgb(90.19928%, 90.59906%, 90.99884%)" fill-opacity="1" d="M 45.558594 50.558594 C 45.558594 54.265625 42.554688 57.273438 38.847656 57.273438 C 35.140625 57.273438 32.136719 54.265625 32.136719 50.558594 C 32.136719 46.855469 35.140625 43.847656 38.847656 43.847656 C 42.554688 43.847656 45.558594 46.855469 45.558594 50.558594 "/>
<path fill="none" stroke-width="0.61" stroke-linecap="butt" stroke-linejoin="miter" stroke="rgb(100%, 100%, 100%)" stroke-opacity="1" stroke-miterlimit="10" d="M -0.00180625 0.00170625 C -0.00180625 -3.705325 -3.005713 -6.713138 -6.712744 -6.713138 C -10.419775 -6.713138 -13.423681 -3.705325 -13.423681 0.00170625 C -13.423681 3.704831 -10.419775 6.712644 -6.712744 6.712644 C -3.005713 6.712644 -0.00180625 3.704831 -0.00180625 0.00170625 Z M -0.00180625 0.00170625 " transform="matrix(1, 0, 0, -1, 45.5604, 50.5603)"/>
<path fill-rule="nonzero" fill="rgb(90.19928%, 90.59906%, 90.99884%)" fill-opacity="1" d="M 26.4375 50.558594 C 26.4375 54.265625 23.433594 57.273438 19.726562 57.273438 C 16.019531 57.273438 13.015625 54.265625 13.015625 50.558594 C 13.015625 46.855469 16.019531 43.847656 19.726562 43.847656 C 23.433594 43.847656 26.4375 46.855469 26.4375 50.558594 "/>
<path fill="none" stroke-width="0.61" stroke-linecap="butt" stroke-linejoin="miter" stroke="rgb(100%, 100%, 100%)" stroke-opacity="1" stroke-miterlimit="10" d="M -0.0011 0.00170625 C -0.0011 -3.705325 -3.005006 -6.713138 -6.712037 -6.713138 C -10.419069 -6.713138 -13.422975 -3.705325 -13.422975 0.00170625 C -13.422975 3.704831 -10.419069 6.712644 -6.712037 6.712644 C -3.005006 6.712644 -0.0011 3.704831 -0.0011 0.00170625 Z M -0.0011 0.00170625 " transform="matrix(1, 0, 0, -1, 26.4386, 50.5603)"/>
<path fill-rule="nonzero" fill="rgb(90.19928%, 90.59906%, 90.99884%)" fill-opacity="1" d="M 37.039062 69.085938 C 37.039062 72.792969 34.035156 75.796875 30.328125 75.796875 C 26.621094 75.796875 23.617188 72.792969 23.617188 69.085938 C 23.617188 65.378906 26.621094 62.375 30.328125 62.375 C 34.035156 62.375 37.039062 65.378906 37.039062 69.085938 "/>
<path fill="none" stroke-width="0.61" stroke-linecap="butt" stroke-linejoin="miter" stroke="rgb(100%, 100%, 100%)" stroke-opacity="1" stroke-miterlimit="10" d="M -0.0007375 0.0000625 C -0.0007375 -3.706969 -3.004644 -6.710875 -6.711675 -6.710875 C -10.418706 -6.710875 -13.422612 -3.706969 -13.422612 0.0000625 C -13.422612 3.707094 -10.418706 6.711 -6.711675 6.711 C -3.004644 6.711 -0.0007375 3.707094 -0.0007375 0.0000625 Z M -0.0007375 0.0000625 " transform="matrix(1, 0, 0, -1, 37.0398, 69.086)"/>
<path fill-rule="nonzero" fill="rgb(90.19928%, 90.59906%, 90.99884%)" fill-opacity="1" d="M 59.628906 87.613281 C 59.628906 91.320312 56.625 94.324219 52.917969 94.324219 C 49.210938 94.324219 46.207031 91.320312 46.207031 87.613281 C 46.207031 83.90625 49.210938 80.902344 52.917969 80.902344 C 56.625 80.902344 59.628906 83.90625 59.628906 87.613281 "/>
<path fill="none" stroke-width="0.61" stroke-linecap="butt" stroke-linejoin="miter" stroke="rgb(100%, 100%, 100%)" stroke-opacity="1" stroke-miterlimit="10" d="M -0.00009375 0.00081875 C -0.00009375 -3.706213 -3.004 -6.710119 -6.711031 -6.710119 C -10.418063 -6.710119 -13.421969 -3.706213 -13.421969 0.00081875 C -13.421969 3.70785 -10.418063 6.711756 -6.711031 6.711756 C -3.004 6.711756 -0.00009375 3.70785 -0.00009375 0.00081875 Z M -0.00009375 0.00081875 " transform="matrix(1, 0, 0, -1, 59.629, 87.6141)"/>
<path fill="none" stroke-width="0.61" stroke-linecap="butt" stroke-linejoin="miter" stroke="rgb(61.199951%, 61.999512%, 62.69989%)" stroke-opacity="1" stroke-miterlimit="10" d="M -0.0013625 -0.00176875 L 60.88145 -0.00176875 " transform="matrix(1, 0, 0, -1, 0.2123, 97.2287)"/>
<path fill-rule="nonzero" fill="rgb(61.199951%, 61.999512%, 62.69989%)" fill-opacity="1" d="M 60.648438 98.75 L 63.28125 97.230469 L 60.648438 95.707031 Z M 60.648438 98.75 "/>
<path fill="none" stroke-width="1.22" stroke-linecap="round" stroke-linejoin="miter" stroke="rgb(93.299866%, 64.698792%, 35.299683%)" stroke-opacity="1" stroke-dasharray="0.305 1.83" stroke-miterlimit="10" d="M -0.0013375 0.0010875 C -0.0013375 0.0010875 13.170537 -17.702038 10.662725 -18.295788 C 6.119756 -19.373913 -8.723994 -16.909069 -6.872431 -21.264538 C -5.630244 -24.198131 -1.489619 -29.862194 1.088506 -33.260631 " transform="matrix(1, 0, 0, -1, 24.9779, 33.3214)"/>
<path fill-rule="nonzero" fill="rgb(93.299866%, 64.698792%, 35.299683%)" fill-opacity="1" d="M 23.722656 67.464844 L 28.210938 69.351562 L 27.601562 64.523438 Z M 23.722656 67.464844 "/>
<g clip-path="url(#clip-0)">
<path fill="none" stroke-width="1.22" stroke-linecap="round" stroke-linejoin="miter" stroke="rgb(47.499084%, 64.299011%, 80.39856%)" stroke-opacity="1" stroke-dasharray="1.83 1.83" stroke-miterlimit="10" d="M -0.00173125 0.00188125 C -0.00173125 0.00188125 8.318581 -9.740306 12.677956 -19.646556 C 16.7053 -28.810619 21.584206 -41.783275 23.787331 -52.537181 " transform="matrix(1, 0, 0, -1, 30.2947, 31.0761)"/>
</g>
<path fill-rule="nonzero" fill="rgb(47.499084%, 64.299011%, 80.39856%)" fill-opacity="1" d="M 52.15625 83.449219 L 54.5625 86.195312 L 55.738281 82.738281 Z M 52.15625 83.449219 "/>
<g clip-path="url(#clip-1)">
<path fill-rule="nonzero" fill="rgb(13.699341%, 12.199402%, 12.5%)" fill-opacity="1" d="M 28.730469 99.699219 L 28.730469 100.222656 L 27.253906 100.222656 L 27.253906 104.078125 L 26.652344 104.078125 L 26.652344 100.222656 L 25.175781 100.222656 L 25.175781 99.699219 Z M 28.730469 99.699219 "/>
</g>
<g clip-path="url(#clip-2)">
<path fill-rule="nonzero" fill="rgb(13.699341%, 12.199402%, 12.5%)" fill-opacity="1" d="M 28.972656 100.902344 L 29.519531 100.902344 L 29.519531 104.078125 L 28.972656 104.078125 Z M 28.972656 99.699219 L 29.519531 99.699219 L 29.519531 100.308594 L 28.972656 100.308594 Z M 28.972656 99.699219 "/>
</g>
<g clip-path="url(#clip-3)">
<path fill-rule="nonzero" fill="rgb(13.699341%, 12.199402%, 12.5%)" fill-opacity="1" d="M 30.328125 100.882812 L 30.863281 100.882812 L 30.863281 101.339844 C 30.988281 101.183594 31.101562 101.066406 31.207031 100.996094 C 31.382812 100.878906 31.582031 100.816406 31.804688 100.816406 C 32.058594 100.816406 32.265625 100.878906 32.425781 100.996094 C 32.507812 101.074219 32.585938 101.183594 32.664062 101.320312 C 32.777344 101.148438 32.914062 101.023438 33.074219 100.9375 C 33.238281 100.859375 33.421875 100.816406 33.625 100.816406 C 34.050781 100.816406 34.34375 100.972656 34.496094 101.28125 C 34.582031 101.449219 34.628906 101.671875 34.628906 101.949219 L 34.628906 104.078125 L 34.066406 104.078125 L 34.066406 101.855469 C 34.066406 101.644531 34.011719 101.503906 33.902344 101.425781 C 33.800781 101.34375 33.675781 101.300781 33.519531 101.300781 C 33.3125 101.300781 33.132812 101.375 32.976562 101.511719 C 32.828125 101.652344 32.75 101.886719 32.75 102.21875 L 32.75 104.078125 L 32.207031 104.078125 L 32.207031 102 C 32.207031 101.777344 32.175781 101.617188 32.121094 101.519531 C 32.042969 101.367188 31.894531 101.292969 31.671875 101.292969 C 31.46875 101.292969 31.28125 101.375 31.121094 101.53125 C 30.953125 101.691406 30.871094 101.972656 30.871094 102.378906 L 30.871094 104.078125 L 30.328125 104.078125 Z M 30.328125 100.882812 "/>
</g>
<g clip-path="url(#clip-4)">
<path fill-rule="nonzero" fill="rgb(13.699341%, 12.199402%, 12.5%)" fill-opacity="1" d="M 36.746094 100.816406 C 36.964844 100.816406 37.183594 100.871094 37.390625 100.976562 C 37.609375 101.082031 37.773438 101.214844 37.886719 101.386719 C 37.996094 101.546875 38.066406 101.734375 38.097656 101.949219 C 38.128906 102.097656 38.144531 102.332031 38.144531 102.65625 L 35.808594 102.65625 C 35.816406 102.980469 35.886719 103.242188 36.03125 103.4375 C 36.175781 103.628906 36.402344 103.722656 36.707031 103.722656 C 36.984375 103.722656 37.207031 103.632812 37.375 103.449219 C 37.46875 103.339844 37.535156 103.214844 37.574219 103.074219 L 38.097656 103.074219 C 38.082031 103.191406 38.042969 103.320312 37.964844 103.464844 C 37.886719 103.613281 37.796875 103.730469 37.699219 103.820312 C 37.539062 103.980469 37.335938 104.085938 37.097656 104.144531 C 36.96875 104.171875 36.824219 104.191406 36.660156 104.191406 C 36.257812 104.191406 35.917969 104.046875 35.648438 103.761719 C 35.375 103.46875 35.238281 103.0625 35.238281 102.539062 C 35.238281 102.027344 35.375 101.613281 35.648438 101.292969 C 35.925781 100.976562 36.292969 100.816406 36.746094 100.816406 M 37.59375 102.226562 C 37.574219 101.992188 37.523438 101.804688 37.441406 101.664062 C 37.292969 101.410156 37.050781 101.28125 36.707031 101.28125 C 36.457031 101.28125 36.25 101.375 36.085938 101.550781 C 35.917969 101.730469 35.832031 101.953125 35.820312 102.226562 Z M 37.59375 102.226562 "/>
</g>
<g clip-path="url(#clip-5)">
<path fill-rule="nonzero" fill="rgb(13.699341%, 12.199402%, 12.5%)" fill-opacity="1" d="M 3.554688 13.183594 L 3.554688 13.707031 L 2.078125 13.707031 L 2.078125 17.558594 L 1.476562 17.558594 L 1.476562 13.707031 L 0 13.707031 L 0 13.183594 Z M 3.554688 13.183594 "/>
</g>
<path fill-rule="nonzero" fill="rgb(13.699341%, 12.199402%, 12.5%)" fill-opacity="1" d="M 4.679688 14.296875 C 4.902344 14.296875 5.121094 14.351562 5.328125 14.460938 C 5.542969 14.5625 5.710938 14.699219 5.824219 14.871094 C 5.933594 15.03125 6 15.21875 6.035156 15.433594 C 6.066406 15.582031 6.082031 15.8125 6.082031 16.136719 L 3.746094 16.136719 C 3.75 16.460938 3.824219 16.722656 3.964844 16.917969 C 4.109375 17.109375 4.335938 17.207031 4.644531 17.207031 C 4.921875 17.207031 5.144531 17.113281 5.308594 16.929688 C 5.40625 16.820312 5.472656 16.699219 5.511719 16.554688 L 6.035156 16.554688 C 6.019531 16.671875 5.976562 16.800781 5.902344 16.949219 C 5.824219 17.09375 5.734375 17.210938 5.632812 17.300781 C 5.476562 17.460938 5.273438 17.566406 5.035156 17.625 C 4.90625 17.65625 4.761719 17.671875 4.59375 17.671875 C 4.195312 17.671875 3.855469 17.53125 3.585938 17.242188 C 3.3125 16.953125 3.175781 16.546875 3.175781 16.023438 C 3.175781 15.507812 3.3125 15.09375 3.585938 14.773438 C 3.863281 14.457031 4.226562 14.296875 4.679688 14.296875 M 5.527344 15.707031 C 5.511719 15.476562 5.457031 15.285156 5.378906 15.144531 C 5.230469 14.894531 4.984375 14.765625 4.644531 14.765625 C 4.394531 14.765625 4.1875 14.855469 4.023438 15.03125 C 3.855469 15.210938 3.769531 15.4375 3.757812 15.707031 Z M 5.527344 15.707031 "/>
<path fill-rule="nonzero" fill="rgb(13.699341%, 12.199402%, 12.5%)" fill-opacity="1" d="M 6.738281 14.363281 L 7.273438 14.363281 L 7.273438 14.824219 C 7.398438 14.664062 7.511719 14.550781 7.613281 14.476562 C 7.792969 14.359375 7.992188 14.296875 8.214844 14.296875 C 8.46875 14.296875 8.675781 14.359375 8.835938 14.476562 C 8.914062 14.554688 8.996094 14.664062 9.074219 14.800781 C 9.1875 14.632812 9.324219 14.503906 9.484375 14.421875 C 9.648438 14.339844 9.832031 14.296875 10.035156 14.296875 C 10.460938 14.296875 10.75 14.453125 10.902344 14.765625 C 10.992188 14.929688 11.039062 15.152344 11.039062 15.433594 L 11.039062 17.558594 L 10.476562 17.558594 L 10.476562 15.335938 C 10.476562 15.128906 10.417969 14.984375 10.3125 14.90625 C 10.210938 14.828125 10.082031 14.785156 9.929688 14.785156 C 9.722656 14.785156 9.539062 14.855469 9.386719 14.992188 C 9.234375 15.132812 9.160156 15.371094 9.160156 15.699219 L 9.160156 17.558594 L 8.617188 17.558594 L 8.617188 15.480469 C 8.617188 15.257812 8.585938 15.097656 8.53125 15.003906 C 8.453125 14.851562 8.304688 14.773438 8.082031 14.773438 C 7.875 14.773438 7.691406 14.855469 7.527344 15.011719 C 7.363281 15.171875 7.28125 15.457031 7.28125 15.863281 L 7.28125 17.558594 L 6.738281 17.558594 Z M 6.738281 14.363281 "/>
<path fill-rule="nonzero" fill="rgb(13.699341%, 12.199402%, 12.5%)" fill-opacity="1" d="M 13.175781 17.195312 C 13.421875 17.195312 13.628906 17.089844 13.792969 16.882812 C 13.960938 16.671875 14.042969 16.363281 14.042969 15.945312 C 14.042969 15.695312 14.007812 15.472656 13.9375 15.289062 C 13.796875 14.941406 13.542969 14.765625 13.175781 14.765625 C 12.800781 14.765625 12.546875 14.949219 12.414062 15.316406 C 12.335938 15.515625 12.296875 15.765625 12.296875 16.070312 C 12.296875 16.320312 12.335938 16.527344 12.414062 16.699219 C 12.546875 17.03125 12.800781 17.195312 13.175781 17.195312 M 11.785156 14.382812 L 12.308594 14.382812 L 12.308594 14.800781 C 12.40625 14.65625 12.523438 14.546875 12.652344 14.46875 C 12.835938 14.347656 13.046875 14.289062 13.289062 14.289062 C 13.652344 14.289062 13.960938 14.429688 14.214844 14.707031 C 14.46875 14.980469 14.59375 15.375 14.59375 15.890625 C 14.59375 16.589844 14.410156 17.089844 14.042969 17.386719 C 13.8125 17.570312 13.546875 17.664062 13.242188 17.664062 C 13 17.664062 12.800781 17.609375 12.640625 17.511719 C 12.546875 17.449219 12.4375 17.34375 12.316406 17.195312 L 12.316406 18.824219 L 11.785156 18.824219 Z M 11.785156 14.382812 "/>
<path fill-rule="nonzero" fill="rgb(13.699341%, 12.199402%, 12.5%)" fill-opacity="1" d="M 16.480469 17.214844 C 16.835938 17.214844 17.082031 17.082031 17.214844 16.8125 C 17.347656 16.542969 17.414062 16.242188 17.414062 15.910156 C 17.414062 15.613281 17.367188 15.371094 17.273438 15.183594 C 17.121094 14.894531 16.855469 14.746094 16.488281 14.746094 C 16.160156 14.746094 15.917969 14.871094 15.765625 15.117188 C 15.617188 15.367188 15.546875 15.667969 15.546875 16.023438 C 15.546875 16.363281 15.617188 16.640625 15.765625 16.871094 C 15.917969 17.101562 16.15625 17.214844 16.480469 17.214844 M 16.5 14.277344 C 16.910156 14.277344 17.257812 14.417969 17.539062 14.6875 C 17.824219 14.960938 17.96875 15.367188 17.96875 15.898438 C 17.96875 16.414062 17.84375 16.839844 17.597656 17.175781 C 17.347656 17.507812 16.960938 17.671875 16.433594 17.671875 C 15.996094 17.671875 15.644531 17.527344 15.386719 17.234375 C 15.121094 16.933594 14.992188 16.535156 14.992188 16.03125 C 14.992188 15.5 15.128906 15.074219 15.402344 14.753906 C 15.675781 14.4375 16.042969 14.277344 16.5 14.277344 "/>
<path fill-rule="nonzero" fill="rgb(13.699341%, 12.199402%, 12.5%)" fill-opacity="1" d="M 18.625 14.363281 L 19.128906 14.363281 L 19.128906 14.917969 C 19.175781 14.808594 19.277344 14.679688 19.4375 14.527344 C 19.601562 14.375 19.792969 14.296875 20.007812 14.296875 L 20.054688 14.296875 C 20.078125 14.296875 20.121094 14.300781 20.179688 14.308594 L 20.179688 14.878906 C 20.148438 14.875 20.117188 14.871094 20.085938 14.871094 C 20.058594 14.863281 20.03125 14.859375 20 14.859375 C 19.730469 14.859375 19.523438 14.949219 19.378906 15.128906 C 19.230469 15.296875 19.160156 15.496094 19.160156 15.71875 L 19.160156 17.558594 L 18.625 17.558594 Z M 18.625 14.363281 "/>
<path fill-rule="nonzero" fill="rgb(13.699341%, 12.199402%, 12.5%)" fill-opacity="1" d="M 21.046875 16.710938 C 21.046875 16.863281 21.105469 16.984375 21.21875 17.070312 C 21.332031 17.160156 21.46875 17.207031 21.621094 17.207031 C 21.808594 17.207031 21.992188 17.164062 22.171875 17.082031 C 22.46875 16.933594 22.621094 16.695312 22.621094 16.367188 L 22.621094 15.9375 C 22.550781 15.976562 22.464844 16.011719 22.363281 16.042969 C 22.261719 16.066406 22.15625 16.085938 22.058594 16.097656 L 21.734375 16.136719 C 21.542969 16.164062 21.394531 16.203125 21.296875 16.261719 C 21.128906 16.355469 21.046875 16.507812 21.046875 16.710938 M 22.351562 15.621094 C 22.472656 15.609375 22.554688 15.5625 22.601562 15.46875 C 22.621094 15.421875 22.628906 15.351562 22.628906 15.261719 C 22.628906 15.085938 22.5625 14.953125 22.429688 14.867188 C 22.300781 14.789062 22.117188 14.746094 21.875 14.746094 C 21.597656 14.746094 21.402344 14.820312 21.285156 14.964844 C 21.214844 15.054688 21.171875 15.179688 21.152344 15.335938 L 20.65625 15.335938 C 20.660156 14.949219 20.789062 14.679688 21.039062 14.527344 C 21.285156 14.367188 21.570312 14.289062 21.894531 14.289062 C 22.269531 14.289062 22.574219 14.363281 22.800781 14.507812 C 23.035156 14.648438 23.15625 14.867188 23.15625 15.175781 L 23.15625 17.003906 C 23.15625 17.0625 23.164062 17.109375 23.183594 17.148438 C 23.207031 17.179688 23.257812 17.195312 23.335938 17.195312 L 23.410156 17.195312 C 23.441406 17.191406 23.472656 17.183594 23.507812 17.175781 L 23.507812 17.578125 C 23.421875 17.597656 23.359375 17.609375 23.316406 17.613281 C 23.269531 17.621094 23.210938 17.625 23.136719 17.625 C 22.949219 17.625 22.816406 17.558594 22.734375 17.433594 C 22.691406 17.363281 22.660156 17.265625 22.648438 17.140625 C 22.535156 17.277344 22.375 17.402344 22.171875 17.511719 C 21.96875 17.609375 21.742188 17.664062 21.496094 17.664062 C 21.203125 17.664062 20.960938 17.570312 20.769531 17.394531 C 20.585938 17.21875 20.496094 16.992188 20.496094 16.71875 C 20.496094 16.429688 20.585938 16.199219 20.769531 16.03125 C 20.953125 15.867188 21.195312 15.765625 21.496094 15.726562 Z M 22.351562 15.621094 "/>
<g clip-path="url(#clip-6)">
<path fill-rule="nonzero" fill="rgb(13.699341%, 12.199402%, 12.5%)" fill-opacity="1" d="M 24.046875 13.183594 L 24.582031 13.183594 L 24.582031 17.558594 L 24.046875 17.558594 Z M 24.046875 13.183594 "/>
</g>
<g clip-path="url(#clip-7)">
<path fill-rule="nonzero" fill="rgb(13.699341%, 12.199402%, 12.5%)" fill-opacity="1" d="M 27.421875 16.003906 C 27.421875 16.34375 27.492188 16.628906 27.644531 16.863281 C 27.789062 17.089844 28.019531 17.203125 28.335938 17.203125 C 28.585938 17.203125 28.789062 17.101562 28.949219 16.890625 C 29.105469 16.675781 29.1875 16.367188 29.1875 15.964844 C 29.1875 15.5625 29.101562 15.261719 28.9375 15.070312 C 28.773438 14.875 28.570312 14.773438 28.328125 14.773438 C 28.0625 14.773438 27.84375 14.878906 27.671875 15.089844 C 27.503906 15.292969 27.421875 15.597656 27.421875 16.003906 M 28.234375 14.308594 C 28.472656 14.308594 28.675781 14.363281 28.84375 14.46875 C 28.9375 14.527344 29.046875 14.628906 29.167969 14.773438 L 29.167969 13.164062 L 29.683594 13.164062 L 29.683594 17.558594 L 29.195312 17.558594 L 29.195312 17.109375 C 29.074219 17.308594 28.929688 17.449219 28.757812 17.539062 C 28.585938 17.625 28.386719 17.671875 28.167969 17.671875 C 27.808594 17.671875 27.5 17.523438 27.242188 17.222656 C 26.988281 16.925781 26.859375 16.527344 26.859375 16.03125 C 26.859375 15.570312 26.976562 15.164062 27.214844 14.820312 C 27.445312 14.480469 27.789062 14.308594 28.234375 14.308594 "/>
</g>
<path fill-rule="nonzero" fill="rgb(13.699341%, 12.199402%, 12.5%)" fill-opacity="1" d="M 30.882812 16.710938 C 30.882812 16.863281 30.941406 16.984375 31.054688 17.070312 C 31.167969 17.160156 31.304688 17.207031 31.457031 17.207031 C 31.648438 17.207031 31.828125 17.164062 32.007812 17.082031 C 32.304688 16.933594 32.457031 16.695312 32.457031 16.367188 L 32.457031 15.9375 C 32.386719 15.976562 32.300781 16.011719 32.199219 16.042969 C 32.097656 16.066406 31.996094 16.085938 31.894531 16.097656 L 31.570312 16.136719 C 31.378906 16.164062 31.230469 16.203125 31.132812 16.261719 C 30.964844 16.355469 30.882812 16.507812 30.882812 16.710938 M 32.191406 15.621094 C 32.308594 15.609375 32.390625 15.5625 32.4375 15.46875 C 32.457031 15.421875 32.464844 15.351562 32.464844 15.261719 C 32.464844 15.085938 32.398438 14.953125 32.265625 14.867188 C 32.136719 14.789062 31.953125 14.746094 31.714844 14.746094 C 31.433594 14.746094 31.238281 14.820312 31.121094 14.964844 C 31.050781 15.054688 31.007812 15.179688 30.988281 15.335938 L 30.492188 15.335938 C 30.496094 14.949219 30.625 14.679688 30.875 14.527344 C 31.121094 14.367188 31.410156 14.289062 31.734375 14.289062 C 32.105469 14.289062 32.410156 14.363281 32.636719 14.507812 C 32.871094 14.648438 32.992188 14.867188 32.992188 15.175781 L 32.992188 17.003906 C 32.992188 17.0625 33 17.109375 33.019531 17.148438 C 33.042969 17.179688 33.09375 17.195312 33.171875 17.195312 L 33.246094 17.195312 C 33.277344 17.191406 33.308594 17.183594 33.34375 17.175781 L 33.34375 17.578125 C 33.257812 17.597656 33.195312 17.609375 33.152344 17.613281 C 33.109375 17.621094 33.046875 17.625 32.972656 17.625 C 32.785156 17.625 32.652344 17.558594 32.570312 17.433594 C 32.527344 17.363281 32.496094 17.265625 32.484375 17.140625 C 32.371094 17.277344 32.210938 17.402344 32.007812 17.511719 C 31.804688 17.609375 31.578125 17.664062 31.332031 17.664062 C 31.039062 17.664062 30.796875 17.570312 30.609375 17.394531 C 30.421875 17.21875 30.332031 16.992188 30.332031 16.71875 C 30.332031 16.429688 30.421875 16.199219 30.609375 16.03125 C 30.789062 15.867188 31.03125 15.765625 31.332031 15.726562 Z M 32.191406 15.621094 "/>
<g clip-path="url(#clip-8)">
<path fill-rule="nonzero" fill="rgb(13.699341%, 12.199402%, 12.5%)" fill-opacity="1" d="M 33.980469 13.476562 L 34.511719 13.476562 L 34.511719 14.363281 L 35.027344 14.363281 L 35.027344 14.804688 L 34.511719 14.804688 L 34.511719 16.890625 C 34.511719 17 34.550781 17.070312 34.628906 17.109375 C 34.671875 17.136719 34.742188 17.148438 34.835938 17.148438 L 34.921875 17.148438 C 34.953125 17.144531 34.992188 17.140625 35.027344 17.140625 L 35.027344 17.558594 C 34.964844 17.578125 34.898438 17.589844 34.828125 17.597656 C 34.765625 17.601562 34.695312 17.605469 34.617188 17.605469 C 34.371094 17.605469 34.203125 17.542969 34.113281 17.414062 C 34.023438 17.289062 33.980469 17.125 33.980469 16.917969 L 33.980469 14.804688 L 33.542969 14.804688 L 33.542969 14.363281 L 33.980469 14.363281 Z M 33.980469 13.476562 "/>
</g>
<path fill-rule="nonzero" fill="rgb(13.699341%, 12.199402%, 12.5%)" fill-opacity="1" d="M 35.972656 16.710938 C 35.972656 16.863281 36.027344 16.984375 36.144531 17.070312 C 36.257812 17.160156 36.390625 17.207031 36.542969 17.207031 C 36.734375 17.207031 36.917969 17.164062 37.097656 17.082031 C 37.394531 16.933594 37.546875 16.695312 37.546875 16.367188 L 37.546875 15.9375 C 37.472656 15.976562 37.386719 16.011719 37.285156 16.042969 C 37.183594 16.066406 37.082031 16.085938 36.980469 16.097656 L 36.65625 16.136719 C 36.46875 16.164062 36.320312 16.203125 36.21875 16.261719 C 36.054688 16.355469 35.972656 16.507812 35.972656 16.710938 M 37.277344 15.621094 C 37.398438 15.609375 37.480469 15.5625 37.527344 15.46875 C 37.546875 15.421875 37.554688 15.351562 37.554688 15.261719 C 37.554688 15.085938 37.488281 14.953125 37.355469 14.867188 C 37.226562 14.789062 37.042969 14.746094 36.800781 14.746094 C 36.519531 14.746094 36.324219 14.820312 36.210938 14.964844 C 36.140625 15.054688 36.097656 15.179688 36.078125 15.335938 L 35.582031 15.335938 C 35.585938 14.949219 35.714844 14.679688 35.960938 14.527344 C 36.210938 14.367188 36.496094 14.289062 36.820312 14.289062 C 37.195312 14.289062 37.496094 14.363281 37.726562 14.507812 C 37.960938 14.648438 38.078125 14.867188 38.078125 15.175781 L 38.078125 17.003906 C 38.078125 17.0625 38.089844 17.109375 38.105469 17.148438 C 38.132812 17.179688 38.183594 17.195312 38.261719 17.195312 L 38.335938 17.195312 C 38.367188 17.191406 38.398438 17.183594 38.429688 17.175781 L 38.429688 17.578125 C 38.347656 17.597656 38.285156 17.609375 38.242188 17.613281 C 38.195312 17.621094 38.136719 17.625 38.058594 17.625 C 37.875 17.625 37.738281 17.558594 37.660156 17.433594 C 37.613281 17.363281 37.585938 17.265625 37.574219 17.140625 C 37.460938 17.277344 37.300781 17.402344 37.097656 17.511719 C 36.890625 17.609375 36.667969 17.664062 36.421875 17.664062 C 36.128906 17.664062 35.886719 17.570312 35.695312 17.394531 C 35.511719 17.21875 35.417969 16.992188 35.417969 16.71875 C 35.417969 16.429688 35.511719 16.199219 35.695312 16.03125 C 35.878906 15.867188 36.121094 15.765625 36.421875 15.726562 Z M 37.277344 15.621094 "/>
<path fill-rule="nonzero" fill="rgb(50.19989%, 50.999451%, 52.198792%)" fill-opacity="1" d="M 2.335938 32.746094 L 1.039062 32.746094 L 0.800781 33.46875 L 0.0273438 33.46875 L 1.285156 29.953125 L 2.117188 29.953125 L 3.355469 33.46875 L 2.566406 33.46875 Z M 2.125 32.144531 L 1.6875 30.761719 L 1.238281 32.144531 Z M 2.125 32.144531 "/>
<path fill-rule="nonzero" fill="rgb(50.19989%, 50.999451%, 52.198792%)" fill-opacity="1" d="M 1.835938 52.09375 L 0.246094 52.09375 L 0.246094 48.578125 L 1.953125 48.578125 C 2.382812 48.585938 2.6875 48.710938 2.867188 48.957031 C 2.976562 49.105469 3.03125 49.28125 3.03125 49.492188 C 3.03125 49.707031 2.976562 49.878906 2.867188 50.007812 C 2.808594 50.082031 2.71875 50.148438 2.601562 50.207031 C 2.785156 50.273438 2.917969 50.375 3.011719 50.523438 C 3.097656 50.664062 3.144531 50.832031 3.144531 51.035156 C 3.144531 51.242188 3.089844 51.425781 2.992188 51.589844 C 2.917969 51.703125 2.839844 51.796875 2.742188 51.867188 C 2.628906 51.957031 2.496094 52.015625 2.34375 52.046875 C 2.191406 52.082031 2.019531 52.09375 1.835938 52.09375 M 1.828125 50.550781 L 0.949219 50.550781 L 0.949219 51.484375 L 1.808594 51.484375 C 1.964844 51.484375 2.085938 51.464844 2.171875 51.417969 C 2.328125 51.34375 2.410156 51.195312 2.410156 50.980469 C 2.410156 50.804688 2.332031 50.679688 2.179688 50.609375 C 2.097656 50.570312 1.980469 50.550781 1.828125 50.550781 M 2.191406 49.875 C 2.285156 49.816406 2.332031 49.71875 2.332031 49.570312 C 2.332031 49.402344 2.269531 49.296875 2.144531 49.246094 C 2.03125 49.207031 1.894531 49.1875 1.722656 49.1875 L 0.949219 49.1875 L 0.949219 49.96875 L 1.808594 49.96875 C 1.964844 49.96875 2.09375 49.9375 2.191406 49.875 "/>
<path fill-rule="nonzero" fill="rgb(50.19989%, 50.999451%, 52.198792%)" fill-opacity="1" d="M 2.714844 70.355469 C 2.453125 70.597656 2.121094 70.71875 1.714844 70.71875 C 1.203125 70.71875 0.808594 70.554688 0.523438 70.230469 C 0.226562 69.910156 0.0820312 69.464844 0.0820312 68.898438 C 0.0820312 68.285156 0.246094 67.808594 0.578125 67.476562 C 0.867188 67.1875 1.226562 67.039062 1.664062 67.039062 C 2.257812 67.039062 2.6875 67.234375 2.960938 67.621094 C 3.113281 67.84375 3.195312 68.0625 3.210938 68.277344 L 2.476562 68.277344 C 2.425781 68.113281 2.363281 67.988281 2.296875 67.898438 C 2.160156 67.746094 1.960938 67.667969 1.695312 67.667969 C 1.425781 67.667969 1.21875 67.777344 1.066406 67.992188 C 0.914062 68.210938 0.835938 68.515625 0.835938 68.90625 C 0.835938 69.304688 0.914062 69.597656 1.074219 69.792969 C 1.238281 69.992188 1.449219 70.089844 1.703125 70.089844 C 1.957031 70.089844 2.152344 70.003906 2.285156 69.832031 C 2.363281 69.742188 2.425781 69.609375 2.476562 69.421875 L 3.199219 69.421875 C 3.136719 69.8125 2.972656 70.121094 2.714844 70.355469 "/>
<path fill-rule="nonzero" fill="rgb(50.19989%, 50.999451%, 52.198792%)" fill-opacity="1" d="M 1.75 89.152344 L 0.234375 89.152344 L 0.234375 85.636719 L 1.75 85.636719 C 1.964844 85.644531 2.148438 85.671875 2.296875 85.710938 C 2.542969 85.796875 2.742188 85.945312 2.894531 86.160156 C 3.015625 86.339844 3.097656 86.53125 3.144531 86.730469 C 3.1875 86.9375 3.210938 87.128906 3.210938 87.3125 C 3.210938 87.777344 3.113281 88.171875 2.925781 88.496094 C 2.667969 88.933594 2.277344 89.152344 1.75 89.152344 M 2.296875 86.53125 C 2.179688 86.339844 1.957031 86.246094 1.628906 86.246094 L 0.949219 86.246094 L 0.949219 88.542969 L 1.628906 88.542969 C 1.96875 88.542969 2.210938 88.371094 2.351562 88.027344 C 2.429688 87.84375 2.464844 87.625 2.464844 87.359375 C 2.464844 87.007812 2.410156 86.730469 2.296875 86.53125 "/>
<path fill="none" stroke-width="0.61" stroke-linecap="butt" stroke-linejoin="miter" stroke="rgb(42.698669%, 43.099976%, 44.299316%)" stroke-opacity="1" stroke-miterlimit="10" d="M -0.00045625 0.00154375 L 13.769075 -12.072675 " transform="matrix(1, 0, 0, -1, 82.9028, 44.9117)"/>
<path fill-rule="nonzero" fill="rgb(42.698669%, 43.099976%, 44.299316%)" fill-opacity="1" d="M 95.601562 57.664062 L 97.988281 58.136719 L 97.207031 55.835938 Z M 95.601562 57.664062 "/>
<path fill="none" stroke-width="0.61" stroke-linecap="butt" stroke-linejoin="miter" stroke="rgb(42.698669%, 43.099976%, 44.299316%)" stroke-opacity="1" stroke-miterlimit="10" d="M 0.00036875 -0.0001375 L 13.781619 11.972519 " transform="matrix(1, 0, 0, -1, 104.1051, 63.8358)"/>
<path fill-rule="nonzero" fill="rgb(42.698669%, 43.099976%, 44.299316%)" fill-opacity="1" d="M 118.417969 53.011719 L 119.207031 50.710938 L 116.820312 51.175781 Z M 118.417969 53.011719 "/>
<path fill="none" stroke-width="0.61" stroke-linecap="butt" stroke-linejoin="miter" stroke="rgb(42.698669%, 43.099976%, 44.299316%)" stroke-opacity="1" stroke-miterlimit="10" d="M -0.000875 -0.00050625 L 12.971781 -11.3091 " transform="matrix(1, 0, 0, -1, 104.6415, 64.1909)"/>
<path fill-rule="nonzero" fill="rgb(42.698669%, 43.099976%, 44.299316%)" fill-opacity="1" d="M 116.542969 76.179688 L 118.933594 76.648438 L 118.144531 74.347656 Z M 116.542969 76.179688 "/>
<path fill-rule="nonzero" fill="rgb(90.19928%, 90.59906%, 90.99884%)" fill-opacity="1" d="M 90.957031 44.910156 C 90.957031 49.363281 87.351562 52.96875 82.902344 52.96875 C 78.453125 52.96875 74.851562 49.363281 74.851562 44.910156 C 74.851562 40.464844 78.453125 36.859375 82.902344 36.859375 C 87.351562 36.859375 90.957031 40.464844 90.957031 44.910156 "/>
<path fill="none" stroke-width="0.61" stroke-linecap="butt" stroke-linejoin="miter" stroke="rgb(100%, 100%, 100%)" stroke-opacity="1" stroke-miterlimit="10" d="M 0.00103125 0.00154375 C 0.00103125 -4.451581 -3.604438 -8.05705 -8.053656 -8.05705 C -12.502875 -8.05705 -16.104438 -4.451581 -16.104438 0.00154375 C -16.104438 4.446856 -12.502875 8.052325 -8.053656 8.052325 C -3.604438 8.052325 0.00103125 4.446856 0.00103125 0.00154375 Z M 0.00103125 0.00154375 " transform="matrix(1, 0, 0, -1, 90.956, 44.9117)"/>
<path fill-rule="nonzero" fill="rgb(90.19928%, 90.59906%, 90.99884%)" fill-opacity="1" d="M 112.160156 63.835938 C 112.160156 68.28125 108.550781 71.890625 104.105469 71.890625 C 99.65625 71.890625 96.050781 68.28125 96.050781 63.835938 C 96.050781 59.390625 99.65625 55.78125 104.105469 55.78125 C 108.550781 55.78125 112.160156 59.390625 112.160156 63.835938 "/>
<path fill="none" stroke-width="0.61" stroke-linecap="butt" stroke-linejoin="miter" stroke="rgb(100%, 100%, 100%)" stroke-opacity="1" stroke-miterlimit="10" d="M 0.00175625 -0.0001375 C 0.00175625 -4.44545 -3.607619 -8.054825 -8.052931 -8.054825 C -12.50215 -8.054825 -16.107619 -4.44545 -16.107619 -0.0001375 C -16.107619 4.445175 -12.50215 8.05455 -8.052931 8.05455 C -3.607619 8.05455 0.00175625 4.445175 0.00175625 -0.0001375 Z M 0.00175625 -0.0001375 " transform="matrix(1, 0, 0, -1, 112.1584, 63.8358)"/>
<path fill-rule="nonzero" fill="rgb(90.19928%, 90.59906%, 90.99884%)" fill-opacity="1" d="M 133.261719 44.910156 C 133.261719 49.363281 129.65625 52.96875 125.207031 52.96875 C 120.757812 52.96875 117.15625 49.363281 117.15625 44.910156 C 117.15625 40.464844 120.757812 36.859375 125.207031 36.859375 C 129.65625 36.859375 133.261719 40.464844 133.261719 44.910156 "/>
<path fill="none" stroke-width="0.61" stroke-linecap="butt" stroke-linejoin="miter" stroke="rgb(100%, 100%, 100%)" stroke-opacity="1" stroke-miterlimit="10" d="M 0.00101875 0.00154375 C 0.00101875 -4.451581 -3.60445 -8.05705 -8.053669 -8.05705 C -12.502887 -8.05705 -16.10445 -4.451581 -16.10445 0.00154375 C -16.10445 4.446856 -12.502887 8.052325 -8.053669 8.052325 C -3.60445 8.052325 0.00101875 4.446856 0.00101875 0.00154375 Z M 0.00101875 0.00154375 " transform="matrix(1, 0, 0, -1, 133.2607, 44.9117)"/>
<path fill-rule="nonzero" fill="rgb(90.19928%, 90.59906%, 90.99884%)" fill-opacity="1" d="M 133.359375 82.066406 C 133.359375 86.511719 129.753906 90.117188 125.308594 90.117188 C 120.859375 90.117188 117.253906 86.511719 117.253906 82.066406 C 117.253906 77.617188 120.859375 74.011719 125.308594 74.011719 C 129.753906 74.011719 133.359375 77.617188 133.359375 82.066406 "/>
<path fill="none" stroke-width="0.61" stroke-linecap="butt" stroke-linejoin="miter" stroke="rgb(100%, 100%, 100%)" stroke-opacity="1" stroke-miterlimit="10" d="M -0.001325 -0.00030625 C -0.001325 -4.445619 -3.606794 -8.051088 -8.052106 -8.051088 C -12.501325 -8.051088 -16.106794 -4.445619 -16.106794 -0.00030625 C -16.106794 4.448912 -12.501325 8.054381 -8.052106 8.054381 C -3.606794 8.054381 -0.001325 4.448912 -0.001325 -0.00030625 Z M -0.001325 -0.00030625 " transform="matrix(1, 0, 0, -1, 133.3607, 82.0661)"/>
<path fill="none" stroke-width="1.22" stroke-linecap="round" stroke-linejoin="miter" stroke="rgb(93.299866%, 64.698792%, 35.299683%)" stroke-opacity="1" stroke-dasharray="0.305 1.83" stroke-miterlimit="10" d="M 0.00103125 -0.0015 C 0.00103125 -0.0015 6.348687 -11.524938 15.067437 -19.317906 C 21.13775 -24.743688 29.161187 -29.6265 33.477594 -32.091344 " transform="matrix(1, 0, 0, -1, 85.081, 48.2485)"/>
<path fill-rule="nonzero" fill="rgb(93.299866%, 64.698792%, 35.299683%)" fill-opacity="1" d="M 116.757812 82.085938 L 121.625 82.03125 L 119.144531 77.84375 Z M 116.757812 82.085938 "/>
<g clip-path="url(#clip-9)">
<path fill-rule="nonzero" fill="rgb(13.699341%, 12.199402%, 12.5%)" fill-opacity="1" d="M 75.699219 16.148438 C 75.71875 16.394531 75.777344 16.59375 75.878906 16.746094 C 76.074219 17.039062 76.421875 17.1875 76.917969 17.1875 C 77.140625 17.1875 77.34375 17.15625 77.527344 17.089844 C 77.875 16.972656 78.050781 16.753906 78.050781 16.433594 C 78.050781 16.191406 77.980469 16.019531 77.832031 15.917969 C 77.679688 15.816406 77.441406 15.734375 77.117188 15.660156 L 76.527344 15.527344 C 76.136719 15.4375 75.863281 15.34375 75.707031 15.242188 C 75.425781 15.058594 75.289062 14.785156 75.289062 14.421875 C 75.289062 14.027344 75.421875 13.703125 75.699219 13.449219 C 75.96875 13.195312 76.355469 13.066406 76.851562 13.066406 C 77.3125 13.066406 77.703125 13.179688 78.023438 13.402344 C 78.339844 13.625 78.5 13.980469 78.5 14.46875 L 77.949219 14.46875 C 77.914062 14.234375 77.851562 14.054688 77.757812 13.925781 C 77.578125 13.695312 77.273438 13.582031 76.832031 13.582031 C 76.484375 13.582031 76.230469 13.65625 76.078125 13.800781 C 75.925781 13.949219 75.851562 14.121094 75.851562 14.316406 C 75.851562 14.535156 75.9375 14.6875 76.117188 14.785156 C 76.238281 14.847656 76.503906 14.925781 76.917969 15.023438 L 77.527344 15.164062 C 77.828125 15.238281 78.054688 15.328125 78.214844 15.441406 C 78.492188 15.648438 78.632812 15.945312 78.632812 16.335938 C 78.632812 16.820312 78.457031 17.167969 78.101562 17.375 C 77.75 17.578125 77.34375 17.679688 76.878906 17.679688 C 76.332031 17.679688 75.902344 17.546875 75.59375 17.273438 C 75.289062 16.992188 75.136719 16.617188 75.144531 16.148438 Z M 75.699219 16.148438 "/>
</g>
<g clip-path="url(#clip-10)">
<path fill-rule="nonzero" fill="rgb(13.699341%, 12.199402%, 12.5%)" fill-opacity="1" d="M 79.421875 13.476562 L 79.957031 13.476562 L 79.957031 14.363281 L 80.472656 14.363281 L 80.472656 14.804688 L 79.957031 14.804688 L 79.957031 16.890625 C 79.957031 17 79.996094 17.070312 80.070312 17.109375 C 80.113281 17.136719 80.1875 17.148438 80.28125 17.148438 L 80.367188 17.148438 C 80.398438 17.144531 80.433594 17.140625 80.472656 17.140625 L 80.472656 17.558594 C 80.40625 17.578125 80.339844 17.589844 80.269531 17.597656 C 80.207031 17.601562 80.136719 17.605469 80.0625 17.605469 C 79.8125 17.605469 79.644531 17.542969 79.558594 17.414062 C 79.464844 17.289062 79.421875 17.125 79.421875 16.917969 L 79.421875 14.804688 L 78.984375 14.804688 L 78.984375 14.363281 L 79.421875 14.363281 Z M 79.421875 13.476562 "/>
</g>
<path fill-rule="nonzero" fill="rgb(13.699341%, 12.199402%, 12.5%)" fill-opacity="1" d="M 81.414062 16.710938 C 81.414062 16.863281 81.472656 16.984375 81.585938 17.070312 C 81.703125 17.160156 81.835938 17.207031 81.988281 17.207031 C 82.179688 17.207031 82.363281 17.164062 82.539062 17.082031 C 82.839844 16.933594 82.988281 16.695312 82.988281 16.367188 L 82.988281 15.9375 C 82.917969 15.976562 82.832031 16.011719 82.730469 16.042969 C 82.628906 16.066406 82.527344 16.085938 82.425781 16.097656 L 82.101562 16.136719 C 81.910156 16.164062 81.765625 16.203125 81.664062 16.261719 C 81.496094 16.355469 81.414062 16.507812 81.414062 16.710938 M 82.722656 15.621094 C 82.839844 15.609375 82.925781 15.5625 82.96875 15.46875 C 82.988281 15.421875 82.996094 15.351562 82.996094 15.261719 C 82.996094 15.085938 82.933594 14.953125 82.796875 14.867188 C 82.667969 14.789062 82.484375 14.746094 82.246094 14.746094 C 81.964844 14.746094 81.769531 14.820312 81.652344 14.964844 C 81.582031 15.054688 81.539062 15.179688 81.519531 15.335938 L 81.023438 15.335938 C 81.03125 14.949219 81.160156 14.679688 81.40625 14.527344 C 81.652344 14.367188 81.941406 14.289062 82.265625 14.289062 C 82.636719 14.289062 82.941406 14.363281 83.167969 14.507812 C 83.402344 14.648438 83.523438 14.867188 83.523438 15.175781 L 83.523438 17.003906 C 83.523438 17.0625 83.53125 17.109375 83.550781 17.148438 C 83.574219 17.179688 83.625 17.195312 83.703125 17.195312 L 83.78125 17.195312 C 83.8125 17.191406 83.84375 17.183594 83.875 17.175781 L 83.875 17.578125 C 83.792969 17.597656 83.726562 17.609375 83.683594 17.613281 C 83.640625 17.621094 83.578125 17.625 83.503906 17.625 C 83.316406 17.625 83.183594 17.558594 83.101562 17.433594 C 83.058594 17.363281 83.027344 17.265625 83.015625 17.140625 C 82.902344 17.277344 82.742188 17.402344 82.539062 17.511719 C 82.335938 17.609375 82.113281 17.664062 81.863281 17.664062 C 81.570312 17.664062 81.328125 17.570312 81.140625 17.394531 C 80.953125 17.21875 80.863281 16.992188 80.863281 16.71875 C 80.863281 16.429688 80.953125 16.199219 81.140625 16.03125 C 81.324219 15.867188 81.5625 15.765625 81.863281 15.726562 Z M 82.722656 15.621094 "/>
<path fill-rule="nonzero" fill="rgb(13.699341%, 12.199402%, 12.5%)" fill-opacity="1" d="M 84.398438 14.363281 L 84.910156 14.363281 L 84.910156 14.824219 C 85.058594 14.632812 85.21875 14.496094 85.386719 14.421875 C 85.558594 14.339844 85.746094 14.296875 85.949219 14.296875 C 86.402344 14.296875 86.707031 14.453125 86.867188 14.765625 C 86.953125 14.945312 87 15.191406 87 15.507812 L 87 17.558594 L 86.457031 17.558594 L 86.457031 15.546875 C 86.457031 15.351562 86.429688 15.195312 86.371094 15.078125 C 86.273438 14.875 86.097656 14.773438 85.847656 14.773438 C 85.71875 14.773438 85.617188 14.789062 85.539062 14.8125 C 85.394531 14.855469 85.265625 14.945312 85.152344 15.078125 C 85.058594 15.1875 85.003906 15.296875 84.976562 15.414062 C 84.953125 15.523438 84.941406 15.679688 84.941406 15.890625 L 84.941406 17.558594 L 84.398438 17.558594 Z M 84.398438 14.363281 "/>
<g clip-path="url(#clip-11)">
<path fill-rule="nonzero" fill="rgb(13.699341%, 12.199402%, 12.5%)" fill-opacity="1" d="M 88.132812 16.003906 C 88.132812 16.34375 88.207031 16.628906 88.355469 16.863281 C 88.5 17.089844 88.730469 17.203125 89.050781 17.203125 C 89.296875 17.203125 89.5 17.101562 89.660156 16.890625 C 89.816406 16.675781 89.898438 16.367188 89.898438 15.964844 C 89.898438 15.5625 89.8125 15.261719 89.648438 15.070312 C 89.484375 14.875 89.28125 14.773438 89.039062 14.773438 C 88.773438 14.773438 88.554688 14.878906 88.382812 15.089844 C 88.214844 15.292969 88.132812 15.597656 88.132812 16.003906 M 88.945312 14.308594 C 89.183594 14.308594 89.386719 14.363281 89.554688 14.46875 C 89.648438 14.527344 89.757812 14.628906 89.878906 14.773438 L 89.878906 13.164062 L 90.394531 13.164062 L 90.394531 17.558594 L 89.90625 17.558594 L 89.90625 17.109375 C 89.785156 17.308594 89.640625 17.449219 89.46875 17.539062 C 89.296875 17.625 89.097656 17.671875 88.878906 17.671875 C 88.519531 17.671875 88.214844 17.523438 87.953125 17.222656 C 87.699219 16.925781 87.570312 16.527344 87.570312 16.03125 C 87.570312 15.570312 87.6875 15.164062 87.925781 14.820312 C 88.15625 14.480469 88.5 14.308594 88.945312 14.308594 "/>
</g>
<path fill-rule="nonzero" fill="rgb(13.699341%, 12.199402%, 12.5%)" fill-opacity="1" d="M 91.59375 16.710938 C 91.59375 16.863281 91.648438 16.984375 91.761719 17.070312 C 91.878906 17.160156 92.011719 17.207031 92.164062 17.207031 C 92.355469 17.207031 92.539062 17.164062 92.71875 17.082031 C 93.015625 16.933594 93.164062 16.695312 93.164062 16.367188 L 93.164062 15.9375 C 93.09375 15.976562 93.007812 16.011719 92.90625 16.042969 C 92.804688 16.066406 92.703125 16.085938 92.601562 16.097656 L 92.277344 16.136719 C 92.089844 16.164062 91.941406 16.203125 91.839844 16.261719 C 91.671875 16.355469 91.59375 16.507812 91.59375 16.710938 M 92.898438 15.621094 C 93.015625 15.609375 93.101562 15.5625 93.144531 15.46875 C 93.164062 15.421875 93.175781 15.351562 93.175781 15.261719 C 93.175781 15.085938 93.109375 14.953125 92.976562 14.867188 C 92.847656 14.789062 92.664062 14.746094 92.421875 14.746094 C 92.140625 14.746094 91.945312 14.820312 91.832031 14.964844 C 91.757812 15.054688 91.714844 15.179688 91.699219 15.335938 L 91.203125 15.335938 C 91.207031 14.949219 91.335938 14.679688 91.582031 14.527344 C 91.832031 14.367188 92.117188 14.289062 92.441406 14.289062 C 92.816406 14.289062 93.117188 14.363281 93.347656 14.507812 C 93.582031 14.648438 93.699219 14.867188 93.699219 15.175781 L 93.699219 17.003906 C 93.699219 17.0625 93.710938 17.109375 93.726562 17.148438 C 93.75 17.179688 93.804688 17.195312 93.878906 17.195312 L 93.957031 17.195312 C 93.988281 17.191406 94.019531 17.183594 94.050781 17.175781 L 94.050781 17.578125 C 93.96875 17.597656 93.90625 17.609375 93.863281 17.613281 C 93.816406 17.621094 93.757812 17.625 93.679688 17.625 C 93.496094 17.625 93.363281 17.558594 93.28125 17.433594 C 93.234375 17.363281 93.207031 17.265625 93.195312 17.140625 C 93.082031 17.277344 92.921875 17.402344 92.71875 17.511719 C 92.511719 17.609375 92.289062 17.664062 92.039062 17.664062 C 91.746094 17.664062 91.507812 17.570312 91.316406 17.394531 C 91.128906 17.21875 91.039062 16.992188 91.039062 16.71875 C 91.039062 16.429688 91.128906 16.199219 91.316406 16.03125 C 91.5 15.867188 91.742188 15.765625 92.039062 15.726562 Z M 92.898438 15.621094 "/>
<path fill-rule="nonzero" fill="rgb(13.699341%, 12.199402%, 12.5%)" fill-opacity="1" d="M 94.59375 14.363281 L 95.097656 14.363281 L 95.097656 14.917969 C 95.140625 14.808594 95.242188 14.679688 95.402344 14.527344 C 95.566406 14.375 95.757812 14.296875 95.976562 14.296875 L 96.023438 14.296875 C 96.046875 14.296875 96.089844 14.300781 96.148438 14.308594 L 96.148438 14.878906 C 96.113281 14.875 96.082031 14.871094 96.050781 14.871094 C 96.027344 14.863281 95.996094 14.859375 95.964844 14.859375 C 95.699219 14.859375 95.492188 14.949219 95.347656 15.128906 C 95.199219 15.296875 95.128906 15.496094 95.128906 15.71875 L 95.128906 17.558594 L 94.59375 17.558594 Z M 94.59375 14.363281 "/>
<g clip-path="url(#clip-12)">
<path fill-rule="nonzero" fill="rgb(13.699341%, 12.199402%, 12.5%)" fill-opacity="1" d="M 96.949219 16.003906 C 96.949219 16.34375 97.023438 16.628906 97.171875 16.863281 C 97.316406 17.089844 97.546875 17.203125 97.863281 17.203125 C 98.113281 17.203125 98.316406 17.101562 98.476562 16.890625 C 98.632812 16.675781 98.714844 16.367188 98.714844 15.964844 C 98.714844 15.5625 98.628906 15.261719 98.464844 15.070312 C 98.300781 14.875 98.097656 14.773438 97.855469 14.773438 C 97.589844 14.773438 97.371094 14.878906 97.199219 15.089844 C 97.03125 15.292969 96.949219 15.597656 96.949219 16.003906 M 97.761719 14.308594 C 98 14.308594 98.203125 14.363281 98.371094 14.46875 C 98.464844 14.527344 98.574219 14.628906 98.695312 14.773438 L 98.695312 13.164062 L 99.210938 13.164062 L 99.210938 17.558594 L 98.722656 17.558594 L 98.722656 17.109375 C 98.601562 17.308594 98.457031 17.449219 98.285156 17.539062 C 98.113281 17.625 97.914062 17.671875 97.695312 17.671875 C 97.335938 17.671875 97.027344 17.523438 96.769531 17.222656 C 96.515625 16.925781 96.386719 16.527344 96.386719 16.03125 C 96.386719 15.570312 96.503906 15.164062 96.742188 14.820312 C 96.972656 14.480469 97.316406 14.308594 97.761719 14.308594 "/>
</g>
<path fill-rule="nonzero" fill="rgb(13.699341%, 12.199402%, 12.5%)" fill-opacity="1" d="M 101.695312 14.363281 L 102.210938 14.363281 L 102.210938 14.824219 C 102.355469 14.632812 102.515625 14.496094 102.6875 14.421875 C 102.859375 14.339844 103.042969 14.296875 103.25 14.296875 C 103.699219 14.296875 104.003906 14.453125 104.164062 14.765625 C 104.253906 14.945312 104.296875 15.191406 104.296875 15.507812 L 104.296875 17.558594 L 103.753906 17.558594 L 103.753906 15.546875 C 103.753906 15.351562 103.726562 15.195312 103.667969 15.078125 C 103.574219 14.875 103.398438 14.773438 103.144531 14.773438 C 103.015625 14.773438 102.914062 14.789062 102.839844 14.8125 C 102.691406 14.855469 102.5625 14.945312 102.449219 15.078125 C 102.359375 15.1875 102.300781 15.296875 102.277344 15.414062 C 102.25 15.523438 102.238281 15.679688 102.238281 15.890625 L 102.238281 17.558594 L 101.695312 17.558594 Z M 101.695312 14.363281 "/>
<path fill-rule="nonzero" fill="rgb(13.699341%, 12.199402%, 12.5%)" fill-opacity="1" d="M 106.421875 14.296875 C 106.644531 14.296875 106.859375 14.351562 107.070312 14.460938 C 107.285156 14.5625 107.449219 14.699219 107.566406 14.871094 C 107.671875 15.03125 107.742188 15.21875 107.777344 15.433594 C 107.804688 15.582031 107.824219 15.8125 107.824219 16.136719 L 105.488281 16.136719 C 105.492188 16.460938 105.566406 16.722656 105.707031 16.917969 C 105.851562 17.109375 106.078125 17.207031 106.382812 17.207031 C 106.660156 17.207031 106.882812 17.113281 107.050781 16.929688 C 107.144531 16.820312 107.210938 16.699219 107.25 16.554688 L 107.777344 16.554688 C 107.761719 16.671875 107.71875 16.800781 107.640625 16.949219 C 107.566406 17.09375 107.476562 17.210938 107.375 17.300781 C 107.214844 17.460938 107.015625 17.566406 106.773438 17.625 C 106.644531 17.65625 106.5 17.671875 106.335938 17.671875 C 105.9375 17.671875 105.597656 17.53125 105.324219 17.242188 C 105.050781 16.953125 104.914062 16.546875 104.914062 16.023438 C 104.914062 15.507812 105.050781 15.09375 105.324219 14.773438 C 105.605469 14.457031 105.96875 14.296875 106.421875 14.296875 M 107.269531 15.707031 C 107.25 15.476562 107.199219 15.285156 107.117188 15.144531 C 106.96875 14.894531 106.726562 14.765625 106.382812 14.765625 C 106.136719 14.765625 105.929688 14.855469 105.765625 15.03125 C 105.597656 15.210938 105.507812 15.4375 105.496094 15.707031 Z M 107.269531 15.707031 "/>
<g clip-path="url(#clip-13)">
<path fill-rule="nonzero" fill="rgb(13.699341%, 12.199402%, 12.5%)" fill-opacity="1" d="M 108.59375 13.476562 L 109.128906 13.476562 L 109.128906 14.363281 L 109.644531 14.363281 L 109.644531 14.804688 L 109.128906 14.804688 L 109.128906 16.890625 C 109.128906 17 109.167969 17.070312 109.246094 17.109375 C 109.285156 17.136719 109.359375 17.148438 109.453125 17.148438 L 109.539062 17.148438 C 109.570312 17.144531 109.605469 17.140625 109.644531 17.140625 L 109.644531 17.558594 C 109.582031 17.578125 109.511719 17.589844 109.445312 17.597656 C 109.378906 17.601562 109.308594 17.605469 109.234375 17.605469 C 108.984375 17.605469 108.816406 17.542969 108.730469 17.414062 C 108.636719 17.289062 108.59375 17.125 108.59375 16.917969 L 108.59375 14.804688 L 108.15625 14.804688 L 108.15625 14.363281 L 108.59375 14.363281 Z M 108.59375 13.476562 "/>
</g>
<path fill-rule="nonzero" fill="rgb(13.699341%, 12.199402%, 12.5%)" fill-opacity="1" d="M 110.421875 14.363281 L 111.042969 16.882812 L 111.664062 14.363281 L 112.261719 14.363281 L 112.890625 16.863281 L 113.542969 14.363281 L 114.074219 14.363281 L 113.148438 17.558594 L 112.597656 17.558594 L 111.949219 15.089844 L 111.320312 17.558594 L 110.757812 17.558594 L 109.84375 14.363281 Z M 110.421875 14.363281 "/>
<path fill-rule="nonzero" fill="rgb(13.699341%, 12.199402%, 12.5%)" fill-opacity="1" d="M 115.851562 17.214844 C 116.207031 17.214844 116.449219 17.082031 116.585938 16.8125 C 116.71875 16.542969 116.785156 16.242188 116.785156 15.910156 C 116.785156 15.613281 116.738281 15.371094 116.640625 15.183594 C 116.488281 14.894531 116.226562 14.746094 115.859375 14.746094 C 115.527344 14.746094 115.289062 14.871094 115.136719 15.117188 C 114.988281 15.367188 114.917969 15.667969 114.917969 16.023438 C 114.917969 16.363281 114.988281 16.640625 115.136719 16.871094 C 115.289062 17.101562 115.527344 17.214844 115.851562 17.214844 M 115.871094 14.277344 C 116.28125 14.277344 116.628906 14.417969 116.910156 14.6875 C 117.195312 14.960938 117.335938 15.367188 117.335938 15.898438 C 117.335938 16.414062 117.214844 16.839844 116.964844 17.175781 C 116.71875 17.507812 116.328125 17.671875 115.800781 17.671875 C 115.363281 17.671875 115.011719 17.527344 114.753906 17.234375 C 114.492188 16.933594 114.363281 16.535156 114.363281 16.03125 C 114.363281 15.5 114.5 15.074219 114.773438 14.753906 C 115.046875 14.4375 115.410156 14.277344 115.871094 14.277344 "/>
<path fill-rule="nonzero" fill="rgb(13.699341%, 12.199402%, 12.5%)" fill-opacity="1" d="M 117.992188 14.363281 L 118.5 14.363281 L 118.5 14.917969 C 118.542969 14.808594 118.644531 14.679688 118.804688 14.527344 C 118.96875 14.375 119.15625 14.296875 119.375 14.296875 L 119.421875 14.296875 C 119.445312 14.296875 119.488281 14.300781 119.546875 14.308594 L 119.546875 14.878906 C 119.511719 14.875 119.480469 14.871094 119.449219 14.871094 C 119.425781 14.863281 119.398438 14.859375 119.367188 14.859375 C 119.097656 14.859375 118.890625 14.949219 118.746094 15.128906 C 118.597656 15.296875 118.527344 15.496094 118.527344 15.71875 L 118.527344 17.558594 L 117.992188 17.558594 Z M 117.992188 14.363281 "/>
<g clip-path="url(#clip-14)">
<path fill-rule="nonzero" fill="rgb(13.699341%, 12.199402%, 12.5%)" fill-opacity="1" d="M 119.996094 13.183594 L 120.511719 13.183594 L 120.511719 15.71875 L 121.882812 14.363281 L 122.570312 14.363281 L 121.347656 15.566406 L 122.644531 17.558594 L 121.960938 17.558594 L 120.957031 15.945312 L 120.511719 16.355469 L 120.511719 17.558594 L 119.996094 17.558594 Z M 119.996094 13.183594 "/>
</g>
<path fill-rule="nonzero" fill="rgb(90.19928%, 90.59906%, 90.99884%)" fill-opacity="1" d="M 163.515625 44.910156 C 163.515625 49.363281 159.910156 52.96875 155.464844 52.96875 C 151.015625 52.96875 147.410156 49.363281 147.410156 44.910156 C 147.410156 40.464844 151.015625 36.859375 155.464844 36.859375 C 159.910156 36.859375 163.515625 40.464844 163.515625 44.910156 "/>
<path fill="none" stroke-width="0.61" stroke-linecap="butt" stroke-linejoin="miter" stroke="rgb(100%, 100%, 100%)" stroke-opacity="1" stroke-miterlimit="10" d="M -0.001875 0.00154375 C -0.001875 -4.451581 -3.607344 -8.05705 -8.052656 -8.05705 C -12.501875 -8.05705 -16.107344 -4.451581 -16.107344 0.00154375 C -16.107344 4.446856 -12.501875 8.052325 -8.052656 8.052325 C -3.607344 8.052325 -0.001875 4.446856 -0.001875 0.00154375 Z M -0.001875 0.00154375 " transform="matrix(1, 0, 0, -1, 163.5175, 44.9117)"/>
<path fill-rule="nonzero" fill="rgb(90.19928%, 90.59906%, 90.99884%)" fill-opacity="1" d="M 184.71875 63.835938 C 184.71875 68.28125 181.113281 71.890625 176.667969 71.890625 C 172.21875 71.890625 168.613281 68.28125 168.613281 63.835938 C 168.613281 59.390625 172.21875 55.78125 176.667969 55.78125 C 181.113281 55.78125 184.71875 59.390625 184.71875 63.835938 "/>
<path fill="none" stroke-width="0.61" stroke-linecap="butt" stroke-linejoin="miter" stroke="rgb(100%, 100%, 100%)" stroke-opacity="1" stroke-miterlimit="10" d="M -0.00115 -0.0001375 C -0.00115 -4.44545 -3.606619 -8.054825 -8.051931 -8.054825 C -12.50115 -8.054825 -16.106619 -4.44545 -16.106619 -0.0001375 C -16.106619 4.445175 -12.50115 8.05455 -8.051931 8.05455 C -3.606619 8.05455 -0.00115 4.445175 -0.00115 -0.0001375 Z M -0.00115 -0.0001375 " transform="matrix(1, 0, 0, -1, 184.7199, 63.8358)"/>
<g clip-path="url(#clip-15)">
<path fill-rule="nonzero" fill="rgb(90.19928%, 90.59906%, 90.99884%)" fill-opacity="1" d="M 205.820312 44.910156 C 205.820312 49.363281 202.214844 52.96875 197.769531 52.96875 C 193.320312 52.96875 189.714844 49.363281 189.714844 44.910156 C 189.714844 40.464844 193.320312 36.859375 197.769531 36.859375 C 202.214844 36.859375 205.820312 40.464844 205.820312 44.910156 "/>
</g>
<g clip-path="url(#clip-16)">
<path fill="none" stroke-width="0.61" stroke-linecap="butt" stroke-linejoin="miter" stroke="rgb(100%, 100%, 100%)" stroke-opacity="1" stroke-miterlimit="10" d="M -0.0018875 0.00154375 C -0.0018875 -4.451581 -3.607356 -8.05705 -8.052669 -8.05705 C -12.501888 -8.05705 -16.107356 -4.451581 -16.107356 0.00154375 C -16.107356 4.446856 -12.501888 8.052325 -8.052669 8.052325 C -3.607356 8.052325 -0.0018875 4.446856 -0.0018875 0.00154375 Z M -0.0018875 0.00154375 " transform="matrix(1, 0, 0, -1, 205.8222, 44.9117)"/>
</g>
<g clip-path="url(#clip-17)">
<path fill-rule="nonzero" fill="rgb(90.19928%, 90.59906%, 90.99884%)" fill-opacity="1" d="M 205.921875 82.066406 C 205.921875 86.511719 202.316406 90.117188 197.871094 90.117188 C 193.421875 90.117188 189.816406 86.511719 189.816406 82.066406 C 189.816406 77.617188 193.421875 74.011719 197.871094 74.011719 C 202.316406 74.011719 205.921875 77.617188 205.921875 82.066406 "/>
</g>
<g clip-path="url(#clip-18)">
<path fill="none" stroke-width="0.61" stroke-linecap="butt" stroke-linejoin="miter" stroke="rgb(100%, 100%, 100%)" stroke-opacity="1" stroke-miterlimit="10" d="M -0.000425 -0.00030625 C -0.000425 -4.445619 -3.605894 -8.051088 -8.051206 -8.051088 C -12.500425 -8.051088 -16.105894 -4.445619 -16.105894 -0.00030625 C -16.105894 4.448912 -12.500425 8.054381 -8.051206 8.054381 C -3.605894 8.054381 -0.000425 4.448912 -0.000425 -0.00030625 Z M -0.000425 -0.00030625 " transform="matrix(1, 0, 0, -1, 205.9223, 82.0661)"/>
</g>
<path fill="none" stroke-width="0.61" stroke-linecap="butt" stroke-linejoin="miter" stroke="rgb(42.698669%, 43.099976%, 44.299316%)" stroke-opacity="1" stroke-miterlimit="10" d="M 0.00041875 0.000075 L 15.355887 -9.95305 " transform="matrix(1, 0, 0, -1, 157.5113, 47.3907)"/>
<path fill-rule="nonzero" fill="rgb(42.698669%, 43.099976%, 44.299316%)" fill-opacity="1" d="M 171.90625 58.171875 L 174.335938 58.296875 L 173.230469 56.128906 Z M 171.90625 58.171875 "/>
<path fill="none" stroke-width="0.61" stroke-linecap="butt" stroke-linejoin="miter" stroke="rgb(42.698669%, 43.099976%, 44.299316%)" stroke-opacity="1" stroke-miterlimit="10" d="M -0.0002875 -0.00084375 L 15.644244 9.424937 " transform="matrix(1, 0, 0, -1, 176.6331, 59.214)"/>
<path fill-rule="nonzero" fill="rgb(42.698669%, 43.099976%, 44.299316%)" fill-opacity="1" d="M 192.597656 51.011719 L 193.777344 48.882812 L 191.34375 48.929688 Z M 192.597656 51.011719 "/>
<path fill="none" stroke-width="0.61" stroke-linecap="butt" stroke-linejoin="miter" stroke="rgb(42.698669%, 43.099976%, 44.299316%)" stroke-opacity="1" stroke-miterlimit="10" d="M -0.00019375 -0.0015 L 15.6834 -9.368688 " transform="matrix(1, 0, 0, -1, 176.5666, 68.061)"/>
<path fill-rule="nonzero" fill="rgb(42.698669%, 43.099976%, 44.299316%)" fill-opacity="1" d="M 191.320312 78.292969 L 193.753906 78.328125 L 192.566406 76.203125 Z M 191.320312 78.292969 "/>
<path fill-rule="nonzero" fill="rgb(73.699951%, 74.499512%, 75.299072%)" fill-opacity="1" d="M 159.824219 47.222656 C 159.824219 48.445312 158.832031 49.4375 157.609375 49.4375 C 156.390625 49.4375 155.398438 48.445312 155.398438 47.222656 C 155.398438 46.003906 156.390625 45.011719 157.609375 45.011719 C 158.832031 45.011719 159.824219 46.003906 159.824219 47.222656 "/>
<path fill="none" stroke-width="0.458" stroke-linecap="butt" stroke-linejoin="miter" stroke="rgb(100%, 100%, 100%)" stroke-opacity="1" stroke-miterlimit="10" d="M 0.00111875 0.00084375 C 0.00111875 -1.221813 -0.991069 -2.214 -2.213725 -2.214 C -3.432475 -2.214 -4.424663 -1.221813 -4.424663 0.00084375 C -4.424663 1.219594 -3.432475 2.211781 -2.213725 2.211781 C -0.991069 2.211781 0.00111875 1.219594 0.00111875 0.00084375 Z M 0.00111875 0.00084375 " transform="matrix(1, 0, 0, -1, 159.8231, 47.2235)"/>
<path fill-rule="nonzero" fill="rgb(73.699951%, 74.499512%, 75.299072%)" fill-opacity="1" d="M 178.84375 59.214844 C 178.84375 60.4375 177.855469 61.429688 176.632812 61.429688 C 175.410156 61.429688 174.421875 60.4375 174.421875 59.214844 C 174.421875 57.992188 175.410156 57.003906 176.632812 57.003906 C 177.855469 57.003906 178.84375 57.992188 178.84375 59.214844 "/>
<path fill="none" stroke-width="0.458" stroke-linecap="butt" stroke-linejoin="miter" stroke="rgb(100%, 100%, 100%)" stroke-opacity="1" stroke-miterlimit="10" d="M -0.00105 -0.00084375 C -0.00105 -1.2235 -0.989331 -2.215688 -2.211987 -2.215688 C -3.434644 -2.215688 -4.422925 -1.2235 -4.422925 -0.00084375 C -4.422925 1.221812 -3.434644 2.210094 -2.211987 2.210094 C -0.989331 2.210094 -0.00105 1.221812 -0.00105 -0.00084375 Z M -0.00105 -0.00084375 " transform="matrix(1, 0, 0, -1, 178.8448, 59.214)"/>
<path fill-rule="nonzero" fill="rgb(73.699951%, 74.499512%, 75.299072%)" fill-opacity="1" d="M 178.78125 68.0625 C 178.78125 69.285156 177.789062 70.273438 176.566406 70.273438 C 175.347656 70.273438 174.355469 69.285156 174.355469 68.0625 C 174.355469 66.839844 175.347656 65.847656 176.566406 65.847656 C 177.789062 65.847656 178.78125 66.839844 178.78125 68.0625 "/>
<path fill="none" stroke-width="0.458" stroke-linecap="butt" stroke-linejoin="miter" stroke="rgb(100%, 100%, 100%)" stroke-opacity="1" stroke-miterlimit="10" d="M 0.00045 -0.0015 C 0.00045 -1.224156 -0.991737 -2.212438 -2.214394 -2.212438 C -3.433144 -2.212438 -4.425331 -1.224156 -4.425331 -0.0015 C -4.425331 1.221156 -3.433144 2.213344 -2.214394 2.213344 C -0.991737 2.213344 0.00045 1.221156 0.00045 -0.0015 Z M 0.00045 -0.0015 " transform="matrix(1, 0, 0, -1, 178.7808, 68.061)"/>
<path fill-rule="nonzero" fill="rgb(73.699951%, 74.499512%, 75.299072%)" fill-opacity="1" d="M 198 47.488281 C 198 48.710938 197.007812 49.703125 195.789062 49.703125 C 194.566406 49.703125 193.574219 48.710938 193.574219 47.488281 C 193.574219 46.269531 194.566406 45.277344 195.789062 45.277344 C 197.007812 45.277344 198 46.269531 198 47.488281 "/>
<path fill="none" stroke-width="0.458" stroke-linecap="butt" stroke-linejoin="miter" stroke="rgb(100%, 100%, 100%)" stroke-opacity="1" stroke-miterlimit="10" d="M -0.0002 0.00001875 C -0.0002 -1.222638 -0.992388 -2.214825 -2.211138 -2.214825 C -3.433794 -2.214825 -4.425981 -1.222638 -4.425981 0.00001875 C -4.425981 1.218769 -3.433794 2.210956 -2.211138 2.210956 C -0.992388 2.210956 -0.0002 1.218769 -0.0002 0.00001875 Z M -0.0002 0.00001875 " transform="matrix(1, 0, 0, -1, 198.0002, 47.4883)"/>
<path fill-rule="nonzero" fill="rgb(73.699951%, 74.499512%, 75.299072%)" fill-opacity="1" d="M 198 79.589844 C 198 80.8125 197.007812 81.800781 195.789062 81.800781 C 194.566406 81.800781 193.574219 80.8125 193.574219 79.589844 C 193.574219 78.367188 194.566406 77.378906 195.789062 77.378906 C 197.007812 77.378906 198 78.367188 198 79.589844 "/>
<path fill="none" stroke-width="0.458" stroke-linecap="butt" stroke-linejoin="miter" stroke="rgb(100%, 100%, 100%)" stroke-opacity="1" stroke-miterlimit="10" d="M -0.0002 -0.00024375 C -0.0002 -1.2229 -0.992388 -2.211181 -2.211138 -2.211181 C -3.433794 -2.211181 -4.425981 -1.2229 -4.425981 -0.00024375 C -4.425981 1.222412 -3.433794 2.210694 -2.211138 2.210694 C -0.992388 2.210694 -0.0002 1.222412 -0.0002 -0.00024375 Z M -0.0002 -0.00024375 " transform="matrix(1, 0, 0, -1, 198.0002, 79.5896)"/>
<g clip-path="url(#clip-19)">
<path fill="none" stroke-width="1.22" stroke-linecap="round" stroke-linejoin="miter" stroke="rgb(47.499084%, 64.299011%, 80.39856%)" stroke-opacity="1" stroke-dasharray="1.83 1.83" stroke-miterlimit="10" d="M 0.00120625 -0.0014625 C 5.286362 -6.24365 14.348862 -12.05615 18.610581 -11.755369 C 22.364487 -11.49365 33.208237 -8.68115 37.0598 -2.661619 " transform="matrix(1, 0, 0, -1, 157.9402, 48.4126)"/>
</g>
<path fill-rule="nonzero" fill="rgb(47.499084%, 64.299011%, 80.39856%)" fill-opacity="1" d="M 196.359375 52.316406 L 196.085938 48.679688 L 193.070312 50.738281 Z M 196.359375 52.316406 "/>
<g clip-path="url(#clip-20)">
<path fill-rule="nonzero" fill="rgb(13.699341%, 12.199402%, 12.5%)" fill-opacity="1" d="M 147.859375 13.183594 L 148.707031 13.183594 L 149.964844 16.882812 L 151.214844 13.183594 L 152.054688 13.183594 L 152.054688 17.558594 L 151.492188 17.558594 L 151.492188 14.535156 C 151.496094 14.324219 151.5 14.105469 151.5 13.867188 L 150.25 17.558594 L 149.671875 17.558594 L 148.410156 13.867188 L 148.410156 14 C 148.410156 14.113281 148.414062 14.277344 148.421875 14.496094 C 148.425781 14.714844 148.429688 14.875 148.429688 14.976562 L 148.429688 17.558594 L 147.859375 17.558594 Z M 147.859375 13.183594 "/>
</g>
<path fill-rule="nonzero" fill="rgb(13.699341%, 12.199402%, 12.5%)" fill-opacity="1" d="M 154.21875 14.296875 C 154.4375 14.296875 154.65625 14.351562 154.867188 14.460938 C 155.082031 14.5625 155.246094 14.699219 155.363281 14.871094 C 155.46875 15.03125 155.539062 15.21875 155.570312 15.433594 C 155.601562 15.582031 155.617188 15.8125 155.617188 16.136719 L 153.285156 16.136719 C 153.289062 16.460938 153.363281 16.722656 153.503906 16.917969 C 153.648438 17.109375 153.875 17.207031 154.179688 17.207031 C 154.457031 17.207031 154.679688 17.113281 154.847656 16.929688 C 154.941406 16.820312 155.007812 16.699219 155.046875 16.554688 L 155.570312 16.554688 C 155.558594 16.671875 155.515625 16.800781 155.4375 16.949219 C 155.363281 17.09375 155.269531 17.210938 155.171875 17.300781 C 155.011719 17.460938 154.8125 17.566406 154.570312 17.625 C 154.441406 17.65625 154.296875 17.671875 154.132812 17.671875 C 153.730469 17.671875 153.394531 17.53125 153.121094 17.242188 C 152.847656 16.953125 152.710938 16.546875 152.710938 16.023438 C 152.710938 15.507812 152.847656 15.09375 153.121094 14.773438 C 153.398438 14.457031 153.765625 14.296875 154.21875 14.296875 M 155.066406 15.707031 C 155.046875 15.476562 154.996094 15.285156 154.914062 15.144531 C 154.765625 14.894531 154.523438 14.765625 154.179688 14.765625 C 153.933594 14.765625 153.722656 14.855469 153.558594 15.03125 C 153.394531 15.210938 153.304688 15.4375 153.292969 15.707031 Z M 155.066406 15.707031 "/>
<path fill-rule="nonzero" fill="rgb(13.699341%, 12.199402%, 12.5%)" fill-opacity="1" d="M 156.277344 14.363281 L 156.8125 14.363281 L 156.8125 14.824219 C 156.9375 14.664062 157.050781 14.550781 157.152344 14.476562 C 157.328125 14.359375 157.53125 14.296875 157.753906 14.296875 C 158.007812 14.296875 158.214844 14.359375 158.375 14.476562 C 158.453125 14.554688 158.535156 14.664062 158.613281 14.800781 C 158.726562 14.632812 158.863281 14.503906 159.023438 14.421875 C 159.1875 14.339844 159.371094 14.296875 159.574219 14.296875 C 160 14.296875 160.289062 14.453125 160.441406 14.765625 C 160.53125 14.929688 160.578125 15.152344 160.578125 15.433594 L 160.578125 17.558594 L 160.015625 17.558594 L 160.015625 15.335938 C 160.015625 15.128906 159.960938 14.984375 159.851562 14.90625 C 159.75 14.828125 159.621094 14.785156 159.46875 14.785156 C 159.261719 14.785156 159.078125 14.855469 158.925781 14.992188 C 158.773438 15.132812 158.699219 15.371094 158.699219 15.699219 L 158.699219 17.558594 L 158.15625 17.558594 L 158.15625 15.480469 C 158.15625 15.257812 158.125 15.097656 158.070312 15.003906 C 157.992188 14.851562 157.84375 14.773438 157.621094 14.773438 C 157.414062 14.773438 157.230469 14.855469 157.066406 15.011719 C 156.902344 15.171875 156.820312 15.457031 156.820312 15.863281 L 156.820312 17.558594 L 156.277344 17.558594 Z M 156.277344 14.363281 "/>
<path fill-rule="nonzero" fill="rgb(13.699341%, 12.199402%, 12.5%)" fill-opacity="1" d="M 162.625 17.214844 C 162.980469 17.214844 163.226562 17.082031 163.359375 16.8125 C 163.492188 16.542969 163.558594 16.242188 163.558594 15.910156 C 163.558594 15.613281 163.511719 15.371094 163.417969 15.183594 C 163.265625 14.894531 163.003906 14.746094 162.636719 14.746094 C 162.304688 14.746094 162.0625 14.871094 161.910156 15.117188 C 161.761719 15.367188 161.691406 15.667969 161.691406 16.023438 C 161.691406 16.363281 161.761719 16.640625 161.910156 16.871094 C 162.0625 17.101562 162.300781 17.214844 162.625 17.214844 M 162.644531 14.277344 C 163.058594 14.277344 163.402344 14.417969 163.683594 14.6875 C 163.96875 14.960938 164.113281 15.367188 164.113281 15.898438 C 164.113281 16.414062 163.988281 16.839844 163.742188 17.175781 C 163.492188 17.507812 163.105469 17.671875 162.578125 17.671875 C 162.140625 17.671875 161.789062 17.527344 161.53125 17.234375 C 161.265625 16.933594 161.140625 16.535156 161.140625 16.03125 C 161.140625 15.5 161.273438 15.074219 161.550781 14.753906 C 161.820312 14.4375 162.1875 14.277344 162.644531 14.277344 "/>
<path fill-rule="nonzero" fill="rgb(13.699341%, 12.199402%, 12.5%)" fill-opacity="1" d="M 164.769531 14.363281 L 165.277344 14.363281 L 165.277344 14.917969 C 165.320312 14.808594 165.421875 14.679688 165.582031 14.527344 C 165.746094 14.375 165.9375 14.296875 166.152344 14.296875 L 166.203125 14.296875 C 166.226562 14.296875 166.269531 14.300781 166.324219 14.308594 L 166.324219 14.878906 C 166.292969 14.875 166.261719 14.871094 166.230469 14.871094 C 166.203125 14.863281 166.175781 14.859375 166.144531 14.859375 C 165.878906 14.859375 165.667969 14.949219 165.523438 15.128906 C 165.375 15.296875 165.304688 15.496094 165.304688 15.71875 L 165.304688 17.558594 L 164.769531 17.558594 Z M 164.769531 14.363281 "/>
<path fill-rule="nonzero" fill="rgb(13.699341%, 12.199402%, 12.5%)" fill-opacity="1" d="M 168.773438 14.363281 L 169.375 14.363281 C 169.300781 14.570312 169.128906 15.035156 168.871094 15.765625 C 168.671875 16.3125 168.507812 16.761719 168.375 17.109375 C 168.070312 17.921875 167.851562 18.417969 167.726562 18.597656 C 167.597656 18.773438 167.378906 18.863281 167.066406 18.863281 C 166.992188 18.863281 166.929688 18.859375 166.886719 18.855469 C 166.847656 18.847656 166.800781 18.839844 166.742188 18.824219 L 166.742188 18.339844 C 166.839844 18.363281 166.90625 18.378906 166.945312 18.386719 C 166.988281 18.390625 167.027344 18.394531 167.058594 18.394531 C 167.152344 18.394531 167.222656 18.378906 167.269531 18.339844 C 167.320312 18.304688 167.359375 18.269531 167.394531 18.226562 C 167.40625 18.207031 167.441406 18.121094 167.496094 17.976562 C 167.558594 17.828125 167.605469 17.722656 167.632812 17.652344 L 166.457031 14.363281 L 167.058594 14.363281 L 167.917969 16.964844 Z M 168.773438 14.363281 "/>
<path fill-rule="nonzero" fill="rgb(13.699341%, 12.199402%, 12.5%)" fill-opacity="1" d="M 171.53125 14.363281 L 172.046875 14.363281 L 172.046875 14.824219 C 172.191406 14.632812 172.351562 14.496094 172.523438 14.421875 C 172.695312 14.339844 172.878906 14.296875 173.085938 14.296875 C 173.535156 14.296875 173.839844 14.453125 174 14.765625 C 174.085938 14.945312 174.132812 15.191406 174.132812 15.507812 L 174.132812 17.558594 L 173.589844 17.558594 L 173.589844 15.546875 C 173.589844 15.351562 173.5625 15.195312 173.503906 15.078125 C 173.410156 14.875 173.234375 14.773438 172.980469 14.773438 C 172.851562 14.773438 172.75 14.789062 172.675781 14.8125 C 172.527344 14.855469 172.398438 14.945312 172.285156 15.078125 C 172.195312 15.1875 172.136719 15.296875 172.113281 15.414062 C 172.085938 15.523438 172.074219 15.679688 172.074219 15.890625 L 172.074219 17.558594 L 171.53125 17.558594 Z M 171.53125 14.363281 "/>
<path fill-rule="nonzero" fill="rgb(13.699341%, 12.199402%, 12.5%)" fill-opacity="1" d="M 176.257812 14.296875 C 176.476562 14.296875 176.695312 14.351562 176.90625 14.460938 C 177.121094 14.5625 177.285156 14.699219 177.402344 14.871094 C 177.507812 15.03125 177.578125 15.21875 177.609375 15.433594 C 177.640625 15.582031 177.65625 15.8125 177.65625 16.136719 L 175.324219 16.136719 C 175.328125 16.460938 175.402344 16.722656 175.542969 16.917969 C 175.6875 17.109375 175.914062 17.207031 176.21875 17.207031 C 176.496094 17.207031 176.71875 17.113281 176.886719 16.929688 C 176.980469 16.820312 177.046875 16.699219 177.085938 16.554688 L 177.609375 16.554688 C 177.59375 16.671875 177.554688 16.800781 177.476562 16.949219 C 177.402344 17.09375 177.308594 17.210938 177.210938 17.300781 C 177.050781 17.460938 176.851562 17.566406 176.609375 17.625 C 176.480469 17.65625 176.335938 17.671875 176.171875 17.671875 C 175.769531 17.671875 175.429688 17.53125 175.160156 17.242188 C 174.886719 16.953125 174.75 16.546875 174.75 16.023438 C 174.75 15.507812 174.886719 15.09375 175.160156 14.773438 C 175.4375 14.457031 175.804688 14.296875 176.257812 14.296875 M 177.105469 15.707031 C 177.085938 15.476562 177.035156 15.285156 176.953125 15.144531 C 176.804688 14.894531 176.5625 14.765625 176.21875 14.765625 C 175.96875 14.765625 175.761719 14.855469 175.597656 15.03125 C 175.429688 15.210938 175.34375 15.4375 175.332031 15.707031 Z M 177.105469 15.707031 "/>
<g clip-path="url(#clip-21)">
<path fill-rule="nonzero" fill="rgb(13.699341%, 12.199402%, 12.5%)" fill-opacity="1" d="M 178.429688 13.476562 L 178.960938 13.476562 L 178.960938 14.363281 L 179.476562 14.363281 L 179.476562 14.804688 L 178.960938 14.804688 L 178.960938 16.890625 C 178.960938 17 179 17.070312 179.074219 17.109375 C 179.117188 17.136719 179.191406 17.148438 179.285156 17.148438 L 179.371094 17.148438 C 179.402344 17.144531 179.4375 17.140625 179.476562 17.140625 L 179.476562 17.558594 C 179.410156 17.578125 179.34375 17.589844 179.277344 17.597656 C 179.210938 17.601562 179.140625 17.605469 179.066406 17.605469 C 178.820312 17.605469 178.648438 17.542969 178.5625 17.414062 C 178.472656 17.289062 178.429688 17.125 178.429688 16.917969 L 178.429688 14.804688 L 177.988281 14.804688 L 177.988281 14.363281 L 178.429688 14.363281 Z M 178.429688 13.476562 "/>
</g>
<path fill-rule="nonzero" fill="rgb(13.699341%, 12.199402%, 12.5%)" fill-opacity="1" d="M 180.257812 14.363281 L 180.878906 16.882812 L 181.496094 14.363281 L 182.097656 14.363281 L 182.726562 16.863281 L 183.375 14.363281 L 183.910156 14.363281 L 182.984375 17.558594 L 182.429688 17.558594 L 181.785156 15.089844 L 181.15625 17.558594 L 180.589844 17.558594 L 179.675781 14.363281 Z M 180.257812 14.363281 "/>
<path fill-rule="nonzero" fill="rgb(13.699341%, 12.199402%, 12.5%)" fill-opacity="1" d="M 185.683594 17.214844 C 186.039062 17.214844 186.28125 17.082031 186.417969 16.8125 C 186.550781 16.542969 186.617188 16.242188 186.617188 15.910156 C 186.617188 15.613281 186.570312 15.371094 186.472656 15.183594 C 186.320312 14.894531 186.058594 14.746094 185.691406 14.746094 C 185.359375 14.746094 185.121094 14.871094 184.96875 15.117188 C 184.820312 15.367188 184.75 15.667969 184.75 16.023438 C 184.75 16.363281 184.820312 16.640625 184.96875 16.871094 C 185.121094 17.101562 185.359375 17.214844 185.683594 17.214844 M 185.703125 14.277344 C 186.113281 14.277344 186.460938 14.417969 186.742188 14.6875 C 187.027344 14.960938 187.171875 15.367188 187.171875 15.898438 C 187.171875 16.414062 187.046875 16.839844 186.796875 17.175781 C 186.550781 17.507812 186.160156 17.671875 185.632812 17.671875 C 185.195312 17.671875 184.84375 17.527344 184.585938 17.234375 C 184.324219 16.933594 184.195312 16.535156 184.195312 16.03125 C 184.195312 15.5 184.332031 15.074219 184.605469 14.753906 C 184.878906 14.4375 185.242188 14.277344 185.703125 14.277344 "/>
<path fill-rule="nonzero" fill="rgb(13.699341%, 12.199402%, 12.5%)" fill-opacity="1" d="M 187.828125 14.363281 L 188.332031 14.363281 L 188.332031 14.917969 C 188.375 14.808594 188.476562 14.679688 188.636719 14.527344 C 188.800781 14.375 188.992188 14.296875 189.210938 14.296875 L 189.257812 14.296875 C 189.28125 14.296875 189.324219 14.300781 189.382812 14.308594 L 189.382812 14.878906 C 189.347656 14.875 189.316406 14.871094 189.285156 14.871094 C 189.261719 14.863281 189.230469 14.859375 189.199219 14.859375 C 188.933594 14.859375 188.726562 14.949219 188.582031 15.128906 C 188.433594 15.296875 188.363281 15.496094 188.363281 15.71875 L 188.363281 17.558594 L 187.828125 17.558594 Z M 187.828125 14.363281 "/>
<g clip-path="url(#clip-22)">
<path fill-rule="nonzero" fill="rgb(13.699341%, 12.199402%, 12.5%)" fill-opacity="1" d="M 189.828125 13.183594 L 190.34375 13.183594 L 190.34375 15.71875 L 191.71875 14.363281 L 192.402344 14.363281 L 191.183594 15.566406 L 192.480469 17.558594 L 191.792969 17.558594 L 190.792969 15.945312 L 190.34375 16.355469 L 190.34375 17.558594 L 189.828125 17.558594 Z M 189.828125 13.183594 "/>
</g>
<path fill-rule="nonzero" fill="rgb(50.19989%, 50.999451%, 52.198792%)" fill-opacity="1" d="M 83.609375 45.113281 L 82.3125 45.113281 L 82.074219 45.839844 L 81.300781 45.839844 L 82.558594 42.320312 L 83.390625 42.320312 L 84.628906 45.839844 L 83.835938 45.839844 Z M 83.398438 44.515625 L 82.960938 43.132812 L 82.511719 44.515625 Z M 83.398438 44.515625 "/>
<path fill-rule="nonzero" fill="rgb(50.19989%, 50.999451%, 52.198792%)" fill-opacity="1" d="M 104.316406 64.988281 L 102.722656 64.988281 L 102.722656 61.46875 L 104.429688 61.46875 C 104.859375 61.476562 105.164062 61.601562 105.34375 61.851562 C 105.453125 62 105.507812 62.175781 105.507812 62.382812 C 105.507812 62.601562 105.453125 62.773438 105.34375 62.898438 C 105.285156 62.972656 105.195312 63.042969 105.078125 63.097656 C 105.261719 63.164062 105.398438 63.269531 105.488281 63.414062 C 105.574219 63.554688 105.621094 63.726562 105.621094 63.929688 C 105.621094 64.132812 105.566406 64.316406 105.46875 64.480469 C 105.398438 64.597656 105.316406 64.6875 105.21875 64.757812 C 105.105469 64.847656 104.972656 64.90625 104.820312 64.9375 C 104.667969 64.972656 104.5 64.988281 104.316406 64.988281 M 104.304688 63.441406 L 103.429688 63.441406 L 103.429688 64.375 L 104.285156 64.375 C 104.445312 64.375 104.566406 64.355469 104.648438 64.308594 C 104.804688 64.234375 104.886719 64.089844 104.886719 63.871094 C 104.886719 63.695312 104.808594 63.570312 104.65625 63.5 C 104.574219 63.460938 104.457031 63.441406 104.304688 63.441406 M 104.667969 62.765625 C 104.761719 62.707031 104.808594 62.609375 104.808594 62.460938 C 104.808594 62.296875 104.746094 62.1875 104.621094 62.136719 C 104.511719 62.097656 104.371094 62.078125 104.199219 62.078125 L 103.429688 62.078125 L 103.429688 62.859375 L 104.285156 62.859375 C 104.445312 62.859375 104.570312 62.828125 104.667969 62.765625 "/>
<path fill-rule="nonzero" fill="rgb(50.19989%, 50.999451%, 52.198792%)" fill-opacity="1" d="M 126.398438 82.722656 C 126.132812 82.964844 125.800781 83.082031 125.394531 83.082031 C 124.886719 83.082031 124.488281 82.921875 124.203125 82.597656 C 123.910156 82.273438 123.765625 81.832031 123.765625 81.261719 C 123.765625 80.648438 123.929688 80.171875 124.261719 79.84375 C 124.546875 79.550781 124.910156 79.402344 125.347656 79.402344 C 125.9375 79.402344 126.371094 79.597656 126.644531 79.984375 C 126.796875 80.210938 126.878906 80.429688 126.894531 80.644531 L 126.160156 80.644531 C 126.105469 80.476562 126.046875 80.351562 125.976562 80.261719 C 125.84375 80.109375 125.644531 80.035156 125.375 80.035156 C 125.109375 80.035156 124.898438 80.140625 124.746094 80.355469 C 124.59375 80.574219 124.519531 80.878906 124.519531 81.273438 C 124.519531 81.667969 124.597656 81.964844 124.757812 82.160156 C 124.921875 82.355469 125.132812 82.453125 125.386719 82.453125 C 125.636719 82.453125 125.832031 82.367188 125.96875 82.195312 C 126.042969 82.109375 126.105469 81.972656 126.160156 81.789062 L 126.882812 81.789062 C 126.820312 82.175781 126.65625 82.488281 126.398438 82.722656 "/>
<path fill-rule="nonzero" fill="rgb(50.19989%, 50.999451%, 52.198792%)" fill-opacity="1" d="M 125.335938 45.835938 L 123.820312 45.835938 L 123.820312 42.316406 L 125.335938 42.316406 C 125.550781 42.324219 125.730469 42.347656 125.878906 42.390625 C 126.128906 42.476562 126.328125 42.625 126.480469 42.839844 C 126.597656 43.019531 126.683594 43.210938 126.726562 43.414062 C 126.769531 43.617188 126.792969 43.808594 126.792969 43.996094 C 126.792969 44.460938 126.699219 44.851562 126.507812 45.175781 C 126.253906 45.613281 125.863281 45.835938 125.335938 45.835938 M 125.878906 43.210938 C 125.765625 43.019531 125.542969 42.925781 125.210938 42.925781 L 124.535156 42.925781 L 124.535156 45.222656 L 125.210938 45.222656 C 125.554688 45.222656 125.796875 45.050781 125.9375 44.710938 C 126.011719 44.523438 126.050781 44.304688 126.050781 44.042969 C 126.050781 43.6875 125.996094 43.410156 125.878906 43.210938 "/>
<path fill-rule="nonzero" fill="rgb(50.19989%, 50.999451%, 52.198792%)" fill-opacity="1" d="M 180.402344 65.441406 L 178.808594 65.441406 L 178.808594 61.925781 L 180.515625 61.925781 C 180.945312 61.929688 181.253906 62.058594 181.429688 62.304688 C 181.539062 62.453125 181.59375 62.628906 181.59375 62.839844 C 181.59375 63.054688 181.539062 63.226562 181.429688 63.355469 C 181.375 63.429688 181.285156 63.496094 181.164062 63.554688 C 181.347656 63.617188 181.484375 63.722656 181.574219 63.867188 C 181.664062 64.007812 181.707031 64.179688 181.707031 64.382812 C 181.707031 64.589844 181.65625 64.773438 181.554688 64.9375 C 181.484375 65.050781 181.402344 65.144531 181.304688 65.210938 C 181.191406 65.304688 181.058594 65.363281 180.90625 65.394531 C 180.753906 65.425781 180.585938 65.441406 180.402344 65.441406 M 180.390625 63.898438 L 179.515625 63.898438 L 179.515625 64.832031 L 180.371094 64.832031 C 180.53125 64.832031 180.652344 64.808594 180.734375 64.765625 C 180.890625 64.6875 180.972656 64.542969 180.972656 64.328125 C 180.972656 64.148438 180.894531 64.027344 180.746094 63.953125 C 180.660156 63.917969 180.542969 63.898438 180.390625 63.898438 M 180.753906 63.21875 C 180.847656 63.164062 180.894531 63.0625 180.894531 62.914062 C 180.894531 62.75 180.832031 62.644531 180.707031 62.589844 C 180.597656 62.554688 180.457031 62.535156 180.285156 62.535156 L 179.515625 62.535156 L 179.515625 63.316406 L 180.371094 63.316406 C 180.53125 63.316406 180.660156 63.285156 180.753906 63.21875 "/>
<path fill-rule="nonzero" fill="rgb(50.19989%, 50.999451%, 52.198792%)" fill-opacity="1" d="M 154.953125 43.890625 L 153.65625 43.890625 L 153.417969 44.613281 L 152.644531 44.613281 L 153.902344 41.097656 L 154.734375 41.097656 L 155.972656 44.613281 L 155.179688 44.613281 Z M 154.742188 43.289062 L 154.304688 41.90625 L 153.855469 43.289062 Z M 154.742188 43.289062 "/>
<path fill-rule="nonzero" fill="rgb(50.19989%, 50.999451%, 52.198792%)" fill-opacity="1" d="M 200.179688 83.9375 C 199.917969 84.179688 199.582031 84.296875 199.175781 84.296875 C 198.667969 84.296875 198.269531 84.136719 197.984375 83.8125 C 197.691406 83.488281 197.546875 83.046875 197.546875 82.476562 C 197.546875 81.863281 197.710938 81.390625 198.042969 81.058594 C 198.328125 80.765625 198.691406 80.617188 199.128906 80.617188 C 199.71875 80.617188 200.152344 80.816406 200.425781 81.199219 C 200.578125 81.425781 200.660156 81.644531 200.671875 81.859375 L 199.9375 81.859375 C 199.886719 81.695312 199.828125 81.566406 199.757812 81.476562 C 199.625 81.324219 199.425781 81.25 199.160156 81.25 C 198.890625 81.25 198.679688 81.359375 198.53125 81.574219 C 198.375 81.789062 198.300781 82.09375 198.300781 82.488281 C 198.300781 82.882812 198.378906 83.179688 198.539062 83.375 C 198.703125 83.570312 198.914062 83.667969 199.167969 83.667969 C 199.421875 83.667969 199.617188 83.582031 199.75 83.414062 C 199.824219 83.324219 199.886719 83.1875 199.9375 83.003906 L 200.664062 83.003906 C 200.601562 83.390625 200.4375 83.703125 200.179688 83.9375 "/>
<path fill-rule="nonzero" fill="rgb(50.19989%, 50.999451%, 52.198792%)" fill-opacity="1" d="M 199.117188 44.609375 L 197.601562 44.609375 L 197.601562 41.089844 L 199.117188 41.089844 C 199.332031 41.097656 199.511719 41.125 199.660156 41.167969 C 199.910156 41.25 200.109375 41.402344 200.261719 41.617188 C 200.382812 41.792969 200.464844 41.984375 200.511719 42.1875 C 200.550781 42.390625 200.574219 42.585938 200.574219 42.769531 C 200.574219 43.234375 200.480469 43.628906 200.289062 43.949219 C 200.035156 44.390625 199.644531 44.609375 199.117188 44.609375 M 199.660156 41.988281 C 199.546875 41.796875 199.324219 41.699219 198.992188 41.699219 L 198.316406 41.699219 L 198.316406 44 L 198.992188 44 C 199.335938 44 199.578125 43.828125 199.71875 43.484375 C 199.796875 43.300781 199.832031 43.078125 199.832031 42.816406 C 199.832031 42.460938 199.777344 42.183594 199.660156 41.988281 "/>
<g fill="rgb(0%, 0%, 0%)" fill-opacity="1">
<use xlink:href="#glyph-0-0" x="0" y="7.2632"/>
</g>
<g fill="rgb(0%, 0%, 0%)" fill-opacity="1">
<use xlink:href="#glyph-0-1" x="75.712" y="7.2632"/>
</g>
<g fill="rgb(0%, 0%, 0%)" fill-opacity="1">
<use xlink:href="#glyph-0-2" x="149.312" y="7.2632"/>
</g>
</svg>
