<svg xmlns="http://www.w3.org/2000/svg" version="1.1" baseProfile="full" width="300" height="280"><g transform="translate(50,30)"><defs><style type="text/css">
svg {
	font-family: Lato,"Lucida Sans Unicode","Lucida Grande",Garuda,sans-serif;
	font-weight:300;
	font-size:14px;
}

.axis path,
.axis line {
	fill: none;
	stroke-width: 1px;
	stroke: #999;
	shape-rendering: crispEdges;
}

.axis text {
	fill: #666;
}

.label {
	fill: #666 !important;
}

.title {
	font-size: 1.5em;
}

.data-line {
	fill: none;
	stroke: burlywood;
	stroke-width: 0.1em;
}

.data-points {
	fill: none;
	stroke: brown;
	stroke-width: 1px;
}</style></defs><g class="x axis" transform="translate(0,200)"><g class="tick" style="opacity: 1;" transform="translate(22.222222222222225,0)"><line y2="6" x2="0"></line><text y="9" x="0" dy=".71em" style="text-anchor: middle;">0.2</text></g><g class="tick" style="opacity: 1;" transform="translate(66.66666666666667,0)"><line y2="6" x2="0"></line><text y="9" x="0" dy=".71em" style="text-anchor: middle;">0.4</text></g><g class="tick" style="opacity: 1;" transform="translate(111.11111111111111,0)"><line y2="6" x2="0"></line><text y="9" x="0" dy=".71em" style="text-anchor: middle;">0.6</text></g><g class="tick" style="opacity: 1;" transform="translate(155.55555555555557,0)"><line y2="6" x2="0"></line><text y="9" x="0" dy=".71em" style="text-anchor: middle;">0.8</text></g><g class="tick" style="opacity: 1;" transform="translate(200,0)"><line y2="6" x2="0"></line><text y="9" x="0" dy=".71em" style="text-anchor: middle;">1.0</text></g><path class="domain" d="M0,6V0H200V6"></path><text class="label axis-label" x="100" y="1.5em" dy="1em" style="text-anchor: middle;">Mixing parameter</text></g><g class="y axis"><g class="tick" style="opacity: 1;" transform="translate(0,200)"><line x2="-6" y2="0"></line><text x="-9" y="0" dy=".32em" style="text-anchor: end;">0.0</text></g><g class="tick" style="opacity: 1;" transform="translate(0,160)"><line x2="-6" y2="0"></line><text x="-9" y="0" dy=".32em" style="text-anchor: end;">0.2</text></g><g class="tick" style="opacity: 1;" transform="translate(0,120)"><line x2="-6" y2="0"></line><text x="-9" y="0" dy=".32em" style="text-anchor: end;">0.4</text></g><g class="tick" style="opacity: 1;" transform="translate(0,80)"><line x2="-6" y2="0"></line><text x="-9" y="0" dy=".32em" style="text-anchor: end;">0.6</text></g><g class="tick" style="opacity: 1;" transform="translate(0,40)"><line x2="-6" y2="0"></line><text x="-9" y="0" dy=".32em" style="text-anchor: end;">0.8</text></g><g class="tick" style="opacity: 1;" transform="translate(0,0)"><line x2="-6" y2="0"></line><text x="-9" y="0" dy=".32em" style="text-anchor: end;">1.0</text></g><path class="domain" d="M-6,0H0V200H-6"></path><text class="label axis-label" transform="rotate(-90)" x="-100" y="-2em" dy="-0.5em" style="text-anchor: middle;">NMI</text></g><g class="target infomap"><path class="data-line" d="M0,0L22.222222222222225,0L44.44444444444444,0L66.66666666666667,0L88.8888888888889,0L111.11111111111111,0L133.33333333333331,5.529781800000023L144.44444444444446,200L155.55555555555557,200L166.66666666666669,200L177.7777777777778,200L200,200" style="stroke: #aec7e8;"></path><g class="data-points"><circle cx="0" cy="0" r="0.2em" style="fill: #aec7e8; stroke: #1f77b4;"></circle><circle cx="22.222222222222225" cy="0" r="0.2em" style="fill: #aec7e8; stroke: #1f77b4;"></circle><circle cx="44.44444444444444" cy="0" r="0.2em" style="fill: #aec7e8; stroke: #1f77b4;"></circle><circle cx="66.66666666666667" cy="0" r="0.2em" style="fill: #aec7e8; stroke: #1f77b4;"></circle><circle cx="88.8888888888889" cy="0" r="0.2em" style="fill: #aec7e8; stroke: #1f77b4;"></circle><circle cx="111.11111111111111" cy="0" r="0.2em" style="fill: #aec7e8; stroke: #1f77b4;"></circle><circle cx="133.33333333333331" cy="5.529781800000023" r="0.2em" style="fill: #aec7e8; stroke: #1f77b4;"></circle><circle cx="144.44444444444446" cy="200" r="0.2em" style="fill: #aec7e8; stroke: #1f77b4;"></circle><circle cx="155.55555555555557" cy="200" r="0.2em" style="fill: #aec7e8; stroke: #1f77b4;"></circle><circle cx="166.66666666666669" cy="200" r="0.2em" style="fill: #aec7e8; stroke: #1f77b4;"></circle><circle cx="177.7777777777778" cy="200" r="0.2em" style="fill: #aec7e8; stroke: #1f77b4;"></circle><circle cx="200" cy="200" r="0.2em" style="fill: #aec7e8; stroke: #1f77b4;"></circle></g></g><g class="target louvain"><path class="data-line" d="M0,0L22.222222222222225,0L44.44444444444444,0.5909869999999842L66.66666666666667,1.9427622000000042L88.8888888888889,1.0638772000000074L111.11111111111111,10.988013999999993L133.33333333333331,99.8459032L144.44444444444446,163.233965L155.55555555555557,178.4647316L166.66666666666669,183.116081L177.7777777777778,184.3036536L200,177.230301" style="stroke: #ffbb78;"></path><g class="data-points"><circle cx="0" cy="0" r="0.2em" style="fill: #ffbb78; stroke: #ff7f0e;"></circle><circle cx="22.222222222222225" cy="0" r="0.2em" style="fill: #ffbb78; stroke: #ff7f0e;"></circle><circle cx="44.44444444444444" cy="0.5909869999999842" r="0.2em" style="fill: #ffbb78; stroke: #ff7f0e;"></circle><circle cx="66.66666666666667" cy="1.9427622000000042" r="0.2em" style="fill: #ffbb78; stroke: #ff7f0e;"></circle><circle cx="88.8888888888889" cy="1.0638772000000074" r="0.2em" style="fill: #ffbb78; stroke: #ff7f0e;"></circle><circle cx="111.11111111111111" cy="10.988013999999993" r="0.2em" style="fill: #ffbb78; stroke: #ff7f0e;"></circle><circle cx="133.33333333333331" cy="99.8459032" r="0.2em" style="fill: #ffbb78; stroke: #ff7f0e;"></circle><circle cx="144.44444444444446" cy="163.233965" r="0.2em" style="fill: #ffbb78; stroke: #ff7f0e;"></circle><circle cx="155.55555555555557" cy="178.4647316" r="0.2em" style="fill: #ffbb78; stroke: #ff7f0e;"></circle><circle cx="166.66666666666669" cy="183.116081" r="0.2em" style="fill: #ffbb78; stroke: #ff7f0e;"></circle><circle cx="177.7777777777778" cy="184.3036536" r="0.2em" style="fill: #ffbb78; stroke: #ff7f0e;"></circle><circle cx="200" cy="177.230301" r="0.2em" style="fill: #ffbb78; stroke: #ff7f0e;"></circle></g></g><g class="legend" transform="translate(10,120)"><circle r="0.2em" style="fill: #aec7e8; stroke: #1f77b4;"></circle><text x="10" dy=".35em" class="label legend-label" style="text-anchor: start;">Infomap</text></g><g class="legend" transform="translate(10,140)"><circle r="0.2em" style="fill: #ffbb78; stroke: #ff7f0e;"></circle><text x="10" dy=".35em" class="label legend-label" style="text-anchor: start;">Louvain</text></g></g></svg>