<svg xmlns="http://www.w3.org/2000/svg" version="1.1" baseProfile="full" width="300" height="280"><g transform="translate(50,30)"><defs><style type="text/css">
svg {
	font-family: Lato,"Lucida Sans Unicode","Lucida Grande",Garuda,sans-serif;
	font-weight:300;
	font-size:14px;
}

.axis path,
.axis line {
	fill: none;
	stroke-width: 1px;
	stroke: #999;
	shape-rendering: crispEdges;
}

.axis text {
	fill: #666;
}

.label {
	fill: #666 !important;
}

.title {
	font-size: 1.5em;
}

.data-line {
	fill: none;
	stroke: burlywood;
	stroke-width: 0.1em;
}

.data-points {
	fill: none;
	stroke: brown;
	stroke-width: 1px;
}</style></defs><g class="x axis" transform="translate(0,200)"><g class="tick" style="opacity: 1;" transform="translate(-Infinity,0)"><line y2="6" x2="0"></line><text y="9" x="0" dy=".71em" style="text-anchor: middle;">0</text></g><g class="tick" style="opacity: 1;" transform="translate(39.999999999999986,0)"><line y2="6" x2="0"></line><text y="9" x="0" dy=".71em" style="text-anchor: middle;">1k</text></g><g class="tick" style="opacity: 1;" transform="translate(80,0)"><line y2="6" x2="0"></line><text y="9" x="0" dy=".71em" style="text-anchor: middle;">10k</text></g><g class="tick" style="opacity: 1;" transform="translate(120.00000000000001,0)"><line y2="6" x2="0"></line><text y="9" x="0" dy=".71em" style="text-anchor: middle;">100k</text></g><g class="tick" style="opacity: 1;" transform="translate(159.99999999999997,0)"><line y2="6" x2="0"></line><text y="9" x="0" dy=".71em" style="text-anchor: middle;">1M</text></g><g class="tick" style="opacity: 1;" transform="translate(200,0)"><line y2="6" x2="0"></line><text y="9" x="0" dy=".71em" style="text-anchor: middle;">10M</text></g><path class="domain" d="M0,6V0H200V6"></path><text class="label axis-label" x="100" y="1.5em" dy="1em" style="text-anchor: middle;">Network size (#nodes)</text></g><g class="y axis"><g class="tick" style="opacity: 1;" transform="translate(0,159.99999999999997)"><line x2="-6" y2="0"></line><text x="-9" y="0" dy=".32em" style="text-anchor: end;">1m</text></g><g class="tick" style="opacity: 1;" transform="translate(0,40)"><line x2="-6" y2="0"></line><text x="-9" y="0" dy=".32em" style="text-anchor: end;">1</text></g><g class="tick" style="opacity: 1;" transform="translate(0,0)"><line x2="-6" y2="0"></line><text x="-9" y="0" dy=".32em" style="text-anchor: end;">10</text></g><path class="domain" d="M-6,0H0V200H-6"></path><text class="label axis-label" transform="rotate(-90)" x="-100" y="-2em" dy="-0.5em" style="text-anchor: middle;">Time (minutes)</text></g><g class="target infomap"><path class="data-line" d="M39.999999999999986,166.19607492507419L80,121.04410862821268L120.00000000000001,80.15412900101914L147.95880017344072,48.28519317316048L159.99999999999997,30.622173722733493L187.95880017344075,0.9997059673533499" style="stroke: #aec7e8;"></path><g class="data-points"><circle cx="39.999999999999986" cy="166.19607492507419" r="0.2em" style="fill: #aec7e8; stroke: #1f77b4;"></circle><circle cx="80" cy="121.04410862821268" r="0.2em" style="fill: #aec7e8; stroke: #1f77b4;"></circle><circle cx="120.00000000000001" cy="80.15412900101914" r="0.2em" style="fill: #aec7e8; stroke: #1f77b4;"></circle><circle cx="147.95880017344072" cy="48.28519317316048" r="0.2em" style="fill: #aec7e8; stroke: #1f77b4;"></circle><circle cx="159.99999999999997" cy="30.622173722733493" r="0.2em" style="fill: #aec7e8; stroke: #1f77b4;"></circle><circle cx="187.95880017344075" cy="0.9997059673533499" r="0.2em" style="fill: #aec7e8; stroke: #1f77b4;"></circle></g></g><g class="target louvain"><path class="data-line" d="M39.999999999999986,167.93470267631784L80,132.93225214064984L120.00000000000001,90.52289953795334L147.95880017344072,58.35930481181822L159.99999999999997,45.5964629140002L187.95880017344075,12.490813954486555" style="stroke: #ffbb78;"></path><g class="data-points"><circle cx="39.999999999999986" cy="167.93470267631784" r="0.2em" style="fill: #ffbb78; stroke: #ff7f0e;"></circle><circle cx="80" cy="132.93225214064984" r="0.2em" style="fill: #ffbb78; stroke: #ff7f0e;"></circle><circle cx="120.00000000000001" cy="90.52289953795334" r="0.2em" style="fill: #ffbb78; stroke: #ff7f0e;"></circle><circle cx="147.95880017344072" cy="58.35930481181822" r="0.2em" style="fill: #ffbb78; stroke: #ff7f0e;"></circle><circle cx="159.99999999999997" cy="45.5964629140002" r="0.2em" style="fill: #ffbb78; stroke: #ff7f0e;"></circle><circle cx="187.95880017344075" cy="12.490813954486555" r="0.2em" style="fill: #ffbb78; stroke: #ff7f0e;"></circle></g></g><g class="legend" transform="translate(10,10)"><circle r="0.2em" style="fill: #aec7e8; stroke: #1f77b4;"></circle><text x="10" dy=".35em" class="label legend-label" style="text-anchor: start;">Infomap</text></g><g class="legend" transform="translate(10,30)"><circle r="0.2em" style="fill: #ffbb78; stroke: #ff7f0e;"></circle><text x="10" dy=".35em" class="label legend-label" style="text-anchor: start;">Louvain</text></g></g></svg>