<?xml version="1.0" encoding="UTF-8" standalone="no"?>
<!-- Created with Inkscape (http://www.inkscape.org/) -->
<svg xmlns:rdf="http://www.w3.org/1999/02/22-rdf-syntax-ns#" xmlns="http://www.w3.org/2000/svg" version="1.1" xmlns:cc="http://creativecommons.org/ns#" xmlns:xlink="http://www.w3.org/1999/xlink" viewBox="0 0 395.63 113.95" xmlns:dc="http://purl.org/dc/elements/1.1/">
	<defs>
		<linearGradient id="linearGradient5173" y2="75.948" gradientUnits="userSpaceOnUse" x2="227.4" gradientTransform="translate(3.01285,174.3889)" y1="66.394" x1="223.09">
			<stop stop-color="#876500" offset="0"/>
			<stop stop-color="#8a1f11" offset="1"/>
		</linearGradient>
		<linearGradient id="linearGradient5181" y2="17.671" gradientUnits="userSpaceOnUse" x2="207.67" gradientTransform="translate(3.01285,174.3889)" y1="16.266" x1="196.08">
			<stop stop-color="#26443c" offset="0"/>
			<stop stop-color="#876500" offset="1"/>
		</linearGradient>
		<linearGradient id="linearGradient5191" y2="42.459" gradientUnits="userSpaceOnUse" x2="196.74" gradientTransform="translate(3.01285,174.3889)" y1="49.483" x1="186.58">
			<stop stop-color="#2067bc" offset="0"/>
			<stop stop-color="#876500" offset="1"/>
		</linearGradient>
		<linearGradient id="linearGradient5194" y2="93.676" gradientUnits="userSpaceOnUse" x2="210.03" gradientTransform="translate(3.01285,174.3889)" y1="91.71" x1="195.42">
			<stop stop-color="#205791" offset="0"/>
			<stop stop-color="#8a1f11" offset="1"/>
		</linearGradient>
	</defs>
	<metadata>
		<rdf:RDF>
			<cc:Work rdf:about="">
				<dc:format>image/svg+xml</dc:format>
				<dc:type rdf:resource="http://purl.org/dc/dcmitype/StillImage"/>
				<dc:title/>
			</cc:Work>
		</rdf:RDF>
	</metadata>
	<g transform="translate(-147.01285,-174.3889)">
		<path stroke-linejoin="miter" d="m193.32,264.46c8.46,2.7779,14.738,3.7187,22.314,3.0874" stroke="url(#linearGradient5194)" stroke-linecap="butt" stroke-width="1px" fill="none"/>
		<path stroke-linejoin="miter" d="m185.26,225.93c9.2857-3.9286,10.357-5.7143,17.143-11.429" stroke="url(#linearGradient5191)" stroke-linecap="butt" stroke-miterlimit="4" stroke-dasharray="none" stroke-width="2" fill="none"/>
		<path stroke-linejoin="miter" d="m165.19,213.43c7.955,0.75762,13.511,1.0102,21.213-1.389" stroke="#26443c" stroke-linecap="butt" stroke-miterlimit="4" stroke-dasharray="none" stroke-width="1.5" fill="none"/>
		<path stroke-linejoin="miter" d="m165.69,213.18c5.6821-8.3338,8.0812-12.501,11.617-16.289" stroke="#26443c" stroke-linecap="butt" stroke-miterlimit="4" stroke-dasharray="none" stroke-width="1.5" fill="none"/>
		<path stroke-linejoin="miter" d="m159,196.64c7.5761,1.6415,11.617,1.7678,17.93,0.25254" stroke="#26443c" stroke-linecap="butt" stroke-miterlimit="4" stroke-dasharray="none" stroke-width="1.5" fill="none"/>
		<path stroke-linejoin="miter" d="m170.74,180.73c0.3788,5.6821,2.0203,14.268,6.0609,16.415" stroke="#26443c" stroke-linecap="butt" stroke-miterlimit="4" stroke-dasharray="none" stroke-width="1.5" fill="none"/>
		<path stroke-linejoin="miter" d="m177.56,196.76c1.389,5.6821,4.2932,10.985,8.7126,14.9,5.6821-6.9448,7.4499-15.405,9.3439-22.35" stroke="#26443c" stroke-linecap="butt" stroke-miterlimit="4" stroke-dasharray="none" stroke-width="1.5" fill="none"/>
		<path stroke-linejoin="miter" d="m178.32,196.64c6.566-1.1364,11.617-2.2728,16.668-7.8287" stroke="#26443c" stroke-linecap="butt" stroke-miterlimit="4" stroke-dasharray="none" stroke-width="1.5" fill="none"/>
		<path stroke-linejoin="miter" d="m171.25,180.35c7.4499,4.5457,15.784,7.8287,23.36,8.0812" stroke="#26443c" stroke-linecap="butt" stroke-miterlimit="4" stroke-dasharray="none" stroke-width="1.5" fill="none"/>
		<path stroke-linejoin="miter" d="m196.75,189.06c6.8185,2.9042,9.4702,3.5355,17.678,3.0305" stroke="url(#linearGradient5181)" stroke-linecap="butt" stroke-miterlimit="4" stroke-dasharray="none" stroke-width="1.5" fill="none"/>
		<path stroke-linejoin="miter" d="m216.7,267.73c8.46,2.7779,20.077,3.1567,27.653,2.5254" stroke="#8a1f11" stroke-linecap="butt" stroke-width="1px" fill="none"/>
		<path stroke-linejoin="miter" d="m216.96,267.6c2.7779,4.9245,4.672,8.46,10.102,13.763" stroke="#8a1f11" stroke-linecap="butt" stroke-miterlimit="4" stroke-dasharray="none" stroke-width="1.5" fill="none"/>
		<path stroke-linejoin="miter" d="m226.55,282.12c9.0914-3.5355,11.238-4.672,17.93-11.49" stroke="#8a1f11" stroke-linecap="butt" stroke-miterlimit="4" stroke-dasharray="none" stroke-width="1.5" fill="none"/>
		<path stroke-linejoin="miter" d="m234.89,255.48c1.2627,5.5558,4.2931,10.354,9.7227,15.026" stroke="#8a1f11" stroke-linecap="butt" stroke-miterlimit="4" stroke-dasharray="none" stroke-width="1.5" fill="none"/>
		<path stroke-linejoin="miter" d="m216.7,267.22c6.9448-2.1466,13.637-8.8388,17.551-13.385" stroke="#8a1f11" stroke-linecap="butt" stroke-miterlimit="4" stroke-dasharray="none" stroke-width="1.5" fill="none"/>
		<path stroke-linejoin="miter" d="m225.16,236.29c2.9042,8.2075,2.6516,12.753,8.7126,17.425" stroke="url(#linearGradient5173)" stroke-linecap="butt" stroke-miterlimit="4" stroke-dasharray="none" stroke-width="1.5" fill="none"/>
		<path stroke-linejoin="miter" d="m225.8,236.41c11.869-4.4194,20.077-9.3439,27.148-17.299" stroke="#876500" stroke-linecap="butt" stroke-miterlimit="4" stroke-dasharray="none" stroke-width="2" fill="none"/>
		<path stroke-linejoin="miter" d="m226.27,220.88c-1.3303,5.9357-1.2167,8.8668,0.25254,15.531" stroke="#876500" stroke-linecap="butt" stroke-miterlimit="4" stroke-dasharray="none" stroke-width="2" fill="none"/>
		<path stroke-linejoin="miter" d="m203.32,214.95c10.859,11.743,16.289,18.688,22.223,21.718" stroke="#876500" stroke-linecap="butt" stroke-miterlimit="4" stroke-dasharray="none" stroke-width="2" fill="none"/>
		<path stroke-linejoin="miter" d="m203.45,213.3c8.7126-11.49,7.955-13.006,11.364-20.961,12.753,4.2932,13.763,4.1669,28.284,3.4093" stroke="#876500" stroke-linecap="butt" stroke-miterlimit="4" stroke-dasharray="none" stroke-width="2" fill="none"/>
		<path stroke-linejoin="miter" d="m214.68,192.34c2.3991,6.8185,4.4194,10.733,11.49,14.268" stroke="#876500" stroke-linecap="butt" stroke-miterlimit="4" stroke-dasharray="none" stroke-width="2" fill="none"/>
		<path stroke-linejoin="miter" d="m227.45,207.12c-1.6721,5.6795-1.5369,7.8134-1.0102,13.385" stroke="#876500" stroke-linecap="butt" stroke-miterlimit="4" stroke-dasharray="none" stroke-width="2" fill="none"/>
		<path stroke-linejoin="miter" d="m226.3,219.87c8.0812,1.389,16.541,2.7779,26.011-0.37881" stroke="#876500" stroke-linecap="butt" stroke-miterlimit="4" stroke-dasharray="none" stroke-width="2" fill="none"/>
		<path stroke-linejoin="miter" d="m227.69,209.52c11.364,5.8084,15.91,7.955,25.38,8.9651" stroke="#876500" stroke-linecap="butt" stroke-miterlimit="4" stroke-dasharray="none" stroke-width="2" fill="none"/>
		<path stroke-linejoin="miter" d="m202.31,216.21c11.112-1.389,19.193-3.1567,24.37-9.2176,9.2176-2.2728,11.49-4.2932,16.794-9.4702" stroke="#876500" stroke-linecap="butt" stroke-miterlimit="4" stroke-dasharray="none" stroke-width="2" fill="none"/>
		<path stroke-linejoin="miter" d="m243.73,195.37c0.50507,8.7126,3.1567,15.531,9.0914,23.107" stroke="#876500" stroke-linecap="butt" stroke-miterlimit="4" stroke-dasharray="none" stroke-width="2" fill="none"/>
		<path stroke-linejoin="miter" d="m158.87,269.62c7.4499-1.7678,13.385-5.5558,16.668-10.354" stroke="#205791" stroke-linecap="butt" stroke-miterlimit="4" stroke-dasharray="none" stroke-width="2.5" fill="none"/>
		<path stroke-linejoin="miter" d="m194.48,263.81c-6.3134,3.6618-23.612,6.0609-35.103,5.4296,9.4702-7.5761,13.006-16.794,17.046-24.875,5.177,8.5863,9.5964,14.773,18.056,19.445z" stroke="#205791" stroke-linecap="butt" stroke-miterlimit="4" stroke-dasharray="none" stroke-width="2.5" fill="none"/>
		<path stroke-linejoin="miter" d="m153.32,247.65c9.9752,0.88388,16.668-0.50508,22.981-3.5355" stroke="#205791" stroke-linecap="butt" stroke-miterlimit="4" stroke-dasharray="none" stroke-width="2.5" fill="none"/>
		<path stroke-linejoin="miter" d="m176.17,246.13c-6.3134-2.5254-13.385-11.996-16.668-16.794,14.9,1.1364,16.92-0.25254,26.39-3.0305" stroke="#205791" stroke-linecap="butt" stroke-miterlimit="4" stroke-dasharray="none" stroke-width="2.5" fill="none"/>
		<path stroke-linejoin="miter" d="m175.79,243.36c5.8084-6.8185,6.6923-11.617,10.733-17.046,4.0406,6.9448,9.0914,12.374,13.511,14.268" stroke="#205791" stroke-linecap="butt" stroke-miterlimit="4" stroke-dasharray="none" stroke-width="2.5" fill="none"/>
		<path stroke-linejoin="miter" d="m176.43,244.37c11.617,0.12626,15.152,0,23.739-3.0305" stroke="#205791" stroke-linecap="butt" stroke-miterlimit="4" stroke-dasharray="none" stroke-width="2.5" fill="none"/>
		<path stroke-linejoin="miter" d="m194.36,262.55c2.6517-6.6923,4.4194-13.132,6.0609-22.097" stroke="#205791" stroke-linecap="butt" stroke-miterlimit="4" stroke-dasharray="none" stroke-width="2.5" fill="none"/>
		<path stroke-linejoin="miter" d="m175.41,259.14c4.2932,3.4093,9.7227,4.9245,17.678,4.5457" stroke="#205791" stroke-linecap="butt" stroke-miterlimit="4" stroke-dasharray="none" stroke-width="2.5" fill="none"/>
		<path stroke-linejoin="miter" d="m176.42,245.63c-1.389,4.672-0.64404,8.2598,0.23984,13.563" stroke="#205791" stroke-linecap="butt" stroke-miterlimit="4" stroke-dasharray="none" stroke-width="2.5" fill="none"/>
		<path d="m164.56,269.24a5.5558,5.5558,0,0,1,-11.112,0,5.5558,5.5558,0,1,1,11.112,0z" stroke="#2067bc" stroke-dasharray="none" stroke-miterlimit="4" stroke-width="1" fill="#92cae4"/>
		<path d="m159.03,247.36a5.5558,5.5558,0,0,1,-11.112,0,5.5558,5.5558,0,1,1,11.112,0z" stroke="#2067bc" stroke-dasharray="none" stroke-miterlimit="4" stroke-width="1" fill="#92cae4"/>
		<path d="m181.53,244.15a5.5558,5.5558,0,0,1,-11.112,0,5.5558,5.5558,0,1,1,11.112,0z" stroke="#2067bc" stroke-dasharray="none" stroke-miterlimit="4" stroke-width="1" fill="#92cae4"/>
		<path d="m181.17,259.33a5.5558,5.5558,0,0,1,-11.112,0,5.5558,5.5558,0,1,1,11.112,0z" stroke="#2067bc" stroke-dasharray="none" stroke-miterlimit="4" stroke-width="1" fill="#92cae4"/>
		<path d="m199.74,263.79a5.5558,5.5558,0,0,1,-11.112,0,5.5558,5.5558,0,1,1,11.112,0z" stroke="#2067bc" stroke-dasharray="none" stroke-miterlimit="4" stroke-width="1" fill="#92cae4"/>
		<path d="m205.81,240.58a5.5558,5.5558,0,0,1,-11.112,0,5.5558,5.5558,0,1,1,11.112,0z" stroke="#2067bc" stroke-dasharray="none" stroke-miterlimit="4" stroke-width="1" fill="#92cae4"/>
		<path d="m191.53,226.29a5.5558,5.5558,0,0,1,-11.112,0,5.5558,5.5558,0,1,1,11.112,0z" stroke="#2067bc" stroke-dasharray="none" stroke-miterlimit="4" stroke-width="1" fill="#92cae4"/>
		<path d="m164.92,229.51a5.5558,5.5558,0,0,1,-11.112,0,5.5558,5.5558,0,1,1,11.112,0z" stroke="#2067bc" stroke-dasharray="none" stroke-miterlimit="4" stroke-width="1" fill="#92cae4"/>
		<path d="m192.06,211.29a5.5558,5.5558,0,0,1,-11.112,0,5.5558,5.5558,0,1,1,11.112,0z" stroke="#26443c" stroke-dasharray="none" stroke-miterlimit="4" stroke-width="1" fill="#c6d880"/>
		<path d="m171.17,213.26a5.5558,5.5558,0,0,1,-11.112,0,5.5558,5.5558,0,1,1,11.112,0z" stroke="#26443c" stroke-dasharray="none" stroke-miterlimit="4" stroke-width="1" fill="#c6d880"/>
		<path d="m165.64,197.36a5.5558,5.5558,0,0,1,-11.112,0,5.5558,5.5558,0,1,1,11.112,0z" stroke="#26443c" stroke-dasharray="none" stroke-miterlimit="4" stroke-width="1" fill="#c6d880"/>
		<path d="m182.42,197.01a5.5558,5.5558,0,0,1,-11.112,0,5.5558,5.5558,0,1,1,11.112,0z" stroke="#26443c" stroke-dasharray="none" stroke-miterlimit="4" stroke-width="1" fill="#c6d880"/>
		<path d="m176.53,180.93a5.5558,5.5558,0,0,1,-11.112,0,5.5558,5.5558,0,1,1,11.112,0z" stroke="#26443c" stroke-dasharray="none" stroke-miterlimit="4" stroke-width="1" fill="#c6d880"/>
		<path d="m200.99,188.79a5.5558,5.5558,0,0,1,-11.112,0,5.5558,5.5558,0,1,1,11.112,0z" stroke="#26443c" stroke-dasharray="none" stroke-miterlimit="4" stroke-width="1" fill="#c6d880"/>
		<path d="m231.35,220.58a5.5558,5.5558,0,0,1,-11.112,0,5.5558,5.5558,0,1,1,11.112,0z" stroke="#876500" stroke-dasharray="none" stroke-miterlimit="4" stroke-width="1" fill="#ffd324"/>
		<path d="m220.46,192.18a5.5558,5.5558,0,0,1,-11.112,0,5.5558,5.5558,0,1,1,11.112,0z" stroke="#876500" stroke-dasharray="none" stroke-miterlimit="4" stroke-width="1" fill="#ffd324"/>
		<path d="m249.03,195.93a5.5558,5.5558,0,0,1,-11.112,0,5.5558,5.5558,0,1,1,11.112,0z" stroke="#876500" stroke-dasharray="none" stroke-miterlimit="4" stroke-width="1" fill="#ffd324"/>
		<path d="m232.6,207.36a5.5558,5.5558,0,0,1,-11.112,0,5.5558,5.5558,0,1,1,11.112,0z" stroke="#876500" stroke-dasharray="none" stroke-miterlimit="4" stroke-width="1" fill="#ffd324"/>
		<path d="m208.31,213.97a5.5558,5.5558,0,0,1,-11.112,0,5.5558,5.5558,0,1,1,11.112,0z" stroke="#876500" stroke-dasharray="none" stroke-miterlimit="4" stroke-width="1" fill="#ffd324"/>
		<path d="m258.67,218.61a5.5558,5.5558,0,0,1,-11.112,0,5.5558,5.5558,0,1,1,11.112,0z" stroke="#876500" stroke-dasharray="none" stroke-miterlimit="4" stroke-width="1" fill="#ffd324"/>
		<path d="m231.35,236.47a5.5558,5.5558,0,0,1,-11.112,0,5.5558,5.5558,0,1,1,11.112,0z" stroke="#876500" stroke-dasharray="none" stroke-miterlimit="4" stroke-width="1" fill="#ffd324"/>
		<path d="m239.56,253.97a5.5558,5.5558,0,0,1,-11.112,0,5.5558,5.5558,0,1,1,11.112,0z" stroke="#8a1f11" stroke-dasharray="none" stroke-miterlimit="4" stroke-width="1" fill="#fbc2c4"/>
		<path d="m222.78,267.01a5.5558,5.5558,0,0,1,-11.112,0,5.5558,5.5558,0,1,1,11.112,0z" stroke="#8a1f11" stroke-dasharray="none" stroke-miterlimit="4" stroke-width="1" fill="#fbc2c4"/>
		<path d="m232.96,281.47a5.5558,5.5558,0,0,1,-11.112,0,5.5558,5.5558,0,1,1,11.112,0z" stroke="#8a1f11" stroke-dasharray="none" stroke-miterlimit="4" stroke-width="1" fill="#fbc2c4"/>
		<path d="m249.92,270.04a5.5558,5.5558,0,0,1,-11.112,0,5.5558,5.5558,0,1,1,11.112,0z" stroke="#8a1f11" stroke-dasharray="none" stroke-miterlimit="4" stroke-width="1" fill="#fbc2c4"/>
	</g>
	<g transform="translate(-147.01285,-174.3889)">
		<g fill="#727272" transform="matrix(0.37408026,0,0,0.37408026,-22.398491,67.622086)">
			<g letter-spacing="normal" font-size-adjust="none" xml:space="preserve" transform="matrix(1.0629921,0,0,-1.0629921,-186.02362,789.27165)" word-spacing="normal" font-stretch="normal" stroke-miterlimit="10.433" font-variant="normal" font-weight="normal" style="letter-spacing:normal;text-anchor:start;word-spacing:normal;" font-style="normal" fill="#727272"><path d="m903.16,349.1,0.04,0.17,0.04,0.15,0.04,0.15,0.04,0.15,0.04,0.14,0.05,0.13,0.05,0.12,0.05,0.12,0.06,0.11,0.06,0.1,0.08,0.1,0.08,0.09,0.09,0.09,0.1,0.08,0.11,0.08,0.12,0.07,0.13,0.06,0.15,0.06,0.16,0.06,0.18,0.05,0.09,0.02,0.1,0.02,0.1,0.02,0.11,0.02,0.11,0.02,0.11,0.02,0.12,0.02,0.13,0.01,0.13,0.02,0.14,0.01,0.14,0.01,0.14,0.01,0.15,0.01,0.16,0.01,0.16,0.01,0.17,0.01,0.17,0,0.18,0.01,0.18,0,0.19,0.01,0.2,0,0.2,0,0.21,0,0.22,0.01c1.49,0,1.89,0,1.89,0.95,0,0.59-0.55,0.59-0.8,0.59-1.65,0-5.73-0.15-7.37-0.15-1.5,0-5.14,0.15-6.63,0.15-0.35,0-0.95,0-0.95-1,0-0.54,0.45-0.54,1.39-0.54,0.11,0,1.05,0,1.91-0.1,0.89-0.11,1.34-0.15,1.34-0.8,0-0.2-0.06-0.35-0.2-0.95l-6.67-26.75c-0.5-1.95-0.61-2.34-4.55-2.34-0.84,0-1.34,0-1.34-1,0-0.55,0.45-0.55,1.34-0.55h23.08c1.19,0,1.23,0,1.55,0.84l3.92,10.77c0.2,0.55,0.2,0.64,0.2,0.7,0,0.19-0.14,0.55-0.59,0.55-0.46,0-0.5-0.25-0.85-1.05-1.7-4.59-3.89-10.26-12.51-10.26h-4.67c-0.71,0-0.8,0-1.1,0.04-0.5,0.05-0.65,0.1-0.65,0.5,0,0.15,0,0.25,0.25,1.15z"/><path d="m934.96,307.01,0,0.02,0,0.03,0,0.01,0,0.02-0.01,0.01,0,0.02-0.01,0.02,0,0.01-0.01,0.02-0.01,0.02-0.02,0.02-0.01,0.03-0.02,0.02-0.01,0.03-0.03,0.03-0.02,0.03-0.03,0.04-0.03,0.03-0.01,0.02-0.02,0.02-0.01,0.02-0.02,0.02-0.02,0.02-0.02,0.03-0.02,0.02-0.03,0.02-0.02,0.03-0.02,0.03-0.03,0.02-0.02,0.03-0.03,0.03-0.03,0.03-0.02,0.03-0.03,0.03-0.04,0.03-0.03,0.03-0.03,0.04-0.03,0.03-0.04,0.04-0.04,0.03-0.03,0.04-0.04,0.04c-6.22,6.28-7.82,15.69-7.82,23.31,0,8.68,1.9,17.35,8.02,23.57,0.64,0.61,0.64,0.7,0.64,0.86,0,0.34-0.19,0.48-0.48,0.48-0.5,0-4.99-3.37-7.93-9.7-2.54-5.49-3.14-11.02-3.14-15.21,0-3.89,0.55-9.9,3.29-15.54,2.98-6.13,7.28-9.36,7.78-9.36,0.29,0,0.48,0.14,0.48,0.5z"/><path d="m964.2,336.65-0.34-0.87-0.34-0.9-0.35-0.92-0.36-0.93-0.35-0.95-0.35-0.94-0.35-0.93-0.33-0.91-0.32-0.89-0.16-0.43-0.14-0.42-0.15-0.41-0.14-0.4-0.13-0.39-0.12-0.37-0.12-0.36-0.11-0.35-0.1-0.33-0.1-0.3-0.08-0.3-0.08-0.27-0.06-0.25-0.06-0.23h-0.05c-0.25,1.03-0.84,2.88-1.59,4.97l-7.82,20.63-1.7,4.34h-5.62v-34.58h3.89v30.89h0.05c0.29-1.59,2.28-7.03,3.57-10.4l7.38-19.4h3.64l6.62,17.35c1.6,4.08,2.05,5.33,2.39,6.33,0.5,1.43,1.85,5.03,2.1,6.17l0.05-0.05v-30.89h3.88v34.58h-5.68z"/><path d="m995.74,331.41,0,0.37,0,0.39-0.01,0.39-0.02,0.41-0.04,0.84-0.06,0.88-0.08,0.92-0.11,0.95-0.13,0.98-0.16,1-0.2,1.02-0.23,1.04-0.27,1.05-0.3,1.06-0.35,1.06-0.39,1.07-0.22,0.53-0.22,0.53-0.24,0.53-0.25,0.53c-2.98,6.13-7.26,9.36-7.76,9.36-0.3,0-0.5-0.19-0.5-0.48,0-0.16,0-0.25,0.93-1.16,4.89-4.92,7.74-12.84,7.74-23.27,0-8.51-1.85-17.28-8.03-23.56-0.64-0.59-0.64-0.7-0.64-0.84,0-0.3,0.2-0.5,0.5-0.5,0.5,0,4.96,3.39,7.92,9.72,2.53,5.47,3.12,11,3.12,15.18z"/><path d="m1048.7,335.26,0.1,0,0.2,0,0.1,0,0.1,0.01,0.1,0,0,0.01,0.1,0.01,0.1,0.01,0.1,0.01,0,0.01,0.1,0.02,0.1,0.02,0,0.02,0.1,0.03,0,0.02,0.1,0.03,0.1,0.04,0,0.04,0,0.04,0.1,0.04,0,0.05,0,0.03,0.1,0.03,0,0.03,0,0.03,0,0.03,0,0.03,0,0.03,0,0.04,0.1,0.03,0,0.04,0,0.04,0,0.04,0,0.04,0,0.04,0,0.05,0,0.04c0,1-1,1-1.6,1h-29.9c-0.7,0-1.6,0-1.6-1,0-0.98,0.9-0.98,1.7-0.98z"/><path d="m1048.8,325.59,0,0,0.1,0,0.1,0,0.2,0,0,0.01,0.1,0,0.1,0.01,0,0.01,0.1,0.01,0.1,0.01,0,0.01,0.1,0.02,0.1,0.02,0,0.02,0.1,0.03,0,0.02,0.1,0.04,0.1,0.03,0,0.04,0,0.04,0.1,0.05,0,0.02,0,0.03,0,0.02,0.1,0.03,0,0.03,0,0.03,0,0.03,0,0.04,0,0.03,0,0.04,0.1,0.03,0,0.04,0,0.04,0,0.04,0,0.04,0,0.05,0,0.04,0,0.05c0,1-1,1-1.7,1h-29.7c-0.8,0-1.7,0-1.7-1s0.9-1,1.6-1z"/><path d="m1089.7,340.43,0,0.02,0,0.02,0,0.02,0,0.02-0.1,0.02,0,0.02,0,0.02,0,0.02,0,0.02,0,0.03,0,0.02,0,0.02,0,0.02,0,0.02,0,0.02-0.1,0.02,0,0.01,0,0.02,0,0.02,0,0.02,0,0.01-0.1,0.01,0,0.02,0,0.01,0,0.01-0.1,0.01,0,0.01,0,0.01,0,0-0.1,0.01,0,0,0,0,0,0c-0.6,0-2.6-1.98-3.4-3.44-1.1,2.69-3.1,3.49-4.7,3.49v-1.1c3.3,0,4-4.03,4-4.37,0-0.31-2.8-11.22-2.9-11.42-0.8-1.39-3.5-4.58-6.3-4.58-3,0-3.2,3.84-3.2,4.69,0,2.39,1.4,7.81,2.3,9.9,1.5,3.69,4.1,5.78,6.1,5.78v1.1c-5.8,0-12-7.38-12-14.6,0-4.87,3-7.97,6.6-7.97,2.2,0,4.1,1.19,5.9,2.99-0.5-1.74-2.1-8.47-2.3-8.92-0.3-1.39-0.7-1.6-3.5-1.64-0.7,0-1.2,0-1.2-1,0-0.05,0-0.55,0.7-0.55,1.6,0,3.3,0.16,4.9,0.16,1.7,0,3.5-0.16,5.2-0.16,0.2,0,0.9,0,0.9,1,0,0.55-0.5,0.55-1.3,0.55-2.4,0-2.4,0.36-2.4,0.79,0,0.36,0.1,0.66,0.2,1.1z"/><path d="m1121.8,314.61-0.1,0.72-0.1,0.7-0.2,0.68-0.2,0.67-0.2,0.66-0.3,0.63-0.3,0.62-0.3,0.6-0.3,0.59-0.4,0.56-0.4,0.55-0.4,0.52-0.4,0.51-0.5,0.48-0.5,0.46-0.5,0.44-0.5,0.42-0.5,0.39-0.6,0.37-0.5,0.35-0.6,0.32-0.6,0.3-0.6,0.27-0.7,0.24-0.6,0.22-0.7,0.19-0.6,0.17-0.7,0.13-0.7,0.11-0.6,0.07-0.7,0.05-0.7,0.01c-8.9,0-15.1-7.51-15.1-14.79,0-0.36,0-1.16,0.9-1.16,0.8,0,0.8,0.73,0.8,1.08,0.2,7.39,6.1,13.14,13.4,13.14,6.6,0,12.3-4.61,13.2-11.05-1,1.11-1.8,1.71-2.3,2.1-1.6,1.07-3,1.5-3.1,1.5-0.4,0-0.5-0.36-0.5-0.64,0-0.46,0.1-0.49,0.7-0.72,3.7-1.47,5.1-4.08,5.8-5.24,0-0.17,0.2-0.31,0.4-0.31,0.3,0,0.3,0.17,0.6,0.56,1.9,3.55,4.8,4.67,5.8,5.05,0.4,0.14,0.5,0.2,0.5,0.7,0,0.14,0,0.6-0.5,0.6-0.3,0-3.4-1.1-5.6-3.82z"/><path d="m1169.6,349.15,0.1,0.16,0,0.16,0,0.15,0.1,0.14,0,0.14,0.1,0.13,0,0.12,0.1,0.12,0,0.1,0.1,0.11,0,0.09,0.1,0.09,0.1,0.09,0,0.08,0.1,0.07,0.1,0.07,0.1,0.06,0.1,0.06,0.2,0.05,0.1,0.05,0.1,0.05,0.1,0.02,0.1,0.01,0.1,0.02,0.1,0.02,0.1,0.01,0.1,0.02,0.1,0.01,0.1,0.01,0.1,0.02,0.1,0.01,0.1,0.01,0.1,0.01,0.2,0,0.1,0.01,0.1,0.01,0.2,0,0.1,0.01,0.2,0,0.1,0,0.2,0,0.1,0,0.2,0.01c1.3,0,1.7,0,1.7,1,0,0.54-0.6,0.54-0.7,0.54-1.4,0-5-0.15-6.4-0.15s-5,0.15-6.4,0.15c-0.4,0-1,0-1-1,0-0.54,0.5-0.54,1.4-0.54,0.1,0,1.1,0,1.9-0.1,0.9-0.11,1.4-0.15,1.4-0.8,0-0.2-0.1-0.31-0.2-0.95l-3-12.15h-15.2l2.9,11.7c0.5,1.8,0.6,2.3,4.2,2.3,1.3,0,1.7,0,1.7,1,0,0.54-0.5,0.54-0.7,0.54-1.4,0-5-0.15-6.4-0.15s-4.9,0.15-6.4,0.15c-0.4,0-0.9,0-0.9-1,0-0.54,0.4-0.54,1.4-0.54,0.1,0,1,0,1.9-0.1,0.8-0.11,1.3-0.15,1.3-0.8,0-0.2-0.1-0.35-0.2-0.95l-6.7-26.75c-0.5-1.95-0.6-2.34-4.5-2.34-0.9,0-1.4,0-1.4-1,0-0.55,0.7-0.55,0.7-0.55,1.4,0,5,0.16,6.4,0.16,1,0,2.1-0.07,3.2-0.07,1,0,2.1-0.09,3.2-0.09,0.4,0,1,0,1,1,0,0.55-0.5,0.55-1.4,0.55-1.8,0-3.2,0-3.2,0.89,0,0.3,0.1,0.55,0.1,0.84l3.4,13.66h15.2c-2.1-8.27-3.3-13-3.4-13.75-0.5-1.6-1.5-1.64-4.6-1.64-0.7,0-1.2,0-1.2-1,0-0.55,0.6-0.55,0.7-0.55,1.4,0,5,0.16,6.3,0.16,1.1,0,2.2-0.07,3.2-0.07,1.1,0,2.2-0.09,3.3-0.09,0.4,0,1,0,1,1,0,0.55-0.5,0.55-1.4,0.55-1.9,0-3.3,0-3.3,0.89,0,0.3,0.1,0.55,0.2,0.84z"/><path d="m1193.6,307.01,0,0.02,0,0.03,0,0.01,0,0.02,0,0.01-0.1,0.02,0,0.02,0,0.01,0,0.02,0,0.02,0,0.02,0,0.03,0,0.02,0,0.03-0.1,0.03,0,0.03,0,0.04,0,0.03-0.1,0.02,0,0.02,0,0.02,0,0.02,0,0.02-0.1,0.03,0,0.02,0,0.02,0,0.03,0,0.03-0.1,0.02,0,0.03,0,0.03,0,0.03-0.1,0.03,0,0.03,0,0.03-0.1,0.03,0,0.04,0,0.03-0.1,0.04,0,0.03,0,0.04-0.1,0.04c-6.2,6.28-7.8,15.69-7.8,23.31,0,8.68,1.9,17.35,8,23.57,0.7,0.61,0.7,0.7,0.7,0.86,0,0.34-0.2,0.48-0.5,0.48-0.5,0-5-3.37-7.9-9.7-2.6-5.49-3.2-11.02-3.2-15.21,0-3.89,0.6-9.9,3.3-15.54,3-6.13,7.3-9.36,7.8-9.36,0.3,0,0.5,0.14,0.5,0.5z"/><path d="m1207.5,320.35-0.1,0-0.1,0-0.1,0-0.2,0-0.2-0.01-0.1-0.01-0.2-0.02-0.1-0.02-0.1-0.02-0.1-0.01,0-0.02-0.1-0.02-0.1-0.03-0.1-0.02-0.1-0.03,0-0.03-0.1-0.04-0.1-0.03-0.1-0.05-0.1-0.04-0.1-0.05-0.1-0.05-0.1-0.06-0.1-0.06-0.1-0.06-0.1-0.07c-0.4-0.23-1.6-1.05-1.6-1.64,0-0.34,0.2-0.34,0.5-0.34,3.3-0.16,5.4-0.6,10.3-2.35,3.5-1.25,7-2.48,10.9-2.48,5.9,0,10.7,5.12,10.7,7.17,0,0.25-0.2,0.39-0.4,0.39-0.5,0-1.6-0.39-2.4-0.94-1.1-0.75-1.2-1.09-1.5-1.75-0.7-1.98-1.7-2.14-3.1-2.14-3.3,0-5.5,0.8-12.7,3.24,8.6,2.44,19.5,11.06,19.5,23.08,0,6.76-3.7,12.25-11,12.25-10.2,0-22-10.41-22-20.79,0-5.28,3.2-9.26,8.7-9.26,5,0,10.7,3.3,10.7,4.48,0,0.3-0.3,0.3-0.5,0.3-0.7,0-1.6-0.5-2.3-0.84-2-1.14-4.1-1.19-4.6-1.19-4.5,0-7.8,3.48-7.8,8.61,0,6.23,5.7,15.95,14.5,15.95,6.3,0,10.1-4.98,10.1-11.61,0-4.94-2.1-10.56-6.8-14.75-3.2-2.94-6.9-4.64-15-4.64z"/><path d="m1251.5,331.41,0,0.37,0,0.39-0.1,0.39,0,0.41,0,0.84-0.1,0.88,0,0.92-0.2,0.95-0.1,0.98-0.2,1-0.1,1.02-0.3,1.04-0.2,1.05-0.4,1.06-0.3,1.06-0.4,1.07-0.2,0.53-0.2,0.53-0.3,0.53-0.2,0.53c-3,6.13-7.3,9.36-7.8,9.36-0.3,0-0.5-0.19-0.5-0.48,0-0.16,0-0.25,1-1.16,4.9-4.92,7.7-12.84,7.7-23.27,0-8.51-1.8-17.28-8-23.56-0.7-0.59-0.7-0.7-0.7-0.84,0-0.3,0.2-0.5,0.5-0.5,0.5,0,5,3.39,7.9,9.72,2.6,5.47,3.2,11,3.2,15.18z"/><path d="m1287.8,330.41h13.9c0.7,0,1.6,0,1.6,1s-0.9,1-1.6,1h-13.9v13.96c0,0.68,0,1.64-1,1.64s-1-0.96-1-1.64v-13.96h-13.9c-0.7,0-1.7,0-1.7-1s1-1,1.7-1h13.9v-13.93c0-0.71,0-1.66,1-1.66s1,0.95,1,1.66z"/><path d="m1350.7,384.07,0-0.07,0-0.07,0-0.07,0-0.08-0.1-0.07,0-0.08,0-0.16-0.1-0.16,0-0.16,0-0.16-0.1-0.08,0-0.07,0-0.08,0-0.07,0-0.07-0.1-0.07,0-0.07,0-0.06,0-0.06,0-0.06,0-0.05,0-0.05,0-0.05,0-0.04-0.1-0.03,0-0.03,0-0.03,0-0.02c0-0.76,0.7-1.11,1.2-1.11,0.7,0,1.2,0.46,1.4,0.77s0.4,1.42,0.6,2.16c0.2,0.65,0.6,2.26,0.8,3.14,0.2,0.76,0.4,1.53,0.6,2.33,0.4,1.5,0.4,1.56,1,2.65,1.2,1.7,2.9,3.69,5.6,3.69,2,0,2.1-1.61,2.1-2.44,0-2.09-1.5-5.95-2.1-7.42-0.4-0.98-0.5-1.3-0.5-1.89,0-1.84,1.5-2.99,3.3-2.99,3.5,0,5,4.8,5,5.33,0,0.46-0.4,0.46-0.5,0.46-0.5,0-0.5-0.21-0.7-0.6-0.8-2.78-2.3-4.22-3.7-4.22-0.7,0-0.9,0.49-0.9,1.22,0,0.8,0.2,1.25,0.8,2.83,0.5,1.08,1.9,4.77,1.9,6.72,0,0.56,0,2.03-1.3,3.03-0.6,0.45-1.6,0.94-3.2,0.94-3.2,0-5.1-2.05-6.2-3.52-0.3,2.97-2.8,3.52-4.5,3.52-2.9,0-4.9-1.77-5.9-3.16-0.3,2.39-2.3,3.16-3.8,3.16s-2.3-1.08-2.7-1.88c-0.8-1.28-1.3-3.28-1.3-3.45,0-0.45,0.5-0.45,0.6-0.45,0.5,0,0.5,0.11,0.8,1.04,0.5,2.07,1.2,3.77,2.6,3.77,0.9,0,1.1-0.77,1.1-1.7,0-0.68-0.3-1.96-0.6-2.89-0.2-0.96-0.5-2.38-0.7-3.15l-1.2-4.46c-0.1-0.44-0.3-1.32-0.3-1.43,0-0.76,0.6-1.11,1.2-1.11s1.2,0.46,1.4,0.77c0.1,0.31,0.4,1.42,0.6,2.16,0.1,0.65,0.5,2.26,0.7,3.14,0.3,0.76,0.5,1.53,0.6,2.33,0.4,1.43,0.5,1.7,1.5,3.14,1,1.39,2.6,3.2,5.2,3.2,2,0,2.1-1.78,2.1-2.44,0-0.87-0.1-1.33-0.6-3.28z"/><path d="m1380.4,296.49,6.1,15.94h-1.3c-1.9-5.18-7.2-8.57-12.9-10.07-1.1-0.25-6-1.54-15.5-1.54h-30.1l25.4,29.75c0.3,0.39,0.4,0.54,0.4,0.79,0,0.1,0,0.25-0.3,0.75l-23.2,31.74h27.3c6.6,0,11.2-0.71,11.6-0.8,2.7-0.41,7-1.25,11-3.73,1.2-0.8,4.6-3.05,6.3-7.08h1.3l-6.1,14h-58.8c-1.2,0-1.3-0.05-1.4-0.35v-1.65l26.3-36.06-25.8-30.25c-0.5-0.6-0.5-0.85-0.5-0.89,0-0.55,0.4-0.55,1.4-0.55z"/><path d="m1332.4,281.94,0,0.05,0,0.06,0,0.05,0,0.06-0.1,0.05,0,0.06,0,0.05,0,0.06,0,0.06,0,0.05-0.1,0.06,0,0.05,0,0.06-0.1,0.05,0,0.05-0.1,0.05,0,0.05,0,0.05-0.1,0.04-0.1,0.04,0,0.04-0.1,0.04,0,0.04-0.1,0.03-0.1,0.03,0,0.02-0.1,0.03-0.1,0.02-0.1,0.01-0.1,0.01,0,0.01-0.1,0c-1,0-2-0.91-2-1.92,0-0.6,0.5-1.33,1.4-1.33,1,0,2,0.98,2,1.92z"/><path d="m1325.3,264.24-0.1-0.17,0-0.17-0.1-0.08,0-0.09,0-0.09,0-0.08-0.1-0.09,0-0.09,0-0.1,0-0.09,0-0.1,0-0.05,0-0.06,0-0.05,0-0.05,0-0.05-0.1-0.06c0-1.64,1.4-2.95,3.3-2.95,3.5,0,5.1,4.79,5.1,5.32,0,0.46-0.5,0.46-0.6,0.46-0.5,0-0.5-0.21-0.6-0.6-0.9-2.78-2.4-4.21-3.7-4.21-0.7,0-0.9,0.45-0.9,1.21,0,0.8,0.2,1.47,0.6,2.24,0.3,0.94,0.7,1.87,1.1,2.78,0.3,0.84,1.5,4.02,1.7,4.44,0.1,0.34,0.2,0.76,0.2,1.11,0,1.64-1.4,2.95-3.3,2.95-3.5,0-5.1-4.73-5.1-5.33,0-0.45,0.5-0.45,0.6-0.45,0.5,0,0.5,0.17,0.6,0.56,0.9,3,2.5,4.25,3.8,4.25,0.5,0,0.8-0.28,0.8-1.22,0-0.79-0.2-1.33-1.1-3.48z"/><path d="m1361.9,271.86,0,0,0.1,0,0,0,0.1,0,0.1,0.01,0.1,0,0,0.01,0.1,0,0,0.01,0.1,0.01,0,0.01,0.1,0.01,0,0.02,0.1,0.01,0,0.02,0.1,0.02,0,0.03,0.1,0.03,0,0.03,0.1,0.03,0,0.04,0,0.04,0.1,0.02,0,0.02,0,0.03,0,0.02,0,0.03,0,0.02,0,0.03,0,0.03,0.1,0.03,0,0.03,0,0.03,0,0.03,0,0.04,0,0.03,0,0.04,0,0.04,0,0.04,0,0.04c0,0.84-0.8,0.84-1.3,0.84h-23.1c-0.4,0-1.2,0-1.2-0.84,0-0.88,0.7-0.88,1.3-0.88z"/><path d="m1361.9,264.21,0.1,0,0,0,0,0,0.1,0,0,0,0.1,0,0.1,0.01,0,0,0.1,0.01,0,0,0.1,0.01,0,0.01,0.1,0.01,0,0.02,0.1,0.01,0,0.02,0.1,0.02,0,0.02,0.1,0.03,0,0.03,0.1,0.03,0,0.04,0,0.03,0,0.02,0.1,0.03,0,0.02,0,0.02,0,0.03,0,0.02,0,0.03,0,0.02,0.1,0.03,0,0.03,0,0.03,0,0.03,0,0.04,0,0.03,0,0.03,0,0.04,0,0.04,0,0.04c0,0.87-0.8,0.87-1.3,0.87h-23c-0.6,0-1.3,0-1.3-0.87,0-0.83,0.8-0.83,1.2-0.83z"/><path d="m1377.4,282.32,0,0.04,0,0.04,0,0.04,0,0.04,0,0.04,0,0.04,0,0.04,0,0.03,0,0.04,0,0.03,0,0.03,0,0.03,0,0.03,0,0.03,0,0.03,0,0.02,0,0.03,0,0.02-0.1,0.02,0,0.03,0,0.04,0,0.04,0,0.03,0,0.03,0,0.03-0.1,0.03,0,0.02,0,0.02-0.1,0.02,0,0.01,0,0.01-0.1,0.01,0,0.01-0.1,0.01,0,0,0,0,0,0.01-0.1,0,0,0,0,0-0.1,0.01,0,0,0,0-0.1,0,0,0,0,0-0.1,0,0,0-0.1,0,0,0-0.1,0c-2.2-2.2-5.4-2.23-6.8-2.23v-1.25c0.9,0,3.2,0,5.1,0.97v-17.77c0-1.16,0-1.61-3.5-1.61h-1.3v-1.25c0.6,0.03,4.9,0.14,6.2,0.14,1,0,5.4-0.11,6.2-0.14v1.25h-1.3c-3.5,0-3.5,0.45-3.5,1.61z"/><path d="m1399.8,312.88-0.1-0.15,0-0.15-0.1-0.14,0-0.13,0-0.12-0.1-0.12,0-0.11,0-0.11-0.1-0.1,0-0.09,0-0.09-0.1-0.08,0-0.07-0.1-0.07,0-0.06-0.1-0.06-0.1-0.06-0.1-0.05,0-0.04-0.1-0.04-0.1-0.04-0.1-0.03-0.1-0.03-0.1-0.02-0.2-0.02,0-0.01-0.1-0.01-0.1-0.01,0,0-0.1-0.01-0.1-0.01-0.1,0-0.1,0-0.1-0.01,0,0-0.1,0-0.1,0-0.1,0-0.1,0c-0.6,0-1.2,0-1.2-0.94,0-0.41,0.3-0.61,0.7-0.61,1.3,0,2.8,0.16,4.2,0.16,1.6,0,3.3-0.16,4.9-0.16,0.2,0,0.9,0,0.9,1,0,0.55-0.5,0.55-1.2,0.55-2.5,0-2.5,0.36-2.5,0.79,0,0.61,2.1,8.72,2.4,9.97,0.7-1.44,2.1-3.19,4.6-3.19v1.1c-3.3,0-4,4.14-4,4.44,0,0.09,0,0.2,0.2,0.79l2.4,9.77c0.4,1.34,1.7,2.73,2.6,3.48,1.8,1.55,3.2,1.89,4.1,1.89,1.9,0,3.1-1.73,3.1-4.68,0-2.94-1.6-8.66-2.5-10.57-1.7-3.48-4.1-5.12-5.9-5.12v-1.1c5.8,0,12,7.27,12,14.6,0,4.69-2.8,7.97-6.6,7.97-2.5,0-4.9-1.78-6.5-3.74-0.5,2.69-2.7,3.74-4.5,3.74-2.3,0-3.2-1.94-3.7-2.83-0.9-1.7-1.5-4.69-1.5-4.85,0-0.5,0.5-0.5,0.6-0.5,0.5,0,0.5,0.07,0.8,1.16,0.9,3.53,1.8,5.92,3.6,5.92,0.9,0,1.6-0.39,1.6-2.28,0-1.15-0.2-1.7-0.4-2.55z"/><path d="m1433.9,361.26,0,0.05,0,0.06,0,0.05,0,0.06,0,0.05,0,0.06-0.1,0.05,0,0.06,0,0.06,0,0.05-0.1,0.06,0,0.05,0,0.06-0.1,0.05,0,0.05,0,0.05-0.1,0.05,0,0.05-0.1,0.04,0,0.04-0.1,0.04,0,0.04-0.1,0.04-0.1,0.03,0,0.03-0.1,0.02-0.1,0.03-0.1,0.02,0,0.01-0.1,0.01-0.1,0.01-0.1,0c-0.9,0-2-0.91-2-1.92,0-0.6,0.5-1.33,1.4-1.33,1,0,2,0.98,2,1.92z"/><path d="m1426.8,343.56-0.1-0.17,0-0.17,0-0.08-0.1-0.09,0-0.09,0-0.08,0-0.09-0.1-0.09,0-0.1,0-0.09,0-0.1,0-0.05,0-0.05,0-0.06,0-0.05,0-0.05,0-0.06c0-1.64,1.4-2.95,3.3-2.95,3.5,0,5,4.79,5,5.32,0,0.46-0.5,0.46-0.6,0.46-0.4,0-0.5-0.21-0.6-0.6-0.8-2.78-2.4-4.21-3.7-4.21-0.7,0-0.9,0.45-0.9,1.21,0,0.8,0.3,1.47,0.6,2.24,0.3,0.94,0.7,1.87,1.1,2.78,0.3,0.84,1.6,4.02,1.7,4.44,0.1,0.34,0.2,0.76,0.2,1.11,0,1.64-1.4,2.95-3.3,2.95-3.5,0-5.1-4.73-5.1-5.33,0-0.45,0.5-0.45,0.6-0.45,0.5,0,0.5,0.17,0.7,0.56,0.9,3,2.4,4.25,3.7,4.25,0.5,0,0.9-0.28,0.9-1.22,0-0.79-0.3-1.33-1.1-3.48z"/><path d="m1435.2,326.6-0.2-0.2-0.2-0.2-0.2-0.21-0.2-0.2-0.2-0.22-0.2-0.21-0.1-0.21-0.2-0.22-0.1-0.21-0.2-0.21-0.1-0.22-0.1-0.21-0.1-0.2-0.1-0.21-0.1-0.2-0.1-0.19-0.1-0.19-0.1-0.19-0.1-0.18,0-0.17-0.1-0.16,0-0.16-0.1-0.15,0-0.14,0-0.13-0.1-0.11,0-0.11,0-0.1,0-0.08,0-0.07,0-0.06,0-0.04c0-0.31,0.2-0.5,0.4-0.5,0.3,0,0.7,0.14,0.8,0.53,1.2,4.6,4.5,5.72,4.6,5.72,0.2,0.03,0.7,0.06,0.7,0.58,0,0.59-0.6,0.59-0.9,0.59-0.5,0-1.2-0.06-1.7-0.17-0.1,0-0.2-0.03-0.3-0.03s-1.4,0.11-2.8,0.84c-1.1,0.55-1.7,1.08-2.2,1.57-0.1,0.14-0.3,0.23-0.4,0.23-0.2,0-0.8-0.06-0.8-0.55,0-0.48,1.7-1.89,3.8-2.79-4.3-1.63-8.1-6.16-8.1-11.91,0-7.22,5.8-12.86,12.9-12.86s12.8,5.75,12.8,12.83c0,8.05-6.9,11.63-7.5,11.63-0.3,0-0.6-0.27-0.6-0.6,0-0.34,0.2-0.45,0.8-0.72,3.9-2.12,6.1-6.28,6.1-10.28,0-6.48-5.2-11.67-11.6-11.67-6.5,0-11.7,5.25-11.7,11.64,0,4.63,2.8,9.64,8.7,11.28z"/><path d="m1494.2,349.15,0.1,0.16,0,0.16,0,0.15,0.1,0.14,0,0.14,0.1,0.13,0,0.12,0,0.12,0.1,0.1,0.1,0.11,0,0.09,0.1,0.09,0.1,0.09,0,0.08,0.1,0.07,0.1,0.07,0.1,0.06,0.1,0.06,0.2,0.05,0.1,0.05,0.1,0.05,0.2,0.03,0.1,0.02,0.1,0.02,0.1,0.01,0.1,0.02,0.1,0.01,0.1,0.01,0.1,0.02,0.1,0.01,0.1,0.01,0.1,0.01,0.2,0,0.1,0.01,0.1,0.01,0.2,0,0.1,0.01,0.2,0,0.1,0,0.2,0,0.1,0,0.2,0.01c1.3,0,1.7,0,1.7,1,0,0.54-0.6,0.54-0.7,0.54-1.4,0-5-0.15-6.4-0.15s-5,0.15-6.4,0.15c-0.4,0-1,0-1-1,0-0.54,0.5-0.54,1.4-0.54,0.1,0,1.1,0,1.9-0.1,0.9-0.11,1.4-0.15,1.4-0.8,0-0.2-0.1-0.31-0.2-0.95l-3-12.15h-15.2l2.9,11.7c0.5,1.8,0.6,2.3,4.2,2.3,1.3,0,1.7,0,1.7,1,0,0.54-0.5,0.54-0.7,0.54-1.4,0-5-0.15-6.4-0.15s-4.9,0.15-6.4,0.15c-0.4,0-0.9,0-0.9-1,0-0.54,0.4-0.54,1.4-0.54,0.1,0,1,0,1.9-0.1,0.8-0.11,1.3-0.15,1.3-0.8,0-0.2-0.1-0.35-0.2-0.95l-6.7-26.75c-0.5-1.95-0.6-2.34-4.5-2.34-0.9,0-1.4,0-1.4-1,0-0.55,0.7-0.55,0.7-0.55,1.4,0,5,0.16,6.4,0.16,1,0,2.1-0.07,3.2-0.07,1,0,2.1-0.09,3.2-0.09,0.4,0,1,0,1,1,0,0.55-0.5,0.55-1.4,0.55-1.8,0-3.2,0-3.2,0.89,0,0.3,0.1,0.55,0.1,0.84l3.4,13.66h15.2c-2.1-8.27-3.3-13-3.5-13.75-0.4-1.6-1.4-1.64-4.5-1.64-0.7,0-1.2,0-1.2-1,0-0.55,0.6-0.55,0.7-0.55,1.4,0,5,0.16,6.3,0.16,1.1,0,2.2-0.07,3.2-0.07,1.1,0,2.2-0.09,3.3-0.09,0.4,0,1,0,1,1,0,0.55-0.5,0.55-1.4,0.55-1.9,0-3.3,0-3.3,0.89,0,0.3,0.1,0.55,0.2,0.84z"/><path d="m1518.2,307.01,0,0.02,0,0.03,0,0.01,0,0.02,0,0.01-0.1,0.02,0,0.02,0,0.01,0,0.02,0,0.02,0,0.02,0,0.03,0,0.02,0,0.03-0.1,0.03,0,0.03,0,0.04,0,0.03-0.1,0.02,0,0.02,0,0.02,0,0.02,0,0.02-0.1,0.03,0,0.02,0,0.02,0,0.03,0,0.03-0.1,0.02,0,0.03,0,0.03,0,0.03-0.1,0.03,0,0.03,0,0.03-0.1,0.03,0,0.04,0,0.03-0.1,0.04,0,0.03,0,0.04-0.1,0.04c-6.2,6.28-7.8,15.69-7.8,23.31,0,8.68,1.9,17.35,8,23.57,0.7,0.61,0.7,0.7,0.7,0.86,0,0.34-0.2,0.48-0.5,0.48-0.5,0-5-3.37-7.9-9.7-2.6-5.49-3.2-11.02-3.2-15.21,0-3.89,0.6-9.9,3.3-15.54,3-6.13,7.3-9.36,7.8-9.36,0.3,0,0.5,0.14,0.5,0.5z"/><path d="m1538.3,352.99-0.6-0.01-0.7-0.03-0.6-0.04-0.6-0.07-0.6-0.08-0.6-0.1-0.6-0.11-0.6-0.12-0.6-0.14-0.5-0.16-0.5-0.16-0.6-0.17-0.5-0.19-0.5-0.19-0.5-0.21-0.4-0.21-0.5-0.21-0.4-0.23-0.5-0.22-0.4-0.24-0.4-0.23-0.3-0.24-0.4-0.24-0.3-0.25-0.4-0.24-0.3-0.24-0.3-0.24-0.3-0.24-0.2-0.24-0.2-0.23-0.3-0.23-0.2-0.22c-1.7-1.99-1.9-3.44-1.9-3.53,0-0.3,0.2-0.41,0.5-0.41,0.8,0,2,0.7,2.4,0.95,1,0.69,1.2,1,1.5,1.94,0.7,2,2.1,3.74,8.4,4.03-0.9-11.2-3.9-22.11-8.1-32.53-0.3-0.75-0.3-0.84-0.3-0.89,0-0.16,0.1-0.34,0.5-0.34,0.8,0,3.2,1.09,3.7,2.39,2.6,6.08,6.7,17.53,8.2,31.37h2.6c6,0,11.9-2.33,11.9-7.31,0-3.73-3.6-10.72-13.3-11.02-1-0.04-1.6-0.04-3-0.95-0.9-0.59-1.2-1.14-1.2-1.44,0-0.34,0.2-0.34,0.9-0.34,9.1,0,20.8,7.67,20.8,15.89,0,5.67-6.7,7.92-12.5,7.92z"/><path d="m1571.1,361.26,0,0.05,0,0.06-0.1,0.05,0,0.06,0,0.05,0,0.06,0,0.05,0,0.06,0,0.06-0.1,0.05,0,0.06,0,0.05-0.1,0.06,0,0.05,0,0.05-0.1,0.05,0,0.05-0.1,0.05,0,0.04-0.1,0.04,0,0.04-0.1,0.04,0,0.04-0.1,0.03-0.1,0.03-0.1,0.02,0,0.03-0.1,0.02-0.1,0.01-0.1,0.01-0.1,0.01,0,0c-1,0-2-0.91-2-1.92,0-0.6,0.5-1.33,1.4-1.33,1,0,2,0.98,2,1.92z"/><path d="m1563.9,343.56,0-0.17-0.1-0.17,0-0.08,0-0.09,0-0.09-0.1-0.08,0-0.09,0-0.09,0-0.1,0-0.09,0-0.1,0-0.05-0.1-0.05,0-0.06,0-0.05,0-0.05,0-0.06c0-1.64,1.4-2.95,3.3-2.95,3.5,0,5.1,4.79,5.1,5.32,0,0.46-0.5,0.46-0.6,0.46-0.5,0-0.5-0.21-0.7-0.6-0.8-2.78-2.3-4.21-3.7-4.21-0.7,0-0.8,0.45-0.8,1.21,0,0.8,0.2,1.47,0.5,2.24,0.4,0.94,0.8,1.87,1.1,2.78,0.4,0.84,1.6,4.02,1.8,4.44,0.1,0.34,0.2,0.76,0.2,1.11,0,1.64-1.4,2.95-3.4,2.95-3.4,0-5-4.73-5-5.33,0-0.45,0.5-0.45,0.6-0.45,0.5,0,0.5,0.17,0.6,0.56,0.9,3,2.5,4.25,3.7,4.25,0.6,0,0.9-0.28,0.9-1.22,0-0.79-0.2-1.33-1.1-3.48z"/><path d="m1590.8,331.41,0,0.37,0,0.39,0,0.39,0,0.41,0,0.84-0.1,0.88-0.1,0.92-0.1,0.95-0.1,0.98-0.2,1-0.2,1.02-0.2,1.04-0.3,1.05-0.3,1.06-0.3,1.06-0.4,1.07-0.2,0.53-0.3,0.53-0.2,0.53-0.2,0.53c-3,6.13-7.3,9.36-7.8,9.36-0.3,0-0.5-0.19-0.5-0.48,0-0.16,0-0.25,0.9-1.16,4.9-4.92,7.8-12.84,7.8-23.27,0-8.51-1.9-17.28-8.1-23.56-0.6-0.59-0.6-0.7-0.6-0.84,0-0.3,0.2-0.5,0.5-0.5,0.5,0,5,3.39,7.9,9.72,2.5,5.47,3.1,11,3.1,15.18z"/></g>
		</g>
	</g>
</svg>
