<!-- Created with Inkscape (http://www.inkscape.org/) -->
<svg xmlns:rdf="http://www.w3.org/1999/02/22-rdf-syntax-ns#" xmlns="http://www.w3.org/2000/svg" xml:space="preserve" height="100%" width="100%" version="1.1" xmlns:cc="http://creativecommons.org/ns#" xmlns:dc="http://purl.org/dc/elements/1.1/" viewBox="0 0 231.80624 78.959853"><metadata><rdf:RDF><cc:Work rdf:about=""><dc:format>image/svg+xml</dc:format><dc:type rdf:resource="http://purl.org/dc/dcmitype/StillImage"/><dc:title/></cc:Work></rdf:RDF></metadata><defs>
</defs><path d="m45.59,46.92,0-0.075,0.15-0.525,0.3-1.125,0.375-1.575,0.375-1.5,0.3-1.125,0.15-0.525,0-0.075,0.15,0,0.375-0.075,0.75-0.075,1.05-0.15,1.425-0.15,1.875-0.225,2.175-0.225,2.475-0.3,2.7-0.3,2.775-0.3,2.925-0.3,2.85-0.3,2.85-0.3,2.775-0.3,2.7-0.225,2.55-0.225,2.475-0.225,2.325-0.225,2.25-0.15,2.25-0.15,2.175-0.0747,2.1-0.15,2.175-0.0751,2.175-0.0752,2.175-0.0747,1.875,0,2.025-0.0751,13.38,0,2.7,0.0751,2.85,0,3,0.0747,3.225,0.0752,3.3,0.0751,3.525,0.0747,3.6,0.0751,3.75,0.15,3.75,0.075,3.75,0.15,3.6,0.075,3.45,0.15,3.225,0.075,2.85,0.075,2.475,0.075,2.025,0.075,1.575,0.075,1.2,0,0.675,0.075,0.6,0-0.225,0.075-0.525,0.225-0.9,0.375-1.425,0.525-1.875,0.675-2.25,0.9-2.625,0.975-2.775,1.05-2.7,1.05-2.625,0.975-2.25,0.9-1.875,0.675-1.425,0.525-0.9,0.375-0.525,0.225-0.225,0.075,0-4.05-0.6,0-0.75-0.075-1.125,0-1.5-0.075-1.95-0.075-2.325-0.075-2.625-0.075-2.85-0.075-2.925-0.075-3-0.075-2.925-0.075-2.925-0.075-2.85-0.075-2.625-0.075-2.55,0-2.4-0.075-8.4,0-1.875,0.075-1.8,0-1.8,0.075-1.8,0.075-1.95,0.075-1.95,0.15-1.95,0.075-2.025,0.15-2.1,0.15-2.25,0.225-2.325,0.15-2.4,0.225-2.625,0.3-2.775,0.3-2.925,0.3-3,0.3-3.075,0.375-3.075,0.375-3.075,0.3-2.85,0.375-2.625,0.3-2.175,0.225-1.8,0.225-1.35,0.15-0.9,0.15-0.45,0.075-0.225,0" fill-rule="evenodd" fill="#71b2d7"/><path stroke-linejoin="bevel" d="m45.59,46.92,0-0.075,0.15-0.525,0.3-1.125,0.375-1.575,0.375-1.5,0.3-1.125,0.15-0.525,0-0.075,0.15,0,0.375-0.075,0.75-0.075,1.05-0.15,1.425-0.15,1.875-0.225,2.175-0.225,2.475-0.3,2.7-0.3,2.775-0.3,2.925-0.3,2.85-0.3,2.85-0.3,2.775-0.3,2.7-0.225,2.55-0.225,2.475-0.225,2.325-0.225,2.25-0.15,2.25-0.15,2.175-0.0747,2.1-0.15,2.175-0.0751,2.175-0.0752,2.175-0.0747,1.875,0,2.025-0.0751,13.38,0,2.7,0.0751,2.85,0,3,0.0747,3.225,0.0752,3.3,0.0751,3.525,0.0747,3.6,0.0751,3.75,0.15,3.75,0.075,3.75,0.15,3.6,0.075,3.45,0.15,3.225,0.075,2.85,0.075,2.475,0.075,2.025,0.075,1.575,0.075,1.2,0,0.675,0.075,0.6,0-0.225,0.075-0.525,0.225-0.9,0.375-1.425,0.525-1.875,0.675-2.25,0.9-2.625,0.975-2.775,1.05-2.7,1.05-2.625,0.975-2.25,0.9-1.875,0.675-1.425,0.525-0.9,0.375-0.525,0.225-0.225,0.075,0-4.05-0.6,0-0.75-0.075-1.125,0-1.5-0.075-1.95-0.075-2.325-0.075-2.625-0.075-2.85-0.075-2.925-0.075-3-0.075-2.925-0.075-2.925-0.075-2.85-0.075-2.625-0.075-2.55,0-2.4-0.075-8.4,0-1.875,0.075-1.8,0-1.8,0.075-1.8,0.075-1.95,0.075-1.95,0.15-1.95,0.075-2.025,0.15-2.1,0.15-2.25,0.225-2.325,0.15-2.4,0.225-2.625,0.3-2.775,0.3-2.925,0.3-3,0.3-3.075,0.375-3.075,0.375-3.075,0.3-2.85,0.375-2.625,0.3-2.175,0.225-1.8,0.225-1.35,0.15-0.9,0.15-0.45,0.075-0.225,0z" stroke="#519ecf" stroke-linecap="butt" stroke-miterlimit="10" stroke-dasharray="none" stroke-width="0.5625" fill="none"/><path d="m173.1,29.79,0,0.0752-0.075,0.3-0.15,0.75-0.3,1.125-0.3,1.425-0.3,1.425-0.3,1.125-0.15,0.75-0.075,0.3,0,0.075-0.6,0-0.675-0.075-1.2,0-1.575-0.075-2.025-0.075-2.475-0.075-2.85-0.075-3.225-0.075-3.45-0.15-3.6-0.075-3.75-0.15-3.75-0.075-3.75-0.15-3.6-0.0751-3.525-0.0747-3.3-0.0751-3.225-0.0752-3-0.0747-2.85,0-2.7-0.0751-13.38,0-2.025,0.0751-1.875,0-2.175,0.0747-2.175,0.0752-2.175,0.0751-2.1,0.15-2.175,0.0747-2.25,0.15-2.25,0.15-2.325,0.225-2.475,0.225-2.55,0.225-2.7,0.225-2.775,0.3-2.85,0.3-2.85,0.3-2.925,0.3-2.775,0.3-2.7,0.3-2.475,0.3-2.175,0.225-1.875,0.225-1.425,0.15-1.05,0.15-0.75,0.075-0.375,0.075-0.15,0,0.225-0.15,0.525-0.3,0.9-0.525,1.35-0.825,1.8-1.125,2.25-1.35,2.55-1.5,2.7-1.65,2.625-1.575,2.55-1.5,2.25-1.35,1.8-1.125,1.35-0.825,0.9-0.525,0.525-0.3,0.225-0.15,0,0.15,0.075,0.6,0.15,1.275,0.15,1.2,0.075,0.6,0,0.15,0.15,0,0.45-0.0751,0.675-0.0752,1.125-0.0747,1.35-0.15,1.65-0.15,1.95-0.225,1.95-0.15,2.1-0.15,2.1-0.15,2.025-0.15,2.025-0.15,1.95-0.0751,1.95-0.15,1.95,0,2.025-0.0751,2.025-0.0747,7.65,0,1.725,0.0747,1.875,0,1.95,0.0751,2.025,0,2.25,0.0747,2.325,0.0753,2.55,0,2.7,0.0751,2.925,0.15,3.075,0.0747,3.225,0.0752,3.45,0.15,3.6,0.0751,3.675,0.15,3.675,0.15,3.75,0.15,3.6,0.0752,3.45,0.15,3.225,0.0751,2.85,0.15,2.55,0.0751,2.025,0.0747,1.575,0.0751,1.125,0,0.75,0.0747,0.6,0" fill-rule="evenodd" fill="#418ec7"/><path stroke-linejoin="bevel" d="m173.1,29.79,0,0.0752-0.075,0.3-0.15,0.75-0.3,1.125-0.3,1.425-0.3,1.425-0.3,1.125-0.15,0.75-0.075,0.3,0,0.075-0.6,0-0.675-0.075-1.2,0-1.575-0.075-2.025-0.075-2.475-0.075-2.85-0.075-3.225-0.075-3.45-0.15-3.6-0.075-3.75-0.15-3.75-0.075-3.75-0.15-3.6-0.0751-3.525-0.0747-3.3-0.0751-3.225-0.0752-3-0.0747-2.85,0-2.7-0.0751-13.38,0-2.025,0.0751-1.875,0-2.175,0.0747-2.175,0.0752-2.175,0.0751-2.1,0.15-2.175,0.0747-2.25,0.15-2.25,0.15-2.325,0.225-2.475,0.225-2.55,0.225-2.7,0.225-2.775,0.3-2.85,0.3-2.85,0.3-2.925,0.3-2.775,0.3-2.7,0.3-2.475,0.3-2.175,0.225-1.875,0.225-1.425,0.15-1.05,0.15-0.75,0.075-0.375,0.075-0.15,0,0.225-0.15,0.525-0.3,0.9-0.525,1.35-0.825,1.8-1.125,2.25-1.35,2.55-1.5,2.7-1.65,2.625-1.575,2.55-1.5,2.25-1.35,1.8-1.125,1.35-0.825,0.9-0.525,0.525-0.3,0.225-0.15,0,0.15,0.075,0.6,0.15,1.275,0.15,1.2,0.075,0.6,0,0.15,0.15,0,0.45-0.0751,0.675-0.0752,1.125-0.0747,1.35-0.15,1.65-0.15,1.95-0.225,1.95-0.15,2.1-0.15,2.1-0.15,2.025-0.15,2.025-0.15,1.95-0.0751,1.95-0.15,1.95,0,2.025-0.0751,2.025-0.0747,7.65,0,1.725,0.0747,1.875,0,1.95,0.0751,2.025,0,2.25,0.0747,2.325,0.0753,2.55,0,2.7,0.0751,2.925,0.15,3.075,0.0747,3.225,0.0752,3.45,0.15,3.6,0.0751,3.675,0.15,3.675,0.15,3.75,0.15,3.6,0.0752,3.45,0.15,3.225,0.0751,2.85,0.15,2.55,0.0751,2.025,0.0747,1.575,0.0751,1.125,0,0.75,0.0747,0.6,0z" stroke="#2875b6" stroke-linecap="butt" stroke-miterlimit="10" stroke-dasharray="none" stroke-width="0.5625" fill="none"/><path d="m31.84,23.29c9.712,1.712,16.25,10.98,14.5,20.62-1.712,9.712-10.98,16.25-20.62,14.5-9.712-1.712-16.25-10.98-14.5-20.62,1.712-9.712,10.98-16.25,20.62-14.5" fill-rule="evenodd" fill="#ffb241"/><path stroke-linejoin="bevel" d="m31.84,23.29c9.712,1.712,16.25,10.98,14.5,20.62-1.712,9.712-10.98,16.25-20.62,14.5-9.712-1.712-16.25-10.98-14.5-20.62,1.712-9.712,10.98-16.25,20.62-14.5z" stroke="#f79628" stroke-linecap="butt" stroke-miterlimit="10" stroke-dasharray="none" stroke-width="0.5625" fill="none"/><path d="m190.6,21.42c8.525,1.5,14.25,9.6,12.75,18.12-1.5,8.488-9.625,14.12-18.12,12.62-8.525-1.5-14.25-9.6-12.75-18.12,1.5-8.488,9.625-14.12,18.12-12.62" fill-rule="evenodd" fill="#ffae38"/><path stroke-linejoin="bevel" d="m190.6,21.42c8.525,1.5,14.25,9.6,12.75,18.12-1.5,8.488-9.625,14.12-18.12,12.62-8.525-1.5-14.25-9.6-12.75-18.12,1.5-8.488,9.625-14.12,18.12-12.62z" stroke="#f79228" stroke-linecap="butt" stroke-miterlimit="10" stroke-dasharray="none" stroke-width="0.5625" fill="none"/><path d="m189.3,26.04c6,1.056,10,6.775,8.95,12.75-1.056,6-6.775,10-12.75,8.938-6-1.056-10-6.775-8.95-12.75,1.058-6,6.775-10,12.75-8.938" fill-rule="evenodd" fill="#ef7518"/><path d="m31.84,26.67c7.788,1.375,13,8.8,11.62,16.62-1.375,7.788-8.8,13-16.62,11.62-7.788-1.375-13-8.8-11.62-16.62,1.375-7.787,8.8-13,16.62-11.62" fill-rule="evenodd" fill="#d75908"/><path stroke-linejoin="miter" d="m106.8,38.92-55.5,20.25" stroke="#414141" stroke-linecap="round" stroke-miterlimit="10" stroke-dasharray="none" stroke-width="1.125" fill="none"/><path stroke-linejoin="miter" d="m88.09,30.67-29.25-9.75" stroke="#414141" stroke-linecap="round" stroke-miterlimit="10" stroke-dasharray="none" stroke-width="1.125" fill="none"/><path stroke-linejoin="miter" d="m181.8,69.67,18-28" stroke="#414141" stroke-linecap="round" stroke-miterlimit="10" stroke-dasharray="none" stroke-width="1.125" fill="none"/><path stroke-linejoin="miter" d="M190.6,30.17,202.8,8.918" stroke="#414141" stroke-linecap="round" stroke-miterlimit="10" stroke-dasharray="none" stroke-width="1.125" fill="none"/><text y="46.869011" x="23.29055" font-size="15px"><tspan font-size="17.43462372px" font-family="Helvetica" fill-rule="nonzero" style="writing-mode:lr-tb;" font-variant="normal" y="46.869011" x="23.29055" font-weight="bold" fill="#414141">A</tspan></text>
<text font-family="Helvetica" fill-rule="nonzero" font-size="9.96263695px" font-variant="normal" y="18.069269" x="1.2408065" font-weight="normal" fill="#414141"><tspan y="18.069269" x="1.2408065 8.4408188 10.690758 13.390831 18.940758 21.640831 23.89077 29.440758 37.839867 42.789879 48.189415 58.088829 60.788841 64.088829 69.638817 80.888084 90.187401 92.887474 101.28652" style="writing-mode:lr-tb;">CitationﬂowfromBtoA</tspan><tspan y="7.5692692" x="126.19057 133.39052 135.64052 138.34053 143.89052 146.59053 148.84053 154.39046 162.63966 167.58968 172.98927 183.03853 190.23854 192.48848 195.18855 200.73848 202.98848 211.23769 216.1877 221.73763 223.98763" style="writing-mode:lr-tb;">Citationﬂowwithinﬁeld</tspan><tspan y="69.369072" x="-0.55942541 6.6405258 8.8905258 11.590538 17.140526 19.840538 22.090538 27.640526 35.889671 40.839684 46.239281 56.288536 58.988609 62.288536 67.838524 78.93795 88.387169 91.087181 99.48629" style="writing-mode:lr-tb;">CitationﬂowfromAtoB</tspan><tspan y="78.818779" x="129.19057 136.39052 138.64052 141.34059 146.89052 149.59053 151.84053 157.39052 165.63966 170.58968 175.98927 186.03853 191.58852 197.1385 202.68794 208.23793 213.63716 218.58717 224.13716 226.3871" style="writing-mode:lr-tb;">Citationﬂowoutofﬁeld</tspan></text>
<text y="43.569267" x="183.04066" font-size="15px"><tspan font-size="14.94400024px" font-family="Helvetica" fill-rule="nonzero" style="writing-mode:lr-tb;" font-variant="normal" y="43.569267" x="183.04066" font-weight="bold" fill="#414141">B</tspan></text>
</svg>
