<?xml version="1.0" encoding="utf-8"?>
<!-- Generator: Adobe Illustrator 23.0.4, SVG Export Plug-In . SVG Version: 6.00 Build 0)  -->
<svg version="1.1" id="svg2" xmlns="http://www.w3.org/2000/svg" xmlns:xlink="http://www.w3.org/1999/xlink" x="0px" y="0px"
	 viewBox="0 0 332.1 256.1" style="enable-background:new 0 0 332.1 256.1;" xml:space="preserve">
<style type="text/css">
	.st0{fill:#FFFFE5;stroke:#000000;stroke-width:1.07;stroke-linecap:round;stroke-linejoin:round;}
	.st1{fill:#FFF7BC;stroke:#000000;stroke-width:1.07;stroke-linecap:round;stroke-linejoin:round;}
	.st2{fill:#FEE391;stroke:#000000;stroke-width:1.07;stroke-linecap:round;stroke-linejoin:round;}
	.st3{fill:#FEC44F;stroke:#000000;stroke-width:1.07;stroke-linecap:round;stroke-linejoin:round;}
	.st4{fill:#FE9929;stroke:#000000;stroke-width:1.07;stroke-linecap:round;stroke-linejoin:round;}
	.st5{fill:#EC7014;stroke:#000000;stroke-width:1.07;stroke-linecap:round;stroke-linejoin:round;}
	.st6{fill:#CC4C02;stroke:#000000;stroke-width:1.07;stroke-linecap:round;stroke-linejoin:round;}
	.st7{fill:#993404;stroke:#000000;stroke-width:1.07;stroke-linecap:round;stroke-linejoin:round;}
	.st8{fill:#672607;stroke:#000000;stroke-width:1.07;stroke-linecap:round;stroke-linejoin:round;}
	.st9{font-family:'ZapfDingbatsITC';}
	.st10{font-size:6.645px;}
	.st11{fill:none;stroke:#000000;stroke-width:1.91;stroke-linecap:round;stroke-linejoin:round;}
	.st12{font-size:16.701px;}
	.st13{opacity:0.97;fill:#FFFFFF;stroke:#FFFFFF;stroke-width:1.483;enable-background:new    ;}
	.st14{opacity:0.97;fill:#FFFFFF;stroke:#FFFFFF;stroke-width:2.966;enable-background:new    ;}
	.st15{opacity:0.97;fill:none;stroke:#FFFFFF;stroke-width:1.483;enable-background:new    ;}
	.st16{fill:#555555;}
	.st17{font-family:'Helvetica';}
	.st18{font-size:8px;}
	.st19{fill:none;}
	.st20{enable-background:new    ;}
	.st21{opacity:0.97;fill:#672607;enable-background:new    ;}
	.st22{opacity:0.96;fill:#993404;enable-background:new    ;}
	.st23{opacity:0.96;fill:#CC4C02;enable-background:new    ;}
	.st24{opacity:0.96;fill:#EC7014;enable-background:new    ;}
	.st25{opacity:0.96;fill:#FE9929;enable-background:new    ;}
	.st26{opacity:0.96;fill:#FEC44F;enable-background:new    ;}
	.st27{opacity:0.96;fill:#FEE391;enable-background:new    ;}
	.st28{opacity:0.96;fill:#FFF7BC;enable-background:new    ;}
	.st29{opacity:0.96;fill:#FFFFE5;enable-background:new    ;}
	.st30{opacity:0.96;fill:none;stroke:#000000;stroke-width:1.186;enable-background:new    ;}
	.st31{fill:none;stroke:#000000;stroke-width:3;}
</style>
<title>solutionlandscape</title>
<path id="path80" class="st0" d="M27.8,106l0.3-0.4l2-2.6l2.2-2.4l2.4-2.1l2.6-1.8l2.8-1.5l2.7-1l0.4-0.1l3.4-0.8l2.4-0.2l1.4-0.1
	l3.5,0.1l0.6,0l4,0.2l0.3,0l4.2,0.2l0.1,0l3.9,0l0.9,0l3-0.2l2.1-0.1l1.8-0.1l3.4-0.2l0.5,0l3.9-0.2l0.8,0l3-0.2l2.2-0.1l1.7-0.1
	l3.5-0.2l0.3,0l3.8-0.3l1.3-0.1l2.5-0.3l3.2-0.4l0.5-0.1l3.5-0.7l2.4-0.6l1-0.2l3.2-1.1l3-1.3l2.6-1.4l0.2-0.1l2.7-1.7l2.6-1.8
	l2.5-1.9l2.5-1.9l2.6-1.9l2.6-1.8l2.7-1.7l2.7-1.7l2.7-1.7l2.7-1.7l2.2-1.4l0.5-0.3l2.7-1.7l2.6-1.8l2.6-1.9l2.6-1.9l2.5-1.9
	l2.6-1.8l2.6-1.8l2.7-1.7l2.9-1.5l1.7-0.7l1.3-0.6l3.2-1.1l3.4-0.8l0,0l3.6-0.5l1.9-0.1l2-0.1l2.8,0.1l1.4,0.1l3,0.3l1.4,0.2
	l2.6,0.4l2.1,0.4l1.8,0.4l3.2,0.8l0.4,0.1l3.5,1.1l1.6,0.6l1.7,0.6l3.2,1.3l1.2,0.5l2,0.8l3.1,1.4l1.1,0.5l2.1,0.8l3.3,1.2l0.4,0.1
	l3.1,0.9l2.3,0.7l1.3,0.4l3.6,1l0.4,0.1l3.1,0.9l2.3,0.8l1.2,0.4l3.3,1.2l1.4,0.6l1.8,0.7l3.1,1.4l1.7,0.9l1.3,0.6l3,1.5l2.7,1.5
	l0.2,0.1l3,1.5l2.9,1.6l1,0.6l1.9,1l2.8,1.6l2.7,1.7l0.2,0.1l2.4,1.6l2.4,1.9l2.2,2.1l2.1,2.2l1.9,2.3l1.9,2.4l1.8,2.4l1.8,2.5
	l1.7,2.5l1.7,2.5l1.6,2.6l1.5,2.7l1.3,2.6l0.1,0.2l1.3,2.9l1,3.1l0.5,2.5l0.2,0.8l0.3,3.6l0,1.2l-0.2,2.9l-0.2,1.5l-0.9,3.2
	l-0.2,0.5l-1.4,3.4l-1.2,2.2l-0.4,0.8l-1.8,2.8l-2,2.5l-2.2,2.3l-2.4,2.1l-2.5,1.9l-2.7,1.7l-2.8,1.6l-3,1.4l-2.8,1.1l-0.3,0.1
	l-3,1.3l-3.1,1.1l-2.5,0.8l-0.7,0.3l-3.1,1.2l-3.2,1l-1.3,0.4L265,163l-3.2,1l-2.7,0.7l-0.6,0.2l-3.3,0.9l-3,0.6l-0.5,0.1l-3.5,0.7
	l-2.2,0.3l-1.4,0.2l-3.7,0.4l-0.5,0l-3.3,0.3l-2.2,0.2l-1.6,0.1l-3.7,0.2l-0.2,0l-3.8,0.3l-1.4,0.1l-2.4,0.2l-3.1,0.3l-0.7,0.1
	l-3.7,0.4l-1.2,0.1l-2.5,0.3l-3.1,0.3l-0.7,0.1l-3.7,0.4l-1.1,0.1l-2.6,0.3l-2.9,0.3l-0.8,0.1l-3.7,0.5l-1.3,0.2l-2.2,0.4l-3.4,0.8
	l-0.9,0.3l-2.3,0.7l-3.2,1.1l-3,1.2l0,0l-3,1.3l-3,1.3l-3,1.3l-1.4,0.6l-1.7,0.7l-3.1,1.1l-3.3,0.9l-0.2,0.1l-3.1,0.8l-3.4,0.6
	l-0.2,0l-3.6,0.6l-2.1,0.2l-1.5,0.2l-3.7,0.5l-0.6,0.1l-3,0.5l-2.9,0.4l-0.7,0.1l-3.6,0.6l-1.9,0.3l-1.7,0.3l-3.6,0.6l-0.9,0.1
	l-2.7,0.5l-3.2,0.4l-0.5,0.1l-3.7,0.4l-1.3,0.1l-2.5,0.2l-2.8,0.1l-1.2,0l-3.8,0.1l-0.2,0l-4.1,0l-0.6,0l-3.6-0.1l-1,0l-3.3-0.3
	l-1-0.1l-3.6-0.6l-0.5-0.1l-3.8-0.9l-0.8-0.2l-2.7-0.8l-3-1.2l-0.3-0.1l-3.2-1.3l-2.9-1.4l-0.1,0l-3-1.5l-2.9-1.6l-1.2-0.7l-1.6-0.9
	l-2.7-1.7l-2.5-1.8l-2.4-1.9l0,0l-2.3-2l-2.1-2.2l-2-2.3l-1.8-2.4l-1.6-2.6l-1.3-2.2l-0.3-0.5l-1.5-2.7l-1.4-2.7l-1.4-2.7l-1.5-2.7
	l-1.6-2.6l-1.7-2.5l-1.4-2.1l-0.3-0.4l-1.6-2.6l-1.4-2.8l-1.1-3l-0.5-2.4l-0.2-0.9l-0.2-3.7l0-0.8l0.4-3.4l0.2-1l0.9-3.8l0-0.1
	l1.2-3.6l0.8-1.9l0.6-1.4l1.6-3.1L27.8,106z"/>
<path id="path82" class="st1" d="M45.7,118.8l0.5-0.8l1.9-2.6l2.3-2.3l2.5-1.9l2.7-1.6l3-1.4l0.7-0.2l2.4-1l3.2-1.1l2.7-0.7l0.6-0.2
	l3.4-0.8l2.8-0.5l0.7-0.2l3.6-0.6l1.6-0.2l2.1-0.2l3.3-0.2l0.6,0l3.9-0.1l0.6,0l3.5,0l1.4,0l2.8,0.1l1.9,0l2.3,0.1l2.3,0.1l2,0.2
	l2.5,0.1l1.8,0.2l2.6,0.1l1.7,0.2l2.8,0.1l1.4,0.1l3.3-0.1l0.7,0l3.8-0.3l0.9-0.2l2.6-0.5l3.1-1.2l2.6-1.8l2.2-2.3l2-2.6l1.9-2.7
	l0.9-1.3l1-1.4l2-2.5l2.1-2.4l2.2-2.3l2.2-2.3l2.3-2.2l1.9-1.8l0.4-0.4l2.3-2.1l2.4-2.1l2.4-2.1l2.4-2l2.5-2l2.6-1.8l2.7-1.7
	l0.3-0.2l2.5-1.3l3-1.3l3.3-1l0.6-0.1l2.9-0.6l3-0.3l0.8-0.1l4,0l0.1,0l4.2,0.4l0.2,0l3.7,0.7l1.1,0.3l2.6,0.7l2.8,0.9l0.7,0.2
	l3.3,1.2l1.9,0.8l1.3,0.5l3.3,1.3l1.3,0.5l2.1,0.7l3.4,1l0.1,0l3.7,0.9l1.2,0.3l2.6,0.6l2.3,0.5l1.5,0.3l3.6,0.9l0.1,0l3.6,1
	l1.7,0.6l1.7,0.6l3.2,1.3l1.3,0.6l1.7,0.8l2.9,1.6l2.7,1.7l0,0l2.7,1.7l2.6,1.8l2.5,1.9l1.3,1.1l1.1,0.8l2.4,2l2.3,2l2.2,2.1
	l2.1,2.2l2,2.3l1.9,2.3l1.9,2.4l1.8,2.4l1.7,2.5l1.7,2.5l1.5,2.7l1.3,2.8l0.4,1.2l0.7,1.8l0.7,3.3l0.2,1.8l0,1.9l-0.3,2.8l-0.4,1.7
	l-0.7,2.1l-1.5,3.2l-0.4,0.6l-1.4,2.2l-2,2.5l-2.2,2.3l-2.4,2.1l-2.5,1.9l-2.6,1.8l-2.7,1.6l-2.8,1.5l-2.4,1.1l-0.5,0.3l-2.9,1.4
	l-3,1.3l-3.1,1.2l-0.5,0.2l-2.6,0.9l-3.3,1l-1.9,0.5l-1.4,0.4l-3.5,0.7l-1.6,0.2l-2,0.3l-3.7,0.4l0,0l-3.8,0.3l-1.4,0l-2.6,0.1
	l-2.3,0l-1.7,0l-3-0.1l-1.1,0l-3.5-0.1l-0.6,0l-4-0.1l-0.2,0l-4.2-0.2l-0.2,0l-4-0.2l-0.6,0l-3.7-0.3l-0.8,0l-3.6-0.3l-0.8-0.1
	l-3.7-0.4l-0.6,0l-3.9-0.4l-0.4,0l-3.9-0.3l-0.6,0l-3.4,0l-1.7,0.2l-1.9,0.2l-3.4,0.9l-1.8,0.7l-1.3,0.5l-2.9,1.5l-2.8,1.6l-2.7,1.7
	l-2.7,1.7l-2.8,1.6l-1,0.6l-1.8,1l-2.9,1.4l-3,1.3l-3.1,1.2l-0.5,0.2l-2.7,1l-3.2,1.1l-2.7,0.8l-0.6,0.2l-3.2,1l-3.3,1l-0.7,0.2
	l-2.6,0.7l-3.4,0.8l-1,0.2l-2.4,0.5l-3.6,0.6l-0.3,0l-3.4,0.4l-2.2,0.2l-1.7,0.1l-3.3,0.1l-0.7,0l-4-0.1l-0.2,0l-4.2-0.3l-0.1,0
	l-4.1-0.4l-0.3,0l-3.8-0.5l-0.8-0.1l-3.2-0.6l-1.6-0.4l-2.1-0.5l-3-0.8l-0.6-0.2l-3.4-1.1l-1.6-0.6l-1.7-0.7l-3.1-1.4l-1.7-0.9
	l-1.2-0.6l-2.8-1.7l-2.6-1.8l-2.4-2l-0.2-0.2l-2-2l-2-2.3l-1.8-2.4l-1.6-2.6l-0.1-0.1l-1.4-2.6l-1.3-2.8l-1.2-2.9l-0.9-2.7l-0.1-0.3
	l-1-3.1l-0.8-3.2l-0.2-1l-0.4-2.4l-0.4-3.6l0,0l0.1-4l0.1-0.9l0.8-3.7l0.1-0.3l1.3-3.5L45.7,118.8z"/>
<path id="path84" class="st2" d="M56,126l0.2-0.5l1.7-2.9l2-2.5l2.3-2.2l2.6-1.9l2.8-1.6l3-1.3l2.5-0.8l0.7-0.2l3.4-0.8l2.7-0.5
	l0.9-0.1l3.8-0.3l0.8,0l3.2,0l1.6,0l2.6,0.2l1.8,0.1l2.7,0.4l1.5,0.2l3.3,0.7l0.6,0.1l3.6,1l1,0.3l2.4,0.8l3.2,1.3l0.3,0.2l2.7,1.3
	l2.9,1.5l1.2,0.6l1.8,0.9l3,1.4l1.7,0.7l1.6,0.6l3.6,1l0.2,0l4,0.5l0.5,0l3.8-0.4l1.7-0.5l1.5-0.5l2.7-1.7l2.3-2.2l1.3-1.8l0.6-0.8
	l1.6-3l1.3-2.9l0.2-0.4l1.3-3.5l0.5-1.6l0.6-2l1.1-3.2l0.1-0.3l1.2-3.6l0.5-1.4l0.8-2l1.5-3.2l0.4-0.7l1.2-2.3l1.8-2.8l1.9-2.6
	l0.1-0.2l1.9-2.3l2.2-2.3l2.3-2.2l2.4-2l2.6-1.8l2.8-1.6l2.5-1.1l0.5-0.2l3.2-1l3.5-0.7l0,0l3.8-0.3l1.4,0l2.9,0.2l1.5,0.2l3.2,0.6
	l0.7,0.2l3.6,1l0.9,0.3l2.5,0.8l3.1,1.1l0.3,0.1l3.4,1.1l1.7,0.5l1.9,0.5l3.2,0.7l0.6,0.1l4,0.7l0.2,0l3.8,0.6l0.8,0.1l3.2,0.6
	l1.6,0.3l2.2,0.5l2.9,0.8l0.7,0.2l3.4,1.2l1.8,0.8l1.4,0.6l2.9,1.5l2.7,1.7l0.3,0.2l2.4,1.6l2.5,1.9l2.3,2l2.2,2.1l2.1,2.2l2.1,2.2
	l0.5,0.5l1.5,1.8l1.9,2.3l1.9,2.3l1.9,2.4l1.8,2.4l0.5,0.7l1.3,1.8l1.6,2.6l1.5,2.7l1.2,2.9l0.8,3l0,0.2l0.2,3.7l-0.1,1.3l-0.7,3.2
	l-0.2,0.7l-1.5,3.2l-1.8,2.8l-0.3,0.3l-1.8,2.1l-2.3,2.2l-2.5,2l-2.6,1.8l-2.7,1.7l-1.2,0.6l-1.6,0.9l-2.9,1.5l-3,1.3l-3.1,1.2
	L258,150l-2.8,0.9l-3.3,0.9l-1.4,0.3l-2.1,0.5l-3.6,0.5l-0.4,0l-3.3,0.3l-2.1,0.1l-1.9,0.1l-3,0l-1.1,0l-3.5-0.2l-0.8-0.1l-3.6-0.3
	l-0.7-0.1l-3.6-0.4l-0.9-0.1l-3.3-0.4l-1.2-0.2l-2.9-0.4l-1.7-0.3l-2.2-0.4l-2.7-0.6l-1.1-0.2l-3.6-1l-0.6-0.2l-2.9-0.9l-2.8-1.1
	l-0.5-0.2l-3.3-1.2l-1.8-0.7l-1.5-0.5l-3.5-1l-0.2-0.1l-3.7-0.7l-1-0.1l-3.4-0.2l-0.8,0l-3.9,0.2l-0.4,0.1l-3.2,0.5l-3.3,1l-0.7,0.3
	l-2.3,1l-2.7,1.7l-2.4,2l-2.2,2.3l-2.1,2.4l-0.1,0.2l-2,2.3l-2.2,2.3l-2.3,2.2l-2.4,2l-2.6,1.9l-2.7,1.7l-2.8,1.6l-1,0.5l-1.9,0.9
	l-3,1.3l-3.2,1.1l-1.2,0.4l-2.1,0.6l-3.5,0.7l-1.1,0.2l-2.6,0.3l-2.8,0.2l-1.1,0l-3.7-0.1l-0.5,0l-3.9-0.4l-0.5-0.1l-3.6-0.5
	l-0.9-0.1l-3.2-0.5l-1.5-0.2l-2.5-0.4l-2.2-0.4l-1.7-0.3l-3.2-0.7l-0.6-0.1l-3.6-1l-1.2-0.4l-2.1-0.8l-3.1-1.4l-1-0.6l-1.8-1L68,163
	l-2.4-2l-2.1-2.2l-1.9-2.3l-1.7-2.5l-1.5-2.7l-1.3-2.8l-1.1-3l-0.1-0.4l-0.8-2.8l-0.6-3.4l-0.1-0.8l-0.2-2.9l0.1-2.3l0.3-1.9
	l0.5-2.2L56,126z"/>
<path id="path86" class="st3" d="M66.4,129.3l0.3-0.8l1.8-2.7l2.3-2.2l2.6-1.8l3-1.4l1.7-0.5l1.6-0.4l3.6-0.5l0.8-0.1l3.2,0l1.6,0.1
	l2.8,0.3l1.4,0.2l3.4,0.7l0.4,0.1l3.4,1.1l1.7,0.7l1.4,0.6l2.9,1.5l2.7,1.7l0.3,0.2l2.3,1.6l2.6,1.8l2.6,1.8l1.5,0.9l1.3,0.8
	l2.9,1.5l2.8,1.3l0.2,0.1l3,1.4l2.9,1.6l1.1,0.9l1.4,1l1.8,2.5l0.1,0.6l0.5,2.7l-0.4,2.4l-0.8,2.5l-0.5,1l-1.8,2.8l-2.1,2.4l-2.4,2
	l-2.7,1.7l-3,1.4l-2.6,0.9l-0.7,0.2l-3.6,0.6l-1.7,0.1l-2.2,0l-2.6-0.1l-1.6-0.1l-2.7-0.3l-1.8-0.2l-2.4-0.3l-2.2-0.3l-1.9-0.3
	l-2.6-0.4l-1.5-0.2l-3.2-0.5l-0.7-0.2l-3.7-0.9l-0.6-0.2l-2.7-1l-3-1.4l-0.4-0.3l-2.2-1.5l-2.4-2l-2.1-2.2l-1.8-2.4l-1.5-2.6
	l-1.3-2.8l-0.4-1l-0.6-2.1l-0.7-3.4l-0.1-1.4l0.1-2.5l0.3-2.1L66.4,129.3z"/>
<path id="path88" class="st3" d="M174.5,81.2l0.2-0.2l2.3-2.2l2.5-2l2.7-1.7l0.1,0l2.8-1.4l3.2-1.1l2.6-0.5l0.9-0.2l3.9-0.2l0.5,0
	l3.9,0.4l0.4,0.1l3.8,0.8l0.6,0.1l3,0.8l2.2,0.6l1.4,0.4l3.7,0.9l0.1,0l3.8,0.8l1,0.1l3.1,0.5l1.4,0.1l2.9,0.3l1.6,0.1l2.7,0.3
	l1.8,0.2l2.3,0.4l2.4,0.5l1.4,0.3l3.6,1l0.3,0.1l3,1.2l3,1.5l0.3,0.2l2.5,1.4l2.6,1.8l2.4,2l2.2,2.1l1.6,1.7l0.5,0.5l2,2.3l1.9,2.3
	l1.9,2.4l1.8,2.4l1,1.4l0.8,1.1l1.8,2.5l1.7,2.5l1.6,2.6l1.4,2.8l1.1,3l0.3,1.4l0.3,2l-0.1,3.2l-0.2,0.9l-0.9,2.8l-1.6,3.1l-0.1,0.1
	l-1.9,2.5l-2.2,2.3l-2.4,2l-2.6,1.8l-2.7,1.7l-2.9,1.5l-0.2,0.1l-2.8,1.3l-3.1,1.2l-3.2,1l-0.1,0l-3.4,0.8l-3.1,0.5l-0.5,0.1
	l-3.8,0.4l-1.2,0.1l-2.7,0.1l-2.1,0l-2-0.1l-2.5-0.2l-1.9-0.2l-2.4-0.3l-2.2-0.3l-1.9-0.3l-2.8-0.5l-1.2-0.2l-3.7-0.8l-0.1,0
	l-3.7-0.9l-1.4-0.5l-2-0.6l-3.2-1.3l-0.5-0.2l-2.6-1.1l-3-1.5l-0.8-0.4l-2.2-1l-3.1-1.4l-1.2-0.5l-2-0.8l-3.4-1.1l-0.2-0.1l-3.5-0.8
	l-1.5-0.3l-2.4-0.4l-2.4-0.5l-1.6-0.2l-3.1-0.6l-0.8-0.1l-3.6-1l-0.9-0.5l-2.2-1l-2.1-2.2l-1-3.1l0-0.3l-0.2-3.4l0.2-1.6l0.2-2.6
	l0.4-1.8l0.4-2.8l0.3-1.3l0.7-3.4l0.1-0.5l1-3.8l0.2-0.7l0.9-3l0.9-2.4l0.4-1.1l1.4-3.3l0.9-1.8l0.7-1.3l1.8-2.8l1.9-2.6L174.5,81.2
	z"/>
<path id="path90" class="st4" d="M83.9,134.7L83.9,134.7l0.1-0.1l2.7-1.5l3.6-0.5l0.9,0.1l3.8,0.7l0.1,0L98,135l2.5,1.9l2,2.3
	l1.5,2.7l0.7,3.3l0,0.4l-2,2.6l-3,1.3l-0.3,0l-3.4,0.4l-1.9-0.1l-2.5-0.3l-1.5-0.4l-3.1-1.4l-2.2-1.7l-0.2-0.2l-0.4-0.6l-1.3-2
	l-0.8-3.3l0.1-2.3L83.9,134.7z"/>
<path id="path92" class="st4" d="M180.6,84.1l0.4-0.3l0.5-0.4l2.1-1.5l2.8-1.5l3.1-1.1l2.6-0.5l0.9-0.1l3.9-0.2l0.3,0l4.1,0.4l0.2,0
	l3.9,0.7l0.6,0.1l3.2,0.7l1.5,0.2l2.5,0.4l2.1,0.2l2.1,0.3l2.3,0.1l2.2,0.2l2.1,0.1l2.5,0.1l1.8,0.1l2.7,0.2l1.7,0.2l2.5,0.4
	l2.2,0.4l1.6,0.4l3.5,1.1l0.3,0.1l2.9,1.2l2.8,1.6l1.5,1.1l1.1,0.7l2.4,2l2.2,2.1l2,2.3l1.9,2.4l1.8,2.5l1.7,2.5l1.7,2.5l1.7,2.5
	l1.6,2.6l0.3,0.6l1.2,2.1l1.3,2.8l1,3.1l0.2,1.5l0.1,2.1l-0.4,2.6l-0.7,2.2l-0.6,1.2l-1.8,2.8l-2.2,2.4l-2.4,2.1l-2.6,1.8l-2.8,1.6
	l-3,1.4l-2.1,0.8l-1,0.4l-3.3,0.9l-2.9,0.6l-0.6,0.1l-3.7,0.4l-1.3,0.1l-2.7,0.1l-2.2,0l-2-0.1l-2.4-0.2l-2-0.3l-2.1-0.3l-2.5-0.5
	l-1.4-0.3l-3.5-0.8l-0.3-0.1l-3.6-1l-1.4-0.5l-2.1-0.7l-3.2-1.3l-0.6-0.3l-2.5-1.1l-2.9-1.5l-1.6-0.9l-1.3-0.7l-2.9-1.6l-2.9-1.5
	l-0.2-0.1l-2.9-1.3l-3.2-1.3l-0.1,0l-3.5-1.1l-1.9-0.6l-1.6-0.4l-3.4-1.1l-0.5-0.2l-2.6-1.1l-2.6-1.8l-2-2.3l-1.3-2.8l-0.6-3.4
	l0-0.1l0-3.8l0.1-1l0.5-3.3l0.2-0.9l1-3.8l0.1-0.3l1.2-3.1l1.3-2.7l0.2-0.5l1.7-2.9l1.9-2.7l2.1-2.4L180.6,84.1z"/>
<path id="path94" class="st5" d="M177.2,98.5l1.3-2.6l1.9-2.7l2.1-2.4l2.4-2l2.7-1.6l3.1-1.2l2.7-0.6l0.8-0.1l3.9-0.2l0.5,0l3.8,0.2
	l0.6,0.1l3.8,0.4l0.5,0.1l3.8,0.3l0.6,0.1l3.6,0.1l1.1,0l3-0.1l1.9,0l2.1-0.1l2.8,0l1.3,0l3.3,0.2l1,0.1L235,87l1.5,0.3l2.2,0.6
	l3.3,1.2l0,0l2.9,1.5l2.6,1.8l2.3,2l2.1,2.2L254,99l1.8,2.5l1.6,2.6l1.6,2.6l1.5,2.7l1.5,2.7l1.4,2.8l0.7,1.6l0.5,1.4l0.7,3.3l0.1,2
	l-0.2,2l-0.6,2l-1.6,3l-1.6,2l-0.5,0.5l-2.4,2l-1.4,0.9l-1.2,0.8l-2.9,1.4l-3.1,1.1l-2.6,0.7l-0.8,0.2l-3.6,0.5l-1.5,0.1l-2.4,0.1
	l-2.5,0l-1.7-0.1l-2.6-0.3l-1.8-0.3l-2.2-0.4l-2.5-0.5l-1.3-0.3l-3.6-1l-0.2-0.1l-3.2-1.1l-2.5-1l-0.8-0.3l-3-1.4l-2.9-1.6l-0.2-0.1
	l-2.5-1.5l-2.7-1.7l-2.7-1.7l-0.3-0.2l-2.5-1.5l-2.9-1.5l-1.6-0.7l-1.6-0.7l-3.2-1.3l-1.3-0.5l-1.9-0.8l-3-1.5l-2.3-1.6l-0.3-0.2
	l-2-2.3l-0.3-0.7l-1-2.2l-0.5-3.5l0.1-1.1l0.3-3.1l0.3-1.2L177,99L177.2,98.5z"/>
<path id="path96" class="st6" d="M184.7,100.3l0.6-1.1l2-2.5l2.5-2l2.9-1.4l0.9-0.3l2.4-0.6l3.7-0.4l0,0l3.9-0.2l1,0l2.9-0.2
	l2.2-0.1l1.7-0.2l3.7-0.3l0.1,0l3.8-0.4l1.7-0.1l2.1-0.2l3.1-0.1l0.8,0l3.9,0.1l0.3,0l3.8,0.6l0.9,0.2l2.7,0.8l3.1,1.4l0.1,0.1
	l2.6,1.7l2.3,2l2,2.2l1.8,2.4l1.6,2.6l1.5,2.7l1.4,2.8l0.1,0.1l1.2,2.8l1.1,3l0.9,3.1l0.1,0.3l0.2,3.4l-0.2,1.6l-1.3,3.4l-0.1,0.2
	l-1.9,2.3l-2.5,2l-2.8,1.6l-0.2,0.1l-3,1l-3.4,0.8l-0.8,0.1l-3,0.2l-2.1,0l-2-0.1l-2.5-0.2l-2-0.3l-2-0.4l-2.8-0.6l-0.9-0.2
	l-3.5-1.1l-0.9-0.3l-2.4-0.9l-3-1.4l-1-0.5l-1.9-1.1l-2.7-1.7l-2.6-1.8l-1.7-1.3l-0.8-0.6l-2.5-1.9l-2.6-1.8l-2.7-1.7l-0.6-0.3
	l-2.3-1.3l-2.9-1.6l-2.5-1.5l-0.3-0.2l-2.3-2l-1.7-2.5l-0.2-0.9l-0.4-2.5l0.4-2.6L184.7,100.3z"/>
<path id="path98" class="st7" d="M199.9,107.5l-0.1-0.3l0.8-4.1l2.4-2l2.9-1.4l3.1-1.2l3.2-1l0.1,0l3.2-0.9l3.4-0.8l0.5-0.1l3.1-0.5
	l2.8-0.3l1-0.1l3.9,0l0.1,0l3.9,0.7l1,0.3l2.4,0.9l2.8,1.6l2.4,2l1.4,1.6l0.6,0.6l0.2,0.3l1.5,2.3l1.4,2.8l1.2,2.9l1,3.1l0.1,0.5
	l0.5,2.9l0.3,3.2l-0.1,0.6l-0.9,3.3l-1.9,2.7l-2.6,1.8l-3.1,1.2l-3.5,0.7l-0.1,0l-3.9,0.1l-1-0.1l-3.4-0.4l-0.8-0.1l-3.8-0.8
	l-0.3-0.1l-3.1-1l-2.7-1.1l-0.5-0.2l-2.9-1.6l-2.6-1.8l-2.4-1.9l-0.1-0.1l-2.1-2l-2.1-2.2l-2-2.3l-1.9-2.3l-1.8-2.5L199.9,107.5z"/>
<path id="path100" class="st8" d="M213.3,108.4l1.4-2.9l2.3-2.2l2.8-1.6l3.1-1.2l0,0l3.6-0.6l2-0.1l2.1,0.2l2,0.4l3.2,1.3l0.9,0.7
	l1.5,1.3l1.9,2.4l0.9,1.7l0.5,1.1l0.8,3.2l0.3,2.8l-0.1,0.9l-0.7,3.1l-2,2.6l-2.8,1.5l-3.5,0.7l-0.9,0l-3.3-0.2l-1-0.2l-3.6-1
	l-0.5-0.2l-2.5-1.2l-2.7-1.7l-2.3-2.1l-1.8-2.4l-1.3-2.9l-0.4-3.3L213.3,108.4z"/>
<g id="text272">
</g>
<g id="text228">
	<text transform="matrix(0.6265 0.7794 -0.7794 0.6265 74.6223 151.7159)" class="st9 st10">●</text>
	<text transform="matrix(0.6265 0.7794 -0.7794 0.6265 74.6223 151.7159)" class="st11 st9 st10">●</text>
	<text transform="matrix(0.6265 0.7794 -0.7794 0.6265 90.304 165.3526)" class="st11 st9 st10">●</text>
</g>
<g id="text240">
	<text transform="matrix(0.6265 0.7794 -0.7794 0.6265 102.2053 145.7945)" class="st9 st12">●</text>
</g>
<g id="text260">
	<text transform="matrix(0.6265 0.7794 -0.7794 0.6265 75.4319 121.7666)" class="st9 st10">●</text>
	<text transform="matrix(0.6265 0.7794 -0.7794 0.6265 75.4319 121.7666)" class="st11 st9 st10">●</text>
	<text transform="matrix(0.6265 0.7794 -0.7794 0.6265 97.2502 127.085)" class="st11 st9 st10">●</text>
</g>
<g id="text284">
	<text transform="matrix(0.6265 0.7794 -0.7794 0.6265 129.719 163.7127)" class="st9 st10">●</text>
	<text transform="matrix(0.6265 0.7794 -0.7794 0.6265 129.719 163.7127)" class="st11 st9 st10">●</text>
</g>
<rect id="rect1113" x="211.6" y="110.6" transform="matrix(2.094415e-03 -1 1 2.094415e-03 100.5459 325.0695)" class="st13" width="3.1" height="3.1"/>
<rect id="rect1113-6" x="230.2" y="109.8" transform="matrix(2.094415e-03 -1 1 2.094415e-03 119.9764 346.017)" class="st14" width="6.3" height="6.3"/>
<rect id="rect1113-64" x="218.6" y="127.1" transform="matrix(2.094415e-03 -1 1 2.094415e-03 91.0193 348.5166)" class="st13" width="3.1" height="3.1"/>
<rect id="rect1113-0" x="243.9" y="103.8" transform="matrix(2.094415e-03 -1 1 2.094415e-03 139.5984 350.6039)" class="st13" width="3.1" height="3.1"/>
<rect id="rect1113-4" x="242.3" y="121.5" transform="matrix(2.094415e-03 -1 1 2.094415e-03 120.372 366.6602)" class="st13" width="3.1" height="3.1"/>
<rect id="rect1113-8" x="226" y="101.2" transform="matrix(2.094415e-03 -1 1 2.094415e-03 124.3256 330.1902)" class="st13" width="3.1" height="3.1"/>
<rect id="rect1113-8_1_" x="212.8" y="98.4" transform="matrix(2.094415e-03 -1 1 2.094415e-03 113.9039 314.08)" class="st15" width="3.1" height="3.1"/>
<rect id="rect1113-8_2_" x="218.6" y="117.3" transform="matrix(2.094415e-03 -1 1 2.094415e-03 100.8341 338.7224)" class="st15" width="3.1" height="3.1"/>
<rect id="rect1113-8_3_" x="233.4" y="130.7" transform="matrix(2.094415e-03 -1 1 2.094415e-03 102.2004 366.8858)" class="st15" width="3.1" height="3.1"/>
<g id="g1452">
	<g id="text464">
		<text transform="matrix(1 0 0 1 17.3175 50.4721)" class="st16 st17 st18">Low</text>
	</g>
	<g id="text472">
		<text transform="matrix(1 0 0 1 70.0053 50.4721)" class="st16 st17 st18">High</text>
	</g>
	<g id="g476">
		<g id="text480">
			<text transform="matrix(1 0 0 1 17.3173 24.9903)" class="st16 st17 st18">Solution quality</text>
		</g>
	</g>
	<g id="g476_1_">
		<g id="text480_1_">
			<text transform="matrix(1 0 0 1 17.3175 72.5131)" class="st16 st17 st18">Resolution length</text>
		</g>
	</g>
	<g id="g476_2_">
		<g id="text480_2_">
			<rect x="13.2" y="204.3" class="st19" width="293.6" height="37.6"/>
			<text transform="matrix(1 0 0 1 13.1602 211.1274)" class="st20"><tspan x="0" y="0" class="st16 st17 st18">A schematic solution landscape projected into a two-dimensional space with </tspan><tspan x="0" y="9" class="st16 st17 st18">isolines for quality score. Black circles and white squares represent two solution </tspan><tspan x="0" y="18" class="st16 st17 st18">clusters, with the solutions distributed based on their distances. Open symbols </tspan><tspan x="0" y="27" class="st16 st17 st18">represent holdout solutions.</tspan></text>
		</g>
	</g>
	<g>
		<rect id="rect1156" x="78.8" y="30.1" class="st21" width="7.6" height="9.6"/>
		<rect id="rect1156-1" x="71.2" y="30.1" class="st22" width="7.6" height="9.6"/>
		<rect id="rect1156-2" x="63.6" y="30.1" class="st23" width="7.6" height="9.6"/>
		<rect id="rect1156-5" x="56" y="30.1" class="st24" width="7.6" height="9.6"/>
		<rect id="rect1156-7" x="48.4" y="30.1" class="st25" width="7.6" height="9.6"/>
		<rect id="rect1156-8" x="40.8" y="30.1" class="st26" width="7.6" height="9.6"/>
		<rect id="rect1156-9" x="33.2" y="30.1" class="st27" width="7.6" height="9.6"/>
		<rect id="rect1156-55" x="25.6" y="30.1" class="st28" width="7.6" height="9.6"/>
		<rect id="rect1156-3" x="17.9" y="30.1" class="st29" width="7.6" height="9.6"/>
		<g id="g1326">
			<rect id="rect1315" x="17.9" y="30.1" class="st30" width="68.5" height="9.6"/>
		</g>
	</g>
</g>
<g>
	<g>
		<line class="st31" x1="18.4" y1="79.3" x2="84.9" y2="79.3"/>
		<g>
			<rect x="17.9" y="76.4" width="0.9" height="5.9"/>
		</g>
		<g>
			<rect x="84.4" y="76.4" width="0.9" height="5.9"/>
		</g>
	</g>
</g>
</svg>
