<?xml version="1.0" encoding="UTF-8" standalone="no"?>
<!-- Created with Inkscape (http://www.inkscape.org/) -->

<svg
   xmlns:dc="http://purl.org/dc/elements/1.1/"
   xmlns:cc="http://creativecommons.org/ns#"
   xmlns:rdf="http://www.w3.org/1999/02/22-rdf-syntax-ns#"
   xmlns:svg="http://www.w3.org/2000/svg"
   xmlns="http://www.w3.org/2000/svg"
   version="1.1"
   width="322.10452"
   height="67.269592"
   id="svg3427">
  <defs
     id="defs3429" />
  <metadata
     id="metadata3432">
    <rdf:RDF>
      <cc:Work
         rdf:about="">
        <dc:format>image/svg+xml</dc:format>
        <dc:type
           rdf:resource="http://purl.org/dc/dcmitype/StillImage" />
        <dc:title></dc:title>
      </cc:Work>
    </rdf:RDF>
  </metadata>
  <g
     transform="translate(-158.94774,-378.72738)"
     id="layer1">
    <path
       d="m 307.48286,414.50248 -6.735,1.7475 0,-4.6788 c -0.01,-1.1 0.6388,-2.165 1.73,-3.01 1.0788,-0.835 2.5488,-1.345 3.7538,-1.3375 l 1.25,0 0,-5.6713 -1.25,0 c -5.0975,0.01 -11.2075,3.5613 -11.2813,10.0188 l 0,22.4263 5.7975,0 0,-11.95 6.735,-1.7475 z"
       id="path3058-6-3-0"
       style="fill:#2d2a43;fill-opacity:1;fill-rule:nonzero;stroke:none" />
    <path
       d="m 481.05226,432.74848 0,-21.1738 c 0,-5.5188 -5.425,-8.7725 -10.0312,-8.7725 -4.6075,0 -10.0325,3.2537 -10.0325,8.7725 l 0,21.1738 3.2962,0 0,-21.1738 c 0,-3.2088 3.6763,-5.6013 6.7363,-5.6013 3.0562,0 6.735,2.3925 6.735,5.6013 l 0,21.1738 3.2962,0 z"
       id="path3062-6-58-5"
       style="fill:#2d2a43;fill-opacity:1;fill-rule:nonzero;stroke:none" />
    <path
       d="m 403.43756,429.57708 c -3.0588,0 -6.7363,-2.3925 -6.7363,-5.5988 l 0,-32.4262 -3.295,0 0,32.4262 c 0,5.5163 5.4238,8.77 10.0313,8.77 l 0,-3.1712 z"
       id="path3064-4-3-3"
       style="fill:#2d2a43;fill-opacity:1;fill-rule:nonzero;stroke:none" />
    <path
       d="m 358.43016,423.97658 c 0,3.245 -3.6788,5.6 -6.7375,5.6 -3.0575,0 -6.735,-2.355 -6.735,-5.6 l 0,-12.4038 c 0,-3.2062 3.6775,-5.5987 6.735,-5.5987 3.0587,0 6.7375,2.3925 6.7375,5.5987 l 0,12.4038 z m -6.7375,-21.1738 c -2.2988,0 -4.8038,0.8113 -6.735,2.3113 l 0,-13.5613 -3.2963,0 0,20.02 0,9.9263 0,2.4775 c 0,5.5137 5.4263,8.7725 10.0313,8.7725 4.6075,0 10.0337,-3.2588 10.0337,-8.7725 l 0,-12.4038 c 0,-5.5162 -5.4262,-8.77 -10.0337,-8.77"
       id="path3066-7-82-0"
       style="fill:#2d2a43;fill-opacity:1;fill-rule:nonzero;stroke:none" />
    <path
       d="m 438.41306,411.57288 c 0,-3.2062 3.6762,-5.5987 6.7362,-5.5987 3.0563,0 6.735,2.3925 6.735,5.5987 l 0,2.3676 -13.4712,3.3975 0,-5.7651 z m 16.7675,5.0238 0,-2.8975 0,-2.1263 c 0,-5.5162 -5.425,-8.7712 -10.0313,-8.7712 -4.6075,0 -10.0325,3.255 -10.0325,8.7712 l 0,2.1263 0,3.2963 0,6.9812 c 0,5.5138 5.425,8.7713 10.0325,8.7713 4.6063,0 10.0313,-3.2575 10.0313,-8.7713 l -3.2963,0 c 0,3.245 -3.6787,5.6 -6.735,5.6 -3.06,0 -6.7362,-2.355 -6.7362,-5.6 l 0,-3.0837 16.7675,-4.2963 z"
       id="path3068-5-6-1"
       style="fill:#2d2a43;fill-opacity:1;fill-rule:nonzero;stroke:none" />
    <path
       d="m 412.54026,411.57288 c 0,-3.2062 3.6763,-5.5987 6.7363,-5.5987 3.0562,0 6.735,2.3925 6.735,5.5987 l 0,2.3676 -13.4713,3.3975 0,-5.7651 z m 16.7688,5.0238 0,-2.8975 -10e-4,0 0,-2.1263 c 0,-5.5162 -5.425,-8.7712 -10.0313,-8.7712 -4.6075,0 -10.0325,3.255 -10.0325,8.7712 l 0,2.1263 0,3.2963 0,6.9812 c 0,5.5138 5.425,8.7713 10.0325,8.7713 4.6063,0 10.0313,-3.2575 10.0313,-8.7713 l -3.2963,0 c 0,3.245 -3.6787,5.6 -6.735,5.6 -3.06,0 -6.7362,-2.355 -6.7362,-5.6 l 0,-3.0837 16.7687,-4.2963 z"
       id="path3070-9-0-4"
       style="fill:#2d2a43;fill-opacity:1;fill-rule:nonzero;stroke:none" />
    <path
       d="m 384.30176,423.97768 c 0,3.2063 -3.6762,5.5988 -6.7362,5.5988 -3.0563,0 -6.735,-2.3925 -6.735,-5.5988 l 0,-2.3675 13.4712,-3.3975 0,5.765 z m -16.7675,-5.0237 0,2.8975 0,2.1262 c 0,5.5163 5.425,8.7713 10.0313,8.7713 4.6075,0 10.0325,-3.255 10.0325,-8.7713 l 0,-2.1262 0,-3.2963 0,-6.9813 c 0,-5.5137 -5.425,-8.7712 -10.0325,-8.7712 -4.6063,0 -10.0313,3.2575 -10.0313,8.7712 l 3.2963,0 c 0,-3.245 3.6787,-5.6 6.735,-5.6 3.06,0 6.7362,2.355 6.7362,5.6 l 0,3.0838 -16.7675,4.2963 z"
       id="path3072-2-88-3"
       style="fill:#2d2a43;fill-opacity:1;fill-rule:nonzero;stroke:none" />
    <path
       d="m 330.05976,411.57168 0,12.405 c 0,1.125 -0.6425,2.185 -1.7325,3.0225 -1.0737,0.83 -2.5462,1.335 -3.7562,1.3275 -1.21,0.01 -2.68,-0.4975 -3.7563,-1.325 -1.0887,-0.84 -1.7325,-1.9 -1.73,-3.025 l 0,-12.405 c -0.01,-1.1013 0.6388,-2.165 1.73,-3.01 1.0788,-0.835 2.5488,-1.345 3.7538,-1.3388 1.205,-0.01 2.6775,0.5038 3.7562,1.3388 1.09,0.845 1.7375,1.9087 1.7325,3.01 m -5.4887,-10.02 c -5.0975,0.01 -11.2075,3.5625 -11.2813,10.02 l 0,12.405 c 0.074,6.455 6.1838,10.0113 11.2813,10.02 5.0987,-0.01 11.21,-3.565 11.2825,-10.02 l 0,-12.405 c -0.072,-6.4575 -6.1838,-10.01 -11.2825,-10.02"
       id="path3074-3-1-0"
       style="fill:#2d2a43;fill-opacity:1;fill-rule:nonzero;stroke:none" />
    <path
       d="m 277.86016,401.55218 c -5.0975,0.01 -11.2075,3.5625 -11.28,10.02 l 0,22.425 5.7962,0 0,-22.425 c -0.01,-1.1013 0.6388,-2.1663 1.73,-3.0113 1.0788,-0.835 2.5488,-1.345 3.7538,-1.3375 1.205,-0.01 2.6775,0.5025 3.7562,1.3375 1.09,0.845 1.7375,1.9125 1.7325,3.0113 l 0,22.425 5.7938,0 0,-22.425 c -0.072,-6.4575 -6.1825,-10.01 -11.2825,-10.02"
       id="path3076-8-8-7"
       style="fill:#2d2a43;fill-opacity:1;fill-rule:nonzero;stroke:none" />
    <path
       d="m 254.97526,433.99698 5.7975,0 0,-32.4451 -5.7975,0 0,32.4451 z"
       id="path3080-4-3-2"
       style="fill:#2d2a43;fill-opacity:1;fill-rule:nonzero;stroke:none" />
    <path
       d="m 294.94896,445.99698 5.797,0 c 0,0 0,-11.1277 3e-4,-16.4364 l -5.7973,0 z"
       id="path3060-9-5-4-5"
       style="fill:#2d2a43;fill-opacity:1;fill-rule:nonzero;stroke:none" />
    <g
       transform="translate(-910.2327,-648.08127)"
       id="g3380">
      <path
         d="m 1075.7712,1048.5137 c 0,0 0.9375,-0.5275 2.5125,-0.6013 2.9275,0.4975 12.5975,0.3 14.9925,-2.7062 1.055,-1.3225 1.2225,-2.4875 0.4463,-3.225 -0.8563,-0.011 -1.2788,1.3037 -2.0525,1.1112 -4.2813,-1.0637 -12.0638,-3.2825 -13.3288,-1.6287 l -0.099,-0.069 c 1.1613,-1.73 -3.435,-8.3925 -5.8212,-12.1013 -0.4288,-0.6712 0.6787,-1.4937 0.3925,-2.3025 -0.9463,-0.4975 -1.9963,0.035 -2.9088,1.4575 -2.08,3.2338 0.84,12.4588 2.25,15.0688 0.435,1.5137 0.2375,2.5737 0.2375,2.5737 l 3.3788,2.4225 z"
         id="path3082-3-1-3-5-8-3-3"
         style="fill:#2d2a43;fill-opacity:1;fill-rule:nonzero;stroke:none" />
      <path
         d="m 1072.8745,1039.5732 c -10.4125,22.9437 4.075,54.5062 33.5875,54.505 43.3737,0 42.59,-43.2163 33.855,-49.4563 -21.33,-13.955 -65.0875,43.42 -61.3888,-1.3837 l -6.0537,-3.665 z"
         id="path3084-0-5-8-7-4-0-4"
         style="fill:#2d2a43;fill-opacity:1;fill-rule:nonzero;stroke:none" />
    </g>
  </g>
</svg>
