<?xml version="1.0" encoding="UTF-8" standalone="no"?>
<svg
   xmlns:dc="http://purl.org/dc/elements/1.1/"
   xmlns:cc="http://creativecommons.org/ns#"
   xmlns:rdf="http://www.w3.org/1999/02/22-rdf-syntax-ns#"
   xmlns:svg="http://www.w3.org/2000/svg"
   xmlns="http://www.w3.org/2000/svg"
   version="1.1"
   id="svg2"
   viewBox="0 0 505.72593 297.8433"
   height="84.057999mm"
   width="142.7271mm">
  <defs
     id="defs4">
    <clipPath
       clipPathUnits="userSpaceOnUse"
       id="clipPath4187">
      <path
         d="m 436.301,425.801 2970,0 0,1840 -2970,0 0,-1840 z"
         id="path4189" />
    </clipPath>
  </defs>
  <metadata
     id="metadata7">
    <rdf:RDF>
      <cc:Work
         rdf:about="">
        <dc:format>image/svg+xml</dc:format>
        <dc:type
           rdf:resource="http://purl.org/dc/dcmitype/StillImage" />
        <dc:title></dc:title>
      </cc:Work>
    </rdf:RDF>
  </metadata>
  <g
     transform="translate(553.57725,-383.44056)"
     id="layer1">
    <g
       transform="matrix(0.125,0,0,-0.125,-556.0138,690.5021)"
       id="g4183">
      <g
         id="g4185"
         clip-path="url(#clipPath4187)">
        <path
           d="m 474.922,434.449 0,-6.738 34291.178,0 0,1821.249 -25574.62,0 -34.57,-6.75 -34.56,-6.74 -34.56,-6.76 -34.56,-6.73 -34.56,-6.75 -34.55,-6.75 -34.55,-6.74 -34.54,-6.74 -34.54,-6.75 -34.54,-6.74 -34.52,-6.76 -34.54,-6.73 -34.53,-6.75 -34.52,-6.75 -34.52,-6.74 -34.52,-6.76 -34.51,-6.73 -34.5,-6.75 -34.51,-6.74 -34.5,-6.75 -34.5,-6.74 -34.49,-6.76 -34.49,-6.73 -34.49,-6.75 -34.48,-6.74 -34.48,-6.75 -34.47,-6.74 -34.47,-6.75 -34.47,-6.75 -34.46,-6.74 -34.46,-6.75 -34.45,-6.74 -34.45,-6.75 -34.45,-6.74 -34.44,-6.75 -34.43,-6.74 -34.44,-6.75 -34.42,-6.74 -34.42,-6.75 -34.43,-6.75 -34.41,-6.74 -34.41,-6.75 -34.41,-6.74 -34.4,-6.75 -34.39,-6.75 -34.39,-6.74 -34.39,-6.74 -34.38,-6.75 -34.38,-6.74 -34.37,-6.76 -34.38,-6.73 -34.35,-6.75 -34.37,-6.74 -34.35,-6.75 -34.35,-6.75 -34.34,-6.75 -34.34,-6.74 -34.33,-6.74 -34.33,-6.75 -34.33,-6.74 -34.31,-6.76 -34.31,-6.73 -34.31,-6.75 -34.3,-6.75 -34.3,-6.74 -34.29,-6.74 -34.28,-6.75 -34.28,-6.75 -34.28,-6.74 -34.26,-6.75 -34.27,-6.74 -34.25,-6.75 -34.25,-6.74 -34.25,-6.75 -34.23,-6.75 -34.24,-6.74 -34.22,-6.74 -34.22,-6.75 -34.21,-6.74 -34.2,-6.76 -34.2,-6.73 -34.21,-6.75 -34.18,-6.75 -34.18,-6.74 -34.18,-6.76 -34.17,-6.73 -34.16,-6.75 -34.15,-6.74 -34.15,-6.75 -34.14,-6.74 -34.12,-6.75 -34.13,-6.74 -34.12,-6.75 -34.11,-6.74 -34.11,-6.75 -34.09,-6.76 -34.09,-6.73 -34.07,-6.75 -34.09,-6.74 -34.06,-6.75 -34.06,-6.74 -34.04,-6.75 -34.05,-6.75 -34.04,-6.74 -34.01,-6.74 -34.03,-6.75 -34.01,-6.74 -34,-6.75 -33.99,-6.75 -33.97,-6.74 -33.98,-6.75 -33.97,-6.74 -33.95,-6.75 -33.94,-6.75 -33.94,-6.74 -33.93,-6.74 -33.92,-6.75 -33.91,-6.74 -33.89,-6.76 -33.9,-6.73 -33.88,-6.75 -33.85,-6.75 -33.87,-6.74 -33.85,-6.75 -33.84,-6.74 -33.82,-6.75 -33.81,-6.74 -33.82,-6.75 -33.79,-6.74 -33.78,-6.75 -33.77,-6.74 -33.76,-6.75 -33.75,-6.74 -33.74,-6.75 -33.72,-6.74 -33.71,-6.76 -33.7,-6.74 -33.69,-6.73 -33.68,-6.76 -33.66,-6.74 -33.65,-6.76 -33.62,-6.74 -33.63,-6.74 -33.61,-6.73 -33.59,-6.76 -33.59,-6.74 -33.56,-6.76 -33.56,-6.74 -33.53,-6.73 -33.53,-6.76 -33.49,-6.74 -33.5,-6.76 -33.48,-6.74 -33.45,-6.73 -33.45,-6.76 -33.43,-6.74 -33.41,-6.74 -33.4,-6.76 -33.36,-6.74 -33.36,-6.75 -33.34,-6.74 -33.34,-6.74 -33.3,-6.76 -33.29,-6.74 -33.27,-6.75 -33.25,-6.74 -33.22,-6.74 -33.2,-6.74 -33.2,-6.76 -33.17,-6.73 -33.14,-6.76 -33.13,-6.74 -33.1,-6.74 -33.07,-6.74 -33.07,-6.75 -33.03,-6.76 -33,-6.74 -33,-6.74 -32.96,-6.74 -32.94,-6.76 -32.91,-6.73 -32.88,-6.76 -32.85,-6.74 -32.84,-6.74 -32.81,-6.74 -32.77,-6.75 -32.75,-6.742 -32.71,-6.758 -32.69,-6.738 -32.65,-6.742 -32.63,-6.75 -32.59,-6.738 -32.56,-6.762 -32.52,-6.738 -32.49,-6.743 -32.46,-6.738 -32.41,-6.75 -32.38,-6.742 -32.35,-6.758 -32.3,-6.742 -32.27,-6.738 -32.22,-6.731 -32.18,-6.762 -32.14,-6.757 -32.09,-6.743 -32.05,-6.738 -32,-6.73 -31.94,-6.758 -31.92,-6.742 -31.84,-6.758 -31.81,-6.742 -31.75,-6.739 -31.69,-6.75 -31.63,-6.742 -31.58,-6.738 -31.51,-6.762 -31.46,-6.738 -31.38,-6.731 -31.32,-6.761 -31.26,-6.739 -31.18,-6.761 -31.11,-6.739 -31.03,-6.73 -30.95,-6.762 -30.87,-6.738 -30.79,-6.738 -30.7,-6.762 -30.61,-6.73 -30.51,-6.758 -30.42,-6.742 -30.31,-6.739 -30.2,-6.761 -30.1,-6.739 -29.98,-6.73 -29.86,-6.762 -29.73,-6.738 -29.6,-6.742 -29.46,-6.758 -29.31,-6.731 -29.17,-6.761 -29,-6.739 -28.83,-6.738 -28.66,-6.742 -28.47,-6.75 -28.27,-6.762 -28.07,-6.738 -27.841,-6.738 -27.605,-6.743 -27.363,-6.75 -27.09,-6.738 -26.797,-6.762 -26.504,-6.738 -26.18,-6.742 -25.816,-6.738 -25.449,-6.75 -25.032,-6.743 -24.589,-6.757 -24.114,-6.743 -23.566,-6.738 -23.004,-6.75 -22.348,-6.738 -21.652,-6.762 -20.848,-6.738 -19.972,-6.742 -18.957,-6.739 -17.832,-6.75 -16.512,-6.742 -15,-6.758 -13.207,-6.742"
           style="fill:#e8e6e1;fill-opacity:1;fill-rule:nonzero;stroke:none"
           id="path4191" />
        <g
           id="g4193"
           transform="scale(2.13289,2.13289)">
          <path
             d="m 222.666,203.69 0,-3.159 16077.334,0 0,853.889 -11990.6,0 -16.21,-3.17 -16.2,-3.16 -16.2,-3.16 -16.21,-3.16 -16.2,-3.16 -16.2,-3.17 -16.2,-3.16 -16.19,-3.16 -16.19,-3.17 -16.2,-3.16 -16.18,-3.16 -16.2,-3.16 -16.19,-3.17 -16.18,-3.16 -16.19,-3.16 -16.18,-3.17 -16.18,-3.16 -16.18,-3.159 -16.17,-3.161 -16.18,-3.164 -16.18,-3.16 -16.17,-3.166 -16.17,-3.159 -16.17,-3.165 -16.16,-3.159 -16.17,-3.165 -16.16,-3.161 -16.16,-3.165 -16.16,-3.165 -16.16,-3.159 -16.16,-3.165 -16.15,-3.159 -16.15,-3.166 -16.15,-3.16 -16.15,-3.164 -16.14,-3.16 -16.15,-3.164 -16.13,-3.161 -16.14,-3.165 -16.15,-3.161 -16.13,-3.163 -16.13,-3.165 -16.14,-3.161 -16.12,-3.164 -16.13,-3.162 -16.12,-3.162 -16.12,-3.16 -16.12,-3.166 -16.12,-3.159 -16.12,-3.167 -16.11,-3.159 -16.11,-3.163 -16.12,-3.159 -16.1,-3.167 -16.1,-3.163 -16.1,-3.163 -16.1,-3.163 -16.1,-3.159 -16.1,-3.166 -16.09,-3.16 -16.09,-3.166 -16.08,-3.159 -16.09,-3.163 -16.08,-3.163 -16.08,-3.163 -16.08,-3.159 -16.07,-3.167 -16.07,-3.163 -16.08,-3.159 -16.06,-3.166 -16.07,-3.16 -16.05,-3.166 -16.06,-3.159 -16.06,-3.163 -16.05,-3.163 -16.05,-3.163 -16.05,-3.161 -16.04,-3.165 -16.04,-3.159 -16.03,-3.167 -16.04,-3.159 -16.04,-3.165 -16.02,-3.164 -16.03,-3.16 -16.02,-3.166 -16.02,-3.159 -16.02,-3.163 -16.01,-3.161 -16.01,-3.165 -16.01,-3.159 -16,-3.165 -16,-3.161 -15.99,-3.165 -16,-3.159 -15.99,-3.165 -15.98,-3.166 -15.98,-3.159 -15.98,-3.165 -15.98,-3.159 -15.97,-3.165 -15.97,-3.161 -15.96,-3.165 -15.96,-3.161 -15.96,-3.163 -15.95,-3.159 -15.95,-3.165 -15.95,-3.161 -15.94,-3.163 -15.93,-3.166 -15.93,-3.159 -15.93,-3.165 -15.93,-3.161 -15.92,-3.165 -15.91,-3.163 -15.91,-3.161 -15.91,-3.159 -15.9,-3.165 -15.9,-3.159 -15.89,-3.17 -15.9,-3.156 -15.88,-3.165 -15.87,-3.164 -15.88,-3.16 -15.87,-3.164 -15.87,-3.161 -15.85,-3.165 -15.86,-3.159 -15.85,-3.165 -15.84,-3.161 -15.84,-3.165 -15.84,-3.159 -15.82,-3.165 -15.83,-3.161 -15.82,-3.165 -15.81,-3.159 -15.8,-3.17 -15.8,-3.159 -15.8,-3.156 -15.79,-3.168 -15.78,-3.161 -15.77,-3.169 -15.77,-3.161 -15.76,-3.159 -15.76,-3.155 -15.75,-3.171 -15.75,-3.159 -15.74,-3.17 -15.73,-3.159 -15.72,-3.156 -15.72,-3.17 -15.7,-3.159 -15.71,-3.171 -15.7,-3.159 -15.68,-3.155 -15.68,-3.169 -15.67,-3.161 -15.67,-3.159 -15.66,-3.17 -15.64,-3.159 -15.64,-3.165 -15.63,-3.161 -15.63,-3.159 -15.62,-3.171 -15.6,-3.159 -15.6,-3.165 -15.59,-3.161 -15.58,-3.159 -15.56,-3.161 -15.57,-3.168 -15.55,-3.156 -15.54,-3.17 -15.53,-3.159 -15.52,-3.16 -15.5,-3.161 -15.51,-3.164 -15.48,-3.169 -15.48,-3.161 -15.47,-3.159 -15.45,-3.161 -15.45,-3.168 -15.42,-3.156 -15.42,-3.17 -15.4,-3.159 -15.4,-3.161 -15.38,-3.16 -15.37,-3.164 -15.35,-3.161 -15.34,-3.169 -15.32,-3.159 -15.31,-3.161 -15.3,-3.165 -15.28,-3.159 -15.27,-3.17 -15.24,-3.16 -15.23,-3.161 -15.22,-3.159 -15.2,-3.165 -15.18,-3.161 -15.17,-3.168 -15.14,-3.161 -15.13,-3.159 -15.11,-3.156 -15.08,-3.17 -15.07,-3.168 -15.05,-3.161 -15.03,-3.16 -15,-3.155 -14.97,-3.169 -14.969,-3.161 -14.928,-3.168 -14.915,-3.161 -14.886,-3.159 -14.857,-3.165 -14.831,-3.161 -14.805,-3.159 -14.774,-3.171 -14.749,-3.159 -14.714,-3.155 -14.684,-3.171 -14.655,-3.159 -14.619,-3.17 -14.585,-3.159 -14.549,-3.156 -14.511,-3.17 -14.473,-3.159 -14.436,-3.16 -14.393,-3.17 -14.353,-3.155 -14.304,-3.169 -14.263,-3.161 -14.21,-3.159 -14.159,-3.17 -14.113,-3.159 -14.056,-3.156 -14,-3.17 -13.939,-3.159 -13.876,-3.161 -13.813,-3.169 -13.741,-3.155 -13.677,-3.171 -13.597,-3.159 -13.516,-3.159 -13.437,-3.161 -13.35,-3.165 -13.254,-3.17 -13.16,-3.159 -13.053,-3.16 -12.943,-3.161 -12.829,-3.164 -12.701,-3.16 -12.564,-3.17 -12.426,-3.159 -12.274,-3.161 -12.104,-3.159 -11.932,-3.165 -11.736,-3.161 -11.529,-3.168 -11.305,-3.161 -11.049,-3.16 -10.786,-3.164 -10.477,-3.16 -10.152,-3.17 -9.774,-3.159 -9.364,-3.161 -8.888,-3.159 -8.361,-3.165 -7.741,-3.161 -7.033,-3.169 -6.192,-3.161 z"
             style="fill:none;stroke:#b2b1b1;stroke-width:0.46884799;stroke-linecap:square;stroke-linejoin:bevel;stroke-miterlimit:3.23900008;stroke-dasharray:none;stroke-opacity:1"
             id="path4195" />
        </g>
        <path
           d="m 474.922,433.301 13.207,6.738 15,6.762 16.512,6.73 17.832,6.758 18.957,6.742 19.972,6.739 20.848,6.742 21.652,6.758 22.348,6.73 23.004,6.762 23.566,6.738 24.114,6.738 24.589,6.762 25.032,6.73 25.449,6.758 25.816,6.742 26.184,6.739 26.5,6.742 26.797,6.75 27.09,6.738 27.363,6.762 27.605,6.738 27.841,6.742 28.07,6.75 28.27,6.739 28.47,6.761 28.66,6.739 28.83,6.742 29,6.758 29.17,6.73 29.31,6.738 29.46,6.762 29.6,6.738 29.73,6.762 29.86,6.731 29.98,6.738 30.1,6.742 30.2,6.758 30.31,6.762 30.42,6.73 30.51,6.738 30.61,6.743 30.7,6.757 30.79,6.743 30.87,6.757 30.95,6.731 31.03,6.742 31.11,6.738 31.18,6.758 31.26,6.742 31.32,6.75 31.38,6.739 31.46,6.742 31.51,6.758 31.58,6.742 31.63,6.75 31.69,6.738 31.75,6.742 31.81,6.739 31.84,6.761 31.92,6.739 31.94,6.75 32,6.742 32.05,6.738 32.09,6.738 32.14,6.762 32.18,6.75 32.22,6.738 32.27,6.742 32.3,6.739 32.35,6.761 32.38,6.731 32.41,6.758 32.46,6.742 32.49,6.738 32.52,6.742 32.56,6.75 32.59,6.739 32.63,6.761 32.65,6.739 32.69,6.742 32.71,6.758 32.75,6.73 32.77,6.762 32.81,6.738 32.84,6.74 32.85,6.76 32.88,6.73 32.91,6.74 32.94,6.76 32.96,6.74 33,6.74 33,6.75 33.03,6.74 33.07,6.76 33.07,6.74 33.1,6.74 33.13,6.76 33.14,6.73 33.17,6.74 33.2,6.76 33.2,6.74 33.22,6.76 33.25,6.73 33.27,6.74 33.3,6.74 33.29,6.76 33.34,6.76 33.34,6.73 33.36,6.74 33.36,6.74 33.4,6.76 33.41,6.74 33.43,6.75 33.45,6.74 33.45,6.74 33.48,6.74 33.5,6.76 33.49,6.74 33.53,6.75 33.53,6.74 33.56,6.74 33.56,6.76 33.59,6.74 33.59,6.75 33.61,6.74 33.63,6.74 33.62,6.74 33.65,6.76 33.66,6.73 33.68,6.76 33.69,6.74 33.7,6.74 33.71,6.76 33.72,6.74 33.74,6.75 33.75,6.74 33.76,6.74 33.77,6.75 33.78,6.75 33.79,6.74 33.82,6.75 33.81,6.74 33.82,6.75 33.84,6.74 33.85,6.75 33.87,6.74 33.85,6.75 33.88,6.75 33.9,6.74 33.89,6.75 33.91,6.74 33.92,6.75 33.93,6.73 33.94,6.76 33.94,6.73 33.95,6.76 33.97,6.74 33.98,6.75 33.97,6.74 33.99,6.74 34,6.76 34.01,6.74 34.03,6.75 34.01,6.74 34.04,6.75 34.05,6.73 34.04,6.76 34.06,6.74 34.06,6.75 34.09,6.74 34.07,6.74 34.09,6.75 34.09,6.75 34.11,6.75 34.11,6.74 34.12,6.74 34.13,6.75 34.12,6.75 34.14,6.73 34.15,6.76 34.15,6.74 34.16,6.75 34.17,6.74 34.18,6.75 34.18,6.73 34.18,6.76 34.21,6.74 34.2,6.75 34.2,6.75 34.21,6.73 34.22,6.76 34.22,6.74 34.24,6.75 34.23,6.74 34.25,6.74 34.25,6.75 34.25,6.75 34.27,6.74 34.26,6.75 34.28,6.74 34.28,6.75 34.28,6.75 34.29,6.74 34.3,6.75 34.3,6.74 34.31,6.74 34.31,6.75 34.31,6.75 34.33,6.74 34.33,6.75 34.33,6.74 34.34,6.75 34.34,6.73 34.35,6.76 34.35,6.75 34.37,6.74 34.35,6.75 34.38,6.74 34.37,6.75 34.38,6.74 34.38,6.75 34.39,6.74 34.39,6.75 34.39,6.73 34.4,6.76 34.41,6.74 34.41,6.75 34.41,6.75 34.43,6.73 34.42,6.76 34.42,6.74 34.44,6.75 34.43,6.74 34.44,6.74 34.45,6.75 34.45,6.75 34.45,6.74 34.46,6.75 34.46,6.74 34.47,6.74 34.47,6.76 34.47,6.74 34.48,6.75 34.48,6.74 34.49,6.75 34.5,6.74 34.48,6.75 34.5,6.73 34.5,6.76 34.51,6.74 34.51,6.75 34.5,6.74 34.52,6.75 34.52,6.74 34.52,6.75 34.53,6.74 34.54,6.75 34.53,6.75 34.53,6.73 34.54,6.76 34.54,6.74 34.55,6.75 34.55,6.74 34.56,6.74 34.56,6.75 34.56,6.75 34.56,6.74 34.57,6.75"
           style="fill:none;stroke:#393536;stroke-width:3.5999999;stroke-linecap:square;stroke-linejoin:miter;stroke-miterlimit:3.25;stroke-dasharray:none;stroke-opacity:1"
           id="path4197" />
      </g>
    </g>
    <path
       d="m -171.25505,426.39085 0,0 m 0,109.61125 0,0 m -35.15125,0 0,0 m -35.16125,0 0,0 m -35.18,0 0,0 m -35.2375,0 0,0 m -35.41625,0 0,0 m -35.96,0 0,0 m 0,75.88375 0,0 m -37.71,-75.88375 0,0 m 0,75.88375 0,0 m -44.35462,0 0,0"
       style="fill:none;stroke:#535fb5;stroke-width:2.70000005;stroke-linecap:round;stroke-linejoin:miter;stroke-miterlimit:3.25;stroke-dasharray:none;stroke-opacity:1"
       id="path4199" />
    <path
       d="m -171.25505,611.88585 0,0 m -35.15125,0 0,0 m -35.16125,0 0,0 m -35.18,0 0,0 m -35.2375,0 0,0 m -35.41625,0 0,0 m -35.96,0 0,0 m -37.71,0 0,0 m -44.35462,0 0,0"
       style="fill:none;stroke:#a443a7;stroke-width:2.70000005;stroke-linecap:round;stroke-linejoin:miter;stroke-miterlimit:3.25;stroke-dasharray:none;stroke-opacity:1"
       id="path4201" />
    <path
       d="m -500.5763,637.18223 0,-3.61125"
       style="fill:none;stroke:#231f20;stroke-width:0.18000001;stroke-linecap:butt;stroke-linejoin:miter;stroke-miterlimit:3.25;stroke-dasharray:none;stroke-opacity:1"
       id="path4203" />
    <g
       id="g4205"
       transform="matrix(1.25,0,0,-1.25,-556.0138,690.5021)">
      <text
         transform="matrix(1,0,0,-1,40.1523,27.943)"
         style="font-variant:normal;font-weight:normal;font-size:14px;font-family:Helvetica;-inkscape-font-specification:Helvetica;writing-mode:lr-tb;fill:#211a19;fill-opacity:1;fill-rule:nonzero;stroke:none"
         id="text4207">
        <tspan
           x="0"
           y="0"
           id="tspan4209">1</tspan>
      </text>
    </g>
    <path
       d="m -426.90505,637.18223 0,-3.61125"
       style="fill:none;stroke:#231f20;stroke-width:0.18000001;stroke-linecap:butt;stroke-linejoin:miter;stroke-miterlimit:3.25;stroke-dasharray:none;stroke-opacity:1"
       id="path4211" />
    <g
       id="g4213"
       transform="matrix(1.25,0,0,-1.25,-556.0138,690.5021)">
      <text
         transform="matrix(1,0,0,-1,94.7695,27.943)"
         style="font-variant:normal;font-weight:normal;font-size:14px;font-family:Helvetica;-inkscape-font-specification:Helvetica;writing-mode:lr-tb;fill:#211a19;fill-opacity:1;fill-rule:nonzero;stroke:none"
         id="text4215">
        <tspan
           x="0 7.7861362"
           y="0"
           id="tspan4217">10</tspan>
      </text>
    </g>
    <path
       d="m -353.2338,637.18223 0,-3.61125"
       style="fill:none;stroke:#231f20;stroke-width:0.18000001;stroke-linecap:butt;stroke-linejoin:miter;stroke-miterlimit:3.25;stroke-dasharray:none;stroke-opacity:1"
       id="path4219" />
    <path
       d="m -279.56255,637.18223 0,-3.61125"
       style="fill:none;stroke:#231f20;stroke-width:0.18000001;stroke-linecap:butt;stroke-linejoin:miter;stroke-miterlimit:3.25;stroke-dasharray:none;stroke-opacity:1"
       id="path4221" />
    <path
       d="m -205.8913,637.18223 0,-3.61125"
       style="fill:none;stroke:#231f20;stroke-width:0.18000001;stroke-linecap:butt;stroke-linejoin:miter;stroke-miterlimit:3.25;stroke-dasharray:none;stroke-opacity:1"
       id="path4223" />
    <g
       id="g4225"
       transform="matrix(1.25,0,0,-1.25,-556.0138,690.5021)">
      <text
         transform="matrix(1,0,0,-1,268.207,28.1)"
         style="font-variant:normal;font-weight:normal;font-size:14px;font-family:Helvetica;-inkscape-font-specification:Helvetica;writing-mode:lr-tb;fill:#211a19;fill-opacity:1;fill-rule:nonzero;stroke:none"
         id="text4227">
        <tspan
           x="0 7.7861242"
           y="0"
           id="tspan4229">10</tspan>
      </text>
      <text
         transform="matrix(1,0,0,-1,284.6601,33.66211)"
         style="font-variant:normal;font-weight:normal;font-size:10px;font-family:Helvetica;-inkscape-font-specification:Helvetica;writing-mode:lr-tb;fill:#211a19;fill-opacity:1;fill-rule:nonzero;stroke:none"
         id="text4231">
        <tspan
           x="0"
           y="0"
           id="tspan4233">4</tspan>
      </text>
    </g>
    <path
       d="m -132.2213,637.18223 0,-3.61125"
       style="fill:none;stroke:#231f20;stroke-width:0.18000001;stroke-linecap:butt;stroke-linejoin:miter;stroke-miterlimit:3.25;stroke-dasharray:none;stroke-opacity:1"
       id="path4235" />
    <g
       id="g4237"
       transform="matrix(1.25,0,0,-1.25,-556.0138,690.5021)">
      <text
         transform="matrix(1,0,0,-1,327.145,28.1)"
         style="font-variant:normal;font-weight:normal;font-size:14px;font-family:Helvetica;-inkscape-font-specification:Helvetica;writing-mode:lr-tb;fill:#211a19;fill-opacity:1;fill-rule:nonzero;stroke:none"
         id="text4239">
        <tspan
           x="0 7.7861242"
           y="0"
           id="tspan4241">10</tspan>
      </text>
      <text
         transform="matrix(1,0,0,-1,343.5899,33.66211)"
         style="font-variant:normal;font-weight:normal;font-size:10px;font-family:Helvetica;-inkscape-font-specification:Helvetica;writing-mode:lr-tb;fill:#211a19;fill-opacity:1;fill-rule:nonzero;stroke:none"
         id="text4243">
        <tspan
           x="0"
           y="0"
           id="tspan4245">5</tspan>
      </text>
    </g>
    <path
       d="m -135.5913,637.18223 0,-1.38038 m -3.76875,1.38038 0,-1.38038 m -4.2725,1.38038 0,-1.38038 m -4.9325,1.38038 0,-1.38038 m -5.8325,1.38038 0,-1.38038 m -7.14,1.38038 0,-1.38038 m -9.20375,1.38038 0,-1.38038 m -12.97375,1.38038 0,-1.38038 m -25.5475,1.38038 0,-1.38038 m -3.76875,1.38038 0,-1.38038 m -4.2725,1.38038 0,-1.38038 m -4.9325,1.38038 0,-1.38038 m -5.8325,1.38038 0,-1.38038 m -7.13875,1.38038 0,-1.38038 m -9.205,1.38038 0,-1.38038 m -12.97375,1.38038 0,-1.38038 m -25.5475,1.38038 0,-1.38038 m -3.76875,1.38038 0,-1.38038 m -4.2725,1.38038 0,-1.38038 m -4.93125,1.38038 0,-1.38038 m -5.83375,1.38038 0,-1.38038 m -7.14,1.38038 0,-1.38038 m -9.20375,1.38038 0,-1.38038 m -12.9725,1.38038 0,-1.38038 m -25.54875,1.38038 0,-1.38038 m -3.76875,1.38038 0,-1.38038 m -4.2725,1.38038 0,-1.38038 m -4.93125,1.38038 0,-1.38038 m -5.83375,1.38038 0,-1.38038 m -7.14,1.38038 0,-1.38038 m -9.20375,1.38038 0,-1.38038 m -12.9725,1.38038 0,-1.38038 m -25.54875,1.38038 0,-1.38038 m -3.76825,1.38038 0,-1.38038 m -4.273,1.38038 0,-1.38038 m -4.93162,1.38038 0,-1.38038 m -5.8335,1.38038 0,-1.38038 m -7.13863,1.38038 0,-1.38038 m -9.20462,1.38038 0,-1.38038 m -12.97263,1.38038 0,-1.38038"
       style="fill:none;stroke:#231f20;stroke-width:0.36875001;stroke-linecap:butt;stroke-linejoin:miter;stroke-miterlimit:3.25;stroke-dasharray:none;stroke-opacity:1"
       id="path4247" />
    <path
       d="m -500.5763,637.18223 368.355,0"
       style="fill:none;stroke:#231f20;stroke-width:0.18000001;stroke-linecap:butt;stroke-linejoin:miter;stroke-miterlimit:3.25;stroke-dasharray:none;stroke-opacity:1"
       id="path4249" />
    <path
       d="m -500.5763,637.18223 3.61275,0"
       style="fill:none;stroke:#231f20;stroke-width:0.18000001;stroke-linecap:butt;stroke-linejoin:miter;stroke-miterlimit:3.25;stroke-dasharray:none;stroke-opacity:1"
       id="path4251" />
    <g
       id="g4253"
       transform="matrix(1.25,0,0,-1.25,-556.0138,690.5021)">
      <text
         transform="matrix(1,0,0,-1,33.543,38.334)"
         style="font-variant:normal;font-weight:normal;font-size:14px;font-family:Helvetica;-inkscape-font-specification:Helvetica;writing-mode:lr-tb;fill:#211a19;fill-opacity:1;fill-rule:nonzero;stroke:none"
         id="text4255">
        <tspan
           x="0"
           y="0"
           id="tspan4257">0</tspan>
      </text>
    </g>
    <path
       d="m -500.5763,595.0236 3.61275,0 m -3.61275,8.42963 2.1675,0 m -2.1675,8.43262 2.1675,0 m -2.1675,8.43362 2.1675,0 m -2.1675,8.43263 2.1675,0"
       style="fill:none;stroke:#231f20;stroke-width:0.18000001;stroke-linecap:butt;stroke-linejoin:miter;stroke-miterlimit:3.25;stroke-dasharray:none;stroke-opacity:1"
       id="path4259" />
    <g
       id="g4261"
       transform="matrix(1.25,0,0,-1.25,-556.0138,690.5021)">
      <text
         transform="matrix(1,0,0,-1,33.543,72.068)"
         style="font-variant:normal;font-weight:normal;font-size:14px;font-family:Helvetica;-inkscape-font-specification:Helvetica;writing-mode:lr-tb;fill:#211a19;fill-opacity:1;fill-rule:nonzero;stroke:none"
         id="text4263">
        <tspan
           x="0"
           y="0"
           id="tspan4265">5</tspan>
      </text>
    </g>
    <path
       d="m -500.5763,552.86585 3.61275,0 m -3.61275,8.4325 2.1675,0 m -2.1675,8.42988 2.1675,0 m -2.1675,8.43262 2.1675,0 m -2.1675,8.4325 2.1675,0"
       style="fill:none;stroke:#231f20;stroke-width:0.18000001;stroke-linecap:butt;stroke-linejoin:miter;stroke-miterlimit:3.25;stroke-dasharray:none;stroke-opacity:1"
       id="path4267" />
    <g
       id="g4269"
       transform="matrix(1.25,0,0,-1.25,-556.0138,690.5021)">
      <text
         transform="matrix(1,0,0,-1,24.9102,105.787)"
         style="font-variant:normal;font-weight:normal;font-size:14px;font-family:Helvetica;-inkscape-font-specification:Helvetica;writing-mode:lr-tb;fill:#211a19;fill-opacity:1;fill-rule:nonzero;stroke:none"
         id="text4271">
        <tspan
           x="0 7.78613"
           y="0"
           id="tspan4273">10</tspan>
      </text>
    </g>
    <path
       d="m -500.5763,510.70585 3.61275,0 m -3.61275,8.4325 2.1675,0 m -2.1675,8.43125 2.1675,0 m -2.1675,8.4325 2.1675,0 m -2.1675,8.43125 2.1675,0"
       style="fill:none;stroke:#231f20;stroke-width:0.18000001;stroke-linecap:butt;stroke-linejoin:miter;stroke-miterlimit:3.25;stroke-dasharray:none;stroke-opacity:1"
       id="path4275" />
    <g
       id="g4277"
       transform="matrix(1.25,0,0,-1.25,-556.0138,690.5021)">
      <text
         transform="matrix(1,0,0,-1,24.9102,139.521)"
         style="font-variant:normal;font-weight:normal;font-size:14px;font-family:Helvetica;-inkscape-font-specification:Helvetica;writing-mode:lr-tb;fill:#211a19;fill-opacity:1;fill-rule:nonzero;stroke:none"
         id="text4279">
        <tspan
           x="0 7.78613"
           y="0"
           id="tspan4281">15</tspan>
      </text>
    </g>
    <path
       d="m -500.5763,468.54835 3.61275,0 m -3.61275,8.43125 2.1675,0 m -2.1675,8.43125 2.1675,0 m -2.1675,8.4325 2.1675,0 m -2.1675,8.43125 2.1675,0"
       style="fill:none;stroke:#231f20;stroke-width:0.18000001;stroke-linecap:butt;stroke-linejoin:miter;stroke-miterlimit:3.25;stroke-dasharray:none;stroke-opacity:1"
       id="path4283" />
    <g
       id="g4285"
       transform="matrix(1.25,0,0,-1.25,-556.0138,690.5021)">
      <text
         transform="matrix(1,0,0,-1,24.9102,173.248)"
         style="font-variant:normal;font-weight:normal;font-size:14px;font-family:Helvetica;-inkscape-font-specification:Helvetica;writing-mode:lr-tb;fill:#211a19;fill-opacity:1;fill-rule:nonzero;stroke:none"
         id="text4287">
        <tspan
           x="0 7.78613"
           y="0"
           id="tspan4289">20</tspan>
      </text>
    </g>
    <path
       d="m -500.5763,426.39085 3.61275,0 m -3.61275,8.43 2.1675,0 m -2.1675,8.43125 2.1675,0 m -2.1675,8.4325 2.1675,0 m -2.1675,8.43125 2.1675,0"
       style="fill:none;stroke:#231f20;stroke-width:0.18000001;stroke-linecap:butt;stroke-linejoin:miter;stroke-miterlimit:3.25;stroke-dasharray:none;stroke-opacity:1"
       id="path4291" />
    <g
       id="g4293"
       transform="matrix(1.25,0,0,-1.25,-556.0138,690.5021)">
      <text
         transform="matrix(1,0,0,-1,24.9102,206.975)"
         style="font-variant:normal;font-weight:normal;font-size:14px;font-family:Helvetica;-inkscape-font-specification:Helvetica;writing-mode:lr-tb;fill:#211a19;fill-opacity:1;fill-rule:nonzero;stroke:none"
         id="text4295">
        <tspan
           x="0 7.78613"
           y="0"
           id="tspan4297">25</tspan>
      </text>
    </g>
    <path
       d="m -500.5763,637.18223 0,-227.65638 m 0,0 2.1675,0 m -2.1675,8.43125 2.1675,0"
       style="fill:none;stroke:#231f20;stroke-width:0.18000001;stroke-linecap:butt;stroke-linejoin:miter;stroke-miterlimit:3.25;stroke-dasharray:none;stroke-opacity:1"
       id="path4299" />
    <g
       id="g4301"
       transform="matrix(1.25,0,0,-1.25,-556.0138,690.5021)">
      <text
         transform="matrix(1,0,0,-1,66.9555,141.757)"
         style="font-variant:normal;font-weight:normal;font-size:18px;font-family:Helvetica;-inkscape-font-specification:Helvetica;writing-mode:lr-tb;fill:#0e0f0e;fill-opacity:1;fill-rule:nonzero;stroke:none"
         id="text4303">
        <tspan
           x="0 36.280441 66.947578 94.595634 123.06947 151.4265 180.04326 208.59558"
           y="0"
           id="tspan4305">23456789</tspan>
        <tspan
           x="230.26199 240.27269"
           y="-91.306297"
           id="tspan4307">10</tspan>
      </text>
    </g>
    <path
       d="m -171.25505,636.37323 0,-232.63863"
       style="fill:#384ea9;fill-opacity:1;fill-rule:nonzero;stroke:none"
       id="path4309" />
    <path
       d="m -171.25505,636.37323 0,-232.63863"
       style="fill:none;stroke:#766c74;stroke-width:0.3125;stroke-linecap:butt;stroke-linejoin:miter;stroke-miterlimit:10;stroke-dasharray:none;stroke-opacity:1"
       id="path4311" />
    <path
       d="m -205.74255,637.27697 0,-118.27862"
       style="fill:#1d1e34;fill-opacity:1;fill-rule:nonzero;stroke:none"
       id="path4313" />
    <path
       d="m -205.74255,637.27697 0,-118.27862"
       style="fill:none;stroke:#766c74;stroke-width:0.3125;stroke-linecap:butt;stroke-linejoin:miter;stroke-miterlimit:10;stroke-dasharray:none;stroke-opacity:1"
       id="path4315" />
    <path
       d="m -241.4313,637.27697 0,-118.27862"
       style="fill:#1d1e34;fill-opacity:1;fill-rule:nonzero;stroke:none"
       id="path4317" />
    <path
       d="m -241.4313,637.27697 0,-118.27862"
       style="fill:none;stroke:#766c74;stroke-width:0.3125;stroke-linecap:butt;stroke-linejoin:miter;stroke-miterlimit:10;stroke-dasharray:none;stroke-opacity:1"
       id="path4319" />
    <path
       d="m -277.20255,636.69348 0,-117.69513"
       style="fill:#1d1e34;fill-opacity:1;fill-rule:nonzero;stroke:none"
       id="path4321" />
    <path
       d="m -277.20255,636.69348 0,-117.69513"
       style="fill:none;stroke:#766c74;stroke-width:0.3125;stroke-linecap:butt;stroke-linejoin:miter;stroke-miterlimit:10;stroke-dasharray:none;stroke-opacity:1"
       id="path4323" />
    <path
       d="m -312.65005,637.27697 0,-118.27862"
       style="fill:#1d1e34;fill-opacity:1;fill-rule:nonzero;stroke:none"
       id="path4325" />
    <path
       d="m -312.65005,637.27697 0,-118.27862"
       style="fill:none;stroke:#766c74;stroke-width:0.3125;stroke-linecap:butt;stroke-linejoin:miter;stroke-miterlimit:10;stroke-dasharray:none;stroke-opacity:1"
       id="path4327" />
    <path
       d="m -346.99255,636.64223 0,-117.64388"
       style="fill:#1d1e34;fill-opacity:1;fill-rule:nonzero;stroke:none"
       id="path4329" />
    <path
       d="m -346.99255,636.64223 0,-117.64388"
       style="fill:none;stroke:#766c74;stroke-width:0.3125;stroke-linecap:butt;stroke-linejoin:miter;stroke-miterlimit:10;stroke-dasharray:none;stroke-opacity:1"
       id="path4331" />
    <path
       d="m -383.0113,636.30723 0.001,-117.30888"
       style="fill:#1d1e34;fill-opacity:1;fill-rule:nonzero;stroke:none"
       id="path4333" />
    <path
       d="m -383.0113,636.30723 0.001,-117.30888"
       style="fill:none;stroke:#766c74;stroke-width:0.3125;stroke-linecap:butt;stroke-linejoin:miter;stroke-miterlimit:10;stroke-dasharray:none;stroke-opacity:1"
       id="path4335" />
    <path
       d="m -420.86255,637.27697 0,-118.27862"
       style="fill:#1d1e34;fill-opacity:1;fill-rule:nonzero;stroke:none"
       id="path4337" />
    <path
       d="m -420.86255,637.27697 0,-118.27862"
       style="fill:none;stroke:#766c74;stroke-width:0.3125;stroke-linecap:butt;stroke-linejoin:miter;stroke-miterlimit:10;stroke-dasharray:none;stroke-opacity:1"
       id="path4339" />
    <path
       d="m -466.00155,637.27697 0,-118.27862"
       style="fill:#1d1e34;fill-opacity:1;fill-rule:nonzero;stroke:none"
       id="path4341" />
    <path
       d="m -466.00155,637.27697 0,-118.27862"
       style="fill:none;stroke:#766c74;stroke-width:0.3125;stroke-linecap:butt;stroke-linejoin:miter;stroke-miterlimit:10;stroke-dasharray:none;stroke-opacity:1"
       id="path4343" />
    <path
       d="m -426.4763,427.2196 -17.78212,31.00375"
       style="fill:none;stroke:#0e0f0e;stroke-width:1.25;stroke-linecap:butt;stroke-linejoin:miter;stroke-miterlimit:10;stroke-dasharray:none;stroke-opacity:1"
       id="path4345" />
    <path
       d="m -426.4763,427.2196 18.145,31.00375"
       style="fill:none;stroke:#0e0f0e;stroke-width:1.25;stroke-linecap:butt;stroke-linejoin:miter;stroke-miterlimit:10;stroke-dasharray:none;stroke-opacity:1"
       id="path4347" />
    <path
       d="m -443.62605,459.32085 34.99975,0"
       style="fill:none;stroke:#0e0f0e;stroke-width:1.25;stroke-linecap:butt;stroke-linejoin:miter;stroke-miterlimit:10;stroke-dasharray:none;stroke-opacity:1"
       id="path4349" />
    <path
       d="m -429.8288,424.81585 c 1.84375,-1.84375 4.83625,-1.84375 6.6825,0 1.845,1.84625 1.845,4.83875 0,6.68375 -1.84625,1.84375 -4.83875,1.84375 -6.6825,0 -1.84412,-1.845 -1.84412,-4.8375 0,-6.68375"
       style="fill:#4ea5d5;fill-opacity:1;fill-rule:nonzero;stroke:none"
       id="path4351" />
    <path
       d="m -443.96542,453.8521 c 2.60887,0 4.72512,2.11625 4.72512,4.725 0,2.61 -2.11625,4.725 -4.72512,4.725 -2.608,0 -4.72463,-2.115 -4.72463,-4.725 0,-2.60875 2.11663,-4.725 4.72463,-4.725"
       style="fill:#4ea5d5;fill-opacity:1;fill-rule:nonzero;stroke:none"
       id="path4353" />
    <path
       d="m -408.89005,453.8521 c 2.60875,0 4.725,2.11625 4.725,4.725 0,2.61 -2.11625,4.725 -4.725,4.725 -2.61125,0 -4.725,-2.115 -4.725,-4.725 0,-2.60875 2.11375,-4.725 4.725,-4.725"
       style="fill:#4ea5d5;fill-opacity:1;fill-rule:nonzero;stroke:none"
       id="path4355" />
    <path
       d="m -276.1263,463.07085 11.25,0"
       style="fill:none;stroke:#0e0f0e;stroke-width:1.25;stroke-linecap:butt;stroke-linejoin:miter;stroke-miterlimit:10;stroke-dasharray:none;stroke-opacity:1"
       id="path4357" />
    <path
       d="m -270.1938,387.5396 -6.17375,10.76625"
       style="fill:none;stroke:#0e0f0e;stroke-width:1.25;stroke-linecap:butt;stroke-linejoin:miter;stroke-miterlimit:10;stroke-dasharray:none;stroke-opacity:1"
       id="path4359" />
    <path
       d="m -270.1938,387.5396 6.29875,10.76625"
       style="fill:none;stroke:#0e0f0e;stroke-width:1.25;stroke-linecap:butt;stroke-linejoin:miter;stroke-miterlimit:10;stroke-dasharray:none;stroke-opacity:1"
       id="path4361" />
    <path
       d="m -276.1263,398.07085 12.5,0"
       style="fill:none;stroke:#0e0f0e;stroke-width:1.25;stroke-linecap:butt;stroke-linejoin:miter;stroke-miterlimit:10;stroke-dasharray:none;stroke-opacity:1"
       id="path4363" />
    <path
       d="m -271.86505,385.89835 c 0.915,-0.91625 2.39875,-0.91625 3.315,0 0.915,0.915 0.915,2.39875 0,3.31375 -0.91625,0.91625 -2.4,0.91625 -3.315,0 -0.91375,-0.915 -0.91375,-2.39875 0,-3.31375"
       style="fill:#4ea5d5;fill-opacity:1;fill-rule:nonzero;stroke:none"
       id="path4365" />
    <path
       d="m -276.3813,398.3521 -6.175,10.76625"
       style="fill:none;stroke:#0e0f0e;stroke-width:1.25;stroke-linecap:butt;stroke-linejoin:miter;stroke-miterlimit:10;stroke-dasharray:none;stroke-opacity:1"
       id="path4367" />
    <path
       d="m -263.75505,398.3521 6.29875,10.76625"
       style="fill:none;stroke:#0e0f0e;stroke-width:1.25;stroke-linecap:butt;stroke-linejoin:miter;stroke-miterlimit:10;stroke-dasharray:none;stroke-opacity:1"
       id="path4369" />
    <path
       d="m -282.75755,409.0396 -6.17375,10.76625"
       style="fill:none;stroke:#0e0f0e;stroke-width:1.25;stroke-linecap:butt;stroke-linejoin:miter;stroke-miterlimit:10;stroke-dasharray:none;stroke-opacity:1"
       id="path4371" />
    <path
       d="m -282.75755,409.0396 6.30125,10.76625"
       style="fill:none;stroke:#0e0f0e;stroke-width:1.25;stroke-linecap:butt;stroke-linejoin:miter;stroke-miterlimit:10;stroke-dasharray:none;stroke-opacity:1"
       id="path4373" />
    <path
       d="m -288.6263,419.32085 12.5,0"
       style="fill:none;stroke:#0e0f0e;stroke-width:1.25;stroke-linecap:butt;stroke-linejoin:miter;stroke-miterlimit:10;stroke-dasharray:none;stroke-opacity:1"
       id="path4375" />
    <path
       d="m -284.4263,407.3971 c 0.915,-0.91375 2.3975,-0.91375 3.31375,0 0.915,0.91625 0.915,2.4 0,3.315 -0.91625,0.915 -2.39875,0.915 -3.31375,0 -0.91625,-0.915 -0.91625,-2.39875 0,-3.315"
       style="fill:#4ea5d5;fill-opacity:1;fill-rule:nonzero;stroke:none"
       id="path4377" />
    <path
       d="m -288.9438,419.8521 -6.175,10.765"
       style="fill:none;stroke:#0e0f0e;stroke-width:1.25;stroke-linecap:butt;stroke-linejoin:miter;stroke-miterlimit:10;stroke-dasharray:none;stroke-opacity:1"
       id="path4379" />
    <path
       d="m -257.6313,409.0396 -6.175,10.76625"
       style="fill:none;stroke:#0e0f0e;stroke-width:1.25;stroke-linecap:butt;stroke-linejoin:miter;stroke-miterlimit:10;stroke-dasharray:none;stroke-opacity:1"
       id="path4381" />
    <path
       d="m -257.6313,409.0396 6.3,10.76625"
       style="fill:none;stroke:#0e0f0e;stroke-width:1.25;stroke-linecap:butt;stroke-linejoin:miter;stroke-miterlimit:10;stroke-dasharray:none;stroke-opacity:1"
       id="path4383" />
    <path
       d="m -263.6263,419.32085 12.5,0"
       style="fill:none;stroke:#0e0f0e;stroke-width:1.25;stroke-linecap:butt;stroke-linejoin:miter;stroke-miterlimit:10;stroke-dasharray:none;stroke-opacity:1"
       id="path4385" />
    <path
       d="m -259.30255,407.3971 c 0.91625,-0.91375 2.4,-0.91375 3.315,0 0.91625,0.91625 0.91625,2.4 0,3.315 -0.915,0.915 -2.39875,0.915 -3.315,0 -0.915,-0.915 -0.915,-2.39875 0,-3.315"
       style="fill:#4ea5d5;fill-opacity:1;fill-rule:nonzero;stroke:none"
       id="path4387" />
    <path
       d="m -251.19505,419.8521 6.30125,10.765"
       style="fill:none;stroke:#0e0f0e;stroke-width:1.25;stroke-linecap:butt;stroke-linejoin:miter;stroke-miterlimit:10;stroke-dasharray:none;stroke-opacity:1"
       id="path4389" />
    <path
       d="m -276.1263,419.32085 11.25,0"
       style="fill:none;stroke:#0e0f0e;stroke-width:1.25;stroke-linecap:butt;stroke-linejoin:miter;stroke-miterlimit:10;stroke-dasharray:none;stroke-opacity:1"
       id="path4391" />
    <path
       d="m -276.39755,395.9596 c 1.295,0 2.34375,1.04875 2.34375,2.34375 0,1.295 -1.04875,2.34375 -2.34375,2.34375 -1.29375,0 -2.34375,-1.04875 -2.34375,-2.34375 0,-1.295 1.05,-2.34375 2.34375,-2.34375"
       style="fill:#4ea5d5;fill-opacity:1;fill-rule:nonzero;stroke:none"
       id="path4393" />
    <path
       d="m -263.95755,395.9596 c 1.29375,0 2.34375,1.04875 2.34375,2.34375 0,1.295 -1.05,2.34375 -2.34375,2.34375 -1.29625,0 -2.34375,-1.04875 -2.34375,-2.34375 0,-1.295 1.0475,-2.34375 2.34375,-2.34375"
       style="fill:#4ea5d5;fill-opacity:1;fill-rule:nonzero;stroke:none"
       id="path4395" />
    <path
       d="m -288.9588,417.4596 c 1.295,0 2.34375,1.05 2.34375,2.34375 0,1.295 -1.04875,2.34375 -2.34375,2.34375 -1.295,0 -2.34375,-1.04875 -2.34375,-2.34375 0,-1.29375 1.04875,-2.34375 2.34375,-2.34375"
       style="fill:#4ea5d5;fill-opacity:1;fill-rule:nonzero;stroke:none"
       id="path4397" />
    <path
       d="m -276.5213,417.4596 c 1.29375,0 2.34375,1.05 2.34375,2.34375 0,1.295 -1.05,2.34375 -2.34375,2.34375 -1.29375,0 -2.34375,-1.04875 -2.34375,-2.34375 0,-1.29375 1.05,-2.34375 2.34375,-2.34375"
       style="fill:#4ea5d5;fill-opacity:1;fill-rule:nonzero;stroke:none"
       id="path4399" />
    <path
       d="m -263.8338,417.4596 c 1.29375,0 2.34375,1.05 2.34375,2.34375 0,1.295 -1.05,2.34375 -2.34375,2.34375 -1.29375,0 -2.34375,-1.04875 -2.34375,-2.34375 0,-1.29375 1.05,-2.34375 2.34375,-2.34375"
       style="fill:#4ea5d5;fill-opacity:1;fill-rule:nonzero;stroke:none"
       id="path4401" />
    <path
       d="m -251.39755,417.4596 c 1.295,0 2.34375,1.05 2.34375,2.34375 0,1.295 -1.04875,2.34375 -2.34375,2.34375 -1.29375,0 -2.34375,-1.04875 -2.34375,-2.34375 0,-1.29375 1.05,-2.34375 2.34375,-2.34375"
       style="fill:#4ea5d5;fill-opacity:1;fill-rule:nonzero;stroke:none"
       id="path4403" />
    <path
       d="m -295.3188,430.6646 -6.175,10.76625"
       style="fill:none;stroke:#0e0f0e;stroke-width:1.25;stroke-linecap:butt;stroke-linejoin:miter;stroke-miterlimit:10;stroke-dasharray:none;stroke-opacity:1"
       id="path4405" />
    <path
       d="m -295.3188,430.6646 6.3,10.76625"
       style="fill:none;stroke:#0e0f0e;stroke-width:1.25;stroke-linecap:butt;stroke-linejoin:miter;stroke-miterlimit:10;stroke-dasharray:none;stroke-opacity:1"
       id="path4407" />
    <path
       d="m -301.1263,441.82085 12.5,0"
       style="fill:none;stroke:#0e0f0e;stroke-width:1.25;stroke-linecap:butt;stroke-linejoin:miter;stroke-miterlimit:10;stroke-dasharray:none;stroke-opacity:1"
       id="path4409" />
    <path
       d="m -296.99005,429.02335 c 0.915,-0.91625 2.4,-0.91625 3.315,0 0.91625,0.915 0.91625,2.39875 0,3.31375 -0.915,0.91625 -2.4,0.91625 -3.315,0 -0.915,-0.915 -0.915,-2.39875 0,-3.31375"
       style="fill:#4ea5d5;fill-opacity:1;fill-rule:nonzero;stroke:none"
       id="path4411" />
    <path
       d="m -301.50755,441.4771 -6.17375,10.76625"
       style="fill:none;stroke:#0e0f0e;stroke-width:1.25;stroke-linecap:butt;stroke-linejoin:miter;stroke-miterlimit:10;stroke-dasharray:none;stroke-opacity:1"
       id="path4413" />
    <path
       d="m -288.8813,441.4771 6.3,10.76625"
       style="fill:none;stroke:#0e0f0e;stroke-width:1.25;stroke-linecap:butt;stroke-linejoin:miter;stroke-miterlimit:10;stroke-dasharray:none;stroke-opacity:1"
       id="path4415" />
    <path
       d="m -307.8813,452.1646 -6.175,10.76625"
       style="fill:none;stroke:#0e0f0e;stroke-width:1.25;stroke-linecap:butt;stroke-linejoin:miter;stroke-miterlimit:10;stroke-dasharray:none;stroke-opacity:1"
       id="path4417" />
    <path
       d="m -307.8813,452.1646 6.3,10.76625"
       style="fill:none;stroke:#0e0f0e;stroke-width:1.25;stroke-linecap:butt;stroke-linejoin:miter;stroke-miterlimit:10;stroke-dasharray:none;stroke-opacity:1"
       id="path4419" />
    <path
       d="m -313.6263,463.07085 11.25,0"
       style="fill:none;stroke:#0e0f0e;stroke-width:1.25;stroke-linecap:butt;stroke-linejoin:miter;stroke-miterlimit:10;stroke-dasharray:none;stroke-opacity:1"
       id="path4421" />
    <path
       d="m -309.55255,450.5221 c 0.915,-0.91375 2.4,-0.91375 3.31375,0 0.91625,0.91625 0.91625,2.4 0,3.315 -0.91375,0.915 -2.39875,0.915 -3.31375,0 -0.91375,-0.915 -0.91375,-2.39875 0,-3.315"
       style="fill:#4ea5d5;fill-opacity:1;fill-rule:nonzero;stroke:none"
       id="path4423" />
    <path
       d="m -282.75755,452.1646 -6.17375,10.76625"
       style="fill:none;stroke:#0e0f0e;stroke-width:1.25;stroke-linecap:butt;stroke-linejoin:miter;stroke-miterlimit:10;stroke-dasharray:none;stroke-opacity:1"
       id="path4425" />
    <path
       d="m -282.75755,452.1646 6.30125,10.76625"
       style="fill:none;stroke:#0e0f0e;stroke-width:1.25;stroke-linecap:butt;stroke-linejoin:miter;stroke-miterlimit:10;stroke-dasharray:none;stroke-opacity:1"
       id="path4427" />
    <path
       d="m -288.6263,463.07085 12.5,0"
       style="fill:none;stroke:#0e0f0e;stroke-width:1.25;stroke-linecap:butt;stroke-linejoin:miter;stroke-miterlimit:10;stroke-dasharray:none;stroke-opacity:1"
       id="path4429" />
    <path
       d="m -284.4263,450.5221 c 0.915,-0.91375 2.3975,-0.91375 3.31375,0 0.915,0.91625 0.915,2.4 0,3.315 -0.91625,0.915 -2.39875,0.915 -3.31375,0 -0.91625,-0.915 -0.91625,-2.39875 0,-3.315"
       style="fill:#4ea5d5;fill-opacity:1;fill-rule:nonzero;stroke:none"
       id="path4431" />
    <path
       d="m -302.3763,463.07085 12.5,0"
       style="fill:none;stroke:#0e0f0e;stroke-width:1.25;stroke-linecap:butt;stroke-linejoin:miter;stroke-miterlimit:10;stroke-dasharray:none;stroke-opacity:1"
       id="path4433" />
    <path
       d="m -301.5213,439.0846 c 1.29375,0 2.34375,1.04875 2.34375,2.34375 0,1.295 -1.05,2.34375 -2.34375,2.34375 -1.29375,0 -2.34375,-1.04875 -2.34375,-2.34375 0,-1.295 1.05,-2.34375 2.34375,-2.34375"
       style="fill:#4ea5d5;fill-opacity:1;fill-rule:nonzero;stroke:none"
       id="path4435" />
    <path
       d="m -289.0838,439.0846 c 1.29375,0 2.34375,1.04875 2.34375,2.34375 0,1.295 -1.05,2.34375 -2.34375,2.34375 -1.295,0 -2.34375,-1.04875 -2.34375,-2.34375 0,-1.295 1.04875,-2.34375 2.34375,-2.34375"
       style="fill:#4ea5d5;fill-opacity:1;fill-rule:nonzero;stroke:none"
       id="path4437" />
    <path
       d="m -314.0838,460.5846 c 1.29375,0 2.34375,1.05 2.34375,2.34375 0,1.295 -1.05,2.34375 -2.34375,2.34375 -1.295,0 -2.34375,-1.04875 -2.34375,-2.34375 0,-1.29375 1.04875,-2.34375 2.34375,-2.34375"
       style="fill:#4ea5d5;fill-opacity:1;fill-rule:nonzero;stroke:none"
       id="path4439" />
    <path
       d="m -301.6463,460.5846 c 1.29375,0 2.34375,1.05 2.34375,2.34375 0,1.295 -1.05,2.34375 -2.34375,2.34375 -1.295,0 -2.34375,-1.04875 -2.34375,-2.34375 0,-1.29375 1.04875,-2.34375 2.34375,-2.34375"
       style="fill:#4ea5d5;fill-opacity:1;fill-rule:nonzero;stroke:none"
       id="path4441" />
    <path
       d="m -288.9588,460.5846 c 1.295,0 2.34375,1.05 2.34375,2.34375 0,1.295 -1.04875,2.34375 -2.34375,2.34375 -1.295,0 -2.34375,-1.04875 -2.34375,-2.34375 0,-1.29375 1.04875,-2.34375 2.34375,-2.34375"
       style="fill:#4ea5d5;fill-opacity:1;fill-rule:nonzero;stroke:none"
       id="path4443" />
    <path
       d="m -276.5213,460.5846 c 1.29375,0 2.34375,1.05 2.34375,2.34375 0,1.295 -1.05,2.34375 -2.34375,2.34375 -1.29375,0 -2.34375,-1.04875 -2.34375,-2.34375 0,-1.29375 1.05,-2.34375 2.34375,-2.34375"
       style="fill:#4ea5d5;fill-opacity:1;fill-rule:nonzero;stroke:none"
       id="path4445" />
    <path
       d="m -245.0688,430.6646 -6.175,10.76625"
       style="fill:none;stroke:#0e0f0e;stroke-width:1.25;stroke-linecap:butt;stroke-linejoin:miter;stroke-miterlimit:10;stroke-dasharray:none;stroke-opacity:1"
       id="path4447" />
    <path
       d="m -245.0688,430.6646 6.3,10.76625"
       style="fill:none;stroke:#0e0f0e;stroke-width:1.25;stroke-linecap:butt;stroke-linejoin:miter;stroke-miterlimit:10;stroke-dasharray:none;stroke-opacity:1"
       id="path4449" />
    <path
       d="m -251.1263,441.82085 12.5,0"
       style="fill:none;stroke:#0e0f0e;stroke-width:1.25;stroke-linecap:butt;stroke-linejoin:miter;stroke-miterlimit:10;stroke-dasharray:none;stroke-opacity:1"
       id="path4451" />
    <path
       d="m -246.7388,429.02335 c 0.91375,-0.91625 2.3975,-0.91625 3.3125,0 0.91625,0.915 0.91625,2.39875 0,3.31375 -0.915,0.91625 -2.3975,0.91625 -3.3125,0 -0.915,-0.915 -0.915,-2.39875 0,-3.31375"
       style="fill:#4ea5d5;fill-opacity:1;fill-rule:nonzero;stroke:none"
       id="path4453" />
    <path
       d="m -251.25505,441.4771 -6.17625,10.76625"
       style="fill:none;stroke:#0e0f0e;stroke-width:1.25;stroke-linecap:butt;stroke-linejoin:miter;stroke-miterlimit:10;stroke-dasharray:none;stroke-opacity:1"
       id="path4455" />
    <path
       d="m -238.6313,441.4771 6.29875,10.76625"
       style="fill:none;stroke:#0e0f0e;stroke-width:1.25;stroke-linecap:butt;stroke-linejoin:miter;stroke-miterlimit:10;stroke-dasharray:none;stroke-opacity:1"
       id="path4457" />
    <path
       d="m -257.6313,452.1646 -6.175,10.76625"
       style="fill:none;stroke:#0e0f0e;stroke-width:1.25;stroke-linecap:butt;stroke-linejoin:miter;stroke-miterlimit:10;stroke-dasharray:none;stroke-opacity:1"
       id="path4459" />
    <path
       d="m -257.6313,452.1646 6.3,10.76625"
       style="fill:none;stroke:#0e0f0e;stroke-width:1.25;stroke-linecap:butt;stroke-linejoin:miter;stroke-miterlimit:10;stroke-dasharray:none;stroke-opacity:1"
       id="path4461" />
    <path
       d="m -263.6263,463.07085 12.5,0"
       style="fill:none;stroke:#0e0f0e;stroke-width:1.25;stroke-linecap:butt;stroke-linejoin:miter;stroke-miterlimit:10;stroke-dasharray:none;stroke-opacity:1"
       id="path4463" />
    <path
       d="m -259.30255,450.5221 c 0.91625,-0.91375 2.4,-0.91375 3.315,0 0.91625,0.91625 0.91625,2.4 0,3.315 -0.915,0.915 -2.39875,0.915 -3.315,0 -0.915,-0.915 -0.915,-2.39875 0,-3.315"
       style="fill:#4ea5d5;fill-opacity:1;fill-rule:nonzero;stroke:none"
       id="path4465" />
    <path
       d="m -232.50505,452.1646 -6.17625,10.76625"
       style="fill:none;stroke:#0e0f0e;stroke-width:1.25;stroke-linecap:butt;stroke-linejoin:miter;stroke-miterlimit:10;stroke-dasharray:none;stroke-opacity:1"
       id="path4467" />
    <path
       d="m -232.50505,452.1646 6.29875,10.76625"
       style="fill:none;stroke:#0e0f0e;stroke-width:1.25;stroke-linecap:butt;stroke-linejoin:miter;stroke-miterlimit:10;stroke-dasharray:none;stroke-opacity:1"
       id="path4469" />
    <path
       d="m -238.6263,463.07085 12.5,0"
       style="fill:none;stroke:#0e0f0e;stroke-width:1.25;stroke-linecap:butt;stroke-linejoin:miter;stroke-miterlimit:10;stroke-dasharray:none;stroke-opacity:1"
       id="path4471" />
    <path
       d="m -234.17755,450.5221 c 0.915,-0.91375 2.4,-0.91375 3.315,0 0.91625,0.91625 0.91625,2.4 0,3.315 -0.915,0.915 -2.4,0.915 -3.315,0 -0.91625,-0.915 -0.91625,-2.39875 0,-3.315"
       style="fill:#4ea5d5;fill-opacity:1;fill-rule:nonzero;stroke:none"
       id="path4473" />
    <path
       d="m -251.1263,463.07085 12.5,0"
       style="fill:none;stroke:#0e0f0e;stroke-width:1.25;stroke-linecap:butt;stroke-linejoin:miter;stroke-miterlimit:10;stroke-dasharray:none;stroke-opacity:1"
       id="path4475" />
    <path
       d="m -251.2713,439.0846 c 1.295,0 2.34375,1.04875 2.34375,2.34375 0,1.295 -1.04875,2.34375 -2.34375,2.34375 -1.295,0 -2.34375,-1.04875 -2.34375,-2.34375 0,-1.295 1.04875,-2.34375 2.34375,-2.34375"
       style="fill:#4ea5d5;fill-opacity:1;fill-rule:nonzero;stroke:none"
       id="path4477" />
    <path
       d="m -238.8338,439.0846 c 1.29375,0 2.34375,1.04875 2.34375,2.34375 0,1.295 -1.05,2.34375 -2.34375,2.34375 -1.29375,0 -2.34375,-1.04875 -2.34375,-2.34375 0,-1.295 1.05,-2.34375 2.34375,-2.34375"
       style="fill:#4ea5d5;fill-opacity:1;fill-rule:nonzero;stroke:none"
       id="path4479" />
    <path
       d="m -263.8338,460.5846 c 1.29375,0 2.34375,1.05 2.34375,2.34375 0,1.295 -1.05,2.34375 -2.34375,2.34375 -1.29375,0 -2.34375,-1.04875 -2.34375,-2.34375 0,-1.29375 1.05,-2.34375 2.34375,-2.34375"
       style="fill:#4ea5d5;fill-opacity:1;fill-rule:nonzero;stroke:none"
       id="path4481" />
    <path
       d="m -251.39755,460.5846 c 1.295,0 2.34375,1.05 2.34375,2.34375 0,1.295 -1.04875,2.34375 -2.34375,2.34375 -1.29375,0 -2.34375,-1.04875 -2.34375,-2.34375 0,-1.29375 1.05,-2.34375 2.34375,-2.34375"
       style="fill:#4ea5d5;fill-opacity:1;fill-rule:nonzero;stroke:none"
       id="path4483" />
    <path
       d="m -238.7088,460.5846 c 1.29375,0 2.34375,1.05 2.34375,2.34375 0,1.295 -1.05,2.34375 -2.34375,2.34375 -1.29375,0 -2.34375,-1.04875 -2.34375,-2.34375 0,-1.29375 1.05,-2.34375 2.34375,-2.34375"
       style="fill:#4ea5d5;fill-opacity:1;fill-rule:nonzero;stroke:none"
       id="path4485" />
    <path
       d="m -226.2713,460.5846 c 1.295,0 2.34375,1.05 2.34375,2.34375 0,1.295 -1.04875,2.34375 -2.34375,2.34375 -1.295,0 -2.34375,-1.04875 -2.34375,-2.34375 0,-1.29375 1.04875,-2.34375 2.34375,-2.34375"
       style="fill:#4ea5d5;fill-opacity:1;fill-rule:nonzero;stroke:none"
       id="path4487" />
    <g
       id="g4489"
       transform="matrix(1.25,0,0,-1.25,-556.0138,690.5021)">
      <text
         transform="matrix(1,0,0,-1,98.2004,188.504)"
         style="font-variant:normal;font-weight:normal;font-size:18px;font-family:Helvetica;-inkscape-font-specification:Helvetica;writing-mode:lr-tb;fill:#0e0f0e;fill-opacity:1;fill-rule:nonzero;stroke:none"
         id="text4491">
        <tspan
           x="0"
           y="0"
           id="tspan4493">1</tspan>
        <tspan
           x="53.988701"
           y="-0.27968699"
           id="tspan4495">2</tspan>
        <tspan
           x="125.7098"
           y="-6.4105468"
           id="tspan4497">3</tspan>
      </text>
    </g>
    <path
       d="m -360.2013,416.39585 -8.645,15.0725"
       style="fill:none;stroke:#0e0f0e;stroke-width:1.25;stroke-linecap:butt;stroke-linejoin:miter;stroke-miterlimit:10;stroke-dasharray:none;stroke-opacity:1"
       id="path4499" />
    <path
       d="m -360.2013,416.39585 8.82125,15.0725"
       style="fill:none;stroke:#0e0f0e;stroke-width:1.25;stroke-linecap:butt;stroke-linejoin:miter;stroke-miterlimit:10;stroke-dasharray:none;stroke-opacity:1"
       id="path4501" />
    <path
       d="m -368.6263,431.82085 17.5,0"
       style="fill:none;stroke:#0e0f0e;stroke-width:1.25;stroke-linecap:butt;stroke-linejoin:miter;stroke-miterlimit:10;stroke-dasharray:none;stroke-opacity:1"
       id="path4503" />
    <path
       d="m -362.54005,414.09835 c 1.2825,-1.28125 3.36,-1.28125 4.64125,0 1.28125,1.28125 1.28125,3.35875 0,4.64 -1.28125,1.28125 -3.35875,1.28125 -4.64125,0 -1.28125,-1.28125 -1.28125,-3.35875 0,-4.64"
       style="fill:#4ea5d5;fill-opacity:1;fill-rule:nonzero;stroke:none"
       id="path4505" />
    <path
       d="m -368.86255,431.53335 -8.645,15.0725"
       style="fill:none;stroke:#0e0f0e;stroke-width:1.25;stroke-linecap:butt;stroke-linejoin:miter;stroke-miterlimit:10;stroke-dasharray:none;stroke-opacity:1"
       id="path4507" />
    <path
       d="m -351.18755,431.53335 8.81875,15.0725"
       style="fill:none;stroke:#0e0f0e;stroke-width:1.25;stroke-linecap:butt;stroke-linejoin:miter;stroke-miterlimit:10;stroke-dasharray:none;stroke-opacity:1"
       id="path4509" />
    <path
       d="m -377.78755,446.49585 -8.645,15.0725"
       style="fill:none;stroke:#0e0f0e;stroke-width:1.25;stroke-linecap:butt;stroke-linejoin:miter;stroke-miterlimit:10;stroke-dasharray:none;stroke-opacity:1"
       id="path4511" />
    <path
       d="m -377.78755,446.49585 8.82,15.0725"
       style="fill:none;stroke:#0e0f0e;stroke-width:1.25;stroke-linecap:butt;stroke-linejoin:miter;stroke-miterlimit:10;stroke-dasharray:none;stroke-opacity:1"
       id="path4513" />
    <path
       d="m -386.1263,461.82085 17.5,0"
       style="fill:none;stroke:#0e0f0e;stroke-width:1.25;stroke-linecap:butt;stroke-linejoin:miter;stroke-miterlimit:10;stroke-dasharray:none;stroke-opacity:1"
       id="path4515" />
    <path
       d="m -380.12755,444.19835 c 1.28125,-1.28125 3.35875,-1.28125 4.64,0 1.2825,1.28125 1.2825,3.35875 0,4.64 -1.28125,1.28125 -3.3575,1.28125 -4.64,0 -1.28125,-1.28125 -1.28125,-3.35875 0,-4.64"
       style="fill:#4ea5d5;fill-opacity:1;fill-rule:nonzero;stroke:none"
       id="path4517" />
    <path
       d="m -342.61255,446.49585 -8.645,15.0725"
       style="fill:none;stroke:#0e0f0e;stroke-width:1.25;stroke-linecap:butt;stroke-linejoin:miter;stroke-miterlimit:10;stroke-dasharray:none;stroke-opacity:1"
       id="path4519" />
    <path
       d="m -342.61255,446.49585 8.8175,15.0725"
       style="fill:none;stroke:#0e0f0e;stroke-width:1.25;stroke-linecap:butt;stroke-linejoin:miter;stroke-miterlimit:10;stroke-dasharray:none;stroke-opacity:1"
       id="path4521" />
    <path
       d="m -351.1263,461.82085 17.5,0"
       style="fill:none;stroke:#0e0f0e;stroke-width:1.25;stroke-linecap:butt;stroke-linejoin:miter;stroke-miterlimit:10;stroke-dasharray:none;stroke-opacity:1"
       id="path4523" />
    <path
       d="m -344.9513,444.19835 c 1.27875,-1.28125 3.3575,-1.28125 4.64,0 1.28125,1.28125 1.28125,3.35875 0,4.64 -1.2825,1.28125 -3.35875,1.28125 -4.64,0 -1.2825,-1.28125 -1.2825,-3.35875 0,-4.64"
       style="fill:#4ea5d5;fill-opacity:1;fill-rule:nonzero;stroke:none"
       id="path4525" />
    <path
       d="m -368.6263,460.57085 16.25,0"
       style="fill:none;stroke:#0e0f0e;stroke-width:1.25;stroke-linecap:butt;stroke-linejoin:miter;stroke-miterlimit:10;stroke-dasharray:none;stroke-opacity:1"
       id="path4527" />
    <path
       d="m -368.88505,428.1846 c 1.81125,0 3.28125,1.46875 3.28125,3.28125 0,1.8125 -1.47,3.28125 -3.28125,3.28125 -1.81125,0 -3.28125,-1.46875 -3.28125,-3.28125 0,-1.8125 1.47,-3.28125 3.28125,-3.28125"
       style="fill:#4ea5d5;fill-opacity:1;fill-rule:nonzero;stroke:none"
       id="path4529" />
    <path
       d="m -351.4713,428.1846 c 1.81125,0 3.28125,1.46875 3.28125,3.28125 0,1.8125 -1.47,3.28125 -3.28125,3.28125 -1.8125,0 -3.28125,-1.46875 -3.28125,-3.28125 0,-1.8125 1.46875,-3.28125 3.28125,-3.28125"
       style="fill:#4ea5d5;fill-opacity:1;fill-rule:nonzero;stroke:none"
       id="path4531" />
    <path
       d="m -386.4713,458.2846 c 1.81125,0 3.28125,1.47 3.28125,3.28125 0,1.8125 -1.47,3.2825 -3.28125,3.2825 -1.8125,0 -3.28125,-1.47 -3.28125,-3.2825 0,-1.81125 1.46875,-3.28125 3.28125,-3.28125"
       style="fill:#4ea5d5;fill-opacity:1;fill-rule:nonzero;stroke:none"
       id="path4533" />
    <path
       d="m -369.0588,458.2846 c 1.8125,0 3.28125,1.47 3.28125,3.28125 0,1.8125 -1.46875,3.2825 -3.28125,3.2825 -1.81375,0 -3.28125,-1.47 -3.28125,-3.2825 0,-1.81125 1.4675,-3.28125 3.28125,-3.28125"
       style="fill:#4ea5d5;fill-opacity:1;fill-rule:nonzero;stroke:none"
       id="path4535" />
    <path
       d="m -351.29755,458.2846 c 1.8125,0 3.28125,1.47 3.28125,3.28125 0,1.8125 -1.46875,3.2825 -3.28125,3.2825 -1.81125,0 -3.28125,-1.47 -3.28125,-3.2825 0,-1.81125 1.47,-3.28125 3.28125,-3.28125"
       style="fill:#4ea5d5;fill-opacity:1;fill-rule:nonzero;stroke:none"
       id="path4537" />
    <path
       d="m -333.88505,458.2846 c 1.81125,0 3.28125,1.47 3.28125,3.28125 0,1.8125 -1.47,3.2825 -3.28125,3.2825 -1.81125,0 -3.28125,-1.47 -3.28125,-3.2825 0,-1.81125 1.47,-3.28125 3.28125,-3.28125"
       style="fill:#4ea5d5;fill-opacity:1;fill-rule:nonzero;stroke:none"
       id="path4539" />
    <g
       id="g4541"
       transform="matrix(1.25,0,0,-1.25,-556.0138,690.5021)">
      <text
         transform="matrix(1,0,0,-1,349.133,179.92)"
         style="font-variant:normal;font-weight:normal;font-size:14px;font-family:Helvetica;-inkscape-font-specification:Helvetica;writing-mode:lr-tb;fill:#0e0f0e;fill-opacity:1;fill-rule:nonzero;stroke:none"
         id="text4543">
        <tspan
           x="0 3.892 14 21.784 26.445999 29.554001 37.338001 44.338001 52.122002"
           y="0"
           id="tspan4545">two-level</tspan>
        <tspan
           x="0 11.662 19.445999 22.554001 26.445999 29.554001 32.661999 40.445999 47.445999 55.23"
           y="16.799999"
           id="tspan4547">multilevel</tspan>
      </text>
    </g>
    <path
       d="m -129.1888,459.8596 c 0,3.22125 -2.61125,5.8325 -5.8325,5.8325 -3.2225,0 -5.83375,-2.61125 -5.83375,-5.8325 0,-3.22125 2.61125,-5.8325 5.83375,-5.8325 3.22125,0 5.8325,2.61125 5.8325,5.8325"
       style="fill:#2f2f32;fill-opacity:1;fill-rule:nonzero;stroke:none"
       id="path4549" />
    <path
       d="m -139.1363,486.82085 8.25,-8.25"
       style="fill:#4ea5d5;fill-opacity:1;fill-rule:nonzero;stroke:none"
       id="path4551" />
    <path
       d="m -139.1363,486.82085 8.25,-8.25"
       style="fill:none;stroke:#4ea5d5;stroke-width:2.5;stroke-linecap:butt;stroke-linejoin:miter;stroke-miterlimit:10;stroke-dasharray:none;stroke-opacity:1"
       id="path4553" />
    <path
       d="m -130.9088,486.80085 -8.25,-8.25"
       style="fill:#4ea5d5;fill-opacity:1;fill-rule:nonzero;stroke:none"
       id="path4555" />
    <path
       d="m -130.9088,486.80085 -8.25,-8.25"
       style="fill:none;stroke:#4ea5d5;stroke-width:2.5;stroke-linecap:butt;stroke-linejoin:miter;stroke-miterlimit:10;stroke-dasharray:none;stroke-opacity:1"
       id="path4557" />
    <path
       d="m -165.42255,426.39085 c 0,3.22 -2.61125,5.8325 -5.8325,5.8325 -3.2225,0 -5.83375,-2.6125 -5.83375,-5.8325 0,-3.2225 2.61125,-5.83375 5.83375,-5.83375 3.22125,0 5.8325,2.61125 5.8325,5.83375"
       style="fill:#2f2f32;fill-opacity:1;fill-rule:nonzero;stroke:none"
       id="path4559" />
    <path
       d="m -165.42255,536.15335 c 0,3.22 -2.61125,5.8325 -5.8325,5.8325 -3.2225,0 -5.83375,-2.6125 -5.83375,-5.8325 0,-3.22375 2.61125,-5.83375 5.83375,-5.83375 3.22125,0 5.8325,2.61 5.8325,5.83375"
       style="fill:#2f2f32;fill-opacity:1;fill-rule:nonzero;stroke:none"
       id="path4561" />
    <path
       d="m -199.91005,536.15335 c 0,3.22 -2.61125,5.8325 -5.8325,5.8325 -3.2225,0 -5.83375,-2.6125 -5.83375,-5.8325 0,-3.22375 2.61125,-5.83375 5.83375,-5.83375 3.22125,0 5.8325,2.61 5.8325,5.83375"
       style="fill:#2f2f32;fill-opacity:1;fill-rule:nonzero;stroke:none"
       id="path4563" />
    <path
       d="m -235.59755,536.15335 c 0,3.22 -2.61125,5.8325 -5.8325,5.8325 -3.2225,0 -5.83375,-2.6125 -5.83375,-5.8325 0,-3.22375 2.61125,-5.83375 5.83375,-5.83375 3.22125,0 5.8325,2.61 5.8325,5.83375"
       style="fill:#2f2f32;fill-opacity:1;fill-rule:nonzero;stroke:none"
       id="path4565" />
    <path
       d="m -271.3688,536.15335 c 0,3.22 -2.61125,5.8325 -5.8325,5.8325 -3.2225,0 -5.83375,-2.6125 -5.83375,-5.8325 0,-3.22375 2.61125,-5.83375 5.83375,-5.83375 3.22125,0 5.8325,2.61 5.8325,5.83375"
       style="fill:#2f2f32;fill-opacity:1;fill-rule:nonzero;stroke:none"
       id="path4567" />
    <path
       d="m -306.8163,536.15335 c 0,3.22 -2.61125,5.8325 -5.8325,5.8325 -3.2225,0 -5.83375,-2.6125 -5.83375,-5.8325 0,-3.22375 2.61125,-5.83375 5.83375,-5.83375 3.22125,0 5.8325,2.61 5.8325,5.83375"
       style="fill:#2f2f32;fill-opacity:1;fill-rule:nonzero;stroke:none"
       id="path4569" />
    <path
       d="m -341.16005,536.15335 c 0,3.22 -2.61125,5.8325 -5.8325,5.8325 -3.2225,0 -5.83375,-2.6125 -5.83375,-5.8325 0,-3.22375 2.61125,-5.83375 5.83375,-5.83375 3.22125,0 5.8325,2.61 5.8325,5.83375"
       style="fill:#2f2f32;fill-opacity:1;fill-rule:nonzero;stroke:none"
       id="path4571" />
    <path
       d="m -377.1763,536.15335 c 0,3.22 -2.61125,5.8325 -5.8325,5.8325 -3.2225,0 -5.83375,-2.6125 -5.83375,-5.8325 0,-3.22375 2.61125,-5.83375 5.83375,-5.83375 3.22125,0 5.8325,2.61 5.8325,5.83375"
       style="fill:#2f2f32;fill-opacity:1;fill-rule:nonzero;stroke:none"
       id="path4573" />
    <path
       d="m -415.0288,536.15335 c 0,3.22 -2.61125,5.8325 -5.8325,5.8325 -3.22375,0 -5.83375,-2.6125 -5.83375,-5.8325 0,-3.22375 2.61,-5.83375 5.83375,-5.83375 3.22125,0 5.8325,2.61 5.8325,5.83375"
       style="fill:#2f2f32;fill-opacity:1;fill-rule:nonzero;stroke:none"
       id="path4575" />
    <path
       d="m -415.03005,611.88685 c 0,3.22175 -2.61,5.8325 -5.8325,5.8325 -3.2225,0 -5.8325,-2.61075 -5.8325,-5.8325 0,-3.22212 2.61,-5.8335 5.8325,-5.8335 3.2225,0 5.8325,2.61138 5.8325,5.8335"
       style="fill:#2f2f32;fill-opacity:1;fill-rule:nonzero;stroke:none"
       id="path4577" />
    <path
       d="m -460.16905,611.88685 c 0,3.22175 -2.60987,5.8325 -5.8325,5.8325 -3.22275,0 -5.8325,-2.61075 -5.8325,-5.8325 0,-3.22212 2.60975,-5.8335 5.8325,-5.8335 3.22263,0 5.8325,2.61138 5.8325,5.8335"
       style="fill:#2f2f32;fill-opacity:1;fill-rule:nonzero;stroke:none"
       id="path4579" />
    <path
       d="m -175.3688,616.0206 8.24875,-8.2485"
       style="fill:#4ea5d5;fill-opacity:1;fill-rule:nonzero;stroke:none"
       id="path4581" />
    <path
       d="m -175.3688,616.0206 8.24875,-8.2485"
       style="fill:none;stroke:#4ea5d5;stroke-width:2.5;stroke-linecap:butt;stroke-linejoin:miter;stroke-miterlimit:10;stroke-dasharray:none;stroke-opacity:1"
       id="path4583" />
    <path
       d="m -167.1413,616.0006 -8.25,-8.25"
       style="fill:#4ea5d5;fill-opacity:1;fill-rule:nonzero;stroke:none"
       id="path4585" />
    <path
       d="m -167.1413,616.0006 -8.25,-8.25"
       style="fill:none;stroke:#4ea5d5;stroke-width:2.5;stroke-linecap:butt;stroke-linejoin:miter;stroke-miterlimit:10;stroke-dasharray:none;stroke-opacity:1"
       id="path4587" />
    <path
       d="m -210.00505,616.03185 8.24875,-8.25"
       style="fill:#4ea5d5;fill-opacity:1;fill-rule:nonzero;stroke:none"
       id="path4589" />
    <path
       d="m -210.00505,616.03185 8.24875,-8.25"
       style="fill:none;stroke:#4ea5d5;stroke-width:2.5;stroke-linecap:butt;stroke-linejoin:miter;stroke-miterlimit:10;stroke-dasharray:none;stroke-opacity:1"
       id="path4591" />
    <path
       d="m -201.77755,616.01185 -8.25,-8.2485"
       style="fill:#4ea5d5;fill-opacity:1;fill-rule:nonzero;stroke:none"
       id="path4593" />
    <path
       d="m -201.77755,616.01185 -8.25,-8.2485"
       style="fill:none;stroke:#4ea5d5;stroke-width:2.5;stroke-linecap:butt;stroke-linejoin:miter;stroke-miterlimit:10;stroke-dasharray:none;stroke-opacity:1"
       id="path4595" />
    <path
       d="m -245.1663,616.01085 8.24875,-8.2475"
       style="fill:#4ea5d5;fill-opacity:1;fill-rule:nonzero;stroke:none"
       id="path4597" />
    <path
       d="m -245.1663,616.01085 8.24875,-8.2475"
       style="fill:none;stroke:#4ea5d5;stroke-width:2.5;stroke-linecap:butt;stroke-linejoin:miter;stroke-miterlimit:10;stroke-dasharray:none;stroke-opacity:1"
       id="path4599" />
    <path
       d="m -236.9388,615.99235 -8.25,-8.2515"
       style="fill:#4ea5d5;fill-opacity:1;fill-rule:nonzero;stroke:none"
       id="path4601" />
    <path
       d="m -236.9388,615.99235 -8.25,-8.2515"
       style="fill:none;stroke:#4ea5d5;stroke-width:2.5;stroke-linecap:butt;stroke-linejoin:miter;stroke-miterlimit:10;stroke-dasharray:none;stroke-opacity:1"
       id="path4603" />
    <path
       d="m -281.3163,616.0421 8.24875,-8.25"
       style="fill:#4ea5d5;fill-opacity:1;fill-rule:nonzero;stroke:none"
       id="path4605" />
    <path
       d="m -281.3163,616.0421 8.24875,-8.25"
       style="fill:none;stroke:#4ea5d5;stroke-width:2.5;stroke-linecap:butt;stroke-linejoin:miter;stroke-miterlimit:10;stroke-dasharray:none;stroke-opacity:1"
       id="path4607" />
    <path
       d="m -273.0888,616.0221 -8.25,-8.25"
       style="fill:#4ea5d5;fill-opacity:1;fill-rule:nonzero;stroke:none"
       id="path4609" />
    <path
       d="m -273.0888,616.0221 -8.25,-8.25"
       style="fill:none;stroke:#4ea5d5;stroke-width:2.5;stroke-linecap:butt;stroke-linejoin:miter;stroke-miterlimit:10;stroke-dasharray:none;stroke-opacity:1"
       id="path4611" />
    <path
       d="m -316.7638,616.0006 8.25,-8.247"
       style="fill:#4ea5d5;fill-opacity:1;fill-rule:nonzero;stroke:none"
       id="path4613" />
    <path
       d="m -316.7638,616.0006 8.25,-8.247"
       style="fill:none;stroke:#4ea5d5;stroke-width:2.5;stroke-linecap:butt;stroke-linejoin:miter;stroke-miterlimit:10;stroke-dasharray:none;stroke-opacity:1"
       id="path4615" />
    <path
       d="m -308.5363,615.9821 -8.24875,-8.2515"
       style="fill:#4ea5d5;fill-opacity:1;fill-rule:nonzero;stroke:none"
       id="path4617" />
    <path
       d="m -308.5363,615.9821 -8.24875,-8.2515"
       style="fill:none;stroke:#4ea5d5;stroke-width:2.5;stroke-linecap:butt;stroke-linejoin:miter;stroke-miterlimit:10;stroke-dasharray:none;stroke-opacity:1"
       id="path4619" />
    <path
       d="m -350.8913,616.05097 8.24875,-8.24912"
       style="fill:#4ea5d5;fill-opacity:1;fill-rule:nonzero;stroke:none"
       id="path4621" />
    <path
       d="m -350.8913,616.05097 8.24875,-8.24912"
       style="fill:none;stroke:#4ea5d5;stroke-width:2.5;stroke-linecap:butt;stroke-linejoin:miter;stroke-miterlimit:10;stroke-dasharray:none;stroke-opacity:1"
       id="path4623" />
    <path
       d="m -342.6638,616.03185 -8.25,-8.25"
       style="fill:#4ea5d5;fill-opacity:1;fill-rule:nonzero;stroke:none"
       id="path4625" />
    <path
       d="m -342.6638,616.03185 -8.25,-8.25"
       style="fill:none;stroke:#4ea5d5;stroke-width:2.5;stroke-linecap:butt;stroke-linejoin:miter;stroke-miterlimit:10;stroke-dasharray:none;stroke-opacity:1"
       id="path4627" />
    <path
       d="m -387.3038,615.99235 8.24875,-8.25"
       style="fill:#4ea5d5;fill-opacity:1;fill-rule:nonzero;stroke:none"
       id="path4629" />
    <path
       d="m -387.3038,615.99235 8.24875,-8.25"
       style="fill:none;stroke:#4ea5d5;stroke-width:2.5;stroke-linecap:butt;stroke-linejoin:miter;stroke-miterlimit:10;stroke-dasharray:none;stroke-opacity:1"
       id="path4631" />
    <path
       d="m -379.0763,615.97235 -8.25,-8.25"
       style="fill:#4ea5d5;fill-opacity:1;fill-rule:nonzero;stroke:none"
       id="path4633" />
    <path
       d="m -379.0763,615.97235 -8.25,-8.25"
       style="fill:none;stroke:#4ea5d5;stroke-width:2.5;stroke-linecap:butt;stroke-linejoin:miter;stroke-miterlimit:10;stroke-dasharray:none;stroke-opacity:1"
       id="path4635" />
    <path
       d="m -424.9763,615.9821 8.25,-8.25"
       style="fill:#4ea5d5;fill-opacity:1;fill-rule:nonzero;stroke:none"
       id="path4637" />
    <path
       d="m -424.9763,615.9821 8.25,-8.25"
       style="fill:none;stroke:#4ea5d5;stroke-width:2.5;stroke-linecap:butt;stroke-linejoin:miter;stroke-miterlimit:10;stroke-dasharray:none;stroke-opacity:1"
       id="path4639" />
    <path
       d="m -416.7488,615.9621 -8.24875,-8.24862"
       style="fill:#4ea5d5;fill-opacity:1;fill-rule:nonzero;stroke:none"
       id="path4641" />
    <path
       d="m -416.7488,615.9621 -8.24875,-8.24862"
       style="fill:none;stroke:#4ea5d5;stroke-width:2.5;stroke-linecap:butt;stroke-linejoin:miter;stroke-miterlimit:10;stroke-dasharray:none;stroke-opacity:1"
       id="path4643" />
    <path
       d="m -470.1153,615.97235 8.2495,-8.25"
       style="fill:#4ea5d5;fill-opacity:1;fill-rule:nonzero;stroke:none"
       id="path4645" />
    <path
       d="m -470.1153,615.97235 8.2495,-8.25"
       style="fill:none;stroke:#4ea5d5;stroke-width:2.5;stroke-linecap:butt;stroke-linejoin:miter;stroke-miterlimit:10;stroke-dasharray:none;stroke-opacity:1"
       id="path4647" />
    <path
       d="m -461.8878,615.95235 -8.2495,-8.24913"
       style="fill:#4ea5d5;fill-opacity:1;fill-rule:nonzero;stroke:none"
       id="path4649" />
    <path
       d="m -461.8878,615.95235 -8.2495,-8.24913"
       style="fill:none;stroke:#4ea5d5;stroke-width:2.5;stroke-linecap:butt;stroke-linejoin:miter;stroke-miterlimit:10;stroke-dasharray:none;stroke-opacity:1"
       id="path4651" />
    <g
       id="g4653"
       transform="matrix(1.25,0,0,-1.25,-556.0138,690.5021)">
      <text
         transform="matrix(1,0,0,-1,210.642,28.1)"
         style="font-variant:normal;font-weight:normal;font-size:14px;font-family:Helvetica;-inkscape-font-specification:Helvetica;writing-mode:lr-tb;fill:#211a19;fill-opacity:1;fill-rule:nonzero;stroke:none"
         id="text4655">
        <tspan
           x="0 7.7861242"
           y="0"
           id="tspan4657">10</tspan>
      </text>
      <text
         transform="matrix(1,0,0,-1,226.9697,33.66211)"
         style="font-variant:normal;font-weight:normal;font-size:10px;font-family:Helvetica;-inkscape-font-specification:Helvetica;writing-mode:lr-tb;fill:#211a19;fill-opacity:1;fill-rule:nonzero;stroke:none"
         id="text4659">
        <tspan
           x="0"
           y="0"
           id="tspan4661">3</tspan>
      </text>
      <text
         transform="matrix(1,0,0,-1,154.642,28.1)"
         style="font-variant:normal;font-weight:normal;font-size:14px;font-family:Helvetica;-inkscape-font-specification:Helvetica;writing-mode:lr-tb;fill:#211a19;fill-opacity:1;fill-rule:nonzero;stroke:none"
         id="text4663">
        <tspan
           x="0 7.7861362"
           y="0"
           id="tspan4665">10</tspan>
      </text>
      <text
         transform="matrix(1,0,0,-1,170.9697,33.66211)"
         style="font-variant:normal;font-weight:normal;font-size:10px;font-family:Helvetica;-inkscape-font-specification:Helvetica;writing-mode:lr-tb;fill:#211a19;fill-opacity:1;fill-rule:nonzero;stroke:none"
         id="text4667">
        <tspan
           x="0"
           y="0"
           id="tspan4669">2</tspan>
      </text>
      <text
         transform="matrix(1,0,0,-1,162.55095,7.69491)"
         style="font-variant:normal;font-weight:normal;font-size:16px;font-family:Helvetica;-inkscape-font-specification:Helvetica;writing-mode:lr-tb;fill:#211a19;fill-opacity:1;fill-rule:nonzero;stroke:none"
         id="text4671">
        <tspan
           x="0 11.552 20.448 24.896 29.344 37.344002 40.896 48.896 57.792"
           y="0"
           id="tspan4673">Cut size</tspan>
      </text>
      <text
         transform="matrix(0,1,1,0,13.7383,61.382)"
         style="font-variant:normal;font-weight:normal;font-size:16px;font-family:Helvetica;-inkscape-font-specification:Helvetica;writing-mode:lr-tb;fill:#211a19;fill-opacity:1;fill-rule:nonzero;stroke:none"
         id="text4675">
        <tspan
           x="0 11.554698 20.453133 33.781132 47.109135 56.007576 64.906029 68.460716 72.906029 80.906029 85.351334 96.906029 100.46072 104.90603 113.80448"
           y="0"
           id="tspan4677">Community with</tspan>
      </text>
      <text
         transform="matrix(0,1,1,0,13.7383,188.52263)"
         style="font-variant:normal;font-weight:normal;font-size:16px;font-family:Helvetica;-inkscape-font-specification:Helvetica;writing-mode:lr-tb;fill:#211a19;fill-opacity:1;fill-rule:nonzero;stroke:none"
         id="text4679">
        <tspan
           x="0 3.5546856 7.1093712 16.007824 24.007824"
           y="0"
           id="tspan4681">links</tspan>
      </text>
    </g>
    <path
       d="m -553.19592,460.99585 c -0.0215,0 -0.23683,0 -0.23683,0.28125 0,0.495 0.17236,2.0675 0.21534,2.62875 0.0215,0.17125 0.043,0.40875 0.45312,0.40875 0.23682,0 0.23682,-0.215 0.23682,-0.53875 0,-1.03375 0.19433,-1.055 0.36572,-1.055 l 0.43164,0.065 10.77494,2.71375 c 0.23675,0.0663 0.38625,0.11 0.73187,0.11 1.2285,0 1.983,-0.95 1.983,-1.9625 0,-0.71 -0.43225,-1.25 -1.20662,-1.61625 -0.81975,-0.38875 -2.06888,-0.64625 -2.11175,-0.64625 -0.21638,0 -0.21638,0.19375 -0.21638,0.2575 0,0.21625 0.0874,0.2375 0.38875,0.3025 1.40038,0.36625 2.67225,0.77625 2.67225,1.6375 0,0.6475 -0.68887,0.6475 -0.99112,0.6475 -0.51813,0 -0.6255,-0.0213 -1.03425,-0.13 l -12.45602,-3.10375"
       style="fill:#231f20;fill-opacity:1;fill-rule:nonzero;stroke:none"
       id="path4683" />
    <path
       d="m -256.90755,664.78973 c 0,-0.0689 -0.045,-0.22513 -0.24625,-0.22513 -0.0688,0 -0.09,0.0225 -0.3375,0.2685 l -1.57125,1.729 c -0.2025,-0.31387 -1.235,-1.9975 -3.72625,-1.9975 -5.005,0 -10.05625,4.96138 -10.05625,10.169 0,3.70356 2.64875,6.14985 6.0825,6.14985 1.95375,0 3.66,-0.89892 4.84875,-1.93017 2.08875,-1.83981 2.47,-3.88381 2.47,-3.94868 0,-0.22512 -0.225,-0.22512 -0.26875,-0.22512 -0.135,0 -0.2475,0.0439 -0.2925,0.22512 -0.20125,0.64888 -0.71875,2.24363 -2.2675,3.54486 -1.54875,1.25635 -2.9625,1.6377 -4.13,1.6377 -2.02125,0 -4.39875,-1.16749 -4.39875,-4.66744 0,-1.28037 0.47125,-4.91512 2.715,-7.54149 1.37,-1.59475 3.47875,-2.71638 5.4775,-2.71638 2.29,0 3.61375,1.7275 3.61375,4.3315 0,0.899 -0.0675,0.9215 -0.0675,1.14512 0,0.22363 0.24625,0.22363 0.33625,0.22363 0.2925,0 0.2925,-0.045 0.405,-0.44725 l 1.41375,-5.72512"
       style="fill:#231f20;fill-opacity:1;fill-rule:nonzero;stroke:none"
       id="path4685" />
  </g>
</svg>
