<!-- Created with Inkscape (http://www.inkscape.org/) -->
<svg xmlns:rdf="http://www.w3.org/1999/02/22-rdf-syntax-ns#" xmlns="http://www.w3.org/2000/svg" version="1.1" xmlns:cc="http://creativecommons.org/ns#" xmlns:dc="http://purl.org/dc/elements/1.1/" viewBox="0 0 733.8 428.2">
 <metadata>
  <rdf:RDF>
   <cc:Work rdf:about="">
    <dc:format>image/svg+xml</dc:format>
    <dc:type rdf:resource="http://purl.org/dc/dcmitype/StillImage"/>
    <dc:title/>
   </cc:Work>
  </rdf:RDF>
 </metadata>
 <g transform="translate(33.316077,-204.70919)">
  <g transform="matrix(1.25,0,0,1.25,-18.20658,146.50919)">
   <path fill-rule="nonzero" fill="#ebf5ff" d="M355.7,349.9,340.6,335.3,339.9,336,355,350.6c1.8,2.21,3.62,4.39,5.47,6.54l-1.69,1.12,7.3,5.44-4.76-7.13c-1.64-2.45-3.51-4.69-5.61-6.71"/>
  </g>
  <g transform="matrix(1.25,0,0,1.25,-18.20658,146.50919)">
   <path fill-rule="nonzero" fill="#ebf5ff" d="m213.3,106.4c-6.54,8.07-10.49,13.93-11.84,17.6l-1.77-0.99-2.52,9.74,6.96-7.27-1.77-0.98c1.56-3.5,5.48-9.33,11.78-17.5"/>
  </g>
  <g transform="matrix(1.25,0,0,1.25,-18.20658,146.50919)">
   <path fill-rule="nonzero" fill="#ebf5ff" d="m416,236.6,20.89,11.26,0.49-0.9-20.89-11.26c-35.2-19.6-71.9-35.9-110-48.8l0.68-1.91-10.53-0.49,9.51,3.36c37.89,13.43,74.52,29.67,109.9,48.74"/>
  </g>
  <g transform="matrix(1.25,0,0,1.25,-18.20658,146.50919)">
   <path fill-rule="nonzero" fill="#ebf5ff" d="m284,314.1c16.29-5.73,26.18-13.37,29.67-22.93l1.83,0.87,2.02-10.21-6.61,8.03,1.83,0.87c-3.84,8.91-13.55,16.38-29.14,22.41"/>
  </g>
  <g transform="matrix(1.25,0,0,1.25,-18.20658,146.50919)">
   <path fill-rule="nonzero" fill="#ebf5ff" d="m194.9,164c10.28,16.62,21.57,26.34,33.84,29.17l-0.6,1.94,10.4,0.57-8.89-5.43-0.6,1.94c-11.7-3.29-22.81-12.88-33.31-28.77"/>
  </g>
  <g transform="matrix(1.25,0,0,1.25,-18.20658,146.50919)">
   <path fill-rule="nonzero" fill="#ebf5ff" d="m206.2,135.2-11.34,1.66,0.15,1.02,11.34-1.66c2.32-0.07,4.55-0.58,6.7-1.51l0.59,1.94,5.46-4.88-6.36,1.95c-2.14,0.66-4.32,1.15-6.54,1.48"/>
  </g>
  <g transform="matrix(1.25,0,0,1.25,-18.20658,146.50919)">
   <path fill-rule="nonzero" fill="#ebf5ff" d="m466.4,203c-2.72,14.16-6.57,23.93-11.56,29.31l-1.3-1.56-6.15,8.42,9.41-4.5-1.3-1.56c5.67-5.16,9.65-15.15,11.92-29.97"/>
  </g>
  <g transform="matrix(1.25,0,0,1.25,-18.20658,146.50919)">
   <path fill-rule="nonzero" fill="#ebf5ff" d="m306.1,187.8-11.87-4.2-0.35,0.98,11.87,4.2c37.62,13.9,74.2,30.12,109.8,48.67l-0.97,1.79,10.36,2.1-8.9-4.8c-35.37-19.07-72-35.31-109.9-48.74"/>
  </g>
  <g transform="matrix(1.25,0,0,1.25,-18.20658,146.50919)">
   <path fill-rule="nonzero" fill="#ebf5ff" d="m194.3,182.4c2.48-5.32,3.24-9.2,2.3-11.65l2.02-0.22-3.06-4.51-2.02,5.06,2.03-0.22c0.59,2.29-0.16,6.03-2.25,11.22"/>
  </g>
  <g transform="matrix(1.25,0,0,1.25,-18.20658,146.50919)">
   <path fill-rule="nonzero" fill="#ebf5ff" d="m333.8,80.65c40.48,46.61,71.68,95.09,93.59,145.4l-1.88,0.77,6.2,8.39-1.48-10.33-1.88,0.78c-21.2-50.9-52.5-99.5-93.7-145.8"/>
  </g>
  <g transform="matrix(1.25,0,0,1.25,-18.20658,146.50919)">
   <path fill-rule="nonzero" fill="#e9f4ff" d="M285.6,149.6c-19.8-18.8-33.9-37.5-42.4-56.13l1.9-0.75-6.14-8.46,1.38,10.36,1.9-0.76c8.02,19.14,22.23,37.98,42.65,56.53"/>
  </g>
  <g transform="matrix(1.25,0,0,1.25,-18.20658,146.50919)">
   <path fill-rule="nonzero" fill="#e9f4ff" d="m453.1,292.6c-1.82-11.37-3.95-19.06-6.41-23.07l1.88-0.8-6.31-8.33,1.6,10.33,1.88-0.8c2.1,4.09,4.22,11.71,6.34,22.89"/>
  </g>
  <g transform="matrix(1.25,0,0,1.25,-18.20658,146.50919)">
   <path fill-rule="nonzero" fill="#e9f4ff" d="m470,247.3c-6.46,0.63-11.03,1.18-13.7,1.64l0.17-2.03-6,2.06,5.57,3.05,0.17-2.04c2.73-0.11,7.4-0.67,13.99-1.66"/>
  </g>
  <g transform="matrix(1.25,0,0,1.25,-18.20658,146.50919)">
   <path fill-rule="nonzero" fill="#e9f4ff" d="m210.1,234.3c-13.95-6.65-25.12-11.06-33.53-13.23l0.66-1.94-10.44-0.79,8.8,5.66,0.65-1.94c8.29,2.41,19.44,6.81,33.44,13.2"/>
  </g>
  <g transform="matrix(1.25,0,0,1.25,-18.20658,146.50919)">
   <path fill-rule="nonzero" fill="#e9f4ff" d="m361.3,356.6,5.73,8.58,0.87-0.58-5.73-8.58c-1.44-2.76-3.35-5.06-5.75-6.88l1.42-1.48-8.32-3.72,6.17,5.95c2.1,2.02,3.97,4.26,5.61,6.71"/>
  </g>
  <g transform="matrix(1.25,0,0,1.25,-18.20658,146.50919)">
   <path fill-rule="nonzero" fill="#e9f4ff" d="M71.74,286.5c114.1-41.8,228-55.6,341.6-41.4l-0.28,2.03,10.41-1.15-9.7-3.94-0.29,2.02c-113.9-15.5-227.9-1.7-342,41.4"/>
  </g>
  <g transform="matrix(1.25,0,0,1.25,-18.20658,146.50919)">
   <path fill-rule="nonzero" fill="#e9f4ff" d="m285.4,149.5c-28.08-7.58-53.26-11.65-75.55-12.2l0.13-2.04-10.29,1.94,9.98,3.19,0.12-2.05c22.16,1.01,47.29,5.06,75.37,12.18"/>
  </g>
  <g transform="matrix(1.25,0,0,1.25,-18.20658,146.50919)">
   <path fill-rule="nonzero" fill="#e9f4ff" d="m209.9,235.3c71.68-6.03,139.5-3.23,203.6,8.42l-0.4,2.01,10.47-0.53-9.46-4.51-0.4,2c-64.1-12.5-132.1-15.3-203.9-8.5"/>
  </g>
  <g transform="matrix(1.25,0,0,1.25,-18.20658,146.50919)">
   <path fill-rule="nonzero" fill="#e7f3ff" d="m71.85,286.4c52.54-35.09,105-63,157.5-83.75l0.72,1.92,8.62-5.98-10.43,1.15,0.72,1.92c-52.84,20.15-105.4,48.1-157.7,83.88"/>
  </g>
  <g transform="matrix(1.25,0,0,1.25,-18.20658,146.50919)">
   <path fill-rule="nonzero" fill="#e7f3ff" d="m228.2,199,14.64-1.93-0.14-1.05-14.64,1.93c-18.1,1.88-35.53,6.38-52.29,13.5l-0.75-1.91-8.34,6.62,9.48-3.72c16.8-6.61,34.15-11.09,52.04-13.44"/>
  </g>
  <g transform="matrix(1.25,0,0,1.25,-18.20658,146.50919)">
   <path fill-rule="nonzero" fill="#e7f3ff" d="m164.2,217.6c17-22.6,26.63-44.53,28.91-65.79l2.03,0.31-1-10.46-4.11,9.67,2.03,0.32c-2.85,20.87-12.43,42.65-28.72,65.35"/>
  </g>
  <g transform="matrix(1.25,0,0,1.25,-18.20658,146.50919)">
   <path fill-rule="nonzero" fill="#e7f3ff" d="m231.9,207,10.96-9.97-0.71-0.78-10.97,9.97c-6.11,5.01-11.21,10.91-15.3,17.69l-1.71-1.15-3.11,10.2,5.7-8.45c4.35-6.45,9.39-12.28,15.14-17.51"/>
  </g>
  <g transform="matrix(1.25,0,0,1.25,-18.20658,146.50919)">
   <path fill-rule="nonzero" fill="#e7f3ff" d="m78.53,273.4-6.98,12.59,0.93,0.52,6.98-12.59c27.64-48.15,62.49-90.35,104.6-126.6l1.32,1.58,5.83-8.94-7.83,6.54c-42.8,35.79-77.73,78.09-104.8,126.9"/>
  </g>
  <g transform="matrix(1.25,0,0,1.25,-18.20658,146.50919)">
   <path fill-rule="nonzero" fill="#e4f1ff" d="m195.9,163.7c0.22-7.35,0.13-12.5-0.28-15.45l2.06-0.04-2.72-6.54-2.48,6.64,2.07-0.04c0.41,2.95,0.51,8.1,0.29,15.45"/>
  </g>
  <g transform="matrix(1.25,0,0,1.25,-18.20658,146.50919)">
   <path fill-rule="nonzero" fill="#e4f1ff" d="m367.4,365.5c31.18-29.22,51.95-60.86,62.31-94.91l1.96,0.66,0.82-10.53-5.76,8.86,1.97,0.66c-11,33.51-31.68,65.01-62.06,94.5"/>
  </g>
  <g transform="matrix(1.25,0,0,1.25,-18.20658,146.50919)">
   <path fill-rule="nonzero" fill="#e4f1ff" d="m470.4,278.9c-7.78-7.33-13.27-12.17-16.47-14.53l1.48-1.45-8.99-5.41,5.27,9.07,1.48-1.45c3.03,2.56,8.54,7.43,16.55,14.59"/>
  </g>
  <g transform="matrix(1.25,0,0,1.25,-18.20658,146.50919)">
   <path fill-rule="nonzero" fill="#e4f1ff" d="m417.2,234.1,19.7,13.76,0.62-0.89-19.7-13.75c-63-45.1-132.4-76.4-208-93.8l0.49-2.02-10.72,0.65,9.97,2.42c75.15,18.22,144.4,49.44,207.7,93.64"/>
  </g>
  <g transform="matrix(1.25,0,0,1.25,-18.20658,146.50919)">
   <path fill-rule="nonzero" fill="#e2f0ff" d="m183.3,146.5,11.52-9.63-0.7-0.83-11.52,9.63c-43.54,35.35-78.56,77.74-105,127.2l-1.82-1.01-2.21,10.53,4.98-8.99c27.07-48.79,62-91.09,104.8-126.9"/>
  </g>
  <g transform="matrix(1.25,0,0,1.25,-18.20658,146.50919)">
   <path fill-rule="nonzero" fill="#e2f0ff" d="m269.8,292.3c16.11-0.59,28.04-3.32,35.78-8.19l0.94,1.86,8-6.99-10.37,2.3,0.94,1.86c-7.78,4.34-19.58,7.04-35.39,8.08"/>
  </g>
  <g transform="matrix(1.25,0,0,1.25,-18.20658,146.50919)">
   <path fill-rule="nonzero" fill="#e2f0ff" d="m176.2,212.4-12.42,4.88,0.4,1.01,12.42-4.88c16.84-6.09,34.1-10.55,51.78-13.37l0.27,2.07,9.79-4.5-10.2,1.35c-17.89,2.35-35.24,6.83-52.04,13.44"/>
  </g>
  <g transform="matrix(1.25,0,0,1.25,-18.20658,146.50919)">
   <path fill-rule="nonzero" fill="#e2f0ff" d="m210,235.3c75.18-15.63,144.9-37.22,209.2-64.75l0.79,1.93,8.52-6.35-10.52,1.48,0.79,1.93c-64.4,26.88-134.1,48.44-209,64.7"/>
  </g>
  <g transform="matrix(1.25,0,0,1.25,-18.20658,146.50919)">
   <path fill-rule="nonzero" fill="#e0efff" d="m221.1,116.5c-7.54,5.69-12.59,9.78-15.16,12.26l-1.17-1.74-5.91,7.16,8.86-2.77-1.17-1.74c2.76-2.28,7.85-6.4,15.27-12.35"/>
  </g>
  <g transform="matrix(1.25,0,0,1.25,-18.20658,146.50919)">
   <path fill-rule="nonzero" fill="#e0efff" d="m194.8,163.6c-5.1,19.69-12.26,34.41-21.47,44.14l-1.42-1.55-5.84,8.94,9.42-5.02-1.42-1.55c9.93-9.57,17.19-24.48,21.81-44.74"/>
  </g>
  <g transform="matrix(1.25,0,0,1.25,-18.20658,146.50919)">
   <path fill-rule="nonzero" fill="#e0efff" d="m216.8,224.5-6.9,10.22,0.92,0.62,6.9-10.23c4.6-6.09,9.59-11.86,14.96-17.3l1.42,1.56,5.49-9.33-7.65,6.95c-5.75,5.23-10.79,11.06-15.14,17.51"/>
  </g>
  <g transform="matrix(1.25,0,0,1.25,-18.20658,146.50919)">
   <path fill-rule="nonzero" fill="#e0efff" d="m439.8,172.4-8.25-7.5-0.74,0.82,8.24,7.5c1.66,1.98,3.31,3.96,4.95,5.95l-1.79,1.11,6.86,4.97-4.13-6.66c-1.43-2.31-3.15-4.37-5.14-6.19"/>
  </g>
  <g transform="matrix(1.25,0,0,1.25,-18.20658,146.50919)">
   <path fill-rule="nonzero" fill="#deeeff" d="m444.9,178.5,5.16,8.31,0.94-0.59-5.16-8.31c-1.22-2.62-3-4.75-5.34-6.42l1.42-1.56-7.96-2.89,5.8,5.27c1.99,1.82,3.71,3.88,5.14,6.19"/>
  </g>
  <g transform="matrix(1.25,0,0,1.25,-18.20658,146.50919)">
   <path fill-rule="nonzero" fill="#deeeff" d="m413.2,251.6,23.68-3.78-0.18-1.1-23.68,3.78c-110.2,16.4-218.3,7.34-324.2-27.19l0.67-2-10.84-0.26,9.81,3.31c106,35.79,214.3,44.87,324.8,27.24"/>
  </g>
  <g transform="matrix(1.25,0,0,1.25,-18.20658,146.50919)">
   <path fill-rule="nonzero" fill="#deeeff" d="m88.47,224.4-23.07-7.79-0.36,1.05,23.08,7.79c106.1,37.06,214.5,46.15,325.3,27.29l0.34,2.08,9.72-4.81-10.23,1.63c-110.5,17.7-218.7,8.6-324.7-27.2"/>
  </g>
  <g transform="matrix(1.25,0,0,1.25,-18.20658,146.50919)">
   <path fill-rule="nonzero" fill="#deeeff" d="m209.8,234.2c-44.17,0.12-84.4-3.92-120.7-12.11l0.52-2.05-10.71,0.03,9.39,5.15,0.52-2.05c36.3,8.87,76.63,12.92,121,12.15"/>
  </g>
  <g transform="matrix(1.25,0,0,1.25,-18.20658,146.50919)">
   <path fill-rule="nonzero" fill="#deeeff" d="m450.6,213.6c-0.72,8.05-1.6,13.6-2.61,16.66l-1.76-1.18-1.8,7.5,6.24-4.53-1.75-1.17c1.55-3,2.48-8.76,2.8-17.28"/>
  </g>
  <g transform="matrix(1.25,0,0,1.25,-18.20658,146.50919)">
   <path fill-rule="nonzero" fill="#deeeff" d="m281.3,183.6,12.92,0.04,0-1.12-12.92-0.04c-25.47-0.73-50.09-5.69-73.85-14.9l0.81-1.95-10.83-1.01,9.59,3.99c23.77,9.91,48.53,14.9,74.28,14.99"/>
  </g>
  <g transform="matrix(1.25,0,0,1.25,-18.20658,146.50919)">
   <path fill-rule="nonzero" fill="#deeeff" d="m16.22,235.6c11.64-5.65,20.24-9.64,25.81-11.98l0.57,2.04,9.31-5.34-10.74,0.17,0.57,2.05c-5.78,1.97-14.47,6-26.06,12.08"/>
  </g>
  <g transform="matrix(1.25,0,0,1.25,-18.20658,146.50919)">
   <path fill-rule="nonzero" fill="#dcedff" d="m340.7,335.9c32.86-3.4,60.22-12.18,82.08-26.36l1.09,1.83,7.57-7.62-10.32,3,1.09,1.83c-21.96,13.48-49.18,22.21-81.65,26.2"/>
  </g>
  <g transform="matrix(1.25,0,0,1.25,-18.20658,146.50919)">
   <path fill-rule="nonzero" fill="#dcedff" d="m209.5,140.4-14.65-3.55-0.27,1.1,14.66,3.55c74.61,19.05,143.7,50.2,207.3,93.47l-1.21,1.74,10.39,3.29-8.53-5.96c-63.3-44-132.6-75.2-207.7-93.5"/>
  </g>
  <g transform="matrix(1.25,0,0,1.25,-18.20658,146.50919)">
   <path fill-rule="nonzero" fill="#dcedff" d="m207,168.6-11.7-4.87-0.44,1.04,11.7,4.88c23.78,10.6,48.69,15.62,74.71,15.07v2.13l10.43-3.23-10.42-0.03c-25.75-0.09-50.51-5.08-74.28-14.99"/>
  </g>
  <g transform="matrix(1.25,0,0,1.25,-18.20658,146.50919)">
   <path fill-rule="nonzero" fill="#dcedff" d="m28.96,168.2c12.17,10.27,20.6,19.17,25.29,26.72l-1.91,0.93,6.96,8.2-2.11-10.55-1.92,0.93c-4.3-8.01-12.84-17.06-25.63-27.13"/>
  </g>
  <g transform="matrix(1.25,0,0,1.25,-18.20658,146.50919)">
   <path fill-rule="nonzero" fill="#daecff" d="m195.2,163.2c-41.69,9.37-77.91,23.08-108.7,41.13l-1.03-1.87-7.86,7.4,10.47-2.66-1.03-1.87c30.91-17.42,67.04-31.09,108.4-41.03"/>
  </g>
  <g transform="matrix(1.25,0,0,1.25,-18.20658,146.50919)">
   <path fill-rule="nonzero" fill="#daecff" d="m449.7,186.4c-50.26,34.34-84.14,76.77-101.6,127.3l-2-0.75-1.13,10.75,6.21-8.85-2-0.75c18.21-49.74,51.95-92,101.2-126.8"/>
  </g>
  <g transform="matrix(1.25,0,0,1.25,-18.20658,146.50919)">
   <path fill-rule="nonzero" fill="#daecff" d="m449.5,186.8c-1.03,16.34-2.7,29.05-5.02,38.14l-2.01-0.72-0.97,10.76,6.08-8.94-2.02-0.72c2.84-9.08,4.53-21.91,5.08-38.5"/>
  </g>
  <g transform="matrix(1.25,0,0,1.25,-18.20658,146.50919)">
   <path fill-rule="nonzero" fill="#daecff" d="m285,150.5c50.09,24.87,94.38,52.38,132.9,82.51l-1.36,1.66,9.83,4.53-6.39-8.74-1.36,1.66c-38.1-30.8-82.5-58.4-133-82.7"/>
  </g>
  <g transform="matrix(1.25,0,0,1.25,-18.20658,146.50919)">
   <path fill-rule="nonzero" fill="#daecff" d="m283.4,314.1c12.45,13.03,23.9,19.56,34.36,19.58l-0.21,2.13,10.7-1.69-10.17-3.73-0.21,2.14c-10.02-0.59-21.24-7.02-33.67-19.27"/>
  </g>
  <g transform="matrix(1.25,0,0,1.25,-18.20658,146.50919)">
   <path fill-rule="nonzero" fill="#d7ebff" d="m212.7,133.8,8.02-2.46-0.34-1.11-8.02,2.46c-2.13,0.39-4.26,0.87-6.37,1.44l-0.31-2.13-6.1,4.24,6.58-0.96c2.22-0.33,4.4-0.82,6.54-1.48"/>
  </g>
  <g transform="matrix(1.25,0,0,1.25,-18.20658,146.50919)">
   <path fill-rule="nonzero" fill="#d7ebff" d="m431.3,271.5,5.56-23.63-1.13-0.27-5.56,23.63c-4.64,17.5-10.71,34.5-18.21,50.99l-1.94-0.95-1.63,10.91,4.61-9.45c8.03-16.42,14.12-33.49,18.3-51.23"/>
  </g>
  <g transform="matrix(1.25,0,0,1.25,-18.20658,146.50919)">
   <path fill-rule="nonzero" fill="#d5eaff" d="m325.2,318.1,15.36,17.24,0.87-0.78-15.36-17.24c-28.74-33.25-53.79-69.1-75.14-107.6l1.91-1.02-7.91-7.71,4.97,9.28c20.86,38.91,45.96,74.84,75.3,107.8"/>
  </g>
  <g transform="matrix(1.25,0,0,1.25,-18.20658,146.50919)">
   <path fill-rule="nonzero" fill="#d5eaff" d="m438.1,272.6-1.22-24.79-1.17,0.06,1.22,24.79c-0.16,5.91-0.77,11.78-1.83,17.6l-2.1-0.54,0.58,11.03,2.65-10.19c1.54-5.94,2.17-11.92,1.87-17.96"/>
  </g>
  <g transform="matrix(1.25,0,0,1.25,-18.20658,146.50919)">
   <path fill-rule="nonzero" fill="#d5eaff" d="m239.6,182,3.3,15.07,1.15-0.25-3.3-15.08c-5.6-28.66-6.92-57.51-3.96-86.57l2.15,0.27-2.02-10.89-1.3,10.47c-3.63,29.22-2.3,58.22,3.98,86.98"/>
  </g>
  <g transform="matrix(1.25,0,0,1.25,-18.20658,146.50919)">
   <path fill-rule="nonzero" fill="#d5eaff" d="m458.4,239.8-21.52,8.06,0.41,1.1,21.52-8.06c3.43-0.8,6.37-2.64,8.83-5.51l1.48,1.59,4.57-8.82-6.85,6.37c-2.53,2.35-5.34,4.1-8.44,5.27"/>
  </g>
  <g transform="matrix(1.25,0,0,1.25,-18.20658,146.50919)">
   <path fill-rule="nonzero" fill="#d5eaff" d="m65.13,242.2,0.27-25.56-1.18-0.01-0.27,25.56c-0.56,10.06,0.5,19.99,3.19,29.79l-2.12,0.49,5.62,9.56-2.35-10.31c-2.21-9.74-3.27-19.58-3.16-29.52"/>
  </g>
  <g transform="matrix(1.25,0,0,1.25,-18.20658,146.50919)">
   <path fill-rule="nonzero" fill="#d3e9ff" d="m238.8,49.29c84.17,41.67,146.4,100.7,186.7,177.2l-1.95,0.98,7.24,8.2-2.29-10.7-1.95,0.98c-39.6-77.6-102-136.8-187.3-177.8"/>
  </g>
  <g transform="matrix(1.25,0,0,1.25,-18.20658,146.50919)">
   <path fill-rule="nonzero" fill="#d3e9ff" d="m334.3,79.71c-30.9-4.94-58.3-5.53-82.2-1.75l-0.26-2.16-10.19,4,10.84,1.5-0.25-2.16c23.81-3.23,51.11-2.64,81.9,1.75"/>
  </g>
  <g transform="matrix(1.25,0,0,1.25,-18.20658,146.50919)">
   <path fill-rule="nonzero" fill="#d3e9ff" d="m90.94,212.2-25.54,4.43,0.2,1.17,25.55-4.43c19.71-2.77,39.36-2.14,58.95,1.91l-0.51,2.12,11.08-0.81-10.3-2.46c-19.76-4.74-39.57-5.38-59.43-1.93"/>
  </g>
  <g transform="matrix(1.25,0,0,1.25,-18.20658,146.50919)">
   <path fill-rule="nonzero" fill="#d1e8ff" d="m413,322.7-5.39,11.04,1.09,0.53,5.39-11.04c8.54-16.35,14.67-33.51,18.39-51.49l2.14,0.51-0.88-11.15-2.44,10.37c-4.18,17.74-10.27,34.81-18.3,51.23"/>
  </g>
  <g transform="matrix(1.25,0,0,1.25,-18.20658,146.50919)">
   <path fill-rule="nonzero" fill="#cfe7ff" d="m249.9,210.3-7.09-13.23-1.07,0.58,7.09,13.23c20.36,39.38,45.52,75.38,75.46,108l-1.65,1.47,9.67,5.69-7.11-7.97c-29.3-33-54.4-68.9-75.3-107.8"/>
  </g>
  <g transform="matrix(1.25,0,0,1.25,-18.20658,146.50919)">
   <path fill-rule="nonzero" fill="#cae4ff" d="m236.6,67.69,0.83,12.61,1.24-0.08-0.83-12.62c0.16-2.75,0.32-5.49,0.5-8.23l2.19,0.41-1.86-8.88-1.55,8.24c-0.54,2.83-0.71,5.68-0.52,8.55"/>
  </g>
  <g transform="matrix(1.25,0,0,1.25,-18.20658,146.50919)">
   <path fill-rule="nonzero" fill="#c6e2ff" d="m89.97,208-24.57,8.64,0.42,1.2,24.58-8.64c44.63-14.78,90.33-19.14,137.1-13.09l-0.33,2.23,11.23-1.91-10.72-1.58c-47.1-6.96-93.01-2.58-137.7,13.15"/>
  </g>
  <g transform="matrix(1.25,0,0,1.25,-18.20658,146.50919)">
   <path fill-rule="nonzero" fill="#c0dfff" d="m235.6,95,1.83-14.7-1.3-0.16-1.83,14.7c-4.31,29.4-2.97,58.54,4,87.42l-2.24,0.49,5.86,9.92-2.34-10.69c-6.4-28.8-7.8-57.8-4.1-87"/>
  </g>
  <g transform="matrix(1.25,0,0,1.25,-18.20658,146.50919)">
   <path fill-rule="nonzero" fill="#bddeff" d="m237.1,59.14,1.96-10.39-1.31-0.25-1.96,10.39c-0.9,2.93-1.08,5.89-0.54,8.88l-2.31,0.16,4.19,8.12-0.55-8.36c-0.19-2.87-0.02-5.72,0.52-8.55"/>
  </g>
  <g transform="matrix(1.25,0,0,1.25,-18.20658,146.50919)">
   <path fill-rule="nonzero" fill="#bddeff" d="m466.9,234.5,8.19-7.62-0.91-0.98-8.19,7.62c-2.57,1.82-5.24,3.48-8,5l-0.81-2.17-7.49,6.7,8.77-3.28c3.1-1.17,5.91-2.92,8.44-5.27"/>
  </g>
  <g transform="matrix(1.25,0,0,1.25,-18.20658,146.50919)">
   <path fill-rule="nonzero" fill="#BDF" d="M87.62,228.9,65.4,216.6l-0.65,1.18,22.22,12.26c66.93,38.13,138.9,54.29,216,48.48l0.14,2.32,10.8-4.35-11.03,0.68c-76.6,4.6-148.3-11.5-215.3-48.4"/>
  </g>
  <g transform="matrix(1.25,0,0,1.25,-18.20658,146.50919)">
   <path fill-rule="nonzero" fill="#b7dbff" d="m310,261.6,10.3,14.53,1.13-0.8-10.3-14.53c-14.8-21.94-33.07-40.48-54.81-55.62l1.39-1.89-11.19-3.56,8.98,6.57c21.18,15.48,39.34,33.92,54.5,55.3"/>
  </g>
  <g transform="matrix(1.25,0,0,1.25,-18.20658,146.50919)">
   <path fill-rule="nonzero" fill="#b7dbff" d="m230.3,187.6,12.59,9.42,0.83-1.11-12.59-9.42c-12.08-9.8-21.57-21.67-28.47-35.61l2.15-0.96-7.96-8.65,4.55,10.17c6.5,14.56,16.13,26.61,28.9,36.16"/>
  </g>
  <g transform="matrix(1.25,0,0,1.25,-18.20658,146.50919)">
   <path fill-rule="nonzero" fill="#b5daff" d="m438,221.9-1.05,25.97,1.4,0.06,1.04-25.98c1.08-14.52-0.1-28.92-3.54-43.18l2.31-0.47-5.94-10.19,2.26,10.95c2.92,14.16,4.1,28.44,3.52,42.84"/>
  </g>
  <g transform="matrix(1.25,0,0,1.25,-18.20658,146.50919)">
   <path fill-rule="nonzero" fill="#b3d9ff" d="m436.2,290.6-3.15,12.1,1.36,0.35,3.15-12.1c2.03-6.07,2.67-12.2,1.91-18.38l2.37-0.12-4.32-11,0.55,11.19c0.3,6.04-0.33,12.02-1.87,17.96"/>
  </g>
  <g transform="matrix(1.25,0,0,1.25,-18.20658,146.50919)">
   <path fill-rule="nonzero" fill="#b0d7ff" d="m201.4,151.5-6.51-14.57-1.3,0.58,6.51,14.57c6.1,15.18,15.89,27.42,29.35,36.72l-1.43,1.91,11.28,3.69-9-6.74c-12.77-9.55-22.4-21.6-28.9-36.16"/>
  </g>
  <g transform="matrix(1.25,0,0,1.25,-18.20658,146.50919)">
   <path fill-rule="nonzero" fill="#a8d3ff" d="m302.9,277.2,17.39-1.07-0.09-1.47-17.39,1.07c-76,3.6-147.5-12.4-214.5-48.1l1.17-2.13-11.86-2.08,9.97,5.5c66.96,36.93,138.7,53.04,215.2,48.31"/>
  </g>
  <g transform="matrix(1.25,0,0,1.25,-18.20658,146.50919)">
   <path fill-rule="nonzero" fill="#a6d2ff" d="m255.4,206.3-12.6-9.22-0.88,1.21,12.6,9.22c20.59,15.82,38.65,34.14,54.16,54.96l-2,1.41,9.84,7.05-6.62-9.33c-15.16-21.38-33.32-39.82-54.5-55.3"/>
  </g>
  <g transform="matrix(1.25,0,0,1.25,-18.20658,146.50919)">
   <path fill-rule="nonzero" fill="#9dceff" d="m68.29,271.7,3.26,14.32,1.51-0.34-3.26-14.32c-1.73-9.64-2.77-19.36-3.12-29.16l2.49,0.02-3.92-11.61-0.12,11.57c-0.11,9.94,0.95,19.78,3.16,29.52"/>
  </g>
  <g transform="matrix(1.25,0,0,1.25,-18.20658,146.50919)">
   <path fill-rule="nonzero" fill="#98cbfe" d="m411.2,251.2,25.74-3.33-0.21-1.59-25.74,3.32c-25.62,2.74-50.41,8.95-74.36,18.62l-0.89-2.38-9.49,8.03,10.95-4.15c23.96-9.07,48.63-15.24,74-18.52"/>
  </g>
  <g transform="matrix(1.25,0,0,1.25,-18.20658,146.50919)">
   <path fill-rule="nonzero" fill="#95c8fb" d="m150.4,214.1,13.38,3.2,0.4-1.65-13.38-3.21c-20.01-5.43-40.05-6.08-60.12-1.95l-0.44-2.57-11.02,6.29,11.75-2.04c19.86-3.45,39.67-2.81,59.43,1.93"/>
  </g>
  <g transform="matrix(1.25,0,0,1.25,-18.20658,146.50919)">
   <path fill-rule="nonzero" fill="#93c7fa" d="m227.7,194.8,15.15,2.24,0.26-1.73-15.15-2.24c-47.5-7.88-93.69-3.47-138.6,13.23l-0.87-2.5-9.92,8.15,11.37-4c44.72-15.73,90.63-20.11,137.7-13.15"/>
  </g>
  <g transform="matrix(1.25,0,0,1.25,-18.20658,146.50919)">
   <path fill-rule="nonzero" fill="#8fc3f6" d="m337.2,269.7-16.91,6.4,0.66,1.76,16.92-6.4c23.94-8.46,48.47-14.6,73.57-18.42l0.35,2.72,11.64-6.16-12.23,1.58c-25.37,3.28-50.04,9.45-74,18.52"/>
  </g>
  <g transform="matrix(1.25,0,0,1.25,-18.20658,146.50919)">
   <path fill-rule="nonzero" fill="#8ec2f5" d="m434.4,179-2.93-14.19-1.86,0.38,2.93,14.19c2.4,14.02,3.56,28.15,3.48,42.38l-2.75-0.11,4.15,12.55,0.5-12.36c0.58-14.4-0.6-28.68-3.52-42.84"/>
  </g>
  <g transform="matrix(1.25,0,0,1.25,-18.20658,146.50919)">
   <path fill-rule="nonzero" fill="#5993c6" d="m330.4,310.3,10.25,25,3.23-1.33-10.25-24.99c-1.49-4.53-3-9.03-4.55-13.51l3.61-0.96-10.75-12.26,3.76,14.12c1.27,4.75,2.83,9.39,4.7,13.93"/>
  </g>
  <g transform="matrix(1.25,0,0,1.25,-18.20658,146.50919)">
   <path fill-rule="nonzero" fill="#4c87ba" d="m325.6,296.4-5.4-20.27-3.76,1,5.41,20.27c0.98,5.04,2.6,9.84,4.85,14.41l-3.65,1.5,12.79,10.54-5.54-13.52c-1.87-4.54-3.43-9.18-4.7-13.93"/>
  </g>
  <g transform="matrix(1.25,0,0,1.25,-18.20658,146.50919)">
   <path fill-rule="nonzero" fill="#226295" d="m367.4,320.3-26.78,14.99,2.51,4.49,26.78-14.99c22.08-11.58,39.95-27.8,53.61-48.65l3.73,2.59,1.9-19.7-9.85,14.17c-13.68,19.69-30.98,35.39-51.9,47.1"/>
  </g>
  <g transform="matrix(1.25,0,0,1.25,-18.20658,146.50919)">
   <path fill-rule="nonzero" fill="#014578" d="m419.3,273.2,17.62-25.36-5.01-3.48-17.62,25.36c-13.6,18.42-30.23,33.5-49.88,45.26l-2.41-4.31-10.55,18.56,15.95-8.93c20.92-11.71,38.22-27.41,51.9-47.1"/>
  </g>
  <g transform="matrix(1.25,0,0,1.25,-18.20658,146.50919)">
   <path fill-rule="nonzero" fill="#e7f3ff" d="M320.7,275.9c-24.7-65-50.3-125.9-76.9-182.7l1.87-0.85-6.55-8.2,1.85,10.34,1.87-0.85c26.21,56.95,51.83,117.8,76.88,182.6"/>
  </g>
  <g transform="matrix(1.25,0,0,1.25,-18.20658,146.50919)">
   <path fill-rule="nonzero" fill="#91c5f8" d="m259,199-16.13-1.96-0.22,1.82,16.13,1.95c52.68,7.12,103.8,20.18,153.4,39.16l-1,2.51,13.04,0.32-11.36-4.53c-49.5-19.8-100.8-32.9-153.8-39.3"/>
  </g>
  <g transform="matrix(1.25,0,0,1.25,-18.20658,146.50919)">
   <path fill-rule="nonzero" fill="#98cbfe" d="m412.9,238.3,24.01,9.57,0.6-1.51-24.01-9.57c-49.5-20.5-101-33.7-154.3-39.4l0.31-2.54-12.19,2.74,11.68,1.42c53.03,6.43,104.3,19.52,153.9,39.27"/>
  </g>
  <g transform="matrix(1.25,0,0,1.25,-18.20658,146.50919)">
   <path fill-rule="nonzero" fill="#87bcef" d="m251.2,88.27-13.79-7.97-1.06,1.83,13.79,7.97c63.26,37.61,119.2,83.97,167.9,139.1l-2.2,1.9,12.18,6.44-8.38-9.72c-48.2-56-104.4-102.5-168.4-139.5"/>
  </g>
  <g transform="matrix(1.25,0,0,1.25,-18.20658,146.50919)">
   <path fill-rule="nonzero" fill="#9CF" d="m419.6,227.8,17.27,20.04,1.2-1.04-17.27-20.03c-47.7-56.8-104-103.4-168.8-139.9l1.26-2.18-12.15-2.29,10.1,5.84c64.05,37.05,120.2,83.56,168.4,139.5"/>
  </g>
  <g transform="matrix(1.25,0,0,1.25,-18.20658,146.50919)">
   <path fill-rule="nonzero" fill="#e7f3ff" d="m294.3,356.3c13.76-0.68,23.1-3.26,28.02-7.73l1.17,1.69,6.9-7.91-9.83,3.67,1.16,1.68c-5.02,3.91-14.2,6.43-27.54,7.56"/>
  </g>
  <g transform="matrix(1.25,0,0,1.25,-18.20658,146.50919)">
   <path fill-rule="nonzero" fill="#d5eaff" d="m341.2,368.1-3.42,11.26,1.13,0.34,3.42-11.26c1.55-3.63,1.95-7.27,1.22-10.92l2.16-0.17-4.11-9.72,0.78,9.98c0.27,3.51-0.12,7.01-1.18,10.49"/>
  </g>
  <g transform="matrix(1.25,0,0,1.25,-18.20658,146.50919)">
   <path fill-rule="nonzero" fill="#e4f1ff" d="m342.4,357.6-1.75-22.35-1.07,0.08,1.74,22.35c-0.18,3.38-0.56,6.75-1.13,10.1l-1.98-0.61,0.1,10.5,2.91-9.58c1.06-3.48,1.45-6.98,1.18-10.49"/>
  </g>
  <g transform="matrix(1.25,0,0,1.25,-18.20658,146.50919)">
   <path fill-rule="nonzero" fill="#e9f4ff" d="m407.5,333.2c-18.04,4.14-32.89,5.78-44.55,4.92l0.31-2.02-10.4,1.01,9.63,4.05,0.3-2.01c11.79,1.44,26.79-0.21,44.99-4.95"/>
  </g>
  <g transform="matrix(1.25,0,0,1.25,-18.20658,146.50919)">
   <path fill-rule="nonzero" fill="#e0efff" d="m238.8,48.24c-74.93,31.78-129.1,80.65-162.5,146.6l-1.86-0.98-2.5,10.38,7.2-7.89-1.86-0.99c34.12-64.9,88.12-113.6,162-146"/>
  </g>
  <g transform="matrix(1.25,0,0,1.25,-18.20658,146.50919)">
   <path fill-rule="nonzero" fill="#93c7fa" d="m223.1,86.45,14.31-6.15-0.69-1.62-14.32,6.15c-57.7,23.77-105.1,60.47-142.4,110.1l-2.1-1.62-3.91,12.24,7.4-9.54c37.71-48.65,84.95-85.17,141.7-109.6"/>
  </g>
  <g transform="matrix(1.25,0,0,1.25,-18.20658,146.50919)">
   <path fill-rule="nonzero" fill="#acd5ff" d="m81.37,196-15.97,20.6,1.15,0.89,15.96-20.6c38.18-47.7,85.23-84.07,141.2-109.1l0.95,2.21,8.87-8.01-10.39,4.47c-56.8,24.33-104,60.93-141.7,109.5"/>
  </g>
  <g transform="matrix(1.25,0,0,1.25,-18.20658,146.50919)">
   <path fill-rule="nonzero" fill="#98cbfe" d="m85.1,198.3-19.7,18.27,1.11,1.19,19.69-18.27c27.57-24.51,58.73-43.09,93.48-55.73l0.83,2.41,9.78-7.75-11.13,3.8c-35.4,12.1-66.8,30.8-94.1,56.1"/>
  </g>
  <g transform="matrix(1.25,0,0,1.25,-18.20658,146.50919)">
   <path fill-rule="nonzero" fill="#87bcef" d="m179.2,142.2,15.69-5.35-0.69-2.02-15.69,5.35c-36.11,11.5-67.72,30.35-94.82,56.54l-1.99-2.15-6,12.46,9.44-8.75c27.31-25.33,58.66-44.02,94.06-56.08"/>
  </g>
  <g transform="matrix(1.25,0,0,1.25,-18.20658,146.50919)">
   <path fill-rule="nonzero" fill="#bf5900" d="m450.5,247.8c0,7.52-6.1,13.62-13.62,13.62s-13.62-6.1-13.62-13.62,6.1-13.62,13.62-13.62,13.62,6.1,13.62,13.62"/>
  </g>
  <g transform="matrix(1.25,0,0,1.25,-18.20658,146.50919)">
   <path fill-rule="nonzero" fill="#801a00" d="m448.8,247.8c0,6.57-5.33,11.9-11.9,11.9s-11.9-5.33-11.9-11.9,5.33-11.9,11.9-11.9,11.9,5.33,11.9,11.9"/>
  </g>
  <g transform="matrix(1.25,0,0,1.25,-18.20658,146.50919)">
   <path fill-rule="nonzero" fill="#c76100" d="m353,335.3c0,6.85-5.56,12.41-12.41,12.41s-12.41-5.56-12.41-12.41,5.56-12.41,12.41-12.41,12.41,5.56,12.41,12.41"/>
  </g>
  <g transform="matrix(1.25,0,0,1.25,-18.20658,146.50919)">
   <path fill-rule="nonzero" fill="#851f00" d="m351.6,335.3c0,6.07-4.92,10.99-10.99,10.99s-10.99-4.92-10.99-10.99,4.92-10.99,10.99-10.99,10.99,4.92,10.99,10.99"/>
  </g>
  <g transform="matrix(1.25,0,0,1.25,-18.20658,146.50919)">
   <path fill-rule="nonzero" fill="#ce6800" d="m326.6,276.1c0,3.52-2.85,6.37-6.37,6.37s-6.37-2.85-6.37-6.37,2.85-6.37,6.37-6.37,6.37,2.85,6.37,6.37"/>
  </g>
  <g transform="matrix(1.25,0,0,1.25,-18.20658,146.50919)">
   <path fill-rule="nonzero" fill="#ae4800" d="m325.3,276.1c0,2.81-2.28,5.09-5.09,5.09s-5.09-2.28-5.09-5.09,2.28-5.09,5.09-5.09,5.09,2.28,5.09,5.09"/>
  </g>
  <g transform="matrix(1.25,0,0,1.25,-18.20658,146.50919)">
   <path fill-rule="nonzero" fill="#D70" d="m199.7,136.9c0,2.66-2.15,4.81-4.81,4.81s-4.81-2.15-4.81-4.81,2.15-4.81,4.81-4.81,4.81,2.15,4.81,4.81"/>
  </g>
  <g transform="matrix(1.25,0,0,1.25,-18.20658,146.50919)">
   <path fill-rule="nonzero" fill="#bd5700" d="m199,136.9c0,2.27-1.85,4.12-4.12,4.12s-4.12-1.85-4.12-4.12,1.85-4.12,4.12-4.12,4.12,1.85,4.12,4.12"/>
  </g>
  <g transform="matrix(1.25,0,0,1.25,-18.20658,146.50919)">
   <path fill-rule="nonzero" fill="#da7400" d="m79.39,216.6c0,7.73-6.26,13.99-13.99,13.99s-13.99-6.26-13.99-13.99,6.26-13.99,13.99-13.99,13.99,6.26,13.99,13.99"/>
  </g>
  <g transform="matrix(1.25,0,0,1.25,-18.20658,146.50919)">
   <path fill-rule="nonzero" fill="#7e1800" d="m78.83,216.6c0,7.42-6.01,13.43-13.43,13.43s-13.43-6.01-13.43-13.43,6.01-13.43,13.43-13.43,13.43,6.01,13.43,13.43"/>
  </g>
  <g transform="matrix(1.25,0,0,1.25,-18.20658,146.50919)">
   <path fill-rule="nonzero" fill="#da7400" d="m241.7,80.3c0,2.35-1.91,4.26-4.26,4.26s-4.26-1.91-4.26-4.26,1.91-4.26,4.26-4.26,4.26,1.91,4.26,4.26"/>
  </g>
  <g transform="matrix(1.25,0,0,1.25,-18.20658,146.50919)">
   <path fill-rule="nonzero" fill="#c25c00" d="m240.8,80.3c0,1.88-1.53,3.41-3.41,3.41s-3.41-1.53-3.41-3.41,1.53-3.41,3.41-3.41,3.41,1.53,3.41,3.41"/>
  </g>
  <g transform="matrix(1.25,0,0,1.25,-18.20658,146.50919)">
   <path fill-rule="nonzero" fill="#e47e00" d="m434.8,164.8c0,1.83-1.48,3.31-3.31,3.31s-3.31-1.48-3.31-3.31,1.48-3.31,3.31-3.31,3.31,1.48,3.31,3.31"/>
  </g>
  <g transform="matrix(1.25,0,0,1.25,-18.20658,146.50919)">
   <path fill-rule="nonzero" fill="#ce6800" d="m434.3,164.8c0,1.53-1.23,2.76-2.76,2.76s-2.76-1.23-2.76-2.76,1.23-2.76,2.76-2.76,2.76,1.23,2.76,2.76"/>
  </g>
  <g transform="matrix(1.25,0,0,1.25,-18.20658,146.50919)">
   <path fill-rule="nonzero" fill="#d56f00" d="m247.3,197c0,2.48-2,4.48-4.48,4.48s-4.48-2-4.48-4.48,2-4.48,4.48-4.48,4.48,2,4.48,4.48"/>
  </g>
  <g transform="matrix(1.25,0,0,1.25,-18.20658,146.50919)">
   <path fill-rule="nonzero" fill="#bf5900" d="m246.2,197c0,1.86-1.52,3.38-3.38,3.38s-3.38-1.52-3.38-3.38,1.52-3.38,3.38-3.38,3.38,1.52,3.38,3.38"/>
  </g>
  <g transform="matrix(1.25,0,0,1.25,-18.20658,146.50919)">
   <path fill-rule="nonzero" fill="#e47e00" d="m166.9,217.3c0,1.75-1.41,3.16-3.16,3.16s-3.16-1.41-3.16-3.16,1.41-3.16,3.16-3.16,3.16,1.41,3.16,3.16"/>
  </g>
  <g transform="matrix(1.25,0,0,1.25,-18.20658,146.50919)">
   <path fill-rule="nonzero" fill="#d06a00" d="m166.3,217.3c0,1.41-1.15,2.56-2.56,2.56s-2.56-1.15-2.56-2.56,1.15-2.56,2.56-2.56,2.56,1.15,2.56,2.56"/>
  </g>
  <g transform="matrix(1.25,0,0,1.25,-18.20658,146.50919)">
   <path fill-rule="nonzero" fill="#e68000" d="m75.66,286c0,2.27-1.84,4.11-4.11,4.11s-4.11-1.84-4.11-4.11,1.84-4.11,4.11-4.11,4.11,1.84,4.11,4.11"/>
  </g>
  <g transform="matrix(1.25,0,0,1.25,-18.20658,146.50919)">
   <path fill-rule="nonzero" fill="#c45e00" d="m75.33,286c0,2.09-1.69,3.78-3.78,3.78s-3.78-1.69-3.78-3.78,1.69-3.78,3.78-3.78,3.78,1.69,3.78,3.78"/>
  </g>
  <g transform="matrix(1.25,0,0,1.25,-18.20658,146.50919)">
   <path fill-rule="nonzero" fill="#E80" d="m435.1,302.7c0,1.09-0.88,1.97-1.97,1.97s-1.97-0.88-1.97-1.97,0.88-1.97,1.97-1.97,1.97,0.88,1.97,1.97"/>
  </g>
  <g transform="matrix(1.25,0,0,1.25,-18.20658,146.50919)">
   <path fill-rule="nonzero" fill="#e68000" d="m434.5,302.7c0,0.76-0.62,1.38-1.38,1.38s-1.38-0.62-1.38-1.38,0.62-1.38,1.38-1.38,1.38,0.62,1.38,1.38"/>
  </g>
  <g transform="matrix(1.25,0,0,1.25,-18.20658,146.50919)">
   <path fill-rule="nonzero" fill="#f08a00" d="m476.9,226.9c0,1.01-0.82,1.83-1.83,1.83s-1.83-0.82-1.83-1.83,0.82-1.83,1.83-1.83,1.83,0.82,1.83,1.83"/>
  </g>
  <g transform="matrix(1.25,0,0,1.25,-18.20658,146.50919)">
   <path fill-rule="nonzero" fill="#e98300" d="m476.4,226.9c0,0.72-0.58,1.3-1.3,1.3s-1.3-0.58-1.3-1.3,0.58-1.3,1.3-1.3,1.3,0.58,1.3,1.3"/>
  </g>
  <g transform="matrix(1.25,0,0,1.25,-18.20658,146.50919)">
   <path fill-rule="nonzero" fill="#eb8500" d="m241.2,48.75c0,1.21-0.98,2.19-2.19,2.19s-2.19-0.98-2.19-2.19,0.98-2.19,2.19-2.19,2.19,0.98,2.19,2.19"/>
  </g>
  <g transform="matrix(1.25,0,0,1.25,-18.20658,146.50919)">
   <path fill-rule="nonzero" fill="#e17b00" d="m240.7,48.75c0,0.92-0.74,1.66-1.66,1.66s-1.66-0.74-1.66-1.66,0.74-1.66,1.66-1.66,1.66,0.74,1.66,1.66"/>
  </g>
  <g transform="matrix(1.25,0,0,1.25,-18.20658,146.50919)">
   <path fill-rule="nonzero" fill="#f08a00" d="m409.4,333.8c0,0.98-0.79,1.77-1.77,1.77s-1.77-0.79-1.77-1.77,0.79-1.77,1.77-1.77,1.77,0.79,1.77,1.77"/>
  </g>
  <g transform="matrix(1.25,0,0,1.25,-18.20658,146.50919)">
   <path fill-rule="nonzero" fill="#eb8500" d="m408.8,333.8c0,0.64-0.53,1.17-1.17,1.17s-1.17-0.53-1.17-1.17,0.53-1.17,1.17-1.17,1.17,0.53,1.17,1.17"/>
  </g>
  <g transform="matrix(1.25,0,0,1.25,-18.20658,146.50919)">
   <path fill-rule="nonzero" fill="#E80" d="m336.1,80.3c0,1.03-0.84,1.87-1.87,1.87s-1.87-0.84-1.87-1.87,0.84-1.87,1.87-1.87,1.87,0.84,1.87,1.87"/>
  </g>
  <g transform="matrix(1.25,0,0,1.25,-18.20658,146.50919)">
   <path fill-rule="nonzero" fill="#e98300" d="m335.4,80.3c0,0.64-0.51,1.15-1.15,1.15s-1.15-0.51-1.15-1.15,0.51-1.15,1.15-1.15,1.15,0.51,1.15,1.15"/>
  </g>
  <g transform="matrix(1.25,0,0,1.25,-18.20658,146.50919)">
   <path fill-rule="nonzero" fill="#f08a00" d="m339.5,379.4c0,0.97-0.79,1.76-1.76,1.76s-1.76-0.79-1.76-1.76,0.79-1.76,1.76-1.76,1.76,0.79,1.76,1.76"/>
  </g>
  <g transform="matrix(1.25,0,0,1.25,-18.20658,146.50919)">
   <path fill-rule="nonzero" fill="#eb8500" d="m338.9,379.4c0,0.62-0.5,1.12-1.12,1.12s-1.12-0.5-1.12-1.12,0.5-1.12,1.12-1.12,1.12,0.5,1.12,1.12"/>
  </g>
  <g transform="matrix(1.25,0,0,1.25,-18.20658,146.50919)">
   <path fill-rule="nonzero" fill="#f08a00" d="m222.5,131.3c0,0.96-0.78,1.74-1.74,1.74s-1.74-0.78-1.74-1.74,0.78-1.74,1.74-1.74,1.74,0.78,1.74,1.74"/>
  </g>
  <g transform="matrix(1.25,0,0,1.25,-18.20658,146.50919)">
   <path fill-rule="nonzero" fill="#E80" d="m221.9,131.3c0,0.62-0.5,1.12-1.12,1.12s-1.12-0.5-1.12-1.12,0.5-1.12,1.12-1.12,1.12,0.5,1.12,1.12"/>
  </g>
  <g transform="matrix(1.25,0,0,1.25,-18.20658,146.50919)">
   <path fill-rule="nonzero" fill="#f08a00" d="m285.6,313.6c0,0.98-0.79,1.77-1.77,1.77s-1.77-0.79-1.77-1.77,0.79-1.77,1.77-1.77,1.77,0.79,1.77,1.77"/>
  </g>
  <g transform="matrix(1.25,0,0,1.25,-18.20658,146.50919)">
   <path fill-rule="nonzero" fill="#eb8500" d="m284.9,313.6c0,0.59-0.47,1.06-1.06,1.06s-1.06-0.47-1.06-1.06,0.47-1.06,1.06-1.06,1.06,0.47,1.06,1.06"/>
  </g>
  <g transform="matrix(1.25,0,0,1.25,-18.20658,146.50919)">
   <path fill-rule="nonzero" fill="#eb8500" d="m287.3,150c0,1.13-0.91,2.04-2.04,2.04s-2.04-0.91-2.04-2.04,0.91-2.04,2.04-2.04,2.04,0.91,2.04,2.04"/>
  </g>
  <g transform="matrix(1.25,0,0,1.25,-18.20658,146.50919)">
   <path fill-rule="nonzero" fill="#e47e00" d="m286.7,150c0,0.79-0.64,1.43-1.43,1.43s-1.43-0.64-1.43-1.43,0.64-1.43,1.43-1.43,1.43,0.64,1.43,1.43"/>
  </g>
  <g transform="matrix(1.25,0,0,1.25,-18.20658,146.50919)">
   <path fill-rule="nonzero" fill="#E80" d="m452,186.8c0,1.07-0.87,1.94-1.94,1.94s-1.94-0.87-1.94-1.94,0.87-1.94,1.94-1.94,1.94,0.87,1.94,1.94"/>
  </g>
  <g transform="matrix(1.25,0,0,1.25,-18.20658,146.50919)">
   <path fill-rule="nonzero" fill="#e68000" d="m451.4,186.8c0,0.73-0.6,1.33-1.33,1.33s-1.33-0.6-1.33-1.33,0.6-1.33,1.33-1.33,1.33,0.6,1.33,1.33"/>
  </g>
  <g transform="matrix(1.25,0,0,1.25,-18.20658,146.50919)">
   <path fill-rule="nonzero" fill="#e68000" d="m197.6,163.8c0,1.26-1.03,2.29-2.29,2.29s-2.29-1.03-2.29-2.29,1.03-2.29,2.29-2.29,2.29,1.03,2.29,2.29"/>
  </g>
  <g transform="matrix(1.25,0,0,1.25,-18.20658,146.50919)">
   <path fill-rule="nonzero" fill="#df7900" d="m196.9,163.8c0,0.87-0.71,1.58-1.58,1.58s-1.58-0.71-1.58-1.58,0.71-1.58,1.58-1.58,1.58,0.71,1.58,1.58"/>
  </g>
  <g transform="matrix(1.25,0,0,1.25,-18.20658,146.50919)">
   <path fill-rule="nonzero" fill="#f28c00" d="m30.98,167.7c0,0.93-0.75,1.68-1.68,1.68s-1.68-0.75-1.68-1.68,0.75-1.68,1.68-1.68,1.68,0.75,1.68,1.68"/>
  </g>
  <g transform="matrix(1.25,0,0,1.25,-18.20658,146.50919)">
   <path fill-rule="nonzero" fill="#f08a00" d="m30.44,167.7c0,0.63-0.51,1.14-1.14,1.14s-1.14-0.51-1.14-1.14,0.51-1.14,1.14-1.14,1.14,0.51,1.14,1.14"/>
  </g>
  <g transform="matrix(1.25,0,0,1.25,-18.20658,146.50919)">
   <path fill-rule="nonzero" fill="#f08a00" d="m296.8,183.6c0,1.38-1.12,2.5-2.5,2.5s-2.5-1.12-2.5-2.5,1.12-2.5,2.5-2.5,2.5,1.12,2.5,2.5"/>
  </g>
  <g transform="matrix(1.25,0,0,1.25,-18.20658,146.50919)">
   <path fill-rule="nonzero" fill="#da7400" d="m296.5,183.6c0,1.25-1.02,2.27-2.27,2.27s-2.27-1.02-2.27-2.27,1.02-2.27,2.27-2.27,2.27,1.02,2.27,2.27"/>
  </g>
  <g transform="matrix(1.25,0,0,1.25,-18.20658,146.50919)">
   <path fill-rule="nonzero" fill="#f28c00" d="m17.71,235.1c0,0.97-0.79,1.76-1.76,1.76s-1.76-0.79-1.76-1.76,0.79-1.76,1.76-1.76,1.76,0.79,1.76,1.76"/>
  </g>
  <g transform="matrix(1.25,0,0,1.25,-18.20658,146.50919)">
   <path fill-rule="nonzero" fill="#eb8500" d="m17.18,235.1c0,0.68-0.55,1.23-1.23,1.23s-1.23-0.55-1.23-1.23,0.55-1.23,1.23-1.23,1.23,0.55,1.23,1.23"/>
  </g>
  <g transform="matrix(1.25,0,0,1.25,-18.20658,146.50919)">
   <path fill-rule="nonzero" fill="#f08a00" d="m453,213.6c0,1.02-0.82,1.84-1.84,1.84s-1.84-0.82-1.84-1.84,0.82-1.84,1.84-1.84,1.84,0.82,1.84,1.84"/>
  </g>
  <g transform="matrix(1.25,0,0,1.25,-18.20658,146.50919)">
   <path fill-rule="nonzero" fill="#e98300" d="m452.5,213.6c0,0.74-0.6,1.34-1.34,1.34s-1.34-0.6-1.34-1.34,0.6-1.34,1.34-1.34,1.34,0.6,1.34,1.34"/>
  </g>
  <g transform="matrix(1.25,0,0,1.25,-18.20658,146.50919)">
   <path fill-rule="nonzero" fill="#e68000" d="m212,234.8c0,1.18-0.96,2.14-2.14,2.14s-2.14-0.96-2.14-2.14,0.96-2.14,2.14-2.14,2.14,0.96,2.14,2.14"/>
  </g>
  <g transform="matrix(1.25,0,0,1.25,-18.20658,146.50919)">
   <path fill-rule="nonzero" fill="#e17b00" d="m211.1,234.8c0,0.7-0.58,1.28-1.28,1.28s-1.28-0.58-1.28-1.28,0.58-1.28,1.28-1.28,1.28,0.58,1.28,1.28"/>
  </g>
  <g transform="matrix(1.25,0,0,1.25,-18.20658,146.50919)">
   <path fill-rule="nonzero" fill="#f58f00" d="m223.2,117c0,0.96-0.78,1.74-1.74,1.74s-1.74-0.78-1.74-1.74,0.78-1.74,1.74-1.74,1.74,0.78,1.74,1.74"/>
  </g>
  <g transform="matrix(1.25,0,0,1.25,-18.20658,146.50919)">
   <path fill-rule="nonzero" fill="#E80" d="m222.8,117c0,0.77-0.62,1.39-1.39,1.39s-1.39-0.62-1.39-1.39,0.62-1.39,1.39-1.39,1.39,0.62,1.39,1.39"/>
  </g>
  <g transform="matrix(1.25,0,0,1.25,-18.20658,146.50919)">
   <path fill-rule="nonzero" fill="#f28c00" d="m271.5,291.8c0,0.95-0.77,1.72-1.72,1.72s-1.72-0.77-1.72-1.72,0.77-1.72,1.72-1.72,1.72,0.77,1.72,1.72"/>
  </g>
  <g transform="matrix(1.25,0,0,1.25,-18.20658,146.50919)">
   <path fill-rule="nonzero" fill="#E80" d="m271,291.8c0,0.66-0.54,1.2-1.2,1.2s-1.2-0.54-1.2-1.2,0.54-1.2,1.2-1.2,1.2,0.54,1.2,1.2"/>
  </g>
  <g transform="matrix(1.25,0,0,1.25,-18.20658,146.50919)">
   <path fill-rule="nonzero" fill="#f28c00" d="m471.8,279.4c0,0.92-0.75,1.67-1.67,1.67s-1.67-0.75-1.67-1.67,0.75-1.67,1.67-1.67,1.67,0.75,1.67,1.67"/>
  </g>
  <g transform="matrix(1.25,0,0,1.25,-18.20658,146.50919)">
   <path fill-rule="nonzero" fill="#f08a00" d="m471.1,279.4c0,0.57-0.46,1.03-1.03,1.03s-1.03-0.46-1.03-1.03,0.46-1.03,1.03-1.03,1.03,0.46,1.03,1.03"/>
  </g>
  <g transform="matrix(1.25,0,0,1.25,-18.20658,146.50919)">
   <path fill-rule="nonzero" fill="#f08a00" d="m368.8,365.2c0,0.96-0.78,1.74-1.74,1.74s-1.74-0.78-1.74-1.74,0.78-1.74,1.74-1.74,1.74,0.78,1.74,1.74"/>
  </g>
  <g transform="matrix(1.25,0,0,1.25,-18.20658,146.50919)">
   <path fill-rule="nonzero" fill="#E80" d="m368,365.2c0,0.53-0.44,0.97-0.97,0.97s-0.97-0.44-0.97-0.97,0.44-0.97,0.97-0.97,0.97,0.44,0.97,0.97"/>
  </g>
  <g transform="matrix(1.25,0,0,1.25,-18.20658,146.50919)">
   <path fill-rule="nonzero" fill="#f58f00" d="m296,355.8c0,0.97-0.78,1.75-1.75,1.75s-1.75-0.78-1.75-1.75,0.78-1.75,1.75-1.75,1.75,0.78,1.75,1.75"/>
  </g>
  <g transform="matrix(1.25,0,0,1.25,-18.20658,146.50919)">
   <path fill-rule="nonzero" fill="#eb8500" d="m295.8,355.8c0,0.86-0.69,1.55-1.55,1.55s-1.55-0.69-1.55-1.55,0.69-1.55,1.55-1.55,1.55,0.69,1.55,1.55"/>
  </g>
  <g transform="matrix(1.25,0,0,1.25,-18.20658,146.50919)">
   <path fill-rule="nonzero" fill="#f08a00" d="m472.3,247.8c0,1.19-0.97,2.16-2.16,2.16s-2.16-0.97-2.16-2.16,0.97-2.16,2.16-2.16,2.16,0.97,2.16,2.16"/>
  </g>
  <g transform="matrix(1.25,0,0,1.25,-18.20658,146.50919)">
   <path fill-rule="nonzero" fill="#e17b00" d="m471.9,247.8c0,1.01-0.82,1.83-1.83,1.83s-1.83-0.82-1.83-1.83,0.82-1.83,1.83-1.83,1.83,0.82,1.83,1.83"/>
  </g>
  <g transform="matrix(1.25,0,0,1.25,-18.20658,146.50919)">
   <path fill-rule="nonzero" fill="#f28c00" d="m454.3,292.7c0,0.96-0.77,1.73-1.73,1.73s-1.73-0.77-1.73-1.73,0.77-1.73,1.73-1.73,1.73,0.77,1.73,1.73"/>
  </g>
  <g transform="matrix(1.25,0,0,1.25,-18.20658,146.50919)">
   <path fill-rule="nonzero" fill="#E80" d="m453.8,292.7c0,0.72-0.57,1.29-1.29,1.29s-1.29-0.57-1.29-1.29,0.57-1.29,1.29-1.29,1.29,0.57,1.29,1.29"/>
  </g>
  <g transform="matrix(1.25,0,0,1.25,-18.20658,146.50919)">
   <path fill-rule="nonzero" fill="#f08a00" d="m195.7,182.2c0,1-0.81,1.81-1.81,1.81s-1.81-0.81-1.81-1.81,0.81-1.81,1.81-1.81,1.81,0.81,1.81,1.81"/>
  </g>
  <g transform="matrix(1.25,0,0,1.25,-18.20658,146.50919)">
   <path fill-rule="nonzero" fill="#eb8500" d="m195.1,182.2c0,0.68-0.54,1.22-1.22,1.22s-1.22-0.54-1.22-1.22,0.54-1.22,1.22-1.22,1.22,0.54,1.22,1.22"/>
  </g>
  <g transform="matrix(1.25,0,0,1.25,-18.20658,146.50919)">
   <path fill-rule="nonzero" fill="#f58f00" d="m468.5,203c0,0.88-0.71,1.59-1.59,1.59s-1.59-0.71-1.59-1.59,0.71-1.59,1.59-1.59,1.59,0.71,1.59,1.59"/>
  </g>
  <g transform="matrix(1.25,0,0,1.25,-18.20658,146.50919)">
   <path fill-rule="nonzero" fill="#f28c00" d="m467.8,203c0,0.5-0.41,0.91-0.91,0.91s-0.91-0.41-0.91-0.91,0.41-0.91,0.91-0.91,0.91,0.41,0.91,0.91"/>
  </g>
  <g transform="matrix(1.25,0,0,1.25,-18.20658,146.50919)">
   <path fill-rule="nonzero" fill="#f28c00" d="m215.4,106.6c0,0.91-0.74,1.65-1.65,1.65s-1.65-0.74-1.65-1.65,0.74-1.65,1.65-1.65,1.65,0.74,1.65,1.65"/>
  </g>
  <g transform="matrix(1.25,0,0,1.25,-18.20658,146.50919)">
   <path fill-rule="nonzero" fill="#f08a00" d="m214.8,106.6c0,0.55-0.45,1-1,1s-1-0.45-1-1,0.45-1,1-1,1,0.45,1,1"/>
  </g>
  <g fill="#3c3c3c" transform="matrix(1.25,0,0,-1.25,-15.349437,634.18776)">
   <text fill="#3c3c3c" transform="matrix(1,0,0,-1,445.95,124.55)">
    <tspan style="writing-mode:lr-tb;" font-weight="normal" fill-rule="nonzero" font-size="13px" font-variant="normal" y="0" x="0 7.1760001 13.793 20.579 27.235001 35.294998 43.277 47.034 55.015999 63.115002" font-family="Lucida Sans Unicode" fill="#3c3c3c">Psychology</tspan>
   </text>
  </g>
  <g fill="#3c3c3c" transform="matrix(1.25,0,0,-1.25,-15.349437,634.18776)">
   <text fill="#3c3c3c" transform="matrix(1,0,0,-1,348.85,38.4)">
    <tspan style="writing-mode:lr-tb;" font-weight="normal" fill-rule="nonzero" font-size="12px" font-variant="normal" y="0" x="0 6.6240001 12.732 18.996 25.139999 32.580002 36.048 42.672001 47.16 52.068001" font-family="Lucida Sans Unicode" fill="#3c3c3c">Psychiatry</tspan>
   </text>
  </g>
  <g fill="#3c3c3c" transform="matrix(1.25,0,0,-1.25,-97.492294,614.18776)">
   <text fill="#3c3c3c" transform="matrix(1,0,0,-1,324.45,101.25)">
    <tspan style="writing-mode:lr-tb;" font-weight="normal" fill-rule="nonzero" font-size="10px" font-variant="normal" y="0" x="0 7.3400002 12.91 18.43 21.32 25.059999 31.26 36.380001 41.900002 45.990002" font-family="Lucida Sans Unicode" fill="#3c3c3c">Healthcare</tspan>
   </text>
  </g>
  <g fill="#3c3c3c" transform="matrix(1.25,0,0,-1.25,-15.349437,634.18776)">
   <text fill="#3c3c3c" transform="matrix(1,0,0,-1,198.05,241.85)">
    <tspan style="writing-mode:lr-tb;" font-weight="normal" fill-rule="nonzero" font-size="9px" font-variant="normal" y="0" x="0 4.9679999 10.494 13.095 15.696 19.062 21.663 26.271 31.239 33.84 36.683998 41.526001 46.133999 48.735001 53.748001 59.327999 63.936001" font-family="Lucida Sans Unicode" fill="#3c3c3c">Political Science</tspan>
   </text>
  </g>
  <g fill="#3c3c3c" transform="matrix(1.25,0,0,-1.25,-128.20658,599.90205)">
   <text fill="#3c3c3c" transform="matrix(1,0,0,-1,74.7,155.7)">
    <tspan style="writing-mode:lr-tb;" font-weight="normal" fill-rule="nonzero" font-size="13px" font-variant="normal" y="0" x="0 7.033 13.689 21.671 29.731001 37.713001 49.841999 53.598999 60.255001" font-family="Lucida Sans Unicode" fill="#3c3c3c">Economics</tspan>
   </text>
  </g>
  <g fill="#3c3c3c" transform="matrix(1.25,0,0,-1.25,-98.20658,613.47347)">
   <text fill="#3c3c3c" transform="matrix(1,0,0,-1,240.2,298.6)">
    <tspan style="writing-mode:lr-tb;" font-weight="normal" fill-rule="nonzero" font-size="9px" font-variant="normal" y="0" x="0 7.7490001 12.717 18.297001 23.264999 28.872 33.884998 42.282001 47.294998 52.875" font-family="Lucida Sans Unicode" fill="#3c3c3c">Management</tspan>
   </text>
  </g>
  <g fill="#3c3c3c" transform="matrix(1.25,0,0,-1.25,-15.349437,634.18776)">
   <text fill="#3c3c3c" transform="matrix(1,0,0,-1,433.7,214.3)">
    <tspan style="writing-mode:lr-tb;" font-weight="normal" fill-rule="nonzero" font-size="9px" font-variant="normal" y="0" x="0 4.869 10.53 16.110001 20.718 25.686001 29.052 31.653 37.179001" font-family="Lucida Sans Unicode" fill="#3c3c3c">Education</tspan>
   </text>
  </g>
  <g fill="#3c3c3c" transform="matrix(1.25,0,0,-1.25,-73.20658,641.33062)">
   <text fill="#3c3c3c" transform="matrix(1,0,0,-1,245.8,181.8)">
    <tspan style="writing-mode:lr-tb;" font-weight="normal" fill-rule="nonzero" font-size="9px" font-variant="normal" y="0" x="0 4.842 10.368 14.976 17.577 23.103001 25.704 31.23 36.837002 41.535 44.379002 47.304001 52.479 57.492001 63.071999 68.040001 72.693001 75.293999 80.82 84.500999 89.469002 92.07" font-family="Lucida Sans Unicode" fill="#3c3c3c">Sociology (Behavioral)</tspan>
   </text>
  </g>
  <g fill="#3c3c3c" transform="matrix(1.25,0,0,-1.25,-15.349437,634.18776)">
   <text fill="#3c3c3c" transform="matrix(1,0,0,-1,165.85,161.9)">
    <tspan style="writing-mode:lr-tb;" font-weight="normal" fill-rule="nonzero" font-size="9px" font-variant="normal" y="0" x="0 6.4980001 11.511 17.037001 22.643999 26.325001 31.292999 36.953999 42.534" font-family="Lucida Sans Unicode" fill="#3c3c3c">Geography</tspan>
   </text>
  </g>
  <g fill="#3c3c3c" transform="matrix(1.25,0,0,-1.25,-15.349437,634.18776)">
   <text fill="#3c3c3c" transform="matrix(1,0,0,-1,74.25,92.95)">
    <tspan style="writing-mode:lr-tb;" font-weight="normal" fill-rule="nonzero" font-size="9px" font-variant="normal" y="0" x="0 4.7969999 9.7650003" font-family="Lucida Sans Unicode" fill="#3c3c3c">Law</tspan>
   </text>
  </g>
  <g fill="#3c3c3c" transform="matrix(1.25,0,0,-1.25,-15.349437,634.18776)">
   <text fill="#3c3c3c" transform="matrix(1,0,0,-1,434.4,77.8)">
    <tspan style="writing-mode:lr-tb;" font-weight="normal" fill-rule="nonzero" font-size="8px" font-variant="normal" y="0" x="0 4.3280001 9.3599997 14.32 18.416 22.832001 25.823999 28.136 33.048 38.007999 42.424 44.736 47.264 52.776001 56.848 60.919998 65.375999 69.447998 73.519997 80.984001 85.440002 90.400002" font-family="Lucida Sans Unicode" fill="#3c3c3c">Educational Assessment</tspan>
   </text>
  </g>
  <g fill="#3c3c3c" transform="matrix(1.25,0,0,-1.25,-15.349437,634.18776)">
   <text fill="#3c3c3c" transform="matrix(1,0,0,-1,476.25,153.65)">
    <tspan style="writing-mode:lr-tb;" font-weight="normal" fill-rule="nonzero" font-size="8px" font-variant="normal" y="0" x="0 4.3280001 9.2320004 14.264 18.719999 21.992001 24.304001 31.768 36.223999 41.183998 44.175999 48.591999 50.903999 53.431999 57.848 61.919998 66.096001 70.192001 75.152 80.064003 82.375999 87.288002 92.272003" font-family="Lucida Sans Unicode" fill="#3c3c3c">Experimental Psychology</tspan>
   </text>
  </g>
  <g fill="#3c3c3c" transform="matrix(1.25,0,0,-1.25,-15.349437,634.18776)">
   <text fill="#3c3c3c" transform="matrix(1,0,0,-1,240.5,331.7)">
    <tspan style="writing-mode:lr-tb;" font-weight="normal" fill-rule="nonzero" font-size="8px" font-variant="normal" y="0" x="0 6.888 11.304 14.576 19.247999 23.704 26.695999 29.007999 33.967999" font-family="Lucida Sans Unicode" fill="#3c3c3c">Marketing</tspan>
   </text>
  </g>
  <g fill="#3c3c3c" transform="matrix(1.25,0,0,-1.25,-15.349437,634.18776)">
   <text fill="#3c3c3c" transform="matrix(1,0,0,-1,408.8,46.8)">
    <tspan style="writing-mode:lr-tb;" font-weight="normal" fill-rule="nonzero" font-size="8px" font-variant="normal" y="0" x="0 4.3039999 9.3360004 13.792 18.247999 22.344 27.304001 29.832001 35.344002 40.304001 45.335999 47.863998 53.736 58.192001 62.608002 65.879997 68.192001 73.152" font-family="Lucida Sans Unicode" fill="#3c3c3c">Speech And Hearing</tspan>
   </text>
  </g>
  <g fill="#3c3c3c" transform="matrix(1.25,0,0,-1.25,-15.349437,634.18776)">
   <text fill="#3c3c3c" transform="matrix(1,0,0,-1,335.4,300.25)">
    <tspan style="writing-mode:lr-tb;" font-weight="normal" fill-rule="nonzero" font-size="8px" font-variant="normal" y="0" x="0 5.8720002 10.832 18.296 22.712 27.672001 32.296001 36.391998 41.304001 48.768002 53.799999 58.759998 61.751999 66.208 69.480003 72.008003 74.311996 79.272003 82.264 86.720001 89.991997 92.928001 97.344002 101.44" font-family="Lucida Sans Unicode" fill="#3c3c3c">Human-computer Interface</tspan>
   </text>
  </g>
  <g fill="#3c3c3c" transform="matrix(1.25,0,0,-1.25,-15.349437,634.18776)">
   <text fill="#3c3c3c" transform="matrix(1,0,0,-1,338.9,1.15)">
    <tspan style="writing-mode:lr-tb;" font-weight="normal" fill-rule="nonzero" font-size="8px" font-variant="normal" y="0" x="0 5.9920001 8.3039999 12.376 16.792 21.823999 24.136 26.448 28.76 31.752001 34.063999 38.52" font-family="Lucida Sans Unicode" fill="#3c3c3c">Disabilities</tspan>
   </text>
  </g>
  <g fill="#3c3c3c" transform="matrix(1.25,0,0,-1.25,-16.864666,631.66238)">
   <text fill="#3c3c3c" transform="matrix(1,0,0,-1,221.9,249.25)">
    <tspan style="writing-mode:lr-tb;" font-weight="normal" fill-rule="nonzero" font-size="8px" font-variant="normal" y="0" x="0 4.3280001 8.7440004 12.816 15.808 18.336 23.848 27.92 30.232 34.647999 39.608002 42.136002 46.439999 49.431999 54.391998 59.424 61.736 66.192001" font-family="Lucida Sans Unicode" fill="#3c3c3c">East Asian Studies</tspan>
   </text>
  </g>
  <g fill="#3c3c3c" transform="matrix(1.25,0,0,-1.25,-77.492294,634.90205)">
   <text fill="#3c3c3c" transform="matrix(1,0,0,-1,284.95,66.9)">
    <tspan style="writing-mode:lr-tb;" font-weight="normal" fill-rule="nonzero" font-size="8px" font-variant="normal" y="0" x="0 4.3039999 9.2159996 13.312 15.624 20.040001 22.351999 24.879999 31.719999 36.632 39.903999" font-family="Lucida Sans Unicode" fill="#3c3c3c">Social Work</tspan>
   </text>
  </g>
  <g fill="#3c3c3c" transform="matrix(1.25,0,0,-1.25,-15.349437,634.18776)">
   <text fill="#3c3c3c" transform="matrix(1,0,0,-1,286.6,230.5)">
    <tspan style="writing-mode:lr-tb;" font-weight="normal" fill-rule="nonzero" font-size="8px" font-variant="normal" y="0" x="0 5.5279999 10.44 17.903999 25.368 30.327999 35.287998 37.599998 41.695999 46.112 49.104 51.416 56.327999" font-family="Lucida Sans Unicode" fill="#3c3c3c">Communication</tspan>
   </text>
  </g>
  <g fill="#3c3c3c" transform="matrix(1.25,0,0,-1.25,-15.349437,634.18776)">
   <text fill="#3c3c3c" transform="matrix(1,0,0,-1,451.3,193.65)">
    <tspan style="writing-mode:lr-tb;" font-weight="normal" fill-rule="nonzero" font-size="8px" font-variant="normal" y="0" x="0 4.3280001 9.3599997 14.32 18.416 22.832001 25.823999 28.136 33.048 38.007999 42.424 44.736 47.264 51.68 55.751999 59.928001 64.024002 68.984001 73.896004 76.208 81.120003 86.103996" font-family="Lucida Sans Unicode" fill="#3c3c3c">Educational Psychology</tspan>
   </text>
  </g>
  <g fill="#3c3c3c" transform="matrix(1.25,0,0,-1.25,-15.349437,634.18776)">
   <text fill="#3c3c3c" transform="matrix(1,0,0,-1,196.85,216.65)">
    <tspan style="writing-mode:lr-tb;" font-weight="normal" fill-rule="nonzero" font-size="8px" font-variant="normal" y="0" x="0 5.5279999 10.488 12.8 15.792 20.752001 24.024 28.440001 30.752001 33.279999 38.792 43.751999 46.743999 51.703999 54.976002 59.888 64.919998 69.832001 72.143997 77.056 82.040001" font-family="Lucida Sans Unicode" fill="#3c3c3c">Cultural Anthropology</tspan>
   </text>
  </g>
  <g fill="#3c3c3c" transform="matrix(1.25,0,0,-1.25,-15.349437,634.18776)">
   <text fill="#3c3c3c" transform="matrix(1,0,0,-1,30.4,212.9)">
    <tspan style="writing-mode:lr-tb;" font-weight="normal" fill-rule="nonzero" font-size="8px" font-variant="normal" y="0" x="0 4.3280001 8.4239998 13.336 18.296 23.208 30.672001 32.984001 37.080002 39.608002 45.48 47.792 51.863998 54.855999 59.768002 63.040001" font-family="Lucida Sans Unicode" fill="#3c3c3c">Economic History</tspan>
   </text>
  </g>
  <g fill="#3c3c3c" transform="matrix(1.25,0,0,-1.25,-15.349437,634.18776)">
   <text fill="#3c3c3c" transform="matrix(1,0,0,-1,295.9,196.7)">
    <tspan style="writing-mode:lr-tb;" font-weight="normal" fill-rule="nonzero" font-size="8px" font-variant="normal" y="0" x="0 4.4159999 9.3760004 13.552 17.624001 19.936001 24.032 28.448 30.76 33.287998 38.799999 43.759998 46.751999 51.712002 54.984001 59.896 64.928001 69.839996 72.152 77.064003 82.047997" font-family="Lucida Sans Unicode" fill="#3c3c3c">Physical Anthropology</tspan>
   </text>
  </g>
  <g fill="#3c3c3c" transform="matrix(1.25,0,0,-1.25,-15.349437,634.18776)">
   <text fill="#3c3c3c" transform="matrix(1,0,0,-1,17.1,145.45)">
    <tspan style="writing-mode:lr-tb;" font-weight="normal" fill-rule="nonzero" font-size="8px" font-variant="normal" y="0" x="0 5.0560002 8.3280001 12.744 17.704 21.775999 26.808001 31.719999 34.992001 37.984001 42.400002 45.391998 47.703999 52.616001" font-family="Lucida Sans Unicode" fill="#3c3c3c">Transportation</tspan>
   </text>
  </g>
  <g fill="#3c3c3c" transform="matrix(1.25,0,0,-1.25,-15.349437,634.18776)">
   <text fill="#3c3c3c" transform="matrix(1,0,0,-1,452.4,167)">
    <tspan style="writing-mode:lr-tb;" font-weight="normal" fill-rule="nonzero" font-size="8px" font-variant="normal" y="0" x="0 5.5120001 10.544 15.576 17.888 20.200001 24.656 29.688 32.216 36.48 38.792 43.751999 48.736 53.695999 56.007999 60.080002 63.071999 65.384003 69.480003" font-family="Lucida Sans Unicode" fill="#3c3c3c">Applied Linguistics</tspan>
   </text>
  </g>
  <g fill="#3c3c3c" transform="matrix(1.25,0,0,-1.25,-15.349437,634.18776)">
   <text fill="#3c3c3c" transform="matrix(1,0,0,-1,211.25,145.7)">
    <tspan style="writing-mode:lr-tb;" font-weight="normal" fill-rule="nonzero" font-size="8px" font-variant="normal" y="0" x="0 4.3039999 9.2159996 13.312 15.624 20.535999 22.848 27.76 32.743999 36.919998 39.448002 42.048 44.352001 49.312 53.383999 56.375999 58.688 61.68 66.639999 69.632004 71.944 76.856003 81.816002 86.232002 88.543999" font-family="Lucida Sans Unicode" fill="#3c3c3c">Sociology (Institutional)</tspan>
   </text>
  </g>
  <g fill="#3c3c3c" transform="matrix(1.25,0,0,-1.25,-16.864666,633.17761)">
   <text fill="#3c3c3c" transform="matrix(1,0,0,-1,222.6,263.6)">
    <tspan style="writing-mode:lr-tb;" font-weight="normal" fill-rule="nonzero" font-size="8px" font-variant="normal" y="0" x="0 6.888 9.1999998 14.232 19.264 21.576 26.032 28.559999 32.888 37.304001 41.375999 44.368 48.824001 52.096001 57.056 59.584 63.888 66.879997 71.839996 76.872002 79.183998 83.639999" font-family="Lucida Sans Unicode" fill="#3c3c3c">Middle Eastern Studies</tspan>
   </text>
  </g>
  <g fill="#3c3c3c" transform="matrix(1.25,0,0,-1.25,-86.778009,634.18776)">
   <text fill="#3c3c3c" transform="matrix(1,0,0,-1,270.9,88.8)">
    <tspan style="writing-mode:lr-tb;" font-weight="normal" fill-rule="nonzero" font-size="8px" font-variant="normal" y="0" x="0 6.888 11.344 16.375999 18.688 22.784 27.200001 29.511999 32.040001 36.368 39.360001 44.32 46.632 50.728001" font-family="Lucida Sans Unicode" fill="#3c3c3c">Medical Ethics</tspan>
   </text>
  </g>
  <g fill="#3c3c3c" transform="matrix(1.25,0,0,-1.25,-15.349437,634.18776)">
   <text fill="#3c3c3c" transform="matrix(1,0,0,-1,471.2,101.25)">
    <tspan style="writing-mode:lr-tb;" font-weight="normal" fill-rule="nonzero" font-size="8px" font-variant="normal" y="0" x="0 4.3039999 9.3360004 14.248 17.52 20.511999 23.040001 27.455999 31.528 35.703999 39.799999 44.759998 49.672001 51.984001 56.896 61.880001" font-family="Lucida Sans Unicode" fill="#3c3c3c">Sport Psychology</tspan>
   </text>
  </g>
  <g fill="#3c3c3c" transform="matrix(1.25,0,0,-1.25,-15.349437,634.18776)">
   <text fill="#3c3c3c" transform="matrix(1,0,0,-1,368.2,15.4)">
    <tspan style="writing-mode:lr-tb;" font-weight="normal" fill-rule="nonzero" font-size="8px" font-variant="normal" y="0" x="0 5.776 10.736 13.048 18.08 22.496 27.455999 31.552 36.007999 38.535999 44.063999 48.976002 53.936001 58.896 62.967999 67.424004 69.736 72.047997 77.008003" font-family="Lucida Sans Unicode" fill="#3c3c3c">Guidance Counseling</tspan>
   </text>
  </g>
  <g fill="#3c3c3c" transform="matrix(1.25,0,0,-1.25,-86.778009,634.90205)">
   <text fill="#3c3c3c" transform="matrix(1,0,0,-1,295.4,24.75)">
    <tspan style="writing-mode:lr-tb;" font-weight="normal" fill-rule="nonzero" font-size="8px" font-variant="normal" y="0" x="0 4.4159999 8.4879999 12.664 16.76 21.719999 26.632 31.048 36.007999 40.424 42.736 46.911999 50.984001 53.296001" font-family="Lucida Sans Unicode" fill="#3c3c3c">Psychoanalysis</tspan>
   </text>
  </g>
  <g fill="#3c3c3c" transform="matrix(1.25,0,0,-1.25,-13.920866,627.0449)">
   <text fill="#3c3c3c" transform="matrix(1,0,0,-1,471.5,132.6)">
    <tspan style="writing-mode:lr-tb;" font-weight="normal" fill-rule="nonzero" font-size="8px" font-variant="normal" y="0" x="0 4.4159999 9.3760004 11.688 14 18.912001 22.983999 27.896 32.928001 37.888 42.063999 44.591999 49.504002 52.439999 54.967999 59.271999 63.368 65.68 70.136002 75.096001 79.192001" font-family="Lucida Sans Unicode" fill="#3c3c3c">Philosophy of Science</tspan>
   </text>
  </g>
  <g fill="#3c3c3c" transform="matrix(1.25,0,0,-1.25,-15.349437,634.18776)">
   <text fill="#3c3c3c" transform="matrix(1,0,0,-1,453.7,87.85)">
    <tspan style="writing-mode:lr-tb;" font-weight="normal" fill-rule="nonzero" font-size="8px" font-variant="normal" y="0" x="0 4.3280001 7.5999999 12.584 17.496 22.455999 27.368 34.832001 37.144001 41.240002" font-family="Lucida Sans Unicode" fill="#3c3c3c">Ergonomics</tspan>
   </text>
  </g>
  <g fill="#3c3c3c" transform="matrix(1.25,0,0,-1.25,-16.864666,629.137)">
   <text fill="#3c3c3c" transform="matrix(1,0,0,-1,195.05,198.3)">
    <tspan style="writing-mode:lr-tb;" font-weight="normal" fill-rule="nonzero" font-size="8px" font-variant="normal" y="0" x="0 5.8720002 8.184 12.256 15.248 20.16 23.431999" font-family="Lucida Sans Unicode" fill="#3c3c3c">History</tspan>
   </text>
  </g>
  <g fill="#3c3c3c" transform="matrix(1.25,0,0,-1.25,-15.349437,634.18776)">
   <text fill="#3c3c3c" transform="matrix(1,0,0,-1,467.95,177.55)">
    <tspan style="writing-mode:lr-tb;" font-weight="normal" fill-rule="nonzero" font-size="8px" font-variant="normal" y="0" x="0 4.2639999 8.7200003 11.032 15.104 20.063999 23.336 27.792 30.32 34.624001 37.616001 42.576 47.608002 49.919998 54.375999" font-family="Lucida Sans Unicode" fill="#3c3c3c">Leisure Studies</tspan>
   </text>
  </g>
  <g fill="#3c3c3c" transform="matrix(1.25,0,0,-1.25,-15.349437,630.65223)">
   <text fill="#3c3c3c" transform="matrix(1,0,0,-1,214.85,273.95)">
    <tspan style="writing-mode:lr-tb;" font-weight="normal" fill-rule="nonzero" font-size="8px" font-variant="normal" y="0" x="0 4.4159999 9.3760004 14.408 16.719999 19.032 23.128 25.656 31.167999 34.104 37.040001 41.456001 43.768002 47.040001" font-family="Lucida Sans Unicode" fill="#3c3c3c">Public Affairs</tspan>
   </text>
  </g>
 </g>
</svg>
