<svg xmlns="http://www.w3.org/2000/svg" viewBox="0 0 496.44494 220.80647" height="235.527" width="529.541"><defs><clipPath id="a"><path d="M404.42 194.505c-1.394 4.232-1.206 11.903 1.377 17.104 4.262 7.46 8.19 15.878 15.693 20.93 5.98 2.29 12.927 1.382 18.99-.697 8.994-2.25 18.288-1.5 27.51-1.624 7.606-.006 11.035 6.448 10 13.156.637 6.523.098 14.743-8.57 13.638-8.596 1.7-17.927.945-25.714 5.348-7.65 1.398-15.093 7.707-16.063 15.36-2.12 10.446-.515 21.403-1.218 32.05-5.258 6.88-14.858 8.795-21.29 14.02-9.653 4.266-1.218 15.31 6.658 14.285 6.387 2.466 8.754 11.243 13.34 16.428 4.49 4.46 9.312 8.627 14.287 10 4.653 1.054 9.953.645 15 .714 7.66-4.737 10.41-14.338 17.476-20.027 6.364-4.315 13.787-8.05 21.326-8.545 4.734.315 9.97-.95 14.072 1.396 3.98 2.156 7.426 5.886 10.968 9.59 5.475 4.536 9.61 10.917 17.586 10.443 7.443.358 10.2 3.05 17.696 2.857 5.353.624 9.92-.75 14.447-3.572 5.208-3.617 10.288-9.328 9.287-16.175-.242-5.978 1.124-12.43-2.857-17.396-1.75-5.403-6.802-15.183-6.43-17.856-3.653-6.05-.806-12.224 5.318-14.21.71-1.696 9.956-7.05 9.683-11.505 6.403-6.17 7.82-7.373 14.287-10 1.626-3.805 2.56-10.12 0-14.286-1.992-6.142-7.194-9.14-6.43-15.715-.927-5.44 4-8.82 5-12.858.027-4.77-.37-10.522 2.168-13.562 1.318-3.723 2.554-7.523 2.12-11.99.05-4.635-.926-6.524-3.572-8.02-2.553-4.402-10.65-2.928-14.286-6.428-2.297-6.426-9.67-6.746-15.714-7.857-4.3-1.61-11.995-4.66-15.715.714-5.754 1.985-11.154 8.613-18.473 11.248-6.885 3.163-14.19 2.758-21.527 3.75-10.006-.175-20.176.518-30-.713-6.82-5.2-8.33-6.15-15.497-11.082-3.07-2.9-13.357-7-16.644-3.918-2.288 2.62-4.07 5.362-7.265 6.35-2.17 3.57-11.897 2.91-17.25 3.65-4.065.23-9.225-.595-12.27.748-.9 1.18-6.106.02-7.5 4.252z" fill="none" fill-rule="evenodd" stroke="#000"/></clipPath><clipPath id="c"><path d="M404.42 194.505c-1.394 4.232-1.206 11.903 1.377 17.104 4.262 7.46 8.19 15.878 15.693 20.93 5.98 2.29 12.927 1.382 18.99-.697 8.994-2.25 18.288-1.5 27.51-1.624 7.606-.006 11.035 6.448 10 13.156.637 6.523.098 14.743-8.57 13.638-8.596 1.7-17.927.945-25.714 5.348-7.65 1.398-15.093 7.707-16.063 15.36-2.12 10.446-.515 21.403-1.218 32.05-5.258 6.88-14.858 8.795-21.29 14.02-9.653 4.266-1.218 15.31 6.658 14.285 6.387 2.466 8.754 11.243 13.34 16.428 4.49 4.46 9.312 8.627 14.287 10 4.653 1.054 9.953.645 15 .714 7.66-4.737 10.41-14.338 17.476-20.027 6.364-4.315 13.787-8.05 21.326-8.545 4.734.315 9.97-.95 14.072 1.396 3.98 2.156 7.426 5.886 10.968 9.59 5.475 4.536 9.61 10.917 17.586 10.443 7.443.358 10.2 3.05 17.696 2.857 5.353.624 9.92-.75 14.447-3.572 5.208-3.617 10.288-9.328 9.287-16.175-.242-5.978 1.124-12.43-2.857-17.396-1.75-5.403-6.802-15.183-6.43-17.856-3.653-6.05-.806-12.224 5.318-14.21.71-1.696 9.956-7.05 9.683-11.505 6.403-6.17 7.82-7.373 14.287-10 1.626-3.805 2.56-10.12 0-14.286-1.992-6.142-7.194-9.14-6.43-15.715-.927-5.44 4-8.82 5-12.858.027-4.77-.37-10.522 2.168-13.562 1.318-3.723 2.554-7.523 2.12-11.99.05-4.635-.926-6.524-3.572-8.02-2.553-4.402-10.65-2.928-14.286-6.428-2.297-6.426-9.67-6.746-15.714-7.857-4.3-1.61-11.995-4.66-15.715.714-5.754 1.985-11.154 8.613-18.473 11.248-6.885 3.163-14.19 2.758-21.527 3.75-10.006-.175-20.176.518-30-.713-6.82-5.2-8.33-6.15-15.497-11.082-3.07-2.9-13.357-7-16.644-3.918-2.288 2.62-4.07 5.362-7.265 6.35-2.17 3.57-11.897 2.91-17.25 3.65-4.065.23-9.225-.595-12.27.748-.9 1.18-6.106.02-7.5 4.252z" fill="none" fill-rule="evenodd" stroke="#000"/></clipPath><clipPath id="e"><path d="M404.42 194.505c-1.394 4.232-1.206 11.903 1.377 17.104 4.262 7.46 8.19 15.878 15.693 20.93 5.98 2.29 12.927 1.382 18.99-.697 8.994-2.25 18.288-1.5 27.51-1.624 7.606-.006 11.035 6.448 10 13.156.637 6.523.098 14.743-8.57 13.638-8.596 1.7-17.927.945-25.714 5.348-7.65 1.398-15.093 7.707-16.063 15.36-2.12 10.446-.515 21.403-1.218 32.05-5.258 6.88-14.858 8.795-21.29 14.02-9.653 4.266-1.218 15.31 6.658 14.285 6.387 2.466 8.754 11.243 13.34 16.428 4.49 4.46 9.312 8.627 14.287 10 4.653 1.054 9.953.645 15 .714 7.66-4.737 10.41-14.338 17.476-20.027 6.364-4.315 13.787-8.05 21.326-8.545 4.734.315 9.97-.95 14.072 1.396 3.98 2.156 7.426 5.886 10.968 9.59 5.475 4.536 9.61 10.917 17.586 10.443 7.443.358 10.2 3.05 17.696 2.857 5.353.624 9.92-.75 14.447-3.572 5.208-3.617 10.288-9.328 9.287-16.175-.242-5.978 1.124-12.43-2.857-17.396-1.75-5.403-6.802-15.183-6.43-17.856-3.653-6.05-.806-12.224 5.318-14.21.71-1.696 9.956-7.05 9.683-11.505 6.403-6.17 7.82-7.373 14.287-10 1.626-3.805 2.56-10.12 0-14.286-1.992-6.142-7.194-9.14-6.43-15.715-.927-5.44 4-8.82 5-12.858.027-4.77-.37-10.522 2.168-13.562 1.318-3.723 2.554-7.523 2.12-11.99.05-4.635-.926-6.524-3.572-8.02-2.553-4.402-10.65-2.928-14.286-6.428-2.297-6.426-9.67-6.746-15.714-7.857-4.3-1.61-11.995-4.66-15.715.714-5.754 1.985-11.154 8.613-18.473 11.248-6.885 3.163-14.19 2.758-21.527 3.75-10.006-.175-20.176.518-30-.713-6.82-5.2-8.33-6.15-15.497-11.082-3.07-2.9-13.357-7-16.644-3.918-2.288 2.62-4.07 5.362-7.265 6.35-2.17 3.57-11.897 2.91-17.25 3.65-4.065.23-9.225-.595-12.27.748-.9 1.18-6.106.02-7.5 4.252z" fill="none" fill-rule="evenodd" stroke="#000"/></clipPath><clipPath id="g"><path d="M404.42 194.505c-1.394 4.232-1.206 11.903 1.377 17.104 4.262 7.46 8.19 15.878 15.693 20.93 5.98 2.29 12.927 1.382 18.99-.697 8.994-2.25 18.288-1.5 27.51-1.624 7.606-.006 11.035 6.448 10 13.156.637 6.523.098 14.743-8.57 13.638-8.596 1.7-17.927.945-25.714 5.348-7.65 1.398-15.093 7.707-16.063 15.36-2.12 10.446-.515 21.403-1.218 32.05-5.258 6.88-14.858 8.795-21.29 14.02-9.653 4.266-1.218 15.31 6.658 14.285 6.387 2.466 8.754 11.243 13.34 16.428 4.49 4.46 9.312 8.627 14.287 10 4.653 1.054 9.953.645 15 .714 7.66-4.737 10.41-14.338 17.476-20.027 6.364-4.315 13.787-8.05 21.326-8.545 4.734.315 9.97-.95 14.072 1.396 3.98 2.156 7.426 5.886 10.968 9.59 5.475 4.536 9.61 10.917 17.586 10.443 7.443.358 10.2 3.05 17.696 2.857 5.353.624 9.92-.75 14.447-3.572 5.208-3.617 10.288-9.328 9.287-16.175-.242-5.978 1.124-12.43-2.857-17.396-1.75-5.403-6.802-15.183-6.43-17.856-3.653-6.05-.806-12.224 5.318-14.21.71-1.696 9.956-7.05 9.683-11.505 6.403-6.17 7.82-7.373 14.287-10 1.626-3.805 2.56-10.12 0-14.286-1.992-6.142-7.194-9.14-6.43-15.715-.927-5.44 4-8.82 5-12.858.027-4.77-.37-10.522 2.168-13.562 1.318-3.723 2.554-7.523 2.12-11.99.05-4.635-.926-6.524-3.572-8.02-2.553-4.402-10.65-2.928-14.286-6.428-2.297-6.426-9.67-6.746-15.714-7.857-4.3-1.61-11.995-4.66-15.715.714-5.754 1.985-11.154 8.613-18.473 11.248-6.885 3.163-14.19 2.758-21.527 3.75-10.006-.175-20.176.518-30-.713-6.82-5.2-8.33-6.15-15.497-11.082-3.07-2.9-13.357-7-16.644-3.918-2.288 2.62-4.07 5.362-7.265 6.35-2.17 3.57-11.897 2.91-17.25 3.65-4.065.23-9.225-.595-12.27.748-.9 1.18-6.106.02-7.5 4.252z" fill="none" fill-rule="evenodd" stroke="#000"/></clipPath><clipPath id="i"><path d="M404.42 194.505c-1.394 4.232-1.206 11.903 1.377 17.104 4.262 7.46 8.19 15.878 15.693 20.93 5.98 2.29 12.927 1.382 18.99-.697 8.994-2.25 18.288-1.5 27.51-1.624 7.606-.006 11.035 6.448 10 13.156.637 6.523.098 14.743-8.57 13.638-8.596 1.7-17.927.945-25.714 5.348-7.65 1.398-15.093 7.707-16.063 15.36-2.12 10.446-.515 21.403-1.218 32.05-5.258 6.88-14.858 8.795-21.29 14.02-9.653 4.266-1.218 15.31 6.658 14.285 6.387 2.466 8.754 11.243 13.34 16.428 4.49 4.46 9.312 8.627 14.287 10 4.653 1.054 9.953.645 15 .714 7.66-4.737 10.41-14.338 17.476-20.027 6.364-4.315 13.787-8.05 21.326-8.545 4.734.315 9.97-.95 14.072 1.396 3.98 2.156 7.426 5.886 10.968 9.59 5.475 4.536 9.61 10.917 17.586 10.443 7.443.358 10.2 3.05 17.696 2.857 5.353.624 9.92-.75 14.447-3.572 5.208-3.617 10.288-9.328 9.287-16.175-.242-5.978 1.124-12.43-2.857-17.396-1.75-5.403-6.802-15.183-6.43-17.856-3.653-6.05-.806-12.224 5.318-14.21.71-1.696 9.956-7.05 9.683-11.505 6.403-6.17 7.82-7.373 14.287-10 1.626-3.805 2.56-10.12 0-14.286-1.992-6.142-7.194-9.14-6.43-15.715-.927-5.44 4-8.82 5-12.858.027-4.77-.37-10.522 2.168-13.562 1.318-3.723 2.554-7.523 2.12-11.99.05-4.635-.926-6.524-3.572-8.02-2.553-4.402-10.65-2.928-14.286-6.428-2.297-6.426-9.67-6.746-15.714-7.857-4.3-1.61-11.995-4.66-15.715.714-5.754 1.985-11.154 8.613-18.473 11.248-6.885 3.163-14.19 2.758-21.527 3.75-10.006-.175-20.176.518-30-.713-6.82-5.2-8.33-6.15-15.497-11.082-3.07-2.9-13.357-7-16.644-3.918-2.288 2.62-4.07 5.362-7.265 6.35-2.17 3.57-11.897 2.91-17.25 3.65-4.065.23-9.225-.595-12.27.748-.9 1.18-6.106.02-7.5 4.252z" fill="none" fill-rule="evenodd" stroke="#000"/></clipPath><clipPath id="k"><path d="M404.42 194.505c-1.394 4.232-1.206 11.903 1.377 17.104 4.262 7.46 8.19 15.878 15.693 20.93 5.98 2.29 12.927 1.382 18.99-.697 8.994-2.25 18.288-1.5 27.51-1.624 7.606-.006 11.035 6.448 10 13.156.637 6.523.098 14.743-8.57 13.638-8.596 1.7-17.927.945-25.714 5.348-7.65 1.398-15.093 7.707-16.063 15.36-2.12 10.446-.515 21.403-1.218 32.05-5.258 6.88-14.858 8.795-21.29 14.02-9.653 4.266-1.218 15.31 6.658 14.285 6.387 2.466 8.754 11.243 13.34 16.428 4.49 4.46 9.312 8.627 14.287 10 4.653 1.054 9.953.645 15 .714 7.66-4.737 10.41-14.338 17.476-20.027 6.364-4.315 13.787-8.05 21.326-8.545 4.734.315 9.97-.95 14.072 1.396 3.98 2.156 7.426 5.886 10.968 9.59 5.475 4.536 9.61 10.917 17.586 10.443 7.443.358 10.2 3.05 17.696 2.857 5.353.624 9.92-.75 14.447-3.572 5.208-3.617 10.288-9.328 9.287-16.175-.242-5.978 1.124-12.43-2.857-17.396-1.75-5.403-6.802-15.183-6.43-17.856-3.653-6.05-.806-12.224 5.318-14.21.71-1.696 9.956-7.05 9.683-11.505 6.403-6.17 7.82-7.373 14.287-10 1.626-3.805 2.56-10.12 0-14.286-1.992-6.142-7.194-9.14-6.43-15.715-.927-5.44 4-8.82 5-12.858.027-4.77-.37-10.522 2.168-13.562 1.318-3.723 2.554-7.523 2.12-11.99.05-4.635-.926-6.524-3.572-8.02-2.553-4.402-10.65-2.928-14.286-6.428-2.297-6.426-9.67-6.746-15.714-7.857-4.3-1.61-11.995-4.66-15.715.714-5.754 1.985-11.154 8.613-18.473 11.248-6.885 3.163-14.19 2.758-21.527 3.75-10.006-.175-20.176.518-30-.713-6.82-5.2-8.33-6.15-15.497-11.082-3.07-2.9-13.357-7-16.644-3.918-2.288 2.62-4.07 5.362-7.265 6.35-2.17 3.57-11.897 2.91-17.25 3.65-4.065.23-9.225-.595-12.27.748-.9 1.18-6.106.02-7.5 4.252z" fill="none" fill-rule="evenodd" stroke="#000"/></clipPath><clipPath id="m"><path d="M404.42 194.505c-1.394 4.232-1.206 11.903 1.377 17.104 4.262 7.46 8.19 15.878 15.693 20.93 5.98 2.29 12.927 1.382 18.99-.697 8.994-2.25 18.288-1.5 27.51-1.624 7.606-.006 11.035 6.448 10 13.156.637 6.523.098 14.743-8.57 13.638-8.596 1.7-17.927.945-25.714 5.348-7.65 1.398-15.093 7.707-16.063 15.36-2.12 10.446-.515 21.403-1.218 32.05-5.258 6.88-14.858 8.795-21.29 14.02-9.653 4.266-1.218 15.31 6.658 14.285 6.387 2.466 8.754 11.243 13.34 16.428 4.49 4.46 9.312 8.627 14.287 10 4.653 1.054 9.953.645 15 .714 7.66-4.737 10.41-14.338 17.476-20.027 6.364-4.315 13.787-8.05 21.326-8.545 4.734.315 9.97-.95 14.072 1.396 3.98 2.156 7.426 5.886 10.968 9.59 5.475 4.536 9.61 10.917 17.586 10.443 7.443.358 10.2 3.05 17.696 2.857 5.353.624 9.92-.75 14.447-3.572 5.208-3.617 10.288-9.328 9.287-16.175-.242-5.978 1.124-12.43-2.857-17.396-1.75-5.403-6.802-15.183-6.43-17.856-3.653-6.05-.806-12.224 5.318-14.21.71-1.696 9.956-7.05 9.683-11.505 6.403-6.17 7.82-7.373 14.287-10 1.626-3.805 2.56-10.12 0-14.286-1.992-6.142-7.194-9.14-6.43-15.715-.927-5.44 4-8.82 5-12.858.027-4.77-.37-10.522 2.168-13.562 1.318-3.723 2.554-7.523 2.12-11.99.05-4.635-.926-6.524-3.572-8.02-2.553-4.402-10.65-2.928-14.286-6.428-2.297-6.426-9.67-6.746-15.714-7.857-4.3-1.61-11.995-4.66-15.715.714-5.754 1.985-11.154 8.613-18.473 11.248-6.885 3.163-14.19 2.758-21.527 3.75-10.006-.175-20.176.518-30-.713-6.82-5.2-8.33-6.15-15.497-11.082-3.07-2.9-13.357-7-16.644-3.918-2.288 2.62-4.07 5.362-7.265 6.35-2.17 3.57-11.897 2.91-17.25 3.65-4.065.23-9.225-.595-12.27.748-.9 1.18-6.106.02-7.5 4.252z" fill="none" fill-rule="evenodd" stroke="#000"/></clipPath><clipPath id="o"><path d="M404.42 194.505c-1.394 4.232-1.206 11.903 1.377 17.104 4.262 7.46 8.19 15.878 15.693 20.93 5.98 2.29 12.927 1.382 18.99-.697 8.994-2.25 18.288-1.5 27.51-1.624 7.606-.006 11.035 6.448 10 13.156.637 6.523.098 14.743-8.57 13.638-8.596 1.7-17.927.945-25.714 5.348-7.65 1.398-15.093 7.707-16.063 15.36-2.12 10.446-.515 21.403-1.218 32.05-5.258 6.88-14.858 8.795-21.29 14.02-9.653 4.266-1.218 15.31 6.658 14.285 6.387 2.466 8.754 11.243 13.34 16.428 4.49 4.46 9.312 8.627 14.287 10 4.653 1.054 9.953.645 15 .714 7.66-4.737 10.41-14.338 17.476-20.027 6.364-4.315 13.787-8.05 21.326-8.545 4.734.315 9.97-.95 14.072 1.396 3.98 2.156 7.426 5.886 10.968 9.59 5.475 4.536 9.61 10.917 17.586 10.443 7.443.358 10.2 3.05 17.696 2.857 5.353.624 9.92-.75 14.447-3.572 5.208-3.617 10.288-9.328 9.287-16.175-.242-5.978 1.124-12.43-2.857-17.396-1.75-5.403-6.802-15.183-6.43-17.856-3.653-6.05-.806-12.224 5.318-14.21.71-1.696 9.956-7.05 9.683-11.505 6.403-6.17 7.82-7.373 14.287-10 1.626-3.805 2.56-10.12 0-14.286-1.992-6.142-7.194-9.14-6.43-15.715-.927-5.44 4-8.82 5-12.858.027-4.77-.37-10.522 2.168-13.562 1.318-3.723 2.554-7.523 2.12-11.99.05-4.635-.926-6.524-3.572-8.02-2.553-4.402-10.65-2.928-14.286-6.428-2.297-6.426-9.67-6.746-15.714-7.857-4.3-1.61-11.995-4.66-15.715.714-5.754 1.985-11.154 8.613-18.473 11.248-6.885 3.163-14.19 2.758-21.527 3.75-10.006-.175-20.176.518-30-.713-6.82-5.2-8.33-6.15-15.497-11.082-3.07-2.9-13.357-7-16.644-3.918-2.288 2.62-4.07 5.362-7.265 6.35-2.17 3.57-11.897 2.91-17.25 3.65-4.065.23-9.225-.595-12.27.748-.9 1.18-6.106.02-7.5 4.252z" fill="none" fill-rule="evenodd" stroke="#000"/></clipPath><clipPath id="b"><path fill="#f9f9f9" stroke-width=".5" d="M925 277.362h100v100H925z"/></clipPath><clipPath id="d"><path fill="#f9f9f9" stroke-width=".5" d="M925 377.362h100v100H925z"/></clipPath><clipPath id="f"><path fill="#f9f9f9" stroke-width=".5" d="M1025 377.362h100v100h-100z"/></clipPath><clipPath id="h"><path fill="#f9f9f9" stroke-width=".5" d="M1025 277.362h50v50h-50z"/></clipPath><clipPath id="j"><path fill="#f9f9f9" stroke-width=".5" d="M1025 327.362h50v50h-50z"/></clipPath><clipPath id="l"><path fill="#f9f9f9" stroke-width=".5" d="M1075 327.362h50v50h-50z"/></clipPath><clipPath id="n"><path fill="#f9f9f9" stroke-width=".5" d="M1075 271.112h56.25v56.25H1075z"/></clipPath></defs><g transform="translate(-408.91 -146.844)"><text y="321.124" x="351.92" style="line-height:125%;-inkscape-font-specification:'Helvetica, Light';text-align:start" font-weight="300" font-size="17.5" font-family="Helvetica" letter-spacing="0" word-spacing="0"/><text y="287.374" x="387.5" style="line-height:125%" font-weight="400" font-size="40" font-family="sans-serif" letter-spacing="0" word-spacing="0"/><g transform="translate(8.91 1.782)" clip-path="url(#a)"><rect width="200" height="200" x="400" y="177.362" ry="0" opacity=".99" fill="#fff8db"/><path d="M500 177.362v200M400 277.362h200M550 177.362v100M500 227.362h100" fill="none" stroke="#cecab4"/></g><circle r="7.071" cy="208.589" cx="434.628" fill="#e48366" fill-opacity=".999" stroke="#d14c26"/><circle r="7.071" cy="212.716" cx="525.34" fill="#e48366" fill-opacity=".999" stroke="#d14c26"/><circle r="7.071" cy="344.859" cx="453.197" fill="#e48366" fill-opacity=".999" stroke="#d14c26"/><circle r="7.071" cy="320.017" cx="481.771" fill="#8fbfa7" stroke="#579779"/><circle r="7.071" cy="335.573" cx="567.482" fill="#8fbfa7" stroke="#579779"/><circle r="7.071" cy="265.573" cx="573.197" fill="#8fbfa7" stroke="#579779"/><circle r="7.071" cy="263.43" cx="541.054" fill="#b6abe5" stroke="#7763cd"/><circle r="7.071" cy="265.573" cx="595.339" fill="#e695be" stroke="#d3418a"/><circle r="7.071" cy="242.001" cx="581.054" fill="#b6abe5" stroke="#7763cd"/><circle r="7.071" cy="209.144" cx="598.197" fill="#b6abe5" stroke="#7763cd"/><circle r="7.071" cy="192.716" cx="573.768" fill="#e695be" stroke="#d3418a"/><path d="M408.91 166.144h200.01" fill="none" stroke="#323232"/><text y="159.444" x="407.651" style="line-height:125%;-inkscape-font-specification:'Helvetica, Light';text-align:start" font-weight="300" font-size="17.5" font-family="Helvetica" letter-spacing="0" word-spacing="0" fill="#323232"><tspan y="159.444" x="407.651">Binned data</tspan></text><path d="M413.33 196.287c-1.393 4.232-1.205 11.903 1.378 17.104 4.262 7.462 8.19 15.88 15.693 20.933 5.98 2.29 12.928 1.38 18.99-.698 8.995-2.25 18.29-1.5 27.512-1.624 7.605-.004 11.034 6.45 10 13.158.636 6.523.097 14.743-8.57 13.638-8.598 1.7-17.928.945-25.716 5.348-7.65 1.398-15.092 7.707-16.062 15.36-2.12 10.446-.515 21.403-1.218 32.05-5.258 6.88-14.858 8.795-21.29 14.02-9.653 4.266-1.218 15.31 6.658 14.285 6.387 2.465 8.754 11.242 13.34 16.427 4.49 4.46 9.312 8.627 14.287 10 4.654 1.054 9.954.645 15 .714 7.66-4.735 10.412-14.336 17.477-20.025 6.364-4.315 13.787-8.05 21.326-8.545 4.734.315 9.97-.95 14.072 1.396 3.98 2.156 7.426 5.886 10.968 9.59 5.475 4.536 9.61 10.917 17.586 10.443 7.44.357 10.2 3.05 17.695 2.856 5.353.624 9.92-.75 14.447-3.572 5.207-3.617 10.287-9.328 9.286-16.175-.242-5.98 1.124-12.432-2.857-17.397-1.75-5.404-6.8-15.184-6.428-17.857-3.654-6.05-.807-12.224 5.317-14.21.71-1.696 9.955-7.05 9.682-11.505 6.4-6.17 7.82-7.37 14.286-10 1.626-3.803 2.56-10.118 0-14.284-1.992-6.142-7.194-9.14-6.43-15.715-.927-5.437 4-8.817 5-12.856.027-4.77-.37-10.522 2.167-13.56 1.32-3.725 2.555-7.525 2.12-11.993.05-4.633-.925-6.522-3.57-8.017-2.554-4.403-10.652-2.93-14.287-6.43-2.297-6.425-9.67-6.745-15.714-7.856-4.3-1.61-11.995-4.66-15.715.714-5.755 1.987-11.155 8.615-18.474 11.25-6.886 3.163-14.19 2.758-21.527 3.75-10.008-.175-20.177.518-30-.713-6.822-5.2-8.33-6.15-15.498-11.082-3.07-2.9-13.358-7-16.646-3.918-2.287 2.62-4.07 5.362-7.264 6.35-2.17 3.57-11.898 2.91-17.252 3.65-4.064.23-9.224-.595-12.27.748-.9 1.18-6.105.02-7.5 4.252z" fill="none" stroke="#646464"/><text y="202.248" x="418.122" style="line-height:125%;-inkscape-font-specification:'Helvetica, Normal';text-align:start" font-weight="400" font-size="10" font-family="Helvetica" letter-spacing="0" word-spacing="0" fill="#323232"><tspan y="202.248" x="418.122">1</tspan></text><text y="290.295" x="439.962" style="line-height:125%;-inkscape-font-specification:'Helvetica, Normal';text-align:start" font-weight="400" font-size="10" font-family="Helvetica" letter-spacing="0" word-spacing="0" fill="#323232"><tspan y="290.295" x="439.962">2</tspan></text><text y="208.151" x="512.165" style="line-height:125%;-inkscape-font-specification:'Helvetica, Normal';text-align:start" font-weight="400" font-size="10" font-family="Helvetica" letter-spacing="0" word-spacing="0" fill="#323232"><tspan y="208.151" x="512.165">4</tspan></text><text y="190.151" x="562.294" style="line-height:125%;-inkscape-font-specification:'Helvetica, Normal';text-align:start" font-weight="400" font-size="10" font-family="Helvetica" letter-spacing="0" word-spacing="0" fill="#323232"><tspan y="190.151" x="562.294">7</tspan></text><text y="290.661" x="512.418" style="line-height:125%;-inkscape-font-specification:'Helvetica, Normal';text-align:start" font-weight="400" font-size="10" font-family="Helvetica" letter-spacing="0" word-spacing="0" fill="#323232"><tspan y="290.661" x="512.418">3</tspan></text><text y="240.154" x="512.165" style="line-height:125%;-inkscape-font-specification:'Helvetica, Normal';text-align:start" font-weight="400" font-size="10" font-family="Helvetica" letter-spacing="0" word-spacing="0" fill="#323232"><tspan y="240.154" x="512.165">5</tspan></text><text y="239.94" x="562.176" style="line-height:125%;-inkscape-font-specification:'Helvetica, Normal';text-align:start" font-weight="400" font-size="10" font-family="Helvetica" letter-spacing="0" word-spacing="0" fill="#323232"><tspan y="239.94" x="562.176">6</tspan></text><text y="181.124" x="631.25" style="line-height:125%" font-weight="400" font-size="40" font-family="sans-serif" letter-spacing="0" word-spacing="0"/><g fill="none" stroke="#323232" stroke-width="2"><path d="M645.98 278.278h75M714.73 272.028l6.25 6.25-6.25 6.25"/></g><text y="245.423" x="645.385" style="line-height:125%;-inkscape-font-specification:'Helvetica, Light';text-align:start" font-weight="300" font-size="17.5" font-family="Helvetica" letter-spacing="0" word-spacing="0" fill="#323232"><tspan y="245.423" x="645.385">Network</tspan><tspan y="267.298" x="645.385">mapping</tspan></text><g clip-path="url(#b)" transform="matrix(.36738 0 0 .36738 528.078 76.685)"><g transform="translate(525 100)" clip-path="url(#c)"><rect width="200" height="200" x="400" y="177.362" ry="0" opacity=".99" fill="#fff8db"/><path d="M500 177.362v200M400 277.362h200M550 177.362v100M500 227.362h100" fill="none" stroke="#cecab4"/></g><path d="M929.42 294.505c-1.394 4.232-1.206 11.903 1.377 17.104 4.262 7.46 8.19 15.878 15.693 20.93 5.98 2.29 12.927 1.382 18.99-.697 8.994-2.25 18.288-1.5 27.51-1.624 7.606-.006 11.036 6.448 10 13.156.637 6.523.098 14.743-8.57 13.638-8.596 1.7-17.927.945-25.714 5.348-7.65 1.398-15.093 7.707-16.063 15.36-2.12 10.446-.515 21.403-1.218 32.05-5.258 6.88-14.858 8.795-21.29 14.02-9.653 4.266-1.218 15.31 6.658 14.285 6.388 2.466 8.754 11.243 13.34 16.428 4.49 4.46 9.313 8.627 14.287 10 4.653 1.054 9.953.645 15 .714 7.66-4.737 10.41-14.338 17.476-20.027 6.364-4.315 13.787-8.05 21.326-8.545 4.735.315 9.97-.95 14.072 1.396 3.98 2.156 7.426 5.886 10.968 9.59 5.475 4.536 9.61 10.917 17.586 10.443 7.443.358 10.2 3.05 17.696 2.857 5.353.624 9.92-.75 14.447-3.572 5.208-3.617 10.288-9.328 9.287-16.175-.242-5.978 1.124-12.43-2.857-17.396-1.75-5.403-6.802-15.183-6.43-17.856-3.653-6.05-.806-12.224 5.318-14.21.71-1.696 9.956-7.05 9.683-11.505 6.403-6.17 7.82-7.373 14.287-10 1.626-3.805 2.56-10.12 0-14.286-1.992-6.142-7.194-9.14-6.43-15.715-.927-5.44 4-8.82 5-12.858.027-4.77-.37-10.522 2.168-13.562 1.318-3.723 2.554-7.523 2.12-11.99.05-4.635-.926-6.524-3.572-8.02-2.553-4.402-10.65-2.928-14.286-6.428-2.297-6.426-9.67-6.746-15.714-7.857-4.3-1.61-11.995-4.66-15.715.714-5.754 1.985-11.154 8.613-18.473 11.248-6.885 3.163-14.19 2.758-21.527 3.75-10.006-.175-20.176.518-30-.713-6.82-5.2-8.33-6.15-15.497-11.082-3.07-2.9-13.357-7-16.644-3.918-2.288 2.62-4.07 5.362-7.265 6.35-2.17 3.57-11.897 2.91-17.25 3.65-4.065.23-9.225-.595-12.27.748-.9 1.18-6.106.02-7.5 4.252z" fill="none" stroke="#646464" stroke-width="1.361"/><text y="316.797" x="966.874" style="line-height:125%;-inkscape-font-specification:'Helvetica, Normal';text-align:start" font-weight="400" font-size="27.22" font-family="Helvetica" letter-spacing="0" word-spacing="0" fill="#323232"><tspan y="316.797" x="966.874">1</tspan></text><text y="388.513" x="956.051" style="line-height:125%;-inkscape-font-specification:'Helvetica, Normal';text-align:start" font-weight="400" font-size="10" font-family="Helvetica" letter-spacing="0" word-spacing="0" fill="#323232"><tspan y="388.513" x="956.051">2</tspan></text><text y="306.369" x="1028.254" style="line-height:125%;-inkscape-font-specification:'Helvetica, Normal';text-align:start" font-weight="400" font-size="10" font-family="Helvetica" letter-spacing="0" word-spacing="0" fill="#323232"><tspan y="306.369" x="1028.254">4</tspan></text><text y="288.369" x="1078.383" style="line-height:125%;-inkscape-font-specification:'Helvetica, Normal';text-align:start" font-weight="400" font-size="10" font-family="Helvetica" letter-spacing="0" word-spacing="0" fill="#323232"><tspan y="288.369" x="1078.383">7</tspan></text><text y="388.879" x="1028.507" style="line-height:125%;-inkscape-font-specification:'Helvetica, Normal';text-align:start" font-weight="400" font-size="10" font-family="Helvetica" letter-spacing="0" word-spacing="0" fill="#323232"><tspan y="388.879" x="1028.507">3</tspan></text><text y="338.372" x="1028.254" style="line-height:125%;-inkscape-font-specification:'Helvetica, Normal';text-align:start" font-weight="400" font-size="10" font-family="Helvetica" letter-spacing="0" word-spacing="0" fill="#323232"><tspan y="338.372" x="1028.254">5</tspan></text><text y="338.158" x="1078.266" style="line-height:125%;-inkscape-font-specification:'Helvetica, Normal';text-align:start" font-weight="400" font-size="10" font-family="Helvetica" letter-spacing="0" word-spacing="0" fill="#323232"><tspan y="338.158" x="1078.266">6</tspan></text></g><g transform="matrix(.36738 0 0 .36738 528.078 78.962)" clip-path="url(#d)"><g transform="translate(525 100)" clip-path="url(#e)"><rect width="200" height="200" x="400" y="177.362" ry="0" opacity=".99" fill="#fff8db"/><path d="M500 177.362v200M400 277.362h200M550 177.362v100M500 227.362h100" fill="none" stroke="#cecab4"/></g><path d="M929.42 294.505c-1.394 4.232-1.206 11.903 1.377 17.104 4.262 7.46 8.19 15.878 15.693 20.93 5.98 2.29 12.927 1.382 18.99-.697 8.994-2.25 18.288-1.5 27.51-1.624 7.606-.006 11.036 6.448 10 13.156.637 6.523.098 14.743-8.57 13.638-8.596 1.7-17.927.945-25.714 5.348-7.65 1.398-15.093 7.707-16.063 15.36-2.12 10.446-.515 21.403-1.218 32.05-5.258 6.88-14.858 8.795-21.29 14.02-9.653 4.266-1.218 15.31 6.658 14.285 6.388 2.466 8.754 11.243 13.34 16.428 4.49 4.46 9.313 8.627 14.287 10 4.653 1.054 9.953.645 15 .714 7.66-4.737 10.41-14.338 17.476-20.027 6.364-4.315 13.787-8.05 21.326-8.545 4.735.315 9.97-.95 14.072 1.396 3.98 2.156 7.426 5.886 10.968 9.59 5.475 4.536 9.61 10.917 17.586 10.443 7.443.358 10.2 3.05 17.696 2.857 5.353.624 9.92-.75 14.447-3.572 5.208-3.617 10.288-9.328 9.287-16.175-.242-5.978 1.124-12.43-2.857-17.396-1.75-5.403-6.802-15.183-6.43-17.856-3.653-6.05-.806-12.224 5.318-14.21.71-1.696 9.956-7.05 9.683-11.505 6.403-6.17 7.82-7.373 14.287-10 1.626-3.805 2.56-10.12 0-14.286-1.992-6.142-7.194-9.14-6.43-15.715-.927-5.44 4-8.82 5-12.858.027-4.77-.37-10.522 2.168-13.562 1.318-3.723 2.554-7.523 2.12-11.99.05-4.635-.926-6.524-3.572-8.02-2.553-4.402-10.65-2.928-14.286-6.428-2.297-6.426-9.67-6.746-15.714-7.857-4.3-1.61-11.995-4.66-15.715.714-5.754 1.985-11.154 8.613-18.473 11.248-6.885 3.163-14.19 2.758-21.527 3.75-10.006-.175-20.176.518-30-.713-6.82-5.2-8.33-6.15-15.497-11.082-3.07-2.9-13.357-7-16.644-3.918-2.288 2.62-4.07 5.362-7.265 6.35-2.17 3.57-11.897 2.91-17.25 3.65-4.065.23-9.225-.595-12.27.748-.9 1.18-6.106.02-7.5 4.252z" fill="none" stroke="#646464" stroke-width="1.361"/><text y="300.466" x="934.211" style="line-height:125%;-inkscape-font-specification:'Helvetica, Normal';text-align:start" font-weight="400" font-size="10" font-family="Helvetica" letter-spacing="0" word-spacing="0" fill="#323232"/><text y="421.176" x="972.383" style="line-height:125%;-inkscape-font-specification:'Helvetica, Normal';text-align:start" font-weight="400" font-size="27.22" font-family="Helvetica" letter-spacing="0" word-spacing="0" fill="#323232"><tspan y="421.176" x="972.383">2</tspan></text><text y="306.369" x="1028.254" style="line-height:125%;-inkscape-font-specification:'Helvetica, Normal';text-align:start" font-weight="400" font-size="10" font-family="Helvetica" letter-spacing="0" word-spacing="0" fill="#323232"><tspan y="306.369" x="1028.254">4</tspan></text><text y="288.369" x="1078.383" style="line-height:125%;-inkscape-font-specification:'Helvetica, Normal';text-align:start" font-weight="400" font-size="10" font-family="Helvetica" letter-spacing="0" word-spacing="0" fill="#323232"><tspan y="288.369" x="1078.383">7</tspan></text><text y="388.879" x="1028.507" style="line-height:125%;-inkscape-font-specification:'Helvetica, Normal';text-align:start" font-weight="400" font-size="10" font-family="Helvetica" letter-spacing="0" word-spacing="0" fill="#323232"><tspan y="388.879" x="1028.507">3</tspan></text><text y="338.372" x="1028.254" style="line-height:125%;-inkscape-font-specification:'Helvetica, Normal';text-align:start" font-weight="400" font-size="10" font-family="Helvetica" letter-spacing="0" word-spacing="0" fill="#323232"><tspan y="338.372" x="1028.254">5</tspan></text><text y="338.158" x="1078.266" style="line-height:125%;-inkscape-font-specification:'Helvetica, Normal';text-align:start" font-weight="400" font-size="10" font-family="Helvetica" letter-spacing="0" word-spacing="0" fill="#323232"><tspan y="338.158" x="1078.266">6</tspan></text></g><g transform="matrix(.36738 0 0 .36738 491.455 113.708)" clip-path="url(#f)"><g transform="translate(525 100)" clip-path="url(#g)"><rect width="200" height="200" x="400" y="177.362" ry="0" opacity=".99" fill="#fff8db"/><path d="M500 177.362v200M400 277.362h200M550 177.362v100M500 227.362h100" fill="none" stroke="#cecab4"/></g><path d="M929.42 294.505c-1.394 4.232-1.206 11.903 1.377 17.104 4.262 7.46 8.19 15.878 15.693 20.93 5.98 2.29 12.927 1.382 18.99-.697 8.994-2.25 18.288-1.5 27.51-1.624 7.606-.006 11.036 6.448 10 13.156.637 6.523.098 14.743-8.57 13.638-8.596 1.7-17.927.945-25.714 5.348-7.65 1.398-15.093 7.707-16.063 15.36-2.12 10.446-.515 21.403-1.218 32.05-5.258 6.88-14.858 8.795-21.29 14.02-9.653 4.266-1.218 15.31 6.658 14.285 6.388 2.466 8.754 11.243 13.34 16.428 4.49 4.46 9.313 8.627 14.287 10 4.653 1.054 9.953.645 15 .714 7.66-4.737 10.41-14.338 17.476-20.027 6.364-4.315 13.787-8.05 21.326-8.545 4.735.315 9.97-.95 14.072 1.396 3.98 2.156 7.426 5.886 10.968 9.59 5.475 4.536 9.61 10.917 17.586 10.443 7.443.358 10.2 3.05 17.696 2.857 5.353.624 9.92-.75 14.447-3.572 5.208-3.617 10.288-9.328 9.287-16.175-.242-5.978 1.124-12.43-2.857-17.396-1.75-5.403-6.802-15.183-6.43-17.856-3.653-6.05-.806-12.224 5.318-14.21.71-1.696 9.956-7.05 9.683-11.505 6.403-6.17 7.82-7.373 14.287-10 1.626-3.805 2.56-10.12 0-14.286-1.992-6.142-7.194-9.14-6.43-15.715-.927-5.44 4-8.82 5-12.858.027-4.77-.37-10.522 2.168-13.562 1.318-3.723 2.554-7.523 2.12-11.99.05-4.635-.926-6.524-3.572-8.02-2.553-4.402-10.65-2.928-14.286-6.428-2.297-6.426-9.67-6.746-15.714-7.857-4.3-1.61-11.995-4.66-15.715.714-5.754 1.985-11.154 8.613-18.473 11.248-6.885 3.163-14.19 2.758-21.527 3.75-10.006-.175-20.176.518-30-.713-6.82-5.2-8.33-6.15-15.497-11.082-3.07-2.9-13.357-7-16.644-3.918-2.288 2.62-4.07 5.362-7.265 6.35-2.17 3.57-11.897 2.91-17.25 3.65-4.065.23-9.225-.595-12.27.748-.9 1.18-6.106.02-7.5 4.252z" fill="none" stroke="#646464" stroke-width="1.361"/><text y="300.466" x="934.211" style="line-height:125%;-inkscape-font-specification:'Helvetica, Normal';text-align:start" font-weight="400" font-size="10" font-family="Helvetica" letter-spacing="0" word-spacing="0" fill="#323232"><tspan y="300.466" x="934.211">1</tspan></text><text y="388.513" x="956.051" style="line-height:125%;-inkscape-font-specification:'Helvetica, Normal';text-align:start" font-weight="400" font-size="10" font-family="Helvetica" letter-spacing="0" word-spacing="0" fill="#323232"><tspan y="388.513" x="956.051">2</tspan></text><text y="306.369" x="1028.254" style="line-height:125%;-inkscape-font-specification:'Helvetica, Normal';text-align:start" font-weight="400" font-size="10" font-family="Helvetica" letter-spacing="0" word-spacing="0" fill="#323232"><tspan y="306.369" x="1028.254">4</tspan></text><text y="288.369" x="1078.383" style="line-height:125%;-inkscape-font-specification:'Helvetica, Normal';text-align:start" font-weight="400" font-size="10" font-family="Helvetica" letter-spacing="0" word-spacing="0" fill="#323232"><tspan y="288.369" x="1078.383">7</tspan></text><text y="421.543" x="1055.726" style="line-height:125%;-inkscape-font-specification:'Helvetica, Normal';text-align:start" font-weight="400" font-size="27.22" font-family="Helvetica" letter-spacing="0" word-spacing="0" fill="#323232"><tspan y="421.543" x="1055.726">3</tspan></text><text y="338.372" x="1028.254" style="line-height:125%;-inkscape-font-specification:'Helvetica, Normal';text-align:start" font-weight="400" font-size="10" font-family="Helvetica" letter-spacing="0" word-spacing="0" fill="#323232"><tspan y="338.372" x="1028.254">5</tspan></text><text y="338.158" x="1078.266" style="line-height:125%;-inkscape-font-specification:'Helvetica, Normal';text-align:start" font-weight="400" font-size="10" font-family="Helvetica" letter-spacing="0" word-spacing="0" fill="#323232"><tspan y="338.158" x="1078.266">6</tspan></text></g><g transform="matrix(.36738 0 0 .36738 491.455 185.193)" clip-path="url(#h)"><g transform="translate(525 100)" clip-path="url(#i)"><rect width="200" height="200" x="400" y="177.362" ry="0" opacity=".99" fill="#fff8db"/><path d="M500 177.362v200M400 277.362h200M550 177.362v100M500 227.362h100" fill="none" stroke="#cecab4"/></g><path d="M929.42 294.505c-1.394 4.232-1.206 11.903 1.377 17.104 4.262 7.46 8.19 15.878 15.693 20.93 5.98 2.29 12.927 1.382 18.99-.697 8.994-2.25 18.288-1.5 27.51-1.624 7.606-.006 11.036 6.448 10 13.156.637 6.523.098 14.743-8.57 13.638-8.596 1.7-17.927.945-25.714 5.348-7.65 1.398-15.093 7.707-16.063 15.36-2.12 10.446-.515 21.403-1.218 32.05-5.258 6.88-14.858 8.795-21.29 14.02-9.653 4.266-1.218 15.31 6.658 14.285 6.388 2.466 8.754 11.243 13.34 16.428 4.49 4.46 9.313 8.627 14.287 10 4.653 1.054 9.953.645 15 .714 7.66-4.737 10.41-14.338 17.476-20.027 6.364-4.315 13.787-8.05 21.326-8.545 4.735.315 9.97-.95 14.072 1.396 3.98 2.156 7.426 5.886 10.968 9.59 5.475 4.536 9.61 10.917 17.586 10.443 7.443.358 10.2 3.05 17.696 2.857 5.353.624 9.92-.75 14.447-3.572 5.208-3.617 10.288-9.328 9.287-16.175-.242-5.978 1.124-12.43-2.857-17.396-1.75-5.403-6.802-15.183-6.43-17.856-3.653-6.05-.806-12.224 5.318-14.21.71-1.696 9.956-7.05 9.683-11.505 6.403-6.17 7.82-7.373 14.287-10 1.626-3.805 2.56-10.12 0-14.286-1.992-6.142-7.194-9.14-6.43-15.715-.927-5.44 4-8.82 5-12.858.027-4.77-.37-10.522 2.168-13.562 1.318-3.723 2.554-7.523 2.12-11.99.05-4.635-.926-6.524-3.572-8.02-2.553-4.402-10.65-2.928-14.286-6.428-2.297-6.426-9.67-6.746-15.714-7.857-4.3-1.61-11.995-4.66-15.715.714-5.754 1.985-11.154 8.613-18.473 11.248-6.885 3.163-14.19 2.758-21.527 3.75-10.006-.175-20.176.518-30-.713-6.82-5.2-8.33-6.15-15.497-11.082-3.07-2.9-13.357-7-16.644-3.918-2.288 2.62-4.07 5.362-7.265 6.35-2.17 3.57-11.897 2.91-17.25 3.65-4.065.23-9.225-.595-12.27.748-.9 1.18-6.106.02-7.5 4.252z" fill="none" stroke="#646464" stroke-width="1.361"/><text y="300.466" x="934.211" style="line-height:125%;-inkscape-font-specification:'Helvetica, Normal';text-align:start" font-weight="400" font-size="10" font-family="Helvetica" letter-spacing="0" word-spacing="0" fill="#323232"><tspan y="300.466" x="934.211">1</tspan></text><text y="388.513" x="956.051" style="line-height:125%;-inkscape-font-specification:'Helvetica, Normal';text-align:start" font-weight="400" font-size="10" font-family="Helvetica" letter-spacing="0" word-spacing="0" fill="#323232"><tspan y="388.513" x="956.051">2</tspan></text><text y="317.257" x="1039.142" style="line-height:125%;-inkscape-font-specification:'Helvetica, Normal';text-align:start" font-weight="400" font-size="27.22" font-family="Helvetica" letter-spacing="0" word-spacing="0" fill="#323232"><tspan y="317.257" x="1039.142">4</tspan></text><text y="288.369" x="1078.383" style="line-height:125%;-inkscape-font-specification:'Helvetica, Normal';text-align:start" font-weight="400" font-size="10" font-family="Helvetica" letter-spacing="0" word-spacing="0" fill="#323232"><tspan y="288.369" x="1078.383">7</tspan></text><text y="388.879" x="1028.507" style="line-height:125%;-inkscape-font-specification:'Helvetica, Normal';text-align:start" font-weight="400" font-size="10" font-family="Helvetica" letter-spacing="0" word-spacing="0" fill="#323232"><tspan y="388.879" x="1028.507">3</tspan></text><text y="338.372" x="1028.254" style="line-height:125%;-inkscape-font-specification:'Helvetica, Normal';text-align:start" font-weight="400" font-size="10" font-family="Helvetica" letter-spacing="0" word-spacing="0" fill="#323232"><tspan y="338.372" x="1028.254">5</tspan></text><text y="338.158" x="1078.266" style="line-height:125%;-inkscape-font-specification:'Helvetica, Normal';text-align:start" font-weight="400" font-size="10" font-family="Helvetica" letter-spacing="0" word-spacing="0" fill="#323232"><tspan y="338.158" x="1078.266">6</tspan></text></g><g transform="matrix(.36738 0 0 .36738 491.455 187.47)" clip-path="url(#j)"><g transform="translate(525 100)" clip-path="url(#k)"><rect width="200" height="200" x="400" y="177.362" ry="0" opacity=".99" fill="#fff8db"/><path d="M500 177.362v200M400 277.362h200M550 177.362v100M500 227.362h100" fill="none" stroke="#cecab4"/></g><path d="M929.42 294.505c-1.394 4.232-1.206 11.903 1.377 17.104 4.262 7.46 8.19 15.878 15.693 20.93 5.98 2.29 12.927 1.382 18.99-.697 8.994-2.25 18.288-1.5 27.51-1.624 7.606-.006 11.036 6.448 10 13.156.637 6.523.098 14.743-8.57 13.638-8.596 1.7-17.927.945-25.714 5.348-7.65 1.398-15.093 7.707-16.063 15.36-2.12 10.446-.515 21.403-1.218 32.05-5.258 6.88-14.858 8.795-21.29 14.02-9.653 4.266-1.218 15.31 6.658 14.285 6.388 2.466 8.754 11.243 13.34 16.428 4.49 4.46 9.313 8.627 14.287 10 4.653 1.054 9.953.645 15 .714 7.66-4.737 10.41-14.338 17.476-20.027 6.364-4.315 13.787-8.05 21.326-8.545 4.735.315 9.97-.95 14.072 1.396 3.98 2.156 7.426 5.886 10.968 9.59 5.475 4.536 9.61 10.917 17.586 10.443 7.443.358 10.2 3.05 17.696 2.857 5.353.624 9.92-.75 14.447-3.572 5.208-3.617 10.288-9.328 9.287-16.175-.242-5.978 1.124-12.43-2.857-17.396-1.75-5.403-6.802-15.183-6.43-17.856-3.653-6.05-.806-12.224 5.318-14.21.71-1.696 9.956-7.05 9.683-11.505 6.403-6.17 7.82-7.373 14.287-10 1.626-3.805 2.56-10.12 0-14.286-1.992-6.142-7.194-9.14-6.43-15.715-.927-5.44 4-8.82 5-12.858.027-4.77-.37-10.522 2.168-13.562 1.318-3.723 2.554-7.523 2.12-11.99.05-4.635-.926-6.524-3.572-8.02-2.553-4.402-10.65-2.928-14.286-6.428-2.297-6.426-9.67-6.746-15.714-7.857-4.3-1.61-11.995-4.66-15.715.714-5.754 1.985-11.154 8.613-18.473 11.248-6.885 3.163-14.19 2.758-21.527 3.75-10.006-.175-20.176.518-30-.713-6.82-5.2-8.33-6.15-15.497-11.082-3.07-2.9-13.357-7-16.644-3.918-2.288 2.62-4.07 5.362-7.265 6.35-2.17 3.57-11.897 2.91-17.25 3.65-4.065.23-9.225-.595-12.27.748-.9 1.18-6.106.02-7.5 4.252z" fill="none" stroke="#646464" stroke-width="1.361"/><text y="300.466" x="934.211" style="line-height:125%;-inkscape-font-specification:'Helvetica, Normal';text-align:start" font-weight="400" font-size="10" font-family="Helvetica" letter-spacing="0" word-spacing="0" fill="#323232"><tspan y="300.466" x="934.211">1</tspan></text><text y="388.513" x="956.051" style="line-height:125%;-inkscape-font-specification:'Helvetica, Normal';text-align:start" font-weight="400" font-size="10" font-family="Helvetica" letter-spacing="0" word-spacing="0" fill="#323232"><tspan y="388.513" x="956.051">2</tspan></text><text y="306.369" x="1028.254" style="line-height:125%;-inkscape-font-specification:'Helvetica, Normal';text-align:start" font-weight="400" font-size="10" font-family="Helvetica" letter-spacing="0" word-spacing="0" fill="#323232"><tspan y="306.369" x="1028.254">4</tspan></text><text y="288.369" x="1078.383" style="line-height:125%;-inkscape-font-specification:'Helvetica, Normal';text-align:start" font-weight="400" font-size="10" font-family="Helvetica" letter-spacing="0" word-spacing="0" fill="#323232"><tspan y="288.369" x="1078.383">7</tspan></text><text y="388.879" x="1028.507" style="line-height:125%;-inkscape-font-specification:'Helvetica, Normal';text-align:start" font-weight="400" font-size="10" font-family="Helvetica" letter-spacing="0" word-spacing="0" fill="#323232"><tspan y="388.879" x="1028.507">3</tspan></text><text y="338.158" x="1078.266" style="line-height:125%;-inkscape-font-specification:'Helvetica, Normal';text-align:start" font-weight="400" font-size="10" font-family="Helvetica" letter-spacing="0" word-spacing="0" fill="#323232"><tspan y="338.158" x="1078.266">6</tspan></text><text y="360.147" x="1039.142" style="line-height:125%;-inkscape-font-specification:'Helvetica, Normal';text-align:start" font-weight="400" font-size="27.22" font-family="Helvetica" letter-spacing="0" word-spacing="0" fill="#323232"><tspan y="360.147" x="1039.142">5</tspan></text></g><g transform="matrix(.36738 0 0 .36738 473.086 208.116)" clip-path="url(#l)"><g transform="translate(525 100)" clip-path="url(#m)"><rect width="200" height="200" x="400" y="177.362" ry="0" opacity=".99" fill="#fff8db"/><path d="M500 177.362v200M400 277.362h200M550 177.362v100M500 227.362h100" fill="none" stroke="#cecab4"/></g><path d="M929.42 294.505c-1.394 4.232-1.206 11.903 1.377 17.104 4.262 7.46 8.19 15.878 15.693 20.93 5.98 2.29 12.927 1.382 18.99-.697 8.994-2.25 18.288-1.5 27.51-1.624 7.606-.006 11.036 6.448 10 13.156.637 6.523.098 14.743-8.57 13.638-8.596 1.7-17.927.945-25.714 5.348-7.65 1.398-15.093 7.707-16.063 15.36-2.12 10.446-.515 21.403-1.218 32.05-5.258 6.88-14.858 8.795-21.29 14.02-9.653 4.266-1.218 15.31 6.658 14.285 6.388 2.466 8.754 11.243 13.34 16.428 4.49 4.46 9.313 8.627 14.287 10 4.653 1.054 9.953.645 15 .714 7.66-4.737 10.41-14.338 17.476-20.027 6.364-4.315 13.787-8.05 21.326-8.545 4.735.315 9.97-.95 14.072 1.396 3.98 2.156 7.426 5.886 10.968 9.59 5.475 4.536 9.61 10.917 17.586 10.443 7.443.358 10.2 3.05 17.696 2.857 5.353.624 9.92-.75 14.447-3.572 5.208-3.617 10.288-9.328 9.287-16.175-.242-5.978 1.124-12.43-2.857-17.396-1.75-5.403-6.802-15.183-6.43-17.856-3.653-6.05-.806-12.224 5.318-14.21.71-1.696 9.956-7.05 9.683-11.505 6.403-6.17 7.82-7.373 14.287-10 1.626-3.805 2.56-10.12 0-14.286-1.992-6.142-7.194-9.14-6.43-15.715-.927-5.44 4-8.82 5-12.858.027-4.77-.37-10.522 2.168-13.562 1.318-3.723 2.554-7.523 2.12-11.99.05-4.635-.926-6.524-3.572-8.02-2.553-4.402-10.65-2.928-14.286-6.428-2.297-6.426-9.67-6.746-15.714-7.857-4.3-1.61-11.995-4.66-15.715.714-5.754 1.985-11.154 8.613-18.473 11.248-6.885 3.163-14.19 2.758-21.527 3.75-10.006-.175-20.176.518-30-.713-6.82-5.2-8.33-6.15-15.497-11.082-3.07-2.9-13.357-7-16.644-3.918-2.288 2.62-4.07 5.362-7.265 6.35-2.17 3.57-11.897 2.91-17.25 3.65-4.065.23-9.225-.595-12.27.748-.9 1.18-6.106.02-7.5 4.252z" fill="none" stroke="#646464" stroke-width="1.361"/><text y="300.466" x="934.211" style="line-height:125%;-inkscape-font-specification:'Helvetica, Normal';text-align:start" font-weight="400" font-size="10" font-family="Helvetica" letter-spacing="0" word-spacing="0" fill="#323232"><tspan y="300.466" x="934.211">1</tspan></text><text y="388.513" x="956.051" style="line-height:125%;-inkscape-font-specification:'Helvetica, Normal';text-align:start" font-weight="400" font-size="10" font-family="Helvetica" letter-spacing="0" word-spacing="0" fill="#323232"><tspan y="388.513" x="956.051">2</tspan></text><text y="306.369" x="1028.254" style="line-height:125%;-inkscape-font-specification:'Helvetica, Normal';text-align:start" font-weight="400" font-size="10" font-family="Helvetica" letter-spacing="0" word-spacing="0" fill="#323232"><tspan y="306.369" x="1028.254">4</tspan></text><text y="288.369" x="1078.383" style="line-height:125%;-inkscape-font-specification:'Helvetica, Normal';text-align:start" font-weight="400" font-size="10" font-family="Helvetica" letter-spacing="0" word-spacing="0" fill="#323232"><tspan y="288.369" x="1078.383">7</tspan></text><text y="388.879" x="1028.507" style="line-height:125%;-inkscape-font-specification:'Helvetica, Normal';text-align:start" font-weight="400" font-size="10" font-family="Helvetica" letter-spacing="0" word-spacing="0" fill="#323232"><tspan y="388.879" x="1028.507">3</tspan></text><text y="338.372" x="1028.254" style="line-height:125%;-inkscape-font-specification:'Helvetica, Normal';text-align:start" font-weight="400" font-size="10" font-family="Helvetica" letter-spacing="0" word-spacing="0" fill="#323232"><tspan y="338.372" x="1028.254">5</tspan></text><text y="359.811" x="1088.92" style="line-height:125%;-inkscape-font-specification:'Helvetica, Normal';text-align:start" font-weight="400" font-size="27.22" font-family="Helvetica" letter-spacing="0" word-spacing="0" fill="#323232"><tspan y="359.811" x="1088.92">6</tspan></text></g><g transform="matrix(.36738 0 0 .36738 473.086 247.383)" clip-path="url(#n)"><g transform="translate(525 100)" clip-path="url(#o)"><rect width="200" height="200" x="400" y="177.362" ry="0" opacity=".99" fill="#fff8db"/><path d="M500 177.362v200M400 277.362h200M550 177.362v100M500 227.362h100" fill="none" stroke="#cecab4"/></g><path d="M929.42 294.505c-1.394 4.232-1.206 11.903 1.377 17.104 4.262 7.46 8.19 15.878 15.693 20.93 5.98 2.29 12.927 1.382 18.99-.697 8.994-2.25 18.288-1.5 27.51-1.624 7.606-.006 11.036 6.448 10 13.156.637 6.523.098 14.743-8.57 13.638-8.596 1.7-17.927.945-25.714 5.348-7.65 1.398-15.093 7.707-16.063 15.36-2.12 10.446-.515 21.403-1.218 32.05-5.258 6.88-14.858 8.795-21.29 14.02-9.653 4.266-1.218 15.31 6.658 14.285 6.388 2.466 8.754 11.243 13.34 16.428 4.49 4.46 9.313 8.627 14.287 10 4.653 1.054 9.953.645 15 .714 7.66-4.737 10.41-14.338 17.476-20.027 6.364-4.315 13.787-8.05 21.326-8.545 4.735.315 9.97-.95 14.072 1.396 3.98 2.156 7.426 5.886 10.968 9.59 5.475 4.536 9.61 10.917 17.586 10.443 7.443.358 10.2 3.05 17.696 2.857 5.353.624 9.92-.75 14.447-3.572 5.208-3.617 10.288-9.328 9.287-16.175-.242-5.978 1.124-12.43-2.857-17.396-1.75-5.403-6.802-15.183-6.43-17.856-3.653-6.05-.806-12.224 5.318-14.21.71-1.696 9.956-7.05 9.683-11.505 6.403-6.17 7.82-7.373 14.287-10 1.626-3.805 2.56-10.12 0-14.286-1.992-6.142-7.194-9.14-6.43-15.715-.927-5.44 4-8.82 5-12.858.027-4.77-.37-10.522 2.168-13.562 1.318-3.723 2.554-7.523 2.12-11.99.05-4.635-.926-6.524-3.572-8.02-2.553-4.402-10.65-2.928-14.286-6.428-2.297-6.426-9.67-6.746-15.714-7.857-4.3-1.61-11.995-4.66-15.715.714-5.754 1.985-11.154 8.613-18.473 11.248-6.885 3.163-14.19 2.758-21.527 3.75-10.006-.175-20.176.518-30-.713-6.82-5.2-8.33-6.15-15.497-11.082-3.07-2.9-13.357-7-16.644-3.918-2.288 2.62-4.07 5.362-7.265 6.35-2.17 3.57-11.897 2.91-17.25 3.65-4.065.23-9.225-.595-12.27.748-.9 1.18-6.106.02-7.5 4.252z" fill="none" stroke="#646464" stroke-width="1.361"/><text y="300.466" x="934.211" style="line-height:125%;-inkscape-font-specification:'Helvetica, Normal';text-align:start" font-weight="400" font-size="10" font-family="Helvetica" letter-spacing="0" word-spacing="0" fill="#323232"><tspan y="300.466" x="934.211">1</tspan></text><text y="388.513" x="956.051" style="line-height:125%;-inkscape-font-specification:'Helvetica, Normal';text-align:start" font-weight="400" font-size="10" font-family="Helvetica" letter-spacing="0" word-spacing="0" fill="#323232"><tspan y="388.513" x="956.051">2</tspan></text><text y="306.369" x="1028.254" style="line-height:125%;-inkscape-font-specification:'Helvetica, Normal';text-align:start" font-weight="400" font-size="10" font-family="Helvetica" letter-spacing="0" word-spacing="0" fill="#323232"><tspan y="306.369" x="1028.254">4</tspan></text><text y="315.3" x="1088.24" style="line-height:125%;-inkscape-font-specification:'Helvetica, Normal';text-align:start" font-weight="400" font-size="27.22" font-family="Helvetica" letter-spacing="0" word-spacing="0" fill="#323232"><tspan y="315.3" x="1088.24">7</tspan></text><text y="388.879" x="1028.507" style="line-height:125%;-inkscape-font-specification:'Helvetica, Normal';text-align:start" font-weight="400" font-size="10" font-family="Helvetica" letter-spacing="0" word-spacing="0" fill="#323232"><tspan y="388.879" x="1028.507">3</tspan></text><text y="338.372" x="1028.254" style="line-height:125%;-inkscape-font-specification:'Helvetica, Normal';text-align:start" font-weight="400" font-size="10" font-family="Helvetica" letter-spacing="0" word-spacing="0" fill="#323232"><tspan y="338.372" x="1028.254">5</tspan></text><text y="338.158" x="1078.266" style="line-height:125%;-inkscape-font-specification:'Helvetica, Normal';text-align:start" font-weight="400" font-size="10" font-family="Helvetica" letter-spacing="0" word-spacing="0" fill="#323232"><tspan y="338.158" x="1078.266">6</tspan></text></g><path d="M754.583 166.268h150.773" fill="none" stroke="#323232" stroke-width=".984"/><text style="line-height:125%;-inkscape-font-specification:'Helvetica, Light';text-align:start" x="493.76" y="420.161" font-weight="300" font-size="17.5" font-family="Helvetica" letter-spacing="0" word-spacing="0" fill="#323232" transform="translate(259.406 -260.594)"><tspan x="493.76" y="420.161">Bipartite network</tspan></text><path d="M774.38 223.018l87.5 6.25M774.38 223.018l87.5-25M861.88 298.018l-87.5-75" fill="none" stroke="#e17a5c"/><path d="M774.38 260.518l87.5-31.25M774.38 260.518l87.5 6.25M861.88 335.518l-87.5-75" fill="#8fbfa7" fill-rule="evenodd" stroke="#579779"/><path d="M861.88 316.768l-87.5-18.75M861.88 335.518l-87.5-37.5M861.88 354.268l-87.5-56.25" fill="none" stroke="#b6abe5"/><path d="M861.88 335.518h-87.5M861.88 354.268l-87.5-18.75" fill="none" stroke="#e695be"/><text style="line-height:125%;-inkscape-font-specification:'Helvetica, Light';text-align:start" x="351.92" y="321.124" font-weight="300" font-size="17.5" font-family="Helvetica" letter-spacing="0" word-spacing="0" transform="translate(1407.567 -300.904)"/><text style="line-height:125%" x="387.5" y="287.374" font-weight="400" font-size="40" font-family="sans-serif" letter-spacing="0" word-spacing="0" transform="translate(1407.567 -300.904)"/><text style="line-height:125%" x="631.25" y="181.124" font-weight="400" font-size="40" font-family="sans-serif" letter-spacing="0" word-spacing="0" transform="translate(1407.567 -300.904)"/><g><g transform="translate(-268.39 318.974)"><circle cx="1031.623" cy="-57.612" r="7.071" fill="#8fbfa7" stroke="#579779"/><circle cx="1031.623" cy="16.227" r="7.071" fill="#e695be" stroke="#d3418a"/><circle cx="1031.623" cy="-20.693" r="7.071" fill="#b6abe5" stroke="#7763cd"/><circle cx="1031.623" cy="-94.531" r="7.071" fill="#e48366" fill-opacity=".999" stroke="#d14c26"/></g></g></g></svg>