<svg xmlns="http://www.w3.org/2000/svg" viewBox="0 0 487.86901 220.92034" height="235.648" width="520.394"><defs><clipPath id="a"><path d="M404.42 194.505c-1.394 4.232-1.206 11.903 1.377 17.104 4.262 7.46 8.19 15.878 15.693 20.93 5.98 2.29 12.927 1.382 18.99-.697 8.994-2.25 18.288-1.5 27.51-1.624 7.606-.006 11.035 6.448 10 13.156.637 6.523.098 14.743-8.57 13.638-8.596 1.7-17.927.945-25.714 5.348-7.65 1.398-15.093 7.707-16.063 15.36-2.12 10.446-.515 21.403-1.218 32.05-5.258 6.88-14.858 8.795-21.29 14.02-9.653 4.266-1.218 15.31 6.658 14.285 6.387 2.466 8.754 11.243 13.34 16.428 4.49 4.46 9.312 8.627 14.287 10 4.653 1.054 9.953.645 15 .714 7.66-4.737 10.41-14.338 17.476-20.027 6.364-4.315 13.787-8.05 21.326-8.545 4.734.315 9.97-.95 14.072 1.396 3.98 2.156 7.426 5.886 10.968 9.59 5.475 4.536 9.61 10.917 17.586 10.443 7.443.358 10.2 3.05 17.696 2.857 5.353.624 9.92-.75 14.447-3.572 5.208-3.617 10.288-9.328 9.287-16.175-.242-5.978 1.124-12.43-2.857-17.396-1.75-5.403-6.802-15.183-6.43-17.856-3.653-6.05-.806-12.224 5.318-14.21.71-1.696 9.956-7.05 9.683-11.505 6.403-6.17 7.82-7.373 14.287-10 1.626-3.805 2.56-10.12 0-14.286-1.992-6.142-7.194-9.14-6.43-15.715-.927-5.44 4-8.82 5-12.858.027-4.77-.37-10.522 2.168-13.562 1.318-3.723 2.554-7.523 2.12-11.99.05-4.635-.926-6.524-3.572-8.02-2.553-4.402-10.65-2.928-14.286-6.428-2.297-6.426-9.67-6.746-15.714-7.857-4.3-1.61-11.995-4.66-15.715.714-5.754 1.985-11.154 8.613-18.473 11.248-6.885 3.163-14.19 2.758-21.527 3.75-10.006-.175-20.176.518-30-.713-6.82-5.2-8.33-6.15-15.497-11.082-3.07-2.9-13.357-7-16.644-3.918-2.288 2.62-4.07 5.362-7.265 6.35-2.17 3.57-11.897 2.91-17.25 3.65-4.065.23-9.225-.595-12.27.748-.9 1.18-6.106.02-7.5 4.252z" fill="none" fill-rule="evenodd" stroke="#000"/></clipPath></defs><g transform="translate(-121.765 -146.606)"><text y="321.124" x="351.92" style="line-height:125%;-inkscape-font-specification:'Helvetica, Light';text-align:start" font-weight="300" font-size="17.5" font-family="Helvetica" letter-spacing="0" word-spacing="0"/><text y="287.374" x="387.5" style="line-height:125%" font-weight="400" font-size="40" font-family="sans-serif" letter-spacing="0" word-spacing="0"/><path fill="#f9f9f9" stroke="#5a5a5a" stroke-width=".5" d="M122.015 175.718h150v191.15h-150z"/><text y="189.009" x="124.916" style="line-height:125%;-inkscape-font-specification:'monospace, Normal';text-align:start" font-weight="400" font-size="12.5" font-family="monospace" letter-spacing="0" word-spacing="0" fill="#1c0000"><tspan y="189.009" x="124.916" fill="#323232">Name, Lat, Long</tspan><tspan y="204.634" x="124.916" fill="#d14c26">Species A, 6.9, 1.0</tspan><tspan y="220.259" x="124.916" fill="#d14c26">Species A, 6.7, 4.7</tspan><tspan y="235.884" x="124.916" fill="#d14c26">Species A, 1.3, 2.8</tspan><tspan y="251.509" x="124.916" fill="#579779">Species B, 2.3, 2.9</tspan><tspan y="267.134" x="124.916" fill="#579779">Species B, 1.8, 6.4</tspan><tspan y="282.759" x="124.916" fill="#579779">Species B, 4.6, 6.6</tspan><tspan y="298.384" x="124.916" fill="#7763cd">Species C, 4.7, 5.3</tspan><tspan y="314.009" x="124.916" fill="#7763cd">Spe<tspan opacity=".99">cies </tspan>C, 5.5, 6.8</tspan><tspan y="329.634" x="124.916" fill="#7763cd">Species C, 6.8, 7.6</tspan><tspan y="345.259" x="124.916" opacity=".99" fill="#d3418a">Species D, 7.4, 6.5</tspan><tspan y="360.884" x="124.916" opacity=".99" fill="#d3418a">Species D, 4.6, 7.4</tspan></text><g transform="translate(8.91 1.782)" clip-path="url(#a)"><rect width="200" height="200" x="400" y="177.362" ry="0" opacity=".99" fill="#fff8db"/><path d="M500 177.362v200M400 277.362h200M550 177.362v100M500 227.362h100" fill="none" stroke="#cecab4"/></g><circle r="7.071" cy="208.589" cx="434.628" fill="#e48366" fill-opacity=".999" stroke="#d14c26"/><circle r="7.071" cy="212.716" cx="525.34" fill="#e48366" fill-opacity=".999" stroke="#d14c26"/><circle r="7.071" cy="344.859" cx="453.197" fill="#e48366" fill-opacity=".999" stroke="#d14c26"/><circle r="7.071" cy="320.017" cx="481.771" fill="#8fbfa7" stroke="#579779"/><circle r="7.071" cy="335.573" cx="567.482" fill="#8fbfa7" stroke="#579779"/><circle r="7.071" cy="265.573" cx="573.197" fill="#8fbfa7" stroke="#579779"/><circle r="7.071" cy="263.43" cx="541.054" fill="#b6abe5" stroke="#7763cd"/><circle r="7.071" cy="265.573" cx="595.339" fill="#e695be" stroke="#d3418a"/><circle r="7.071" cy="242.001" cx="581.054" fill="#b6abe5" stroke="#7763cd"/><circle r="7.071" cy="209.144" cx="598.197" fill="#b6abe5" stroke="#7763cd"/><circle r="7.071" cy="192.716" cx="573.768" fill="#e695be" stroke="#d3418a"/><g fill="none" stroke="#323232" stroke-width="2"><path d="M323.703 278.154h75M394.433 271.904l6.25 6.25-6.25 6.25" transform="matrix(.9745 0 0 1.00138 -8.568 -.382)"/></g><path d="M121.765 165.907h149.77M408.91 166.144h200.01" fill="none" stroke="#323232"/><text y="159.206" x="120.417" style="line-height:125%;-inkscape-font-specification:'Helvetica, Light';text-align:start" font-weight="300" font-size="17.5" font-family="Helvetica" letter-spacing="0" word-spacing="0" fill="#323232"><tspan y="159.206" x="120.417">Input data</tspan></text><text y="159.444" x="407.651" style="line-height:125%;-inkscape-font-specification:'Helvetica, Light';text-align:start" font-weight="300" font-size="17.5" font-family="Helvetica" letter-spacing="0" word-spacing="0" fill="#323232"><tspan y="159.444" x="407.651">Binned data</tspan></text><text y="245.299" x="306.276" style="line-height:125%;-inkscape-font-specification:'Helvetica, Light';text-align:start" font-weight="300" font-size="17.5" font-family="Helvetica" letter-spacing="0" word-spacing="0" fill="#323232"><tspan y="245.299" x="306.276">Quadtree</tspan><tspan y="267.174" x="306.276">mapping</tspan></text><path d="M413.33 196.287c-1.393 4.232-1.205 11.903 1.378 17.104 4.262 7.462 8.19 15.88 15.693 20.933 5.98 2.29 12.928 1.38 18.99-.698 8.995-2.25 18.29-1.5 27.512-1.624 7.605-.004 11.034 6.45 10 13.158.636 6.523.097 14.743-8.57 13.638-8.598 1.7-17.928.945-25.716 5.348-7.65 1.398-15.092 7.707-16.062 15.36-2.12 10.446-.515 21.403-1.218 32.05-5.258 6.88-14.858 8.795-21.29 14.02-9.653 4.266-1.218 15.31 6.658 14.285 6.387 2.465 8.754 11.242 13.34 16.427 4.49 4.46 9.312 8.627 14.287 10 4.654 1.054 9.954.645 15 .714 7.66-4.735 10.412-14.336 17.477-20.025 6.364-4.315 13.787-8.05 21.326-8.545 4.734.315 9.97-.95 14.072 1.396 3.98 2.156 7.426 5.886 10.968 9.59 5.475 4.536 9.61 10.917 17.586 10.443 7.44.357 10.2 3.05 17.695 2.856 5.353.624 9.92-.75 14.447-3.572 5.207-3.617 10.287-9.328 9.286-16.175-.242-5.98 1.124-12.432-2.857-17.397-1.75-5.404-6.8-15.184-6.428-17.857-3.654-6.05-.807-12.224 5.317-14.21.71-1.696 9.955-7.05 9.682-11.505 6.4-6.17 7.82-7.37 14.286-10 1.626-3.803 2.56-10.118 0-14.284-1.992-6.142-7.194-9.14-6.43-15.715-.927-5.437 4-8.817 5-12.856.027-4.77-.37-10.522 2.167-13.56 1.32-3.725 2.555-7.525 2.12-11.993.05-4.633-.925-6.522-3.57-8.017-2.554-4.403-10.652-2.93-14.287-6.43-2.297-6.425-9.67-6.745-15.714-7.856-4.3-1.61-11.995-4.66-15.715.714-5.755 1.987-11.155 8.615-18.474 11.25-6.886 3.163-14.19 2.758-21.527 3.75-10.008-.175-20.177.518-30-.713-6.822-5.2-8.33-6.15-15.498-11.082-3.07-2.9-13.358-7-16.646-3.918-2.287 2.62-4.07 5.362-7.264 6.35-2.17 3.57-11.898 2.91-17.252 3.65-4.064.23-9.224-.595-12.27.748-.9 1.18-6.105.02-7.5 4.252z" fill="none" stroke="#646464"/><text y="202.248" x="418.122" style="line-height:125%;-inkscape-font-specification:'Helvetica, Normal';text-align:start" font-weight="400" font-size="10" font-family="Helvetica" letter-spacing="0" word-spacing="0" fill="#323232"><tspan y="202.248" x="418.122">1</tspan></text><text y="290.295" x="439.962" style="line-height:125%;-inkscape-font-specification:'Helvetica, Normal';text-align:start" font-weight="400" font-size="10" font-family="Helvetica" letter-spacing="0" word-spacing="0" fill="#323232"><tspan y="290.295" x="439.962">2</tspan></text><text y="208.151" x="512.165" style="line-height:125%;-inkscape-font-specification:'Helvetica, Normal';text-align:start" font-weight="400" font-size="10" font-family="Helvetica" letter-spacing="0" word-spacing="0" fill="#323232"><tspan y="208.151" x="512.165">4</tspan></text><text y="190.151" x="562.294" style="line-height:125%;-inkscape-font-specification:'Helvetica, Normal';text-align:start" font-weight="400" font-size="10" font-family="Helvetica" letter-spacing="0" word-spacing="0" fill="#323232"><tspan y="190.151" x="562.294">7</tspan></text><text y="290.661" x="512.418" style="line-height:125%;-inkscape-font-specification:'Helvetica, Normal';text-align:start" font-weight="400" font-size="10" font-family="Helvetica" letter-spacing="0" word-spacing="0" fill="#323232"><tspan y="290.661" x="512.418">3</tspan></text><text y="240.154" x="512.165" style="line-height:125%;-inkscape-font-specification:'Helvetica, Normal';text-align:start" font-weight="400" font-size="10" font-family="Helvetica" letter-spacing="0" word-spacing="0" fill="#323232"><tspan y="240.154" x="512.165">5</tspan></text><text y="239.94" x="562.176" style="line-height:125%;-inkscape-font-specification:'Helvetica, Normal';text-align:start" font-weight="400" font-size="10" font-family="Helvetica" letter-spacing="0" word-spacing="0" fill="#323232"><tspan y="239.94" x="562.176">6</tspan></text><text y="181.124" x="631.25" style="line-height:125%" font-weight="400" font-size="40" font-family="sans-serif" letter-spacing="0" word-spacing="0"/><text style="line-height:125%;-inkscape-font-specification:'Helvetica, Light';text-align:start" x="351.92" y="321.124" font-weight="300" font-size="17.5" font-family="Helvetica" letter-spacing="0" word-spacing="0" transform="translate(1407.567 -300.904)"/><text style="line-height:125%" x="387.5" y="287.374" font-weight="400" font-size="40" font-family="sans-serif" letter-spacing="0" word-spacing="0" transform="translate(1407.567 -300.904)"/><text style="line-height:125%" x="631.25" y="181.124" font-weight="400" font-size="40" font-family="sans-serif" letter-spacing="0" word-spacing="0" transform="translate(1407.567 -300.904)"/></g></svg>