<svg xmlns="http://www.w3.org/2000/svg" viewBox="0 0 451.77305 221.03491" height="235.771" width="481.891"><defs><clipPath id="b"><path d="M404.42 194.505c-1.394 4.232-1.206 11.903 1.377 17.104 4.262 7.46 8.19 15.878 15.693 20.93 5.98 2.29 12.927 1.382 18.99-.697 8.994-2.25 18.288-1.5 27.51-1.624 7.606-.006 11.035 6.448 10 13.156.637 6.523.098 14.743-8.57 13.638-8.596 1.7-17.927.945-25.714 5.348-7.65 1.398-15.093 7.707-16.063 15.36-2.12 10.446-.515 21.403-1.218 32.05-5.258 6.88-14.858 8.795-21.29 14.02-9.653 4.266-1.218 15.31 6.658 14.285 6.387 2.466 8.754 11.243 13.34 16.428 4.49 4.46 9.312 8.627 14.287 10 4.653 1.054 9.953.645 15 .714 7.66-4.737 10.41-14.338 17.476-20.027 6.364-4.315 13.787-8.05 21.326-8.545 4.734.315 9.97-.95 14.072 1.396 3.98 2.156 7.426 5.886 10.968 9.59 5.475 4.536 9.61 10.917 17.586 10.443 7.443.358 10.2 3.05 17.696 2.857 5.353.624 9.92-.75 14.447-3.572 5.208-3.617 10.288-9.328 9.287-16.175-.242-5.978 1.124-12.43-2.857-17.396-1.75-5.403-6.802-15.183-6.43-17.856-3.653-6.05-.806-12.224 5.318-14.21.71-1.696 9.956-7.05 9.683-11.505 6.403-6.17 7.82-7.373 14.287-10 1.626-3.805 2.56-10.12 0-14.286-1.992-6.142-7.194-9.14-6.43-15.715-.927-5.44 4-8.82 5-12.858.027-4.77-.37-10.522 2.168-13.562 1.318-3.723 2.554-7.523 2.12-11.99.05-4.635-.926-6.524-3.572-8.02-2.553-4.402-10.65-2.928-14.286-6.428-2.297-6.426-9.67-6.746-15.714-7.857-4.3-1.61-11.995-4.66-15.715.714-5.754 1.985-11.154 8.613-18.473 11.248-6.885 3.163-14.19 2.758-21.527 3.75-10.006-.175-20.176.518-30-.713-6.82-5.2-8.33-6.15-15.497-11.082-3.07-2.9-13.357-7-16.644-3.918-2.288 2.62-4.07 5.362-7.265 6.35-2.17 3.57-11.897 2.91-17.25 3.65-4.065.23-9.225-.595-12.27.748-.9 1.18-6.106.02-7.5 4.252z" fill="none" fill-rule="evenodd" stroke="#000"/></clipPath><clipPath id="d"><path d="M404.42 194.505c-1.394 4.232-1.206 11.903 1.377 17.104 4.262 7.46 8.19 15.878 15.693 20.93 5.98 2.29 12.927 1.382 18.99-.697 8.994-2.25 18.288-1.5 27.51-1.624 7.606-.006 11.035 6.448 10 13.156.637 6.523.098 14.743-8.57 13.638-8.596 1.7-17.927.945-25.714 5.348-7.65 1.398-15.093 7.707-16.063 15.36-2.12 10.446-.515 21.403-1.218 32.05-5.258 6.88-14.858 8.795-21.29 14.02-9.653 4.266-1.218 15.31 6.658 14.285 6.387 2.466 8.754 11.243 13.34 16.428 4.49 4.46 9.312 8.627 14.287 10 4.653 1.054 9.953.645 15 .714 7.66-4.737 10.41-14.338 17.476-20.027 6.364-4.315 13.787-8.05 21.326-8.545 4.734.315 9.97-.95 14.072 1.396 3.98 2.156 7.426 5.886 10.968 9.59 5.475 4.536 9.61 10.917 17.586 10.443 7.443.358 10.2 3.05 17.696 2.857 5.353.624 9.92-.75 14.447-3.572 5.208-3.617 10.288-9.328 9.287-16.175-.242-5.978 1.124-12.43-2.857-17.396-1.75-5.403-6.802-15.183-6.43-17.856-3.653-6.05-.806-12.224 5.318-14.21.71-1.696 9.956-7.05 9.683-11.505 6.403-6.17 7.82-7.373 14.287-10 1.626-3.805 2.56-10.12 0-14.286-1.992-6.142-7.194-9.14-6.43-15.715-.927-5.44 4-8.82 5-12.858.027-4.77-.37-10.522 2.168-13.562 1.318-3.723 2.554-7.523 2.12-11.99.05-4.635-.926-6.524-3.572-8.02-2.553-4.402-10.65-2.928-14.286-6.428-2.297-6.426-9.67-6.746-15.714-7.857-4.3-1.61-11.995-4.66-15.715.714-5.754 1.985-11.154 8.613-18.473 11.248-6.885 3.163-14.19 2.758-21.527 3.75-10.006-.175-20.176.518-30-.713-6.82-5.2-8.33-6.15-15.497-11.082-3.07-2.9-13.357-7-16.644-3.918-2.288 2.62-4.07 5.362-7.265 6.35-2.17 3.57-11.897 2.91-17.25 3.65-4.065.23-9.225-.595-12.27.748-.9 1.18-6.106.02-7.5 4.252z" fill="none" fill-rule="evenodd" stroke="#000"/></clipPath><clipPath id="f"><path d="M404.42 194.505c-1.394 4.232-1.206 11.903 1.377 17.104 4.262 7.46 8.19 15.878 15.693 20.93 5.98 2.29 12.927 1.382 18.99-.697 8.994-2.25 18.288-1.5 27.51-1.624 7.606-.006 11.035 6.448 10 13.156.637 6.523.098 14.743-8.57 13.638-8.596 1.7-17.927.945-25.714 5.348-7.65 1.398-15.093 7.707-16.063 15.36-2.12 10.446-.515 21.403-1.218 32.05-5.258 6.88-14.858 8.795-21.29 14.02-9.653 4.266-1.218 15.31 6.658 14.285 6.387 2.466 8.754 11.243 13.34 16.428 4.49 4.46 9.312 8.627 14.287 10 4.653 1.054 9.953.645 15 .714 7.66-4.737 10.41-14.338 17.476-20.027 6.364-4.315 13.787-8.05 21.326-8.545 4.734.315 9.97-.95 14.072 1.396 3.98 2.156 7.426 5.886 10.968 9.59 5.475 4.536 9.61 10.917 17.586 10.443 7.443.358 10.2 3.05 17.696 2.857 5.353.624 9.92-.75 14.447-3.572 5.208-3.617 10.288-9.328 9.287-16.175-.242-5.978 1.124-12.43-2.857-17.396-1.75-5.403-6.802-15.183-6.43-17.856-3.653-6.05-.806-12.224 5.318-14.21.71-1.696 9.956-7.05 9.683-11.505 6.403-6.17 7.82-7.373 14.287-10 1.626-3.805 2.56-10.12 0-14.286-1.992-6.142-7.194-9.14-6.43-15.715-.927-5.44 4-8.82 5-12.858.027-4.77-.37-10.522 2.168-13.562 1.318-3.723 2.554-7.523 2.12-11.99.05-4.635-.926-6.524-3.572-8.02-2.553-4.402-10.65-2.928-14.286-6.428-2.297-6.426-9.67-6.746-15.714-7.857-4.3-1.61-11.995-4.66-15.715.714-5.754 1.985-11.154 8.613-18.473 11.248-6.885 3.163-14.19 2.758-21.527 3.75-10.006-.175-20.176.518-30-.713-6.82-5.2-8.33-6.15-15.497-11.082-3.07-2.9-13.357-7-16.644-3.918-2.288 2.62-4.07 5.362-7.265 6.35-2.17 3.57-11.897 2.91-17.25 3.65-4.065.23-9.225-.595-12.27.748-.9 1.18-6.106.02-7.5 4.252z" fill="none" fill-rule="evenodd" stroke="#000"/></clipPath><clipPath id="h"><path d="M404.42 194.505c-1.394 4.232-1.206 11.903 1.377 17.104 4.262 7.46 8.19 15.878 15.693 20.93 5.98 2.29 12.927 1.382 18.99-.697 8.994-2.25 18.288-1.5 27.51-1.624 7.606-.006 11.035 6.448 10 13.156.637 6.523.098 14.743-8.57 13.638-8.596 1.7-17.927.945-25.714 5.348-7.65 1.398-15.093 7.707-16.063 15.36-2.12 10.446-.515 21.403-1.218 32.05-5.258 6.88-14.858 8.795-21.29 14.02-9.653 4.266-1.218 15.31 6.658 14.285 6.387 2.466 8.754 11.243 13.34 16.428 4.49 4.46 9.312 8.627 14.287 10 4.653 1.054 9.953.645 15 .714 7.66-4.737 10.41-14.338 17.476-20.027 6.364-4.315 13.787-8.05 21.326-8.545 4.734.315 9.97-.95 14.072 1.396 3.98 2.156 7.426 5.886 10.968 9.59 5.475 4.536 9.61 10.917 17.586 10.443 7.443.358 10.2 3.05 17.696 2.857 5.353.624 9.92-.75 14.447-3.572 5.208-3.617 10.288-9.328 9.287-16.175-.242-5.978 1.124-12.43-2.857-17.396-1.75-5.403-6.802-15.183-6.43-17.856-3.653-6.05-.806-12.224 5.318-14.21.71-1.696 9.956-7.05 9.683-11.505 6.403-6.17 7.82-7.373 14.287-10 1.626-3.805 2.56-10.12 0-14.286-1.992-6.142-7.194-9.14-6.43-15.715-.927-5.44 4-8.82 5-12.858.027-4.77-.37-10.522 2.168-13.562 1.318-3.723 2.554-7.523 2.12-11.99.05-4.635-.926-6.524-3.572-8.02-2.553-4.402-10.65-2.928-14.286-6.428-2.297-6.426-9.67-6.746-15.714-7.857-4.3-1.61-11.995-4.66-15.715.714-5.754 1.985-11.154 8.613-18.473 11.248-6.885 3.163-14.19 2.758-21.527 3.75-10.006-.175-20.176.518-30-.713-6.82-5.2-8.33-6.15-15.497-11.082-3.07-2.9-13.357-7-16.644-3.918-2.288 2.62-4.07 5.362-7.265 6.35-2.17 3.57-11.897 2.91-17.25 3.65-4.065.23-9.225-.595-12.27.748-.9 1.18-6.106.02-7.5 4.252z" fill="none" fill-rule="evenodd" stroke="#000"/></clipPath><clipPath id="j"><path d="M404.42 194.505c-1.394 4.232-1.206 11.903 1.377 17.104 4.262 7.46 8.19 15.878 15.693 20.93 5.98 2.29 12.927 1.382 18.99-.697 8.994-2.25 18.288-1.5 27.51-1.624 7.606-.006 11.035 6.448 10 13.156.637 6.523.098 14.743-8.57 13.638-8.596 1.7-17.927.945-25.714 5.348-7.65 1.398-15.093 7.707-16.063 15.36-2.12 10.446-.515 21.403-1.218 32.05-5.258 6.88-14.858 8.795-21.29 14.02-9.653 4.266-1.218 15.31 6.658 14.285 6.387 2.466 8.754 11.243 13.34 16.428 4.49 4.46 9.312 8.627 14.287 10 4.653 1.054 9.953.645 15 .714 7.66-4.737 10.41-14.338 17.476-20.027 6.364-4.315 13.787-8.05 21.326-8.545 4.734.315 9.97-.95 14.072 1.396 3.98 2.156 7.426 5.886 10.968 9.59 5.475 4.536 9.61 10.917 17.586 10.443 7.443.358 10.2 3.05 17.696 2.857 5.353.624 9.92-.75 14.447-3.572 5.208-3.617 10.288-9.328 9.287-16.175-.242-5.978 1.124-12.43-2.857-17.396-1.75-5.403-6.802-15.183-6.43-17.856-3.653-6.05-.806-12.224 5.318-14.21.71-1.696 9.956-7.05 9.683-11.505 6.403-6.17 7.82-7.373 14.287-10 1.626-3.805 2.56-10.12 0-14.286-1.992-6.142-7.194-9.14-6.43-15.715-.927-5.44 4-8.82 5-12.858.027-4.77-.37-10.522 2.168-13.562 1.318-3.723 2.554-7.523 2.12-11.99.05-4.635-.926-6.524-3.572-8.02-2.553-4.402-10.65-2.928-14.286-6.428-2.297-6.426-9.67-6.746-15.714-7.857-4.3-1.61-11.995-4.66-15.715.714-5.754 1.985-11.154 8.613-18.473 11.248-6.885 3.163-14.19 2.758-21.527 3.75-10.006-.175-20.176.518-30-.713-6.82-5.2-8.33-6.15-15.497-11.082-3.07-2.9-13.357-7-16.644-3.918-2.288 2.62-4.07 5.362-7.265 6.35-2.17 3.57-11.897 2.91-17.25 3.65-4.065.23-9.225-.595-12.27.748-.9 1.18-6.106.02-7.5 4.252z" fill="none" fill-rule="evenodd" stroke="#000"/></clipPath><clipPath id="l"><path d="M404.42 194.505c-1.394 4.232-1.206 11.903 1.377 17.104 4.262 7.46 8.19 15.878 15.693 20.93 5.98 2.29 12.927 1.382 18.99-.697 8.994-2.25 18.288-1.5 27.51-1.624 7.606-.006 11.035 6.448 10 13.156.637 6.523.098 14.743-8.57 13.638-8.596 1.7-17.927.945-25.714 5.348-7.65 1.398-15.093 7.707-16.063 15.36-2.12 10.446-.515 21.403-1.218 32.05-5.258 6.88-14.858 8.795-21.29 14.02-9.653 4.266-1.218 15.31 6.658 14.285 6.387 2.466 8.754 11.243 13.34 16.428 4.49 4.46 9.312 8.627 14.287 10 4.653 1.054 9.953.645 15 .714 7.66-4.737 10.41-14.338 17.476-20.027 6.364-4.315 13.787-8.05 21.326-8.545 4.734.315 9.97-.95 14.072 1.396 3.98 2.156 7.426 5.886 10.968 9.59 5.475 4.536 9.61 10.917 17.586 10.443 7.443.358 10.2 3.05 17.696 2.857 5.353.624 9.92-.75 14.447-3.572 5.208-3.617 10.288-9.328 9.287-16.175-.242-5.978 1.124-12.43-2.857-17.396-1.75-5.403-6.802-15.183-6.43-17.856-3.653-6.05-.806-12.224 5.318-14.21.71-1.696 9.956-7.05 9.683-11.505 6.403-6.17 7.82-7.373 14.287-10 1.626-3.805 2.56-10.12 0-14.286-1.992-6.142-7.194-9.14-6.43-15.715-.927-5.44 4-8.82 5-12.858.027-4.77-.37-10.522 2.168-13.562 1.318-3.723 2.554-7.523 2.12-11.99.05-4.635-.926-6.524-3.572-8.02-2.553-4.402-10.65-2.928-14.286-6.428-2.297-6.426-9.67-6.746-15.714-7.857-4.3-1.61-11.995-4.66-15.715.714-5.754 1.985-11.154 8.613-18.473 11.248-6.885 3.163-14.19 2.758-21.527 3.75-10.006-.175-20.176.518-30-.713-6.82-5.2-8.33-6.15-15.497-11.082-3.07-2.9-13.357-7-16.644-3.918-2.288 2.62-4.07 5.362-7.265 6.35-2.17 3.57-11.897 2.91-17.25 3.65-4.065.23-9.225-.595-12.27.748-.9 1.18-6.106.02-7.5 4.252z" fill="none" fill-rule="evenodd" stroke="#000"/></clipPath><clipPath id="n"><path d="M404.42 194.505c-1.394 4.232-1.206 11.903 1.377 17.104 4.262 7.46 8.19 15.878 15.693 20.93 5.98 2.29 12.927 1.382 18.99-.697 8.994-2.25 18.288-1.5 27.51-1.624 7.606-.006 11.035 6.448 10 13.156.637 6.523.098 14.743-8.57 13.638-8.596 1.7-17.927.945-25.714 5.348-7.65 1.398-15.093 7.707-16.063 15.36-2.12 10.446-.515 21.403-1.218 32.05-5.258 6.88-14.858 8.795-21.29 14.02-9.653 4.266-1.218 15.31 6.658 14.285 6.387 2.466 8.754 11.243 13.34 16.428 4.49 4.46 9.312 8.627 14.287 10 4.653 1.054 9.953.645 15 .714 7.66-4.737 10.41-14.338 17.476-20.027 6.364-4.315 13.787-8.05 21.326-8.545 4.734.315 9.97-.95 14.072 1.396 3.98 2.156 7.426 5.886 10.968 9.59 5.475 4.536 9.61 10.917 17.586 10.443 7.443.358 10.2 3.05 17.696 2.857 5.353.624 9.92-.75 14.447-3.572 5.208-3.617 10.288-9.328 9.287-16.175-.242-5.978 1.124-12.43-2.857-17.396-1.75-5.403-6.802-15.183-6.43-17.856-3.653-6.05-.806-12.224 5.318-14.21.71-1.696 9.956-7.05 9.683-11.505 6.403-6.17 7.82-7.373 14.287-10 1.626-3.805 2.56-10.12 0-14.286-1.992-6.142-7.194-9.14-6.43-15.715-.927-5.44 4-8.82 5-12.858.027-4.77-.37-10.522 2.168-13.562 1.318-3.723 2.554-7.523 2.12-11.99.05-4.635-.926-6.524-3.572-8.02-2.553-4.402-10.65-2.928-14.286-6.428-2.297-6.426-9.67-6.746-15.714-7.857-4.3-1.61-11.995-4.66-15.715.714-5.754 1.985-11.154 8.613-18.473 11.248-6.885 3.163-14.19 2.758-21.527 3.75-10.006-.175-20.176.518-30-.713-6.82-5.2-8.33-6.15-15.497-11.082-3.07-2.9-13.357-7-16.644-3.918-2.288 2.62-4.07 5.362-7.265 6.35-2.17 3.57-11.897 2.91-17.25 3.65-4.065.23-9.225-.595-12.27.748-.9 1.18-6.106.02-7.5 4.252z" fill="none" fill-rule="evenodd" stroke="#000"/></clipPath><clipPath id="a"><path fill="#f9f9f9" stroke-width=".5" d="M925 277.362h100v100H925z"/></clipPath><clipPath id="c"><path fill="#f9f9f9" stroke-width=".5" d="M925 377.362h100v100H925z"/></clipPath><clipPath id="e"><path fill="#f9f9f9" stroke-width=".5" d="M1025 377.362h100v100h-100z"/></clipPath><clipPath id="g"><path fill="#f9f9f9" stroke-width=".5" d="M1025 277.362h50v50h-50z"/></clipPath><clipPath id="i"><path fill="#f9f9f9" stroke-width=".5" d="M1025 327.362h50v50h-50z"/></clipPath><clipPath id="k"><path fill="#f9f9f9" stroke-width=".5" d="M1075 327.362h50v50h-50z"/></clipPath><clipPath id="m"><path fill="#f9f9f9" stroke-width=".5" d="M1075 271.112h56.25v56.25H1075z"/></clipPath><clipPath id="o"><path fill="#f9f9f9" stroke-width=".5" d="M925 277.362h100v100H925z"/></clipPath><clipPath id="p"><path d="M404.42 194.505c-1.394 4.232-1.206 11.903 1.377 17.104 4.262 7.46 8.19 15.878 15.693 20.93 5.98 2.29 12.927 1.382 18.99-.697 8.994-2.25 18.288-1.5 27.51-1.624 7.606-.006 11.035 6.448 10 13.156.637 6.523.098 14.743-8.57 13.638-8.596 1.7-17.927.945-25.714 5.348-7.65 1.398-15.093 7.707-16.063 15.36-2.12 10.446-.515 21.403-1.218 32.05-5.258 6.88-14.858 8.795-21.29 14.02-9.653 4.266-1.218 15.31 6.658 14.285 6.387 2.466 8.754 11.243 13.34 16.428 4.49 4.46 9.312 8.627 14.287 10 4.653 1.054 9.953.645 15 .714 7.66-4.737 10.41-14.338 17.476-20.027 6.364-4.315 13.787-8.05 21.326-8.545 4.734.315 9.97-.95 14.072 1.396 3.98 2.156 7.426 5.886 10.968 9.59 5.475 4.536 9.61 10.917 17.586 10.443 7.443.358 10.2 3.05 17.696 2.857 5.353.624 9.92-.75 14.447-3.572 5.208-3.617 10.288-9.328 9.287-16.175-.242-5.978 1.124-12.43-2.857-17.396-1.75-5.403-6.802-15.183-6.43-17.856-3.653-6.05-.806-12.224 5.318-14.21.71-1.696 9.956-7.05 9.683-11.505 6.403-6.17 7.82-7.373 14.287-10 1.626-3.805 2.56-10.12 0-14.286-1.992-6.142-7.194-9.14-6.43-15.715-.927-5.44 4-8.82 5-12.858.027-4.77-.37-10.522 2.168-13.562 1.318-3.723 2.554-7.523 2.12-11.99.05-4.635-.926-6.524-3.572-8.02-2.553-4.402-10.65-2.928-14.286-6.428-2.297-6.426-9.67-6.746-15.714-7.857-4.3-1.61-11.995-4.66-15.715.714-5.754 1.985-11.154 8.613-18.473 11.248-6.885 3.163-14.19 2.758-21.527 3.75-10.006-.175-20.176.518-30-.713-6.82-5.2-8.33-6.15-15.497-11.082-3.07-2.9-13.357-7-16.644-3.918-2.288 2.62-4.07 5.362-7.265 6.35-2.17 3.57-11.897 2.91-17.25 3.65-4.065.23-9.225-.595-12.27.748-.9 1.18-6.106.02-7.5 4.252z" fill="none" fill-rule="evenodd" stroke="#000"/></clipPath><clipPath id="q"><path fill="#f9f9f9" stroke-width=".5" d="M925 377.362h100v100H925z"/></clipPath><clipPath id="r"><path d="M404.42 194.505c-1.394 4.232-1.206 11.903 1.377 17.104 4.262 7.46 8.19 15.878 15.693 20.93 5.98 2.29 12.927 1.382 18.99-.697 8.994-2.25 18.288-1.5 27.51-1.624 7.606-.006 11.035 6.448 10 13.156.637 6.523.098 14.743-8.57 13.638-8.596 1.7-17.927.945-25.714 5.348-7.65 1.398-15.093 7.707-16.063 15.36-2.12 10.446-.515 21.403-1.218 32.05-5.258 6.88-14.858 8.795-21.29 14.02-9.653 4.266-1.218 15.31 6.658 14.285 6.387 2.466 8.754 11.243 13.34 16.428 4.49 4.46 9.312 8.627 14.287 10 4.653 1.054 9.953.645 15 .714 7.66-4.737 10.41-14.338 17.476-20.027 6.364-4.315 13.787-8.05 21.326-8.545 4.734.315 9.97-.95 14.072 1.396 3.98 2.156 7.426 5.886 10.968 9.59 5.475 4.536 9.61 10.917 17.586 10.443 7.443.358 10.2 3.05 17.696 2.857 5.353.624 9.92-.75 14.447-3.572 5.208-3.617 10.288-9.328 9.287-16.175-.242-5.978 1.124-12.43-2.857-17.396-1.75-5.403-6.802-15.183-6.43-17.856-3.653-6.05-.806-12.224 5.318-14.21.71-1.696 9.956-7.05 9.683-11.505 6.403-6.17 7.82-7.373 14.287-10 1.626-3.805 2.56-10.12 0-14.286-1.992-6.142-7.194-9.14-6.43-15.715-.927-5.44 4-8.82 5-12.858.027-4.77-.37-10.522 2.168-13.562 1.318-3.723 2.554-7.523 2.12-11.99.05-4.635-.926-6.524-3.572-8.02-2.553-4.402-10.65-2.928-14.286-6.428-2.297-6.426-9.67-6.746-15.714-7.857-4.3-1.61-11.995-4.66-15.715.714-5.754 1.985-11.154 8.613-18.473 11.248-6.885 3.163-14.19 2.758-21.527 3.75-10.006-.175-20.176.518-30-.713-6.82-5.2-8.33-6.15-15.497-11.082-3.07-2.9-13.357-7-16.644-3.918-2.288 2.62-4.07 5.362-7.265 6.35-2.17 3.57-11.897 2.91-17.25 3.65-4.065.23-9.225-.595-12.27.748-.9 1.18-6.106.02-7.5 4.252z" fill="none" fill-rule="evenodd" stroke="#000"/></clipPath><clipPath id="s"><path fill="#f9f9f9" stroke-width=".5" d="M1025 377.362h100v100h-100z"/></clipPath><clipPath id="t"><path d="M404.42 194.505c-1.394 4.232-1.206 11.903 1.377 17.104 4.262 7.46 8.19 15.878 15.693 20.93 5.98 2.29 12.927 1.382 18.99-.697 8.994-2.25 18.288-1.5 27.51-1.624 7.606-.006 11.035 6.448 10 13.156.637 6.523.098 14.743-8.57 13.638-8.596 1.7-17.927.945-25.714 5.348-7.65 1.398-15.093 7.707-16.063 15.36-2.12 10.446-.515 21.403-1.218 32.05-5.258 6.88-14.858 8.795-21.29 14.02-9.653 4.266-1.218 15.31 6.658 14.285 6.387 2.466 8.754 11.243 13.34 16.428 4.49 4.46 9.312 8.627 14.287 10 4.653 1.054 9.953.645 15 .714 7.66-4.737 10.41-14.338 17.476-20.027 6.364-4.315 13.787-8.05 21.326-8.545 4.734.315 9.97-.95 14.072 1.396 3.98 2.156 7.426 5.886 10.968 9.59 5.475 4.536 9.61 10.917 17.586 10.443 7.443.358 10.2 3.05 17.696 2.857 5.353.624 9.92-.75 14.447-3.572 5.208-3.617 10.288-9.328 9.287-16.175-.242-5.978 1.124-12.43-2.857-17.396-1.75-5.403-6.802-15.183-6.43-17.856-3.653-6.05-.806-12.224 5.318-14.21.71-1.696 9.956-7.05 9.683-11.505 6.403-6.17 7.82-7.373 14.287-10 1.626-3.805 2.56-10.12 0-14.286-1.992-6.142-7.194-9.14-6.43-15.715-.927-5.44 4-8.82 5-12.858.027-4.77-.37-10.522 2.168-13.562 1.318-3.723 2.554-7.523 2.12-11.99.05-4.635-.926-6.524-3.572-8.02-2.553-4.402-10.65-2.928-14.286-6.428-2.297-6.426-9.67-6.746-15.714-7.857-4.3-1.61-11.995-4.66-15.715.714-5.754 1.985-11.154 8.613-18.473 11.248-6.885 3.163-14.19 2.758-21.527 3.75-10.006-.175-20.176.518-30-.713-6.82-5.2-8.33-6.15-15.497-11.082-3.07-2.9-13.357-7-16.644-3.918-2.288 2.62-4.07 5.362-7.265 6.35-2.17 3.57-11.897 2.91-17.25 3.65-4.065.23-9.225-.595-12.27.748-.9 1.18-6.106.02-7.5 4.252z" fill="none" fill-rule="evenodd" stroke="#000"/></clipPath><clipPath id="u"><path fill="#f9f9f9" stroke-width=".5" d="M1025 277.362h50v50h-50z"/></clipPath><clipPath id="v"><path d="M404.42 194.505c-1.394 4.232-1.206 11.903 1.377 17.104 4.262 7.46 8.19 15.878 15.693 20.93 5.98 2.29 12.927 1.382 18.99-.697 8.994-2.25 18.288-1.5 27.51-1.624 7.606-.006 11.035 6.448 10 13.156.637 6.523.098 14.743-8.57 13.638-8.596 1.7-17.927.945-25.714 5.348-7.65 1.398-15.093 7.707-16.063 15.36-2.12 10.446-.515 21.403-1.218 32.05-5.258 6.88-14.858 8.795-21.29 14.02-9.653 4.266-1.218 15.31 6.658 14.285 6.387 2.466 8.754 11.243 13.34 16.428 4.49 4.46 9.312 8.627 14.287 10 4.653 1.054 9.953.645 15 .714 7.66-4.737 10.41-14.338 17.476-20.027 6.364-4.315 13.787-8.05 21.326-8.545 4.734.315 9.97-.95 14.072 1.396 3.98 2.156 7.426 5.886 10.968 9.59 5.475 4.536 9.61 10.917 17.586 10.443 7.443.358 10.2 3.05 17.696 2.857 5.353.624 9.92-.75 14.447-3.572 5.208-3.617 10.288-9.328 9.287-16.175-.242-5.978 1.124-12.43-2.857-17.396-1.75-5.403-6.802-15.183-6.43-17.856-3.653-6.05-.806-12.224 5.318-14.21.71-1.696 9.956-7.05 9.683-11.505 6.403-6.17 7.82-7.373 14.287-10 1.626-3.805 2.56-10.12 0-14.286-1.992-6.142-7.194-9.14-6.43-15.715-.927-5.44 4-8.82 5-12.858.027-4.77-.37-10.522 2.168-13.562 1.318-3.723 2.554-7.523 2.12-11.99.05-4.635-.926-6.524-3.572-8.02-2.553-4.402-10.65-2.928-14.286-6.428-2.297-6.426-9.67-6.746-15.714-7.857-4.3-1.61-11.995-4.66-15.715.714-5.754 1.985-11.154 8.613-18.473 11.248-6.885 3.163-14.19 2.758-21.527 3.75-10.006-.175-20.176.518-30-.713-6.82-5.2-8.33-6.15-15.497-11.082-3.07-2.9-13.357-7-16.644-3.918-2.288 2.62-4.07 5.362-7.265 6.35-2.17 3.57-11.897 2.91-17.25 3.65-4.065.23-9.225-.595-12.27.748-.9 1.18-6.106.02-7.5 4.252z" fill="none" fill-rule="evenodd" stroke="#000"/></clipPath><clipPath id="w"><path fill="#f9f9f9" stroke-width=".5" d="M1025 327.362h50v50h-50z"/></clipPath><clipPath id="x"><path d="M404.42 194.505c-1.394 4.232-1.206 11.903 1.377 17.104 4.262 7.46 8.19 15.878 15.693 20.93 5.98 2.29 12.927 1.382 18.99-.697 8.994-2.25 18.288-1.5 27.51-1.624 7.606-.006 11.035 6.448 10 13.156.637 6.523.098 14.743-8.57 13.638-8.596 1.7-17.927.945-25.714 5.348-7.65 1.398-15.093 7.707-16.063 15.36-2.12 10.446-.515 21.403-1.218 32.05-5.258 6.88-14.858 8.795-21.29 14.02-9.653 4.266-1.218 15.31 6.658 14.285 6.387 2.466 8.754 11.243 13.34 16.428 4.49 4.46 9.312 8.627 14.287 10 4.653 1.054 9.953.645 15 .714 7.66-4.737 10.41-14.338 17.476-20.027 6.364-4.315 13.787-8.05 21.326-8.545 4.734.315 9.97-.95 14.072 1.396 3.98 2.156 7.426 5.886 10.968 9.59 5.475 4.536 9.61 10.917 17.586 10.443 7.443.358 10.2 3.05 17.696 2.857 5.353.624 9.92-.75 14.447-3.572 5.208-3.617 10.288-9.328 9.287-16.175-.242-5.978 1.124-12.43-2.857-17.396-1.75-5.403-6.802-15.183-6.43-17.856-3.653-6.05-.806-12.224 5.318-14.21.71-1.696 9.956-7.05 9.683-11.505 6.403-6.17 7.82-7.373 14.287-10 1.626-3.805 2.56-10.12 0-14.286-1.992-6.142-7.194-9.14-6.43-15.715-.927-5.44 4-8.82 5-12.858.027-4.77-.37-10.522 2.168-13.562 1.318-3.723 2.554-7.523 2.12-11.99.05-4.635-.926-6.524-3.572-8.02-2.553-4.402-10.65-2.928-14.286-6.428-2.297-6.426-9.67-6.746-15.714-7.857-4.3-1.61-11.995-4.66-15.715.714-5.754 1.985-11.154 8.613-18.473 11.248-6.885 3.163-14.19 2.758-21.527 3.75-10.006-.175-20.176.518-30-.713-6.82-5.2-8.33-6.15-15.497-11.082-3.07-2.9-13.357-7-16.644-3.918-2.288 2.62-4.07 5.362-7.265 6.35-2.17 3.57-11.897 2.91-17.25 3.65-4.065.23-9.225-.595-12.27.748-.9 1.18-6.106.02-7.5 4.252z" fill="none" fill-rule="evenodd" stroke="#000"/></clipPath><clipPath id="y"><path fill="#f9f9f9" stroke-width=".5" d="M1075 327.362h50v50h-50z"/></clipPath><clipPath id="z"><path d="M404.42 194.505c-1.394 4.232-1.206 11.903 1.377 17.104 4.262 7.46 8.19 15.878 15.693 20.93 5.98 2.29 12.927 1.382 18.99-.697 8.994-2.25 18.288-1.5 27.51-1.624 7.606-.006 11.035 6.448 10 13.156.637 6.523.098 14.743-8.57 13.638-8.596 1.7-17.927.945-25.714 5.348-7.65 1.398-15.093 7.707-16.063 15.36-2.12 10.446-.515 21.403-1.218 32.05-5.258 6.88-14.858 8.795-21.29 14.02-9.653 4.266-1.218 15.31 6.658 14.285 6.387 2.466 8.754 11.243 13.34 16.428 4.49 4.46 9.312 8.627 14.287 10 4.653 1.054 9.953.645 15 .714 7.66-4.737 10.41-14.338 17.476-20.027 6.364-4.315 13.787-8.05 21.326-8.545 4.734.315 9.97-.95 14.072 1.396 3.98 2.156 7.426 5.886 10.968 9.59 5.475 4.536 9.61 10.917 17.586 10.443 7.443.358 10.2 3.05 17.696 2.857 5.353.624 9.92-.75 14.447-3.572 5.208-3.617 10.288-9.328 9.287-16.175-.242-5.978 1.124-12.43-2.857-17.396-1.75-5.403-6.802-15.183-6.43-17.856-3.653-6.05-.806-12.224 5.318-14.21.71-1.696 9.956-7.05 9.683-11.505 6.403-6.17 7.82-7.373 14.287-10 1.626-3.805 2.56-10.12 0-14.286-1.992-6.142-7.194-9.14-6.43-15.715-.927-5.44 4-8.82 5-12.858.027-4.77-.37-10.522 2.168-13.562 1.318-3.723 2.554-7.523 2.12-11.99.05-4.635-.926-6.524-3.572-8.02-2.553-4.402-10.65-2.928-14.286-6.428-2.297-6.426-9.67-6.746-15.714-7.857-4.3-1.61-11.995-4.66-15.715.714-5.754 1.985-11.154 8.613-18.473 11.248-6.885 3.163-14.19 2.758-21.527 3.75-10.006-.175-20.176.518-30-.713-6.82-5.2-8.33-6.15-15.497-11.082-3.07-2.9-13.357-7-16.644-3.918-2.288 2.62-4.07 5.362-7.265 6.35-2.17 3.57-11.897 2.91-17.25 3.65-4.065.23-9.225-.595-12.27.748-.9 1.18-6.106.02-7.5 4.252z" fill="none" fill-rule="evenodd" stroke="#000"/></clipPath><clipPath id="A"><path fill="#f9f9f9" stroke-width=".5" d="M1075 271.112h56.25v56.25H1075z"/></clipPath><clipPath id="B"><path d="M404.42 194.505c-1.394 4.232-1.206 11.903 1.377 17.104 4.262 7.46 8.19 15.878 15.693 20.93 5.98 2.29 12.927 1.382 18.99-.697 8.994-2.25 18.288-1.5 27.51-1.624 7.606-.006 11.035 6.448 10 13.156.637 6.523.098 14.743-8.57 13.638-8.596 1.7-17.927.945-25.714 5.348-7.65 1.398-15.093 7.707-16.063 15.36-2.12 10.446-.515 21.403-1.218 32.05-5.258 6.88-14.858 8.795-21.29 14.02-9.653 4.266-1.218 15.31 6.658 14.285 6.387 2.466 8.754 11.243 13.34 16.428 4.49 4.46 9.312 8.627 14.287 10 4.653 1.054 9.953.645 15 .714 7.66-4.737 10.41-14.338 17.476-20.027 6.364-4.315 13.787-8.05 21.326-8.545 4.734.315 9.97-.95 14.072 1.396 3.98 2.156 7.426 5.886 10.968 9.59 5.475 4.536 9.61 10.917 17.586 10.443 7.443.358 10.2 3.05 17.696 2.857 5.353.624 9.92-.75 14.447-3.572 5.208-3.617 10.288-9.328 9.287-16.175-.242-5.978 1.124-12.43-2.857-17.396-1.75-5.403-6.802-15.183-6.43-17.856-3.653-6.05-.806-12.224 5.318-14.21.71-1.696 9.956-7.05 9.683-11.505 6.403-6.17 7.82-7.373 14.287-10 1.626-3.805 2.56-10.12 0-14.286-1.992-6.142-7.194-9.14-6.43-15.715-.927-5.44 4-8.82 5-12.858.027-4.77-.37-10.522 2.168-13.562 1.318-3.723 2.554-7.523 2.12-11.99.05-4.635-.926-6.524-3.572-8.02-2.553-4.402-10.65-2.928-14.286-6.428-2.297-6.426-9.67-6.746-15.714-7.857-4.3-1.61-11.995-4.66-15.715.714-5.754 1.985-11.154 8.613-18.473 11.248-6.885 3.163-14.19 2.758-21.527 3.75-10.006-.175-20.176.518-30-.713-6.82-5.2-8.33-6.15-15.497-11.082-3.07-2.9-13.357-7-16.644-3.918-2.288 2.62-4.07 5.362-7.265 6.35-2.17 3.57-11.897 2.91-17.25 3.65-4.065.23-9.225-.595-12.27.748-.9 1.18-6.106.02-7.5 4.252z" fill="none" fill-rule="evenodd" stroke="#000"/></clipPath></defs><text y="321.124" x="351.92" style="line-height:125%;-inkscape-font-specification:'Helvetica, Light';text-align:start" font-weight="300" font-size="17.5" font-family="Helvetica" letter-spacing="0" word-spacing="0" transform="translate(-754.583 -146.967)"/><text y="287.374" x="387.5" style="line-height:125%" font-weight="400" font-size="40" font-family="sans-serif" letter-spacing="0" word-spacing="0" transform="translate(-754.583 -146.967)"/><text y="181.124" x="631.25" style="line-height:125%" font-weight="400" font-size="40" font-family="sans-serif" letter-spacing="0" word-spacing="0" transform="translate(-754.583 -146.967)"/><g clip-path="url(#a)" transform="matrix(.36738 0 0 .36738 -226.505 -70.283)"><g transform="translate(525 100)" clip-path="url(#b)"><rect width="200" height="200" x="400" y="177.362" ry="0" opacity=".99" fill="#fff8db"/><path d="M500 177.362v200M400 277.362h200M550 177.362v100M500 227.362h100" fill="none" stroke="#cecab4"/></g><path d="M929.42 294.505c-1.394 4.232-1.206 11.903 1.377 17.104 4.262 7.46 8.19 15.878 15.693 20.93 5.98 2.29 12.927 1.382 18.99-.697 8.994-2.25 18.288-1.5 27.51-1.624 7.606-.006 11.036 6.448 10 13.156.637 6.523.098 14.743-8.57 13.638-8.596 1.7-17.927.945-25.714 5.348-7.65 1.398-15.093 7.707-16.063 15.36-2.12 10.446-.515 21.403-1.218 32.05-5.258 6.88-14.858 8.795-21.29 14.02-9.653 4.266-1.218 15.31 6.658 14.285 6.388 2.466 8.754 11.243 13.34 16.428 4.49 4.46 9.313 8.627 14.287 10 4.653 1.054 9.953.645 15 .714 7.66-4.737 10.41-14.338 17.476-20.027 6.364-4.315 13.787-8.05 21.326-8.545 4.735.315 9.97-.95 14.072 1.396 3.98 2.156 7.426 5.886 10.968 9.59 5.475 4.536 9.61 10.917 17.586 10.443 7.443.358 10.2 3.05 17.696 2.857 5.353.624 9.92-.75 14.447-3.572 5.208-3.617 10.288-9.328 9.287-16.175-.242-5.978 1.124-12.43-2.857-17.396-1.75-5.403-6.802-15.183-6.43-17.856-3.653-6.05-.806-12.224 5.318-14.21.71-1.696 9.956-7.05 9.683-11.505 6.403-6.17 7.82-7.373 14.287-10 1.626-3.805 2.56-10.12 0-14.286-1.992-6.142-7.194-9.14-6.43-15.715-.927-5.44 4-8.82 5-12.858.027-4.77-.37-10.522 2.168-13.562 1.318-3.723 2.554-7.523 2.12-11.99.05-4.635-.926-6.524-3.572-8.02-2.553-4.402-10.65-2.928-14.286-6.428-2.297-6.426-9.67-6.746-15.714-7.857-4.3-1.61-11.995-4.66-15.715.714-5.754 1.985-11.154 8.613-18.473 11.248-6.885 3.163-14.19 2.758-21.527 3.75-10.006-.175-20.176.518-30-.713-6.82-5.2-8.33-6.15-15.497-11.082-3.07-2.9-13.357-7-16.644-3.918-2.288 2.62-4.07 5.362-7.265 6.35-2.17 3.57-11.897 2.91-17.25 3.65-4.065.23-9.225-.595-12.27.748-.9 1.18-6.106.02-7.5 4.252z" fill="none" stroke="#646464" stroke-width="1.361"/><text y="316.797" x="966.874" style="line-height:125%;-inkscape-font-specification:'Helvetica, Normal';text-align:start" font-weight="400" font-size="27.22" font-family="Helvetica" letter-spacing="0" word-spacing="0" fill="#323232"><tspan y="316.797" x="966.874">1</tspan></text><text y="388.513" x="956.051" style="line-height:125%;-inkscape-font-specification:'Helvetica, Normal';text-align:start" font-weight="400" font-size="10" font-family="Helvetica" letter-spacing="0" word-spacing="0" fill="#323232"><tspan y="388.513" x="956.051">2</tspan></text><text y="306.369" x="1028.254" style="line-height:125%;-inkscape-font-specification:'Helvetica, Normal';text-align:start" font-weight="400" font-size="10" font-family="Helvetica" letter-spacing="0" word-spacing="0" fill="#323232"><tspan y="306.369" x="1028.254">4</tspan></text><text y="288.369" x="1078.383" style="line-height:125%;-inkscape-font-specification:'Helvetica, Normal';text-align:start" font-weight="400" font-size="10" font-family="Helvetica" letter-spacing="0" word-spacing="0" fill="#323232"><tspan y="288.369" x="1078.383">7</tspan></text><text y="388.879" x="1028.507" style="line-height:125%;-inkscape-font-specification:'Helvetica, Normal';text-align:start" font-weight="400" font-size="10" font-family="Helvetica" letter-spacing="0" word-spacing="0" fill="#323232"><tspan y="388.879" x="1028.507">3</tspan></text><text y="338.372" x="1028.254" style="line-height:125%;-inkscape-font-specification:'Helvetica, Normal';text-align:start" font-weight="400" font-size="10" font-family="Helvetica" letter-spacing="0" word-spacing="0" fill="#323232"><tspan y="338.372" x="1028.254">5</tspan></text><text y="338.158" x="1078.266" style="line-height:125%;-inkscape-font-specification:'Helvetica, Normal';text-align:start" font-weight="400" font-size="10" font-family="Helvetica" letter-spacing="0" word-spacing="0" fill="#323232"><tspan y="338.158" x="1078.266">6</tspan></text></g><g transform="matrix(.36738 0 0 .36738 -226.505 -68.006)" clip-path="url(#c)"><g transform="translate(525 100)" clip-path="url(#d)"><rect width="200" height="200" x="400" y="177.362" ry="0" opacity=".99" fill="#fff8db"/><path d="M500 177.362v200M400 277.362h200M550 177.362v100M500 227.362h100" fill="none" stroke="#cecab4"/></g><path d="M929.42 294.505c-1.394 4.232-1.206 11.903 1.377 17.104 4.262 7.46 8.19 15.878 15.693 20.93 5.98 2.29 12.927 1.382 18.99-.697 8.994-2.25 18.288-1.5 27.51-1.624 7.606-.006 11.036 6.448 10 13.156.637 6.523.098 14.743-8.57 13.638-8.596 1.7-17.927.945-25.714 5.348-7.65 1.398-15.093 7.707-16.063 15.36-2.12 10.446-.515 21.403-1.218 32.05-5.258 6.88-14.858 8.795-21.29 14.02-9.653 4.266-1.218 15.31 6.658 14.285 6.388 2.466 8.754 11.243 13.34 16.428 4.49 4.46 9.313 8.627 14.287 10 4.653 1.054 9.953.645 15 .714 7.66-4.737 10.41-14.338 17.476-20.027 6.364-4.315 13.787-8.05 21.326-8.545 4.735.315 9.97-.95 14.072 1.396 3.98 2.156 7.426 5.886 10.968 9.59 5.475 4.536 9.61 10.917 17.586 10.443 7.443.358 10.2 3.05 17.696 2.857 5.353.624 9.92-.75 14.447-3.572 5.208-3.617 10.288-9.328 9.287-16.175-.242-5.978 1.124-12.43-2.857-17.396-1.75-5.403-6.802-15.183-6.43-17.856-3.653-6.05-.806-12.224 5.318-14.21.71-1.696 9.956-7.05 9.683-11.505 6.403-6.17 7.82-7.373 14.287-10 1.626-3.805 2.56-10.12 0-14.286-1.992-6.142-7.194-9.14-6.43-15.715-.927-5.44 4-8.82 5-12.858.027-4.77-.37-10.522 2.168-13.562 1.318-3.723 2.554-7.523 2.12-11.99.05-4.635-.926-6.524-3.572-8.02-2.553-4.402-10.65-2.928-14.286-6.428-2.297-6.426-9.67-6.746-15.714-7.857-4.3-1.61-11.995-4.66-15.715.714-5.754 1.985-11.154 8.613-18.473 11.248-6.885 3.163-14.19 2.758-21.527 3.75-10.006-.175-20.176.518-30-.713-6.82-5.2-8.33-6.15-15.497-11.082-3.07-2.9-13.357-7-16.644-3.918-2.288 2.62-4.07 5.362-7.265 6.35-2.17 3.57-11.897 2.91-17.25 3.65-4.065.23-9.225-.595-12.27.748-.9 1.18-6.106.02-7.5 4.252z" fill="none" stroke="#646464" stroke-width="1.361"/><text y="300.466" x="934.211" style="line-height:125%;-inkscape-font-specification:'Helvetica, Normal';text-align:start" font-weight="400" font-size="10" font-family="Helvetica" letter-spacing="0" word-spacing="0" fill="#323232"/><text y="421.176" x="972.383" style="line-height:125%;-inkscape-font-specification:'Helvetica, Normal';text-align:start" font-weight="400" font-size="27.22" font-family="Helvetica" letter-spacing="0" word-spacing="0" fill="#323232"><tspan y="421.176" x="972.383">2</tspan></text><text y="306.369" x="1028.254" style="line-height:125%;-inkscape-font-specification:'Helvetica, Normal';text-align:start" font-weight="400" font-size="10" font-family="Helvetica" letter-spacing="0" word-spacing="0" fill="#323232"><tspan y="306.369" x="1028.254">4</tspan></text><text y="288.369" x="1078.383" style="line-height:125%;-inkscape-font-specification:'Helvetica, Normal';text-align:start" font-weight="400" font-size="10" font-family="Helvetica" letter-spacing="0" word-spacing="0" fill="#323232"><tspan y="288.369" x="1078.383">7</tspan></text><text y="388.879" x="1028.507" style="line-height:125%;-inkscape-font-specification:'Helvetica, Normal';text-align:start" font-weight="400" font-size="10" font-family="Helvetica" letter-spacing="0" word-spacing="0" fill="#323232"><tspan y="388.879" x="1028.507">3</tspan></text><text y="338.372" x="1028.254" style="line-height:125%;-inkscape-font-specification:'Helvetica, Normal';text-align:start" font-weight="400" font-size="10" font-family="Helvetica" letter-spacing="0" word-spacing="0" fill="#323232"><tspan y="338.372" x="1028.254">5</tspan></text><text y="338.158" x="1078.266" style="line-height:125%;-inkscape-font-specification:'Helvetica, Normal';text-align:start" font-weight="400" font-size="10" font-family="Helvetica" letter-spacing="0" word-spacing="0" fill="#323232"><tspan y="338.158" x="1078.266">6</tspan></text></g><g transform="matrix(.36738 0 0 .36738 -263.128 -33.26)" clip-path="url(#e)"><g transform="translate(525 100)" clip-path="url(#f)"><rect width="200" height="200" x="400" y="177.362" ry="0" opacity=".99" fill="#fff8db"/><path d="M500 177.362v200M400 277.362h200M550 177.362v100M500 227.362h100" fill="none" stroke="#cecab4"/></g><path d="M929.42 294.505c-1.394 4.232-1.206 11.903 1.377 17.104 4.262 7.46 8.19 15.878 15.693 20.93 5.98 2.29 12.927 1.382 18.99-.697 8.994-2.25 18.288-1.5 27.51-1.624 7.606-.006 11.036 6.448 10 13.156.637 6.523.098 14.743-8.57 13.638-8.596 1.7-17.927.945-25.714 5.348-7.65 1.398-15.093 7.707-16.063 15.36-2.12 10.446-.515 21.403-1.218 32.05-5.258 6.88-14.858 8.795-21.29 14.02-9.653 4.266-1.218 15.31 6.658 14.285 6.388 2.466 8.754 11.243 13.34 16.428 4.49 4.46 9.313 8.627 14.287 10 4.653 1.054 9.953.645 15 .714 7.66-4.737 10.41-14.338 17.476-20.027 6.364-4.315 13.787-8.05 21.326-8.545 4.735.315 9.97-.95 14.072 1.396 3.98 2.156 7.426 5.886 10.968 9.59 5.475 4.536 9.61 10.917 17.586 10.443 7.443.358 10.2 3.05 17.696 2.857 5.353.624 9.92-.75 14.447-3.572 5.208-3.617 10.288-9.328 9.287-16.175-.242-5.978 1.124-12.43-2.857-17.396-1.75-5.403-6.802-15.183-6.43-17.856-3.653-6.05-.806-12.224 5.318-14.21.71-1.696 9.956-7.05 9.683-11.505 6.403-6.17 7.82-7.373 14.287-10 1.626-3.805 2.56-10.12 0-14.286-1.992-6.142-7.194-9.14-6.43-15.715-.927-5.44 4-8.82 5-12.858.027-4.77-.37-10.522 2.168-13.562 1.318-3.723 2.554-7.523 2.12-11.99.05-4.635-.926-6.524-3.572-8.02-2.553-4.402-10.65-2.928-14.286-6.428-2.297-6.426-9.67-6.746-15.714-7.857-4.3-1.61-11.995-4.66-15.715.714-5.754 1.985-11.154 8.613-18.473 11.248-6.885 3.163-14.19 2.758-21.527 3.75-10.006-.175-20.176.518-30-.713-6.82-5.2-8.33-6.15-15.497-11.082-3.07-2.9-13.357-7-16.644-3.918-2.288 2.62-4.07 5.362-7.265 6.35-2.17 3.57-11.897 2.91-17.25 3.65-4.065.23-9.225-.595-12.27.748-.9 1.18-6.106.02-7.5 4.252z" fill="none" stroke="#646464" stroke-width="1.361"/><text y="300.466" x="934.211" style="line-height:125%;-inkscape-font-specification:'Helvetica, Normal';text-align:start" font-weight="400" font-size="10" font-family="Helvetica" letter-spacing="0" word-spacing="0" fill="#323232"><tspan y="300.466" x="934.211">1</tspan></text><text y="388.513" x="956.051" style="line-height:125%;-inkscape-font-specification:'Helvetica, Normal';text-align:start" font-weight="400" font-size="10" font-family="Helvetica" letter-spacing="0" word-spacing="0" fill="#323232"><tspan y="388.513" x="956.051">2</tspan></text><text y="306.369" x="1028.254" style="line-height:125%;-inkscape-font-specification:'Helvetica, Normal';text-align:start" font-weight="400" font-size="10" font-family="Helvetica" letter-spacing="0" word-spacing="0" fill="#323232"><tspan y="306.369" x="1028.254">4</tspan></text><text y="288.369" x="1078.383" style="line-height:125%;-inkscape-font-specification:'Helvetica, Normal';text-align:start" font-weight="400" font-size="10" font-family="Helvetica" letter-spacing="0" word-spacing="0" fill="#323232"><tspan y="288.369" x="1078.383">7</tspan></text><text y="421.543" x="1055.726" style="line-height:125%;-inkscape-font-specification:'Helvetica, Normal';text-align:start" font-weight="400" font-size="27.22" font-family="Helvetica" letter-spacing="0" word-spacing="0" fill="#323232"><tspan y="421.543" x="1055.726">3</tspan></text><text y="338.372" x="1028.254" style="line-height:125%;-inkscape-font-specification:'Helvetica, Normal';text-align:start" font-weight="400" font-size="10" font-family="Helvetica" letter-spacing="0" word-spacing="0" fill="#323232"><tspan y="338.372" x="1028.254">5</tspan></text><text y="338.158" x="1078.266" style="line-height:125%;-inkscape-font-specification:'Helvetica, Normal';text-align:start" font-weight="400" font-size="10" font-family="Helvetica" letter-spacing="0" word-spacing="0" fill="#323232"><tspan y="338.158" x="1078.266">6</tspan></text></g><g transform="matrix(.36738 0 0 .36738 -263.128 38.226)" clip-path="url(#g)"><g transform="translate(525 100)" clip-path="url(#h)"><rect width="200" height="200" x="400" y="177.362" ry="0" opacity=".99" fill="#fff8db"/><path d="M500 177.362v200M400 277.362h200M550 177.362v100M500 227.362h100" fill="none" stroke="#cecab4"/></g><path d="M929.42 294.505c-1.394 4.232-1.206 11.903 1.377 17.104 4.262 7.46 8.19 15.878 15.693 20.93 5.98 2.29 12.927 1.382 18.99-.697 8.994-2.25 18.288-1.5 27.51-1.624 7.606-.006 11.036 6.448 10 13.156.637 6.523.098 14.743-8.57 13.638-8.596 1.7-17.927.945-25.714 5.348-7.65 1.398-15.093 7.707-16.063 15.36-2.12 10.446-.515 21.403-1.218 32.05-5.258 6.88-14.858 8.795-21.29 14.02-9.653 4.266-1.218 15.31 6.658 14.285 6.388 2.466 8.754 11.243 13.34 16.428 4.49 4.46 9.313 8.627 14.287 10 4.653 1.054 9.953.645 15 .714 7.66-4.737 10.41-14.338 17.476-20.027 6.364-4.315 13.787-8.05 21.326-8.545 4.735.315 9.97-.95 14.072 1.396 3.98 2.156 7.426 5.886 10.968 9.59 5.475 4.536 9.61 10.917 17.586 10.443 7.443.358 10.2 3.05 17.696 2.857 5.353.624 9.92-.75 14.447-3.572 5.208-3.617 10.288-9.328 9.287-16.175-.242-5.978 1.124-12.43-2.857-17.396-1.75-5.403-6.802-15.183-6.43-17.856-3.653-6.05-.806-12.224 5.318-14.21.71-1.696 9.956-7.05 9.683-11.505 6.403-6.17 7.82-7.373 14.287-10 1.626-3.805 2.56-10.12 0-14.286-1.992-6.142-7.194-9.14-6.43-15.715-.927-5.44 4-8.82 5-12.858.027-4.77-.37-10.522 2.168-13.562 1.318-3.723 2.554-7.523 2.12-11.99.05-4.635-.926-6.524-3.572-8.02-2.553-4.402-10.65-2.928-14.286-6.428-2.297-6.426-9.67-6.746-15.714-7.857-4.3-1.61-11.995-4.66-15.715.714-5.754 1.985-11.154 8.613-18.473 11.248-6.885 3.163-14.19 2.758-21.527 3.75-10.006-.175-20.176.518-30-.713-6.82-5.2-8.33-6.15-15.497-11.082-3.07-2.9-13.357-7-16.644-3.918-2.288 2.62-4.07 5.362-7.265 6.35-2.17 3.57-11.897 2.91-17.25 3.65-4.065.23-9.225-.595-12.27.748-.9 1.18-6.106.02-7.5 4.252z" fill="none" stroke="#646464" stroke-width="1.361"/><text y="300.466" x="934.211" style="line-height:125%;-inkscape-font-specification:'Helvetica, Normal';text-align:start" font-weight="400" font-size="10" font-family="Helvetica" letter-spacing="0" word-spacing="0" fill="#323232"><tspan y="300.466" x="934.211">1</tspan></text><text y="388.513" x="956.051" style="line-height:125%;-inkscape-font-specification:'Helvetica, Normal';text-align:start" font-weight="400" font-size="10" font-family="Helvetica" letter-spacing="0" word-spacing="0" fill="#323232"><tspan y="388.513" x="956.051">2</tspan></text><text y="317.257" x="1039.142" style="line-height:125%;-inkscape-font-specification:'Helvetica, Normal';text-align:start" font-weight="400" font-size="27.22" font-family="Helvetica" letter-spacing="0" word-spacing="0" fill="#323232"><tspan y="317.257" x="1039.142">4</tspan></text><text y="288.369" x="1078.383" style="line-height:125%;-inkscape-font-specification:'Helvetica, Normal';text-align:start" font-weight="400" font-size="10" font-family="Helvetica" letter-spacing="0" word-spacing="0" fill="#323232"><tspan y="288.369" x="1078.383">7</tspan></text><text y="388.879" x="1028.507" style="line-height:125%;-inkscape-font-specification:'Helvetica, Normal';text-align:start" font-weight="400" font-size="10" font-family="Helvetica" letter-spacing="0" word-spacing="0" fill="#323232"><tspan y="388.879" x="1028.507">3</tspan></text><text y="338.372" x="1028.254" style="line-height:125%;-inkscape-font-specification:'Helvetica, Normal';text-align:start" font-weight="400" font-size="10" font-family="Helvetica" letter-spacing="0" word-spacing="0" fill="#323232"><tspan y="338.372" x="1028.254">5</tspan></text><text y="338.158" x="1078.266" style="line-height:125%;-inkscape-font-specification:'Helvetica, Normal';text-align:start" font-weight="400" font-size="10" font-family="Helvetica" letter-spacing="0" word-spacing="0" fill="#323232"><tspan y="338.158" x="1078.266">6</tspan></text></g><g transform="matrix(.36738 0 0 .36738 -263.128 40.503)" clip-path="url(#i)"><g transform="translate(525 100)" clip-path="url(#j)"><rect width="200" height="200" x="400" y="177.362" ry="0" opacity=".99" fill="#fff8db"/><path d="M500 177.362v200M400 277.362h200M550 177.362v100M500 227.362h100" fill="none" stroke="#cecab4"/></g><path d="M929.42 294.505c-1.394 4.232-1.206 11.903 1.377 17.104 4.262 7.46 8.19 15.878 15.693 20.93 5.98 2.29 12.927 1.382 18.99-.697 8.994-2.25 18.288-1.5 27.51-1.624 7.606-.006 11.036 6.448 10 13.156.637 6.523.098 14.743-8.57 13.638-8.596 1.7-17.927.945-25.714 5.348-7.65 1.398-15.093 7.707-16.063 15.36-2.12 10.446-.515 21.403-1.218 32.05-5.258 6.88-14.858 8.795-21.29 14.02-9.653 4.266-1.218 15.31 6.658 14.285 6.388 2.466 8.754 11.243 13.34 16.428 4.49 4.46 9.313 8.627 14.287 10 4.653 1.054 9.953.645 15 .714 7.66-4.737 10.41-14.338 17.476-20.027 6.364-4.315 13.787-8.05 21.326-8.545 4.735.315 9.97-.95 14.072 1.396 3.98 2.156 7.426 5.886 10.968 9.59 5.475 4.536 9.61 10.917 17.586 10.443 7.443.358 10.2 3.05 17.696 2.857 5.353.624 9.92-.75 14.447-3.572 5.208-3.617 10.288-9.328 9.287-16.175-.242-5.978 1.124-12.43-2.857-17.396-1.75-5.403-6.802-15.183-6.43-17.856-3.653-6.05-.806-12.224 5.318-14.21.71-1.696 9.956-7.05 9.683-11.505 6.403-6.17 7.82-7.373 14.287-10 1.626-3.805 2.56-10.12 0-14.286-1.992-6.142-7.194-9.14-6.43-15.715-.927-5.44 4-8.82 5-12.858.027-4.77-.37-10.522 2.168-13.562 1.318-3.723 2.554-7.523 2.12-11.99.05-4.635-.926-6.524-3.572-8.02-2.553-4.402-10.65-2.928-14.286-6.428-2.297-6.426-9.67-6.746-15.714-7.857-4.3-1.61-11.995-4.66-15.715.714-5.754 1.985-11.154 8.613-18.473 11.248-6.885 3.163-14.19 2.758-21.527 3.75-10.006-.175-20.176.518-30-.713-6.82-5.2-8.33-6.15-15.497-11.082-3.07-2.9-13.357-7-16.644-3.918-2.288 2.62-4.07 5.362-7.265 6.35-2.17 3.57-11.897 2.91-17.25 3.65-4.065.23-9.225-.595-12.27.748-.9 1.18-6.106.02-7.5 4.252z" fill="none" stroke="#646464" stroke-width="1.361"/><text y="300.466" x="934.211" style="line-height:125%;-inkscape-font-specification:'Helvetica, Normal';text-align:start" font-weight="400" font-size="10" font-family="Helvetica" letter-spacing="0" word-spacing="0" fill="#323232"><tspan y="300.466" x="934.211">1</tspan></text><text y="388.513" x="956.051" style="line-height:125%;-inkscape-font-specification:'Helvetica, Normal';text-align:start" font-weight="400" font-size="10" font-family="Helvetica" letter-spacing="0" word-spacing="0" fill="#323232"><tspan y="388.513" x="956.051">2</tspan></text><text y="306.369" x="1028.254" style="line-height:125%;-inkscape-font-specification:'Helvetica, Normal';text-align:start" font-weight="400" font-size="10" font-family="Helvetica" letter-spacing="0" word-spacing="0" fill="#323232"><tspan y="306.369" x="1028.254">4</tspan></text><text y="288.369" x="1078.383" style="line-height:125%;-inkscape-font-specification:'Helvetica, Normal';text-align:start" font-weight="400" font-size="10" font-family="Helvetica" letter-spacing="0" word-spacing="0" fill="#323232"><tspan y="288.369" x="1078.383">7</tspan></text><text y="388.879" x="1028.507" style="line-height:125%;-inkscape-font-specification:'Helvetica, Normal';text-align:start" font-weight="400" font-size="10" font-family="Helvetica" letter-spacing="0" word-spacing="0" fill="#323232"><tspan y="388.879" x="1028.507">3</tspan></text><text y="338.158" x="1078.266" style="line-height:125%;-inkscape-font-specification:'Helvetica, Normal';text-align:start" font-weight="400" font-size="10" font-family="Helvetica" letter-spacing="0" word-spacing="0" fill="#323232"><tspan y="338.158" x="1078.266">6</tspan></text><text y="360.147" x="1039.142" style="line-height:125%;-inkscape-font-specification:'Helvetica, Normal';text-align:start" font-weight="400" font-size="27.22" font-family="Helvetica" letter-spacing="0" word-spacing="0" fill="#323232"><tspan y="360.147" x="1039.142">5</tspan></text></g><g transform="matrix(.36738 0 0 .36738 -281.497 61.15)" clip-path="url(#k)"><g transform="translate(525 100)" clip-path="url(#l)"><rect width="200" height="200" x="400" y="177.362" ry="0" opacity=".99" fill="#fff8db"/><path d="M500 177.362v200M400 277.362h200M550 177.362v100M500 227.362h100" fill="none" stroke="#cecab4"/></g><path d="M929.42 294.505c-1.394 4.232-1.206 11.903 1.377 17.104 4.262 7.46 8.19 15.878 15.693 20.93 5.98 2.29 12.927 1.382 18.99-.697 8.994-2.25 18.288-1.5 27.51-1.624 7.606-.006 11.036 6.448 10 13.156.637 6.523.098 14.743-8.57 13.638-8.596 1.7-17.927.945-25.714 5.348-7.65 1.398-15.093 7.707-16.063 15.36-2.12 10.446-.515 21.403-1.218 32.05-5.258 6.88-14.858 8.795-21.29 14.02-9.653 4.266-1.218 15.31 6.658 14.285 6.388 2.466 8.754 11.243 13.34 16.428 4.49 4.46 9.313 8.627 14.287 10 4.653 1.054 9.953.645 15 .714 7.66-4.737 10.41-14.338 17.476-20.027 6.364-4.315 13.787-8.05 21.326-8.545 4.735.315 9.97-.95 14.072 1.396 3.98 2.156 7.426 5.886 10.968 9.59 5.475 4.536 9.61 10.917 17.586 10.443 7.443.358 10.2 3.05 17.696 2.857 5.353.624 9.92-.75 14.447-3.572 5.208-3.617 10.288-9.328 9.287-16.175-.242-5.978 1.124-12.43-2.857-17.396-1.75-5.403-6.802-15.183-6.43-17.856-3.653-6.05-.806-12.224 5.318-14.21.71-1.696 9.956-7.05 9.683-11.505 6.403-6.17 7.82-7.373 14.287-10 1.626-3.805 2.56-10.12 0-14.286-1.992-6.142-7.194-9.14-6.43-15.715-.927-5.44 4-8.82 5-12.858.027-4.77-.37-10.522 2.168-13.562 1.318-3.723 2.554-7.523 2.12-11.99.05-4.635-.926-6.524-3.572-8.02-2.553-4.402-10.65-2.928-14.286-6.428-2.297-6.426-9.67-6.746-15.714-7.857-4.3-1.61-11.995-4.66-15.715.714-5.754 1.985-11.154 8.613-18.473 11.248-6.885 3.163-14.19 2.758-21.527 3.75-10.006-.175-20.176.518-30-.713-6.82-5.2-8.33-6.15-15.497-11.082-3.07-2.9-13.357-7-16.644-3.918-2.288 2.62-4.07 5.362-7.265 6.35-2.17 3.57-11.897 2.91-17.25 3.65-4.065.23-9.225-.595-12.27.748-.9 1.18-6.106.02-7.5 4.252z" fill="none" stroke="#646464" stroke-width="1.361"/><text y="300.466" x="934.211" style="line-height:125%;-inkscape-font-specification:'Helvetica, Normal';text-align:start" font-weight="400" font-size="10" font-family="Helvetica" letter-spacing="0" word-spacing="0" fill="#323232"><tspan y="300.466" x="934.211">1</tspan></text><text y="388.513" x="956.051" style="line-height:125%;-inkscape-font-specification:'Helvetica, Normal';text-align:start" font-weight="400" font-size="10" font-family="Helvetica" letter-spacing="0" word-spacing="0" fill="#323232"><tspan y="388.513" x="956.051">2</tspan></text><text y="306.369" x="1028.254" style="line-height:125%;-inkscape-font-specification:'Helvetica, Normal';text-align:start" font-weight="400" font-size="10" font-family="Helvetica" letter-spacing="0" word-spacing="0" fill="#323232"><tspan y="306.369" x="1028.254">4</tspan></text><text y="288.369" x="1078.383" style="line-height:125%;-inkscape-font-specification:'Helvetica, Normal';text-align:start" font-weight="400" font-size="10" font-family="Helvetica" letter-spacing="0" word-spacing="0" fill="#323232"><tspan y="288.369" x="1078.383">7</tspan></text><text y="388.879" x="1028.507" style="line-height:125%;-inkscape-font-specification:'Helvetica, Normal';text-align:start" font-weight="400" font-size="10" font-family="Helvetica" letter-spacing="0" word-spacing="0" fill="#323232"><tspan y="388.879" x="1028.507">3</tspan></text><text y="338.372" x="1028.254" style="line-height:125%;-inkscape-font-specification:'Helvetica, Normal';text-align:start" font-weight="400" font-size="10" font-family="Helvetica" letter-spacing="0" word-spacing="0" fill="#323232"><tspan y="338.372" x="1028.254">5</tspan></text><text y="359.811" x="1088.92" style="line-height:125%;-inkscape-font-specification:'Helvetica, Normal';text-align:start" font-weight="400" font-size="27.22" font-family="Helvetica" letter-spacing="0" word-spacing="0" fill="#323232"><tspan y="359.811" x="1088.92">6</tspan></text></g><g transform="matrix(.36738 0 0 .36738 -281.497 100.416)" clip-path="url(#m)"><g transform="translate(525 100)" clip-path="url(#n)"><rect width="200" height="200" x="400" y="177.362" ry="0" opacity=".99" fill="#fff8db"/><path d="M500 177.362v200M400 277.362h200M550 177.362v100M500 227.362h100" fill="none" stroke="#cecab4"/></g><path d="M929.42 294.505c-1.394 4.232-1.206 11.903 1.377 17.104 4.262 7.46 8.19 15.878 15.693 20.93 5.98 2.29 12.927 1.382 18.99-.697 8.994-2.25 18.288-1.5 27.51-1.624 7.606-.006 11.036 6.448 10 13.156.637 6.523.098 14.743-8.57 13.638-8.596 1.7-17.927.945-25.714 5.348-7.65 1.398-15.093 7.707-16.063 15.36-2.12 10.446-.515 21.403-1.218 32.05-5.258 6.88-14.858 8.795-21.29 14.02-9.653 4.266-1.218 15.31 6.658 14.285 6.388 2.466 8.754 11.243 13.34 16.428 4.49 4.46 9.313 8.627 14.287 10 4.653 1.054 9.953.645 15 .714 7.66-4.737 10.41-14.338 17.476-20.027 6.364-4.315 13.787-8.05 21.326-8.545 4.735.315 9.97-.95 14.072 1.396 3.98 2.156 7.426 5.886 10.968 9.59 5.475 4.536 9.61 10.917 17.586 10.443 7.443.358 10.2 3.05 17.696 2.857 5.353.624 9.92-.75 14.447-3.572 5.208-3.617 10.288-9.328 9.287-16.175-.242-5.978 1.124-12.43-2.857-17.396-1.75-5.403-6.802-15.183-6.43-17.856-3.653-6.05-.806-12.224 5.318-14.21.71-1.696 9.956-7.05 9.683-11.505 6.403-6.17 7.82-7.373 14.287-10 1.626-3.805 2.56-10.12 0-14.286-1.992-6.142-7.194-9.14-6.43-15.715-.927-5.44 4-8.82 5-12.858.027-4.77-.37-10.522 2.168-13.562 1.318-3.723 2.554-7.523 2.12-11.99.05-4.635-.926-6.524-3.572-8.02-2.553-4.402-10.65-2.928-14.286-6.428-2.297-6.426-9.67-6.746-15.714-7.857-4.3-1.61-11.995-4.66-15.715.714-5.754 1.985-11.154 8.613-18.473 11.248-6.885 3.163-14.19 2.758-21.527 3.75-10.006-.175-20.176.518-30-.713-6.82-5.2-8.33-6.15-15.497-11.082-3.07-2.9-13.357-7-16.644-3.918-2.288 2.62-4.07 5.362-7.265 6.35-2.17 3.57-11.897 2.91-17.25 3.65-4.065.23-9.225-.595-12.27.748-.9 1.18-6.106.02-7.5 4.252z" fill="none" stroke="#646464" stroke-width="1.361"/><text y="300.466" x="934.211" style="line-height:125%;-inkscape-font-specification:'Helvetica, Normal';text-align:start" font-weight="400" font-size="10" font-family="Helvetica" letter-spacing="0" word-spacing="0" fill="#323232"><tspan y="300.466" x="934.211">1</tspan></text><text y="388.513" x="956.051" style="line-height:125%;-inkscape-font-specification:'Helvetica, Normal';text-align:start" font-weight="400" font-size="10" font-family="Helvetica" letter-spacing="0" word-spacing="0" fill="#323232"><tspan y="388.513" x="956.051">2</tspan></text><text y="306.369" x="1028.254" style="line-height:125%;-inkscape-font-specification:'Helvetica, Normal';text-align:start" font-weight="400" font-size="10" font-family="Helvetica" letter-spacing="0" word-spacing="0" fill="#323232"><tspan y="306.369" x="1028.254">4</tspan></text><text y="315.3" x="1088.24" style="line-height:125%;-inkscape-font-specification:'Helvetica, Normal';text-align:start" font-weight="400" font-size="27.22" font-family="Helvetica" letter-spacing="0" word-spacing="0" fill="#323232"><tspan y="315.3" x="1088.24">7</tspan></text><text y="388.879" x="1028.507" style="line-height:125%;-inkscape-font-specification:'Helvetica, Normal';text-align:start" font-weight="400" font-size="10" font-family="Helvetica" letter-spacing="0" word-spacing="0" fill="#323232"><tspan y="388.879" x="1028.507">3</tspan></text><text y="338.372" x="1028.254" style="line-height:125%;-inkscape-font-specification:'Helvetica, Normal';text-align:start" font-weight="400" font-size="10" font-family="Helvetica" letter-spacing="0" word-spacing="0" fill="#323232"><tspan y="338.372" x="1028.254">5</tspan></text><text y="338.158" x="1078.266" style="line-height:125%;-inkscape-font-specification:'Helvetica, Normal';text-align:start" font-weight="400" font-size="10" font-family="Helvetica" letter-spacing="0" word-spacing="0" fill="#323232"><tspan y="338.158" x="1078.266">6</tspan></text></g><path d="M0 19.3h150.773" fill="none" stroke="#323232" stroke-width=".984"/><text style="line-height:125%;-inkscape-font-specification:'Helvetica, Light';text-align:start" x="493.76" y="420.161" font-weight="300" font-size="17.5" font-family="Helvetica" letter-spacing="0" word-spacing="0" fill="#323232" transform="translate(-495.177 -407.562)"><tspan x="493.76" y="420.161">Bipartite network</tspan></text><path d="M19.798 76.05l87.5 6.25M19.798 76.05l87.5-25M107.298 151.05l-87.5-75" fill="none" stroke="#e17a5c"/><path d="M19.798 113.55l87.5-31.25M19.798 113.55l87.5 6.25M107.298 188.55l-87.5-75" fill="#8fbfa7" fill-rule="evenodd" stroke="#579779"/><path d="M107.298 169.8l-87.5-18.75M107.298 188.55l-87.5-37.5M107.298 207.3l-87.5-56.25" fill="none" stroke="#b6abe5"/><path d="M107.298 188.55h-87.5M107.298 207.3l-87.5-18.75" fill="none" stroke="#e695be"/><g fill="none" stroke="#323232" stroke-width="2"><path d="M294 539.862h75M362.75 533.612l6.25 6.25-6.25 6.25" transform="matrix(1.06543 0 0 .99656 -127.115 -406.984)"/></g><text y="245.133" x="940.135" style="line-height:125%;-inkscape-font-specification:'Helvetica, Light';text-align:start" font-weight="300" font-size="17.5" font-family="Helvetica" letter-spacing="0" word-spacing="0" fill="#323232" transform="translate(-754.583 -146.967)"><tspan y="245.133" x="940.135">Network</tspan><tspan y="267.008" x="940.135">clustering</tspan></text><g><g transform="translate(-1022.973 172.007)"><circle cx="1031.623" cy="-57.612" r="7.071" fill="#8fbfa7" stroke="#579779"/><circle cx="1031.623" cy="16.227" r="7.071" fill="#e695be" stroke="#d3418a"/><circle cx="1031.623" cy="-20.693" r="7.071" fill="#b6abe5" stroke="#7763cd"/><circle cx="1031.623" cy="-94.531" r="7.071" fill="#e48366" fill-opacity=".999" stroke="#d14c26"/></g><text style="line-height:125%;-inkscape-font-specification:'Helvetica, Light';text-align:start" x="351.92" y="317.362" font-weight="300" font-size="17.5" font-family="Helvetica" letter-spacing="0" word-spacing="0" transform="translate(-110.867 -143.73)"/><text style="line-height:125%" x="387.5" y="283.612" font-weight="400" font-size="40" font-family="sans-serif" letter-spacing="0" word-spacing="0" transform="translate(-110.867 -143.73)"/><text style="line-height:125%" x="631.25" y="177.362" font-weight="400" font-size="40" font-family="sans-serif" letter-spacing="0" word-spacing="0" transform="translate(-110.867 -143.73)"/><g transform="translate(-691.892 -142.316)"><circle r="7.071" cy="330.348" cx="1001.511" fill="#b6abe5" stroke="#7763cd"/><circle r="7.071" cy="256.51" cx="1001.511" fill="#e17a5c" stroke="#d14c26"/><g transform="matrix(.36738 0 0 .36738 766.983 72.386)" clip-path="url(#o)"><g clip-path="url(#p)" transform="translate(525 100)"><rect ry="0" y="177.362" x="400" height="200" width="200" opacity=".99" fill="#e17a5c"/><path d="M500 177.362v200M400 277.362h200M550 177.362v100M500 227.362h100" fill="none" stroke="#cecab4"/></g><path d="M929.42 294.505c-1.394 4.232-1.206 11.903 1.377 17.104 4.262 7.46 8.19 15.878 15.693 20.93 5.98 2.29 12.927 1.382 18.99-.697 8.994-2.25 18.288-1.5 27.51-1.624 7.606-.006 11.036 6.448 10 13.156.637 6.523.098 14.743-8.57 13.638-8.596 1.7-17.927.945-25.714 5.348-7.65 1.398-15.093 7.707-16.063 15.36-2.12 10.446-.515 21.403-1.218 32.05-5.258 6.88-14.858 8.795-21.29 14.02-9.653 4.266-1.218 15.31 6.658 14.285 6.388 2.466 8.754 11.243 13.34 16.428 4.49 4.46 9.313 8.627 14.287 10 4.653 1.054 9.953.645 15 .714 7.66-4.737 10.41-14.338 17.476-20.027 6.364-4.315 13.787-8.05 21.326-8.545 4.735.315 9.97-.95 14.072 1.396 3.98 2.156 7.426 5.886 10.968 9.59 5.475 4.536 9.61 10.917 17.586 10.443 7.443.358 10.2 3.05 17.696 2.857 5.353.624 9.92-.75 14.447-3.572 5.208-3.617 10.288-9.328 9.287-16.175-.242-5.978 1.124-12.43-2.857-17.396-1.75-5.403-6.802-15.183-6.43-17.856-3.653-6.05-.806-12.224 5.318-14.21.71-1.696 9.956-7.05 9.683-11.505 6.403-6.17 7.82-7.373 14.287-10 1.626-3.805 2.56-10.12 0-14.286-1.992-6.142-7.194-9.14-6.43-15.715-.927-5.44 4-8.82 5-12.858.027-4.77-.37-10.522 2.168-13.562 1.318-3.723 2.554-7.523 2.12-11.99.05-4.635-.926-6.524-3.572-8.02-2.553-4.402-10.65-2.928-14.286-6.428-2.297-6.426-9.67-6.746-15.714-7.857-4.3-1.61-11.995-4.66-15.715.714-5.754 1.985-11.154 8.613-18.473 11.248-6.885 3.163-14.19 2.758-21.527 3.75-10.006-.175-20.176.518-30-.713-6.82-5.2-8.33-6.15-15.497-11.082-3.07-2.9-13.357-7-16.644-3.918-2.288 2.62-4.07 5.362-7.265 6.35-2.17 3.57-11.897 2.91-17.25 3.65-4.065.23-9.225-.595-12.27.748-.9 1.18-6.106.02-7.5 4.252z" fill="none" stroke="#646464" stroke-width="1.361"/><text style="line-height:125%;-inkscape-font-specification:'Helvetica, Normal';text-align:start" x="966.874" y="316.797" font-weight="400" font-size="27.22" font-family="Helvetica" letter-spacing="0" word-spacing="0" fill="#323232"><tspan x="966.874" y="316.797">1</tspan></text><text style="line-height:125%;-inkscape-font-specification:'Helvetica, Normal';text-align:start" x="956.051" y="388.513" font-weight="400" font-size="10" font-family="Helvetica" letter-spacing="0" word-spacing="0" fill="#323232"><tspan x="956.051" y="388.513">2</tspan></text><text style="line-height:125%;-inkscape-font-specification:'Helvetica, Normal';text-align:start" x="1028.254" y="306.369" font-weight="400" font-size="10" font-family="Helvetica" letter-spacing="0" word-spacing="0" fill="#323232"><tspan x="1028.254" y="306.369">4</tspan></text><text style="line-height:125%;-inkscape-font-specification:'Helvetica, Normal';text-align:start" x="1078.383" y="288.369" font-weight="400" font-size="10" font-family="Helvetica" letter-spacing="0" word-spacing="0" fill="#323232"><tspan x="1078.383" y="288.369">7</tspan></text><text style="line-height:125%;-inkscape-font-specification:'Helvetica, Normal';text-align:start" x="1028.507" y="388.879" font-weight="400" font-size="10" font-family="Helvetica" letter-spacing="0" word-spacing="0" fill="#323232"><tspan x="1028.507" y="388.879">3</tspan></text><text style="line-height:125%;-inkscape-font-specification:'Helvetica, Normal';text-align:start" x="1028.254" y="338.372" font-weight="400" font-size="10" font-family="Helvetica" letter-spacing="0" word-spacing="0" fill="#323232"><tspan x="1028.254" y="338.372">5</tspan></text><text style="line-height:125%;-inkscape-font-specification:'Helvetica, Normal';text-align:start" x="1078.266" y="338.158" font-weight="400" font-size="10" font-family="Helvetica" letter-spacing="0" word-spacing="0" fill="#323232"><tspan x="1078.266" y="338.158">6</tspan></text></g><circle r="7.071" cy="293.429" cx="1001.511" fill="#b6abe5" stroke="#7763cd"/><circle r="7.071" cy="219.591" cx="1001.511" fill="#e17a5c" stroke="#d14c26"/><g clip-path="url(#q)" transform="matrix(.36738 0 0 .36738 766.983 74.663)"><g clip-path="url(#r)" transform="translate(525 100)"><rect ry="0" y="177.362" x="400" height="200" width="200" opacity=".99" fill="#e17a5c"/><path d="M500 177.362v200M400 277.362h200M550 177.362v100M500 227.362h100" fill="none" stroke="#cecab4"/></g><path d="M929.42 294.505c-1.394 4.232-1.206 11.903 1.377 17.104 4.262 7.46 8.19 15.878 15.693 20.93 5.98 2.29 12.927 1.382 18.99-.697 8.994-2.25 18.288-1.5 27.51-1.624 7.606-.006 11.036 6.448 10 13.156.637 6.523.098 14.743-8.57 13.638-8.596 1.7-17.927.945-25.714 5.348-7.65 1.398-15.093 7.707-16.063 15.36-2.12 10.446-.515 21.403-1.218 32.05-5.258 6.88-14.858 8.795-21.29 14.02-9.653 4.266-1.218 15.31 6.658 14.285 6.388 2.466 8.754 11.243 13.34 16.428 4.49 4.46 9.313 8.627 14.287 10 4.653 1.054 9.953.645 15 .714 7.66-4.737 10.41-14.338 17.476-20.027 6.364-4.315 13.787-8.05 21.326-8.545 4.735.315 9.97-.95 14.072 1.396 3.98 2.156 7.426 5.886 10.968 9.59 5.475 4.536 9.61 10.917 17.586 10.443 7.443.358 10.2 3.05 17.696 2.857 5.353.624 9.92-.75 14.447-3.572 5.208-3.617 10.288-9.328 9.287-16.175-.242-5.978 1.124-12.43-2.857-17.396-1.75-5.403-6.802-15.183-6.43-17.856-3.653-6.05-.806-12.224 5.318-14.21.71-1.696 9.956-7.05 9.683-11.505 6.403-6.17 7.82-7.373 14.287-10 1.626-3.805 2.56-10.12 0-14.286-1.992-6.142-7.194-9.14-6.43-15.715-.927-5.44 4-8.82 5-12.858.027-4.77-.37-10.522 2.168-13.562 1.318-3.723 2.554-7.523 2.12-11.99.05-4.635-.926-6.524-3.572-8.02-2.553-4.402-10.65-2.928-14.286-6.428-2.297-6.426-9.67-6.746-15.714-7.857-4.3-1.61-11.995-4.66-15.715.714-5.754 1.985-11.154 8.613-18.473 11.248-6.885 3.163-14.19 2.758-21.527 3.75-10.006-.175-20.176.518-30-.713-6.82-5.2-8.33-6.15-15.497-11.082-3.07-2.9-13.357-7-16.644-3.918-2.288 2.62-4.07 5.362-7.265 6.35-2.17 3.57-11.897 2.91-17.25 3.65-4.065.23-9.225-.595-12.27.748-.9 1.18-6.106.02-7.5 4.252z" fill="none" stroke="#646464" stroke-width="1.361"/><text style="line-height:125%;-inkscape-font-specification:'Helvetica, Normal';text-align:start" x="934.211" y="300.466" font-weight="400" font-size="10" font-family="Helvetica" letter-spacing="0" word-spacing="0" fill="#323232"/><text style="line-height:125%;-inkscape-font-specification:'Helvetica, Normal';text-align:start" x="972.383" y="421.176" font-weight="400" font-size="27.22" font-family="Helvetica" letter-spacing="0" word-spacing="0" fill="#323232"><tspan x="972.383" y="421.176">2</tspan></text><text style="line-height:125%;-inkscape-font-specification:'Helvetica, Normal';text-align:start" x="1028.254" y="306.369" font-weight="400" font-size="10" font-family="Helvetica" letter-spacing="0" word-spacing="0" fill="#323232"><tspan x="1028.254" y="306.369">4</tspan></text><text style="line-height:125%;-inkscape-font-specification:'Helvetica, Normal';text-align:start" x="1078.383" y="288.369" font-weight="400" font-size="10" font-family="Helvetica" letter-spacing="0" word-spacing="0" fill="#323232"><tspan x="1078.383" y="288.369">7</tspan></text><text style="line-height:125%;-inkscape-font-specification:'Helvetica, Normal';text-align:start" x="1028.507" y="388.879" font-weight="400" font-size="10" font-family="Helvetica" letter-spacing="0" word-spacing="0" fill="#323232"><tspan x="1028.507" y="388.879">3</tspan></text><text style="line-height:125%;-inkscape-font-specification:'Helvetica, Normal';text-align:start" x="1028.254" y="338.372" font-weight="400" font-size="10" font-family="Helvetica" letter-spacing="0" word-spacing="0" fill="#323232"><tspan x="1028.254" y="338.372">5</tspan></text><text style="line-height:125%;-inkscape-font-specification:'Helvetica, Normal';text-align:start" x="1078.266" y="338.158" font-weight="400" font-size="10" font-family="Helvetica" letter-spacing="0" word-spacing="0" fill="#323232"><tspan x="1078.266" y="338.158">6</tspan></text></g><g clip-path="url(#s)" transform="matrix(.36738 0 0 .36738 730.36 109.41)"><g clip-path="url(#t)" transform="translate(525 100)"><rect ry="0" y="177.362" x="400" height="200" width="200" opacity=".99" fill="#fff8db"/><path d="M500 177.362v200M400 277.362h200M550 177.362v100M500 227.362h100" fill="none" stroke="#cecab4"/></g><path d="M929.42 294.505c-1.394 4.232-1.206 11.903 1.377 17.104 4.262 7.46 8.19 15.878 15.693 20.93 5.98 2.29 12.927 1.382 18.99-.697 8.994-2.25 18.288-1.5 27.51-1.624 7.606-.006 11.036 6.448 10 13.156.637 6.523.098 14.743-8.57 13.638-8.596 1.7-17.927.945-25.714 5.348-7.65 1.398-15.093 7.707-16.063 15.36-2.12 10.446-.515 21.403-1.218 32.05-5.258 6.88-14.858 8.795-21.29 14.02-9.653 4.266-1.218 15.31 6.658 14.285 6.388 2.466 8.754 11.243 13.34 16.428 4.49 4.46 9.313 8.627 14.287 10 4.653 1.054 9.953.645 15 .714 7.66-4.737 10.41-14.338 17.476-20.027 6.364-4.315 13.787-8.05 21.326-8.545 4.735.315 9.97-.95 14.072 1.396 3.98 2.156 7.426 5.886 10.968 9.59 5.475 4.536 9.61 10.917 17.586 10.443 7.443.358 10.2 3.05 17.696 2.857 5.353.624 9.92-.75 14.447-3.572 5.208-3.617 10.288-9.328 9.287-16.175-.242-5.978 1.124-12.43-2.857-17.396-1.75-5.403-6.802-15.183-6.43-17.856-3.653-6.05-.806-12.224 5.318-14.21.71-1.696 9.956-7.05 9.683-11.505 6.403-6.17 7.82-7.373 14.287-10 1.626-3.805 2.56-10.12 0-14.286-1.992-6.142-7.194-9.14-6.43-15.715-.927-5.44 4-8.82 5-12.858.027-4.77-.37-10.522 2.168-13.562 1.318-3.723 2.554-7.523 2.12-11.99.05-4.635-.926-6.524-3.572-8.02-2.553-4.402-10.65-2.928-14.286-6.428-2.297-6.426-9.67-6.746-15.714-7.857-4.3-1.61-11.995-4.66-15.715.714-5.754 1.985-11.154 8.613-18.473 11.248-6.885 3.163-14.19 2.758-21.527 3.75-10.006-.175-20.176.518-30-.713-6.82-5.2-8.33-6.15-15.497-11.082-3.07-2.9-13.357-7-16.644-3.918-2.288 2.62-4.07 5.362-7.265 6.35-2.17 3.57-11.897 2.91-17.25 3.65-4.065.23-9.225-.595-12.27.748-.9 1.18-6.106.02-7.5 4.252z" fill="#e17a5c" fill-rule="evenodd" stroke="#646464" stroke-width="1.361"/><text style="line-height:125%;-inkscape-font-specification:'Helvetica, Normal';text-align:start" x="934.211" y="300.466" font-weight="400" font-size="10" font-family="Helvetica" letter-spacing="0" word-spacing="0" fill="#323232"><tspan x="934.211" y="300.466">1</tspan></text><text style="line-height:125%;-inkscape-font-specification:'Helvetica, Normal';text-align:start" x="956.051" y="388.513" font-weight="400" font-size="10" font-family="Helvetica" letter-spacing="0" word-spacing="0" fill="#323232"><tspan x="956.051" y="388.513">2</tspan></text><text style="line-height:125%;-inkscape-font-specification:'Helvetica, Normal';text-align:start" x="1028.254" y="306.369" font-weight="400" font-size="10" font-family="Helvetica" letter-spacing="0" word-spacing="0" fill="#323232"><tspan x="1028.254" y="306.369">4</tspan></text><text style="line-height:125%;-inkscape-font-specification:'Helvetica, Normal';text-align:start" x="1078.383" y="288.369" font-weight="400" font-size="10" font-family="Helvetica" letter-spacing="0" word-spacing="0" fill="#323232"><tspan x="1078.383" y="288.369">7</tspan></text><text style="line-height:125%;-inkscape-font-specification:'Helvetica, Normal';text-align:start" x="1055.726" y="421.543" font-weight="400" font-size="27.22" font-family="Helvetica" letter-spacing="0" word-spacing="0" fill="#323232"><tspan x="1055.726" y="421.543">3</tspan></text><text style="line-height:125%;-inkscape-font-specification:'Helvetica, Normal';text-align:start" x="1028.254" y="338.372" font-weight="400" font-size="10" font-family="Helvetica" letter-spacing="0" word-spacing="0" fill="#323232"><tspan x="1028.254" y="338.372">5</tspan></text><text style="line-height:125%;-inkscape-font-specification:'Helvetica, Normal';text-align:start" x="1078.266" y="338.158" font-weight="400" font-size="10" font-family="Helvetica" letter-spacing="0" word-spacing="0" fill="#323232"><tspan x="1078.266" y="338.158">6</tspan></text></g><g clip-path="url(#u)" transform="matrix(.36738 0 0 .36738 730.36 180.895)"><g clip-path="url(#v)" transform="translate(525 100)"><rect ry="0" y="177.362" x="400" height="200" width="200" opacity=".99" fill="#fff8db"/><path d="M500 177.362v200M400 277.362h200M550 177.362v100M500 227.362h100" fill="none" stroke="#cecab4"/></g><path d="M929.42 294.505c-1.394 4.232-1.206 11.903 1.377 17.104 4.262 7.46 8.19 15.878 15.693 20.93 5.98 2.29 12.927 1.382 18.99-.697 8.994-2.25 18.288-1.5 27.51-1.624 7.606-.006 11.036 6.448 10 13.156.637 6.523.098 14.743-8.57 13.638-8.596 1.7-17.927.945-25.714 5.348-7.65 1.398-15.093 7.707-16.063 15.36-2.12 10.446-.515 21.403-1.218 32.05-5.258 6.88-14.858 8.795-21.29 14.02-9.653 4.266-1.218 15.31 6.658 14.285 6.388 2.466 8.754 11.243 13.34 16.428 4.49 4.46 9.313 8.627 14.287 10 4.653 1.054 9.953.645 15 .714 7.66-4.737 10.41-14.338 17.476-20.027 6.364-4.315 13.787-8.05 21.326-8.545 4.735.315 9.97-.95 14.072 1.396 3.98 2.156 7.426 5.886 10.968 9.59 5.475 4.536 9.61 10.917 17.586 10.443 7.443.358 10.2 3.05 17.696 2.857 5.353.624 9.92-.75 14.447-3.572 5.208-3.617 10.288-9.328 9.287-16.175-.242-5.978 1.124-12.43-2.857-17.396-1.75-5.403-6.802-15.183-6.43-17.856-3.653-6.05-.806-12.224 5.318-14.21.71-1.696 9.956-7.05 9.683-11.505 6.403-6.17 7.82-7.373 14.287-10 1.626-3.805 2.56-10.12 0-14.286-1.992-6.142-7.194-9.14-6.43-15.715-.927-5.44 4-8.82 5-12.858.027-4.77-.37-10.522 2.168-13.562 1.318-3.723 2.554-7.523 2.12-11.99.05-4.635-.926-6.524-3.572-8.02-2.553-4.402-10.65-2.928-14.286-6.428-2.297-6.426-9.67-6.746-15.714-7.857-4.3-1.61-11.995-4.66-15.715.714-5.754 1.985-11.154 8.613-18.473 11.248-6.885 3.163-14.19 2.758-21.527 3.75-10.006-.175-20.176.518-30-.713-6.82-5.2-8.33-6.15-15.497-11.082-3.07-2.9-13.357-7-16.644-3.918-2.288 2.62-4.07 5.362-7.265 6.35-2.17 3.57-11.897 2.91-17.25 3.65-4.065.23-9.225-.595-12.27.748-.9 1.18-6.106.02-7.5 4.252z" fill="#e17a5c" fill-rule="evenodd" stroke="#646464" stroke-width="1.361"/><text style="line-height:125%;-inkscape-font-specification:'Helvetica, Normal';text-align:start" x="934.211" y="300.466" font-weight="400" font-size="10" font-family="Helvetica" letter-spacing="0" word-spacing="0" fill="#323232"><tspan x="934.211" y="300.466">1</tspan></text><text style="line-height:125%;-inkscape-font-specification:'Helvetica, Normal';text-align:start" x="956.051" y="388.513" font-weight="400" font-size="10" font-family="Helvetica" letter-spacing="0" word-spacing="0" fill="#323232"><tspan x="956.051" y="388.513">2</tspan></text><text style="line-height:125%;-inkscape-font-specification:'Helvetica, Normal';text-align:start" x="1039.142" y="317.257" font-weight="400" font-size="27.22" font-family="Helvetica" letter-spacing="0" word-spacing="0" fill="#323232"><tspan x="1039.142" y="317.257">4</tspan></text><text style="line-height:125%;-inkscape-font-specification:'Helvetica, Normal';text-align:start" x="1078.383" y="288.369" font-weight="400" font-size="10" font-family="Helvetica" letter-spacing="0" word-spacing="0" fill="#323232"><tspan x="1078.383" y="288.369">7</tspan></text><text style="line-height:125%;-inkscape-font-specification:'Helvetica, Normal';text-align:start" x="1028.507" y="388.879" font-weight="400" font-size="10" font-family="Helvetica" letter-spacing="0" word-spacing="0" fill="#323232"><tspan x="1028.507" y="388.879">3</tspan></text><text style="line-height:125%;-inkscape-font-specification:'Helvetica, Normal';text-align:start" x="1028.254" y="338.372" font-weight="400" font-size="10" font-family="Helvetica" letter-spacing="0" word-spacing="0" fill="#323232"><tspan x="1028.254" y="338.372">5</tspan></text><text style="line-height:125%;-inkscape-font-specification:'Helvetica, Normal';text-align:start" x="1078.266" y="338.158" font-weight="400" font-size="10" font-family="Helvetica" letter-spacing="0" word-spacing="0" fill="#323232"><tspan x="1078.266" y="338.158">6</tspan></text></g><g clip-path="url(#w)" transform="matrix(.36738 0 0 .36738 730.36 183.17)"><g clip-path="url(#x)" transform="translate(525 100)"><rect ry="0" y="177.362" x="400" height="200" width="200" opacity=".99" fill="#fff8db"/><path d="M500 177.362v200M400 277.362h200M550 177.362v100M500 227.362h100" fill="none" stroke="#cecab4"/></g><path d="M929.42 294.505c-1.394 4.232-1.206 11.903 1.377 17.104 4.262 7.46 8.19 15.878 15.693 20.93 5.98 2.29 12.927 1.382 18.99-.697 8.994-2.25 18.288-1.5 27.51-1.624 7.606-.006 11.036 6.448 10 13.156.637 6.523.098 14.743-8.57 13.638-8.596 1.7-17.927.945-25.714 5.348-7.65 1.398-15.093 7.707-16.063 15.36-2.12 10.446-.515 21.403-1.218 32.05-5.258 6.88-14.858 8.795-21.29 14.02-9.653 4.266-1.218 15.31 6.658 14.285 6.388 2.466 8.754 11.243 13.34 16.428 4.49 4.46 9.313 8.627 14.287 10 4.653 1.054 9.953.645 15 .714 7.66-4.737 10.41-14.338 17.476-20.027 6.364-4.315 13.787-8.05 21.326-8.545 4.735.315 9.97-.95 14.072 1.396 3.98 2.156 7.426 5.886 10.968 9.59 5.475 4.536 9.61 10.917 17.586 10.443 7.443.358 10.2 3.05 17.696 2.857 5.353.624 9.92-.75 14.447-3.572 5.208-3.617 10.288-9.328 9.287-16.175-.242-5.978 1.124-12.43-2.857-17.396-1.75-5.403-6.802-15.183-6.43-17.856-3.653-6.05-.806-12.224 5.318-14.21.71-1.696 9.956-7.05 9.683-11.505 6.403-6.17 7.82-7.373 14.287-10 1.626-3.805 2.56-10.12 0-14.286-1.992-6.142-7.194-9.14-6.43-15.715-.927-5.44 4-8.82 5-12.858.027-4.77-.37-10.522 2.168-13.562 1.318-3.723 2.554-7.523 2.12-11.99.05-4.635-.926-6.524-3.572-8.02-2.553-4.402-10.65-2.928-14.286-6.428-2.297-6.426-9.67-6.746-15.714-7.857-4.3-1.61-11.995-4.66-15.715.714-5.754 1.985-11.154 8.613-18.473 11.248-6.885 3.163-14.19 2.758-21.527 3.75-10.006-.175-20.176.518-30-.713-6.82-5.2-8.33-6.15-15.497-11.082-3.07-2.9-13.357-7-16.644-3.918-2.288 2.62-4.07 5.362-7.265 6.35-2.17 3.57-11.897 2.91-17.25 3.65-4.065.23-9.225-.595-12.27.748-.9 1.18-6.106.02-7.5 4.252z" fill="#b6abe5" fill-rule="evenodd" stroke="#646464" stroke-width="1.361"/><text style="line-height:125%;-inkscape-font-specification:'Helvetica, Normal';text-align:start" x="934.211" y="300.466" font-weight="400" font-size="10" font-family="Helvetica" letter-spacing="0" word-spacing="0" fill="#323232"><tspan x="934.211" y="300.466">1</tspan></text><text style="line-height:125%;-inkscape-font-specification:'Helvetica, Normal';text-align:start" x="956.051" y="388.513" font-weight="400" font-size="10" font-family="Helvetica" letter-spacing="0" word-spacing="0" fill="#323232"><tspan x="956.051" y="388.513">2</tspan></text><text style="line-height:125%;-inkscape-font-specification:'Helvetica, Normal';text-align:start" x="1028.254" y="306.369" font-weight="400" font-size="10" font-family="Helvetica" letter-spacing="0" word-spacing="0" fill="#323232"><tspan x="1028.254" y="306.369">4</tspan></text><text style="line-height:125%;-inkscape-font-specification:'Helvetica, Normal';text-align:start" x="1078.383" y="288.369" font-weight="400" font-size="10" font-family="Helvetica" letter-spacing="0" word-spacing="0" fill="#323232"><tspan x="1078.383" y="288.369">7</tspan></text><text style="line-height:125%;-inkscape-font-specification:'Helvetica, Normal';text-align:start" x="1028.507" y="388.879" font-weight="400" font-size="10" font-family="Helvetica" letter-spacing="0" word-spacing="0" fill="#323232"><tspan x="1028.507" y="388.879">3</tspan></text><text style="line-height:125%;-inkscape-font-specification:'Helvetica, Normal';text-align:start" x="1078.266" y="338.158" font-weight="400" font-size="10" font-family="Helvetica" letter-spacing="0" word-spacing="0" fill="#323232"><tspan x="1078.266" y="338.158">6</tspan></text><text style="line-height:125%;-inkscape-font-specification:'Helvetica, Normal';text-align:start" x="1039.142" y="360.147" font-weight="400" font-size="27.22" font-family="Helvetica" letter-spacing="0" word-spacing="0" fill="#323232"><tspan x="1039.142" y="360.147">5</tspan></text></g><g clip-path="url(#y)" transform="matrix(.36738 0 0 .36738 711.99 203.817)"><g clip-path="url(#z)" transform="translate(525 100)"><rect ry="0" y="177.362" x="400" height="200" width="200" opacity=".99" fill="#fff8db"/><path d="M500 177.362v200M400 277.362h200M550 177.362v100M500 227.362h100" fill="none" stroke="#cecab4"/></g><path d="M929.42 294.505c-1.394 4.232-1.206 11.903 1.377 17.104 4.262 7.46 8.19 15.878 15.693 20.93 5.98 2.29 12.927 1.382 18.99-.697 8.994-2.25 18.288-1.5 27.51-1.624 7.606-.006 11.036 6.448 10 13.156.637 6.523.098 14.743-8.57 13.638-8.596 1.7-17.927.945-25.714 5.348-7.65 1.398-15.093 7.707-16.063 15.36-2.12 10.446-.515 21.403-1.218 32.05-5.258 6.88-14.858 8.795-21.29 14.02-9.653 4.266-1.218 15.31 6.658 14.285 6.388 2.466 8.754 11.243 13.34 16.428 4.49 4.46 9.313 8.627 14.287 10 4.653 1.054 9.953.645 15 .714 7.66-4.737 10.41-14.338 17.476-20.027 6.364-4.315 13.787-8.05 21.326-8.545 4.735.315 9.97-.95 14.072 1.396 3.98 2.156 7.426 5.886 10.968 9.59 5.475 4.536 9.61 10.917 17.586 10.443 7.443.358 10.2 3.05 17.696 2.857 5.353.624 9.92-.75 14.447-3.572 5.208-3.617 10.288-9.328 9.287-16.175-.242-5.978 1.124-12.43-2.857-17.396-1.75-5.403-6.802-15.183-6.43-17.856-3.653-6.05-.806-12.224 5.318-14.21.71-1.696 9.956-7.05 9.683-11.505 6.403-6.17 7.82-7.373 14.287-10 1.626-3.805 2.56-10.12 0-14.286-1.992-6.142-7.194-9.14-6.43-15.715-.927-5.44 4-8.82 5-12.858.027-4.77-.37-10.522 2.168-13.562 1.318-3.723 2.554-7.523 2.12-11.99.05-4.635-.926-6.524-3.572-8.02-2.553-4.402-10.65-2.928-14.286-6.428-2.297-6.426-9.67-6.746-15.714-7.857-4.3-1.61-11.995-4.66-15.715.714-5.754 1.985-11.154 8.613-18.473 11.248-6.885 3.163-14.19 2.758-21.527 3.75-10.006-.175-20.176.518-30-.713-6.82-5.2-8.33-6.15-15.497-11.082-3.07-2.9-13.357-7-16.644-3.918-2.288 2.62-4.07 5.362-7.265 6.35-2.17 3.57-11.897 2.91-17.25 3.65-4.065.23-9.225-.595-12.27.748-.9 1.18-6.106.02-7.5 4.252z" fill="#b6abe5" fill-rule="evenodd" stroke="#646464" stroke-width="1.361"/><text style="line-height:125%;-inkscape-font-specification:'Helvetica, Normal';text-align:start" x="934.211" y="300.466" font-weight="400" font-size="10" font-family="Helvetica" letter-spacing="0" word-spacing="0" fill="#323232"><tspan x="934.211" y="300.466">1</tspan></text><text style="line-height:125%;-inkscape-font-specification:'Helvetica, Normal';text-align:start" x="956.051" y="388.513" font-weight="400" font-size="10" font-family="Helvetica" letter-spacing="0" word-spacing="0" fill="#323232"><tspan x="956.051" y="388.513">2</tspan></text><text style="line-height:125%;-inkscape-font-specification:'Helvetica, Normal';text-align:start" x="1028.254" y="306.369" font-weight="400" font-size="10" font-family="Helvetica" letter-spacing="0" word-spacing="0" fill="#323232"><tspan x="1028.254" y="306.369">4</tspan></text><text style="line-height:125%;-inkscape-font-specification:'Helvetica, Normal';text-align:start" x="1078.383" y="288.369" font-weight="400" font-size="10" font-family="Helvetica" letter-spacing="0" word-spacing="0" fill="#323232"><tspan x="1078.383" y="288.369">7</tspan></text><text style="line-height:125%;-inkscape-font-specification:'Helvetica, Normal';text-align:start" x="1028.507" y="388.879" font-weight="400" font-size="10" font-family="Helvetica" letter-spacing="0" word-spacing="0" fill="#323232"><tspan x="1028.507" y="388.879">3</tspan></text><text style="line-height:125%;-inkscape-font-specification:'Helvetica, Normal';text-align:start" x="1028.254" y="338.372" font-weight="400" font-size="10" font-family="Helvetica" letter-spacing="0" word-spacing="0" fill="#323232"><tspan x="1028.254" y="338.372">5</tspan></text><text style="line-height:125%;-inkscape-font-specification:'Helvetica, Normal';text-align:start" x="1088.92" y="359.811" font-weight="400" font-size="27.22" font-family="Helvetica" letter-spacing="0" word-spacing="0" fill="#323232"><tspan x="1088.92" y="359.811">6</tspan></text></g><g clip-path="url(#A)" transform="matrix(.36738 0 0 .36738 711.99 243.084)"><g clip-path="url(#B)" transform="translate(525 100)"><rect ry="0" y="177.362" x="400" height="200" width="200" opacity=".99" fill="#fff8db"/><path d="M500 177.362v200M400 277.362h200M550 177.362v100M500 227.362h100" fill="none" stroke="#cecab4"/></g><path d="M929.42 294.505c-1.394 4.232-1.206 11.903 1.377 17.104 4.262 7.46 8.19 15.878 15.693 20.93 5.98 2.29 12.927 1.382 18.99-.697 8.994-2.25 18.288-1.5 27.51-1.624 7.606-.006 11.036 6.448 10 13.156.637 6.523.098 14.743-8.57 13.638-8.596 1.7-17.927.945-25.714 5.348-7.65 1.398-15.093 7.707-16.063 15.36-2.12 10.446-.515 21.403-1.218 32.05-5.258 6.88-14.858 8.795-21.29 14.02-9.653 4.266-1.218 15.31 6.658 14.285 6.388 2.466 8.754 11.243 13.34 16.428 4.49 4.46 9.313 8.627 14.287 10 4.653 1.054 9.953.645 15 .714 7.66-4.737 10.41-14.338 17.476-20.027 6.364-4.315 13.787-8.05 21.326-8.545 4.735.315 9.97-.95 14.072 1.396 3.98 2.156 7.426 5.886 10.968 9.59 5.475 4.536 9.61 10.917 17.586 10.443 7.443.358 10.2 3.05 17.696 2.857 5.353.624 9.92-.75 14.447-3.572 5.208-3.617 10.288-9.328 9.287-16.175-.242-5.978 1.124-12.43-2.857-17.396-1.75-5.403-6.802-15.183-6.43-17.856-3.653-6.05-.806-12.224 5.318-14.21.71-1.696 9.956-7.05 9.683-11.505 6.403-6.17 7.82-7.373 14.287-10 1.626-3.805 2.56-10.12 0-14.286-1.992-6.142-7.194-9.14-6.43-15.715-.927-5.44 4-8.82 5-12.858.027-4.77-.37-10.522 2.168-13.562 1.318-3.723 2.554-7.523 2.12-11.99.05-4.635-.926-6.524-3.572-8.02-2.553-4.402-10.65-2.928-14.286-6.428-2.297-6.426-9.67-6.746-15.714-7.857-4.3-1.61-11.995-4.66-15.715.714-5.754 1.985-11.154 8.613-18.473 11.248-6.885 3.163-14.19 2.758-21.527 3.75-10.006-.175-20.176.518-30-.713-6.82-5.2-8.33-6.15-15.497-11.082-3.07-2.9-13.357-7-16.644-3.918-2.288 2.62-4.07 5.362-7.265 6.35-2.17 3.57-11.897 2.91-17.25 3.65-4.065.23-9.225-.595-12.27.748-.9 1.18-6.106.02-7.5 4.252z" fill="#b6abe5" fill-rule="evenodd" stroke="#646464" stroke-width="1.361"/><text style="line-height:125%;-inkscape-font-specification:'Helvetica, Normal';text-align:start" x="934.211" y="300.466" font-weight="400" font-size="10" font-family="Helvetica" letter-spacing="0" word-spacing="0" fill="#323232"><tspan x="934.211" y="300.466">1</tspan></text><text style="line-height:125%;-inkscape-font-specification:'Helvetica, Normal';text-align:start" x="956.051" y="388.513" font-weight="400" font-size="10" font-family="Helvetica" letter-spacing="0" word-spacing="0" fill="#323232"><tspan x="956.051" y="388.513">2</tspan></text><text style="line-height:125%;-inkscape-font-specification:'Helvetica, Normal';text-align:start" x="1028.254" y="306.369" font-weight="400" font-size="10" font-family="Helvetica" letter-spacing="0" word-spacing="0" fill="#323232"><tspan x="1028.254" y="306.369">4</tspan></text><text style="line-height:125%;-inkscape-font-specification:'Helvetica, Normal';text-align:start" x="1088.24" y="315.3" font-weight="400" font-size="27.22" font-family="Helvetica" letter-spacing="0" word-spacing="0" fill="#323232"><tspan x="1088.24" y="315.3">7</tspan></text><text style="line-height:125%;-inkscape-font-specification:'Helvetica, Normal';text-align:start" x="1028.507" y="388.879" font-weight="400" font-size="10" font-family="Helvetica" letter-spacing="0" word-spacing="0" fill="#323232"><tspan x="1028.507" y="388.879">3</tspan></text><text style="line-height:125%;-inkscape-font-specification:'Helvetica, Normal';text-align:start" x="1028.254" y="338.372" font-weight="400" font-size="10" font-family="Helvetica" letter-spacing="0" word-spacing="0" fill="#323232"><tspan x="1028.254" y="338.372">5</tspan></text><text style="line-height:125%;-inkscape-font-specification:'Helvetica, Normal';text-align:start" x="1078.266" y="338.158" font-weight="400" font-size="10" font-family="Helvetica" letter-spacing="0" word-spacing="0" fill="#323232"><tspan x="1078.266" y="338.158">6</tspan></text></g><path d="M995.072 161.97h147.802" fill="none" stroke="#323232"/><text y="155.269" x="993.654" style="line-height:125%;-inkscape-font-specification:'Helvetica, Light';text-align:start" font-weight="300" font-size="17.5" font-family="Helvetica" letter-spacing="0" word-spacing="0" fill="#323232"><tspan y="155.269" x="993.654">Network clusters</tspan></text><path d="M1013.286 218.72l87.5 6.25M1013.286 218.72l87.5-25M1100.786 293.72l-87.5-75" fill="none" stroke="#e17a5c"/><path d="M1013.286 256.22l87.5-31.25M1013.286 256.22l87.5 6.25" fill="#8fbfa7" fill-rule="evenodd" stroke="#e17a5c"/><path d="M1100.786 331.22l-87.5-75" fill="#8fbfa7" fill-rule="evenodd" stroke="#646464"/><path d="M1100.786 312.47l-87.5-18.75M1100.786 331.22l-87.5-37.5M1100.786 349.97l-87.5-56.25M1100.786 331.22h-87.5M1100.786 349.97l-87.5-18.75" fill="none" stroke="#b6abe5"/></g></g></svg>