<svg xmlns="http://www.w3.org/2000/svg" viewBox="0 0 513.79918 220.92675" height="235.655" width="548.052"><defs><clipPath id="a"><path d="M404.42 194.505c-1.394 4.232-1.206 11.903 1.377 17.104 4.262 7.46 8.19 15.878 15.693 20.93 5.98 2.29 12.927 1.382 18.99-.697 8.994-2.25 18.288-1.5 27.51-1.624 7.606-.006 11.035 6.448 10 13.156.637 6.523.098 14.743-8.57 13.638-8.596 1.7-17.927.945-25.714 5.348-7.65 1.398-15.093 7.707-16.063 15.36-2.12 10.446-.515 21.403-1.218 32.05-5.258 6.88-14.858 8.795-21.29 14.02-9.653 4.266-1.218 15.31 6.658 14.285 6.387 2.466 8.754 11.243 13.34 16.428 4.49 4.46 9.312 8.627 14.287 10 4.653 1.054 9.953.645 15 .714 7.66-4.737 10.41-14.338 17.476-20.027 6.364-4.315 13.787-8.05 21.326-8.545 4.734.315 9.97-.95 14.072 1.396 3.98 2.156 7.426 5.886 10.968 9.59 5.475 4.536 9.61 10.917 17.586 10.443 7.443.358 10.2 3.05 17.696 2.857 5.353.624 9.92-.75 14.447-3.572 5.208-3.617 10.288-9.328 9.287-16.175-.242-5.978 1.124-12.43-2.857-17.396-1.75-5.403-6.802-15.183-6.43-17.856-3.653-6.05-.806-12.224 5.318-14.21.71-1.696 9.956-7.05 9.683-11.505 6.403-6.17 7.82-7.373 14.287-10 1.626-3.805 2.56-10.12 0-14.286-1.992-6.142-7.194-9.14-6.43-15.715-.927-5.44 4-8.82 5-12.858.027-4.77-.37-10.522 2.168-13.562 1.318-3.723 2.554-7.523 2.12-11.99.05-4.635-.926-6.524-3.572-8.02-2.553-4.402-10.65-2.928-14.286-6.428-2.297-6.426-9.67-6.746-15.714-7.857-4.3-1.61-11.995-4.66-15.715.714-5.754 1.985-11.154 8.613-18.473 11.248-6.885 3.163-14.19 2.758-21.527 3.75-10.006-.175-20.176.518-30-.713-6.82-5.2-8.33-6.15-15.497-11.082-3.07-2.9-13.357-7-16.644-3.918-2.288 2.62-4.07 5.362-7.265 6.35-2.17 3.57-11.897 2.91-17.25 3.65-4.065.23-9.225-.595-12.27.748-.9 1.18-6.106.02-7.5 4.252z" fill="none" fill-rule="evenodd" stroke="#000"/></clipPath><clipPath id="q"><path d="M404.42 194.505c-1.394 4.232-1.206 11.903 1.377 17.104 4.262 7.46 8.19 15.878 15.693 20.93 5.98 2.29 12.927 1.382 18.99-.697 8.994-2.25 18.288-1.5 27.51-1.624 7.606-.006 11.035 6.448 10 13.156.637 6.523.098 14.743-8.57 13.638-8.596 1.7-17.927.945-25.714 5.348-7.65 1.398-15.093 7.707-16.063 15.36-2.12 10.446-.515 21.403-1.218 32.05-5.258 6.88-14.858 8.795-21.29 14.02-9.653 4.266-1.218 15.31 6.658 14.285 6.387 2.466 8.754 11.243 13.34 16.428 4.49 4.46 9.312 8.627 14.287 10 4.653 1.054 9.953.645 15 .714 7.66-4.737 10.41-14.338 17.476-20.027 6.364-4.315 13.787-8.05 21.326-8.545 4.734.315 9.97-.95 14.072 1.396 3.98 2.156 7.426 5.886 10.968 9.59 5.475 4.536 9.61 10.917 17.586 10.443 7.443.358 10.2 3.05 17.696 2.857 5.353.624 9.92-.75 14.447-3.572 5.208-3.617 10.288-9.328 9.287-16.175-.242-5.978 1.124-12.43-2.857-17.396-1.75-5.403-6.802-15.183-6.43-17.856-3.653-6.05-.806-12.224 5.318-14.21.71-1.696 9.956-7.05 9.683-11.505 6.403-6.17 7.82-7.373 14.287-10 1.626-3.805 2.56-10.12 0-14.286-1.992-6.142-7.194-9.14-6.43-15.715-.927-5.44 4-8.82 5-12.858.027-4.77-.37-10.522 2.168-13.562 1.318-3.723 2.554-7.523 2.12-11.99.05-4.635-.926-6.524-3.572-8.02-2.553-4.402-10.65-2.928-14.286-6.428-2.297-6.426-9.67-6.746-15.714-7.857-4.3-1.61-11.995-4.66-15.715.714-5.754 1.985-11.154 8.613-18.473 11.248-6.885 3.163-14.19 2.758-21.527 3.75-10.006-.175-20.176.518-30-.713-6.82-5.2-8.33-6.15-15.497-11.082-3.07-2.9-13.357-7-16.644-3.918-2.288 2.62-4.07 5.362-7.265 6.35-2.17 3.57-11.897 2.91-17.25 3.65-4.065.23-9.225-.595-12.27.748-.9 1.18-6.106.02-7.5 4.252z" fill="none" fill-rule="evenodd" stroke="#000"/></clipPath><clipPath id="p"><path d="M800 1133.612v50h143.75v-125H850v75z" fill="none" fill-rule="evenodd" stroke="#000"/></clipPath><clipPath id="b"><path fill="#f9f9f9" stroke-width=".5" d="M925 277.362h100v100H925z"/></clipPath><clipPath id="c"><path d="M404.42 194.505c-1.394 4.232-1.206 11.903 1.377 17.104 4.262 7.46 8.19 15.878 15.693 20.93 5.98 2.29 12.927 1.382 18.99-.697 8.994-2.25 18.288-1.5 27.51-1.624 7.606-.006 11.035 6.448 10 13.156.637 6.523.098 14.743-8.57 13.638-8.596 1.7-17.927.945-25.714 5.348-7.65 1.398-15.093 7.707-16.063 15.36-2.12 10.446-.515 21.403-1.218 32.05-5.258 6.88-14.858 8.795-21.29 14.02-9.653 4.266-1.218 15.31 6.658 14.285 6.387 2.466 8.754 11.243 13.34 16.428 4.49 4.46 9.312 8.627 14.287 10 4.653 1.054 9.953.645 15 .714 7.66-4.737 10.41-14.338 17.476-20.027 6.364-4.315 13.787-8.05 21.326-8.545 4.734.315 9.97-.95 14.072 1.396 3.98 2.156 7.426 5.886 10.968 9.59 5.475 4.536 9.61 10.917 17.586 10.443 7.443.358 10.2 3.05 17.696 2.857 5.353.624 9.92-.75 14.447-3.572 5.208-3.617 10.288-9.328 9.287-16.175-.242-5.978 1.124-12.43-2.857-17.396-1.75-5.403-6.802-15.183-6.43-17.856-3.653-6.05-.806-12.224 5.318-14.21.71-1.696 9.956-7.05 9.683-11.505 6.403-6.17 7.82-7.373 14.287-10 1.626-3.805 2.56-10.12 0-14.286-1.992-6.142-7.194-9.14-6.43-15.715-.927-5.44 4-8.82 5-12.858.027-4.77-.37-10.522 2.168-13.562 1.318-3.723 2.554-7.523 2.12-11.99.05-4.635-.926-6.524-3.572-8.02-2.553-4.402-10.65-2.928-14.286-6.428-2.297-6.426-9.67-6.746-15.714-7.857-4.3-1.61-11.995-4.66-15.715.714-5.754 1.985-11.154 8.613-18.473 11.248-6.885 3.163-14.19 2.758-21.527 3.75-10.006-.175-20.176.518-30-.713-6.82-5.2-8.33-6.15-15.497-11.082-3.07-2.9-13.357-7-16.644-3.918-2.288 2.62-4.07 5.362-7.265 6.35-2.17 3.57-11.897 2.91-17.25 3.65-4.065.23-9.225-.595-12.27.748-.9 1.18-6.106.02-7.5 4.252z" fill="none" fill-rule="evenodd" stroke="#000"/></clipPath><clipPath id="d"><path fill="#f9f9f9" stroke-width=".5" d="M925 377.362h100v100H925z"/></clipPath><clipPath id="e"><path d="M404.42 194.505c-1.394 4.232-1.206 11.903 1.377 17.104 4.262 7.46 8.19 15.878 15.693 20.93 5.98 2.29 12.927 1.382 18.99-.697 8.994-2.25 18.288-1.5 27.51-1.624 7.606-.006 11.035 6.448 10 13.156.637 6.523.098 14.743-8.57 13.638-8.596 1.7-17.927.945-25.714 5.348-7.65 1.398-15.093 7.707-16.063 15.36-2.12 10.446-.515 21.403-1.218 32.05-5.258 6.88-14.858 8.795-21.29 14.02-9.653 4.266-1.218 15.31 6.658 14.285 6.387 2.466 8.754 11.243 13.34 16.428 4.49 4.46 9.312 8.627 14.287 10 4.653 1.054 9.953.645 15 .714 7.66-4.737 10.41-14.338 17.476-20.027 6.364-4.315 13.787-8.05 21.326-8.545 4.734.315 9.97-.95 14.072 1.396 3.98 2.156 7.426 5.886 10.968 9.59 5.475 4.536 9.61 10.917 17.586 10.443 7.443.358 10.2 3.05 17.696 2.857 5.353.624 9.92-.75 14.447-3.572 5.208-3.617 10.288-9.328 9.287-16.175-.242-5.978 1.124-12.43-2.857-17.396-1.75-5.403-6.802-15.183-6.43-17.856-3.653-6.05-.806-12.224 5.318-14.21.71-1.696 9.956-7.05 9.683-11.505 6.403-6.17 7.82-7.373 14.287-10 1.626-3.805 2.56-10.12 0-14.286-1.992-6.142-7.194-9.14-6.43-15.715-.927-5.44 4-8.82 5-12.858.027-4.77-.37-10.522 2.168-13.562 1.318-3.723 2.554-7.523 2.12-11.99.05-4.635-.926-6.524-3.572-8.02-2.553-4.402-10.65-2.928-14.286-6.428-2.297-6.426-9.67-6.746-15.714-7.857-4.3-1.61-11.995-4.66-15.715.714-5.754 1.985-11.154 8.613-18.473 11.248-6.885 3.163-14.19 2.758-21.527 3.75-10.006-.175-20.176.518-30-.713-6.82-5.2-8.33-6.15-15.497-11.082-3.07-2.9-13.357-7-16.644-3.918-2.288 2.62-4.07 5.362-7.265 6.35-2.17 3.57-11.897 2.91-17.25 3.65-4.065.23-9.225-.595-12.27.748-.9 1.18-6.106.02-7.5 4.252z" fill="none" fill-rule="evenodd" stroke="#000"/></clipPath><clipPath id="f"><path fill="#f9f9f9" stroke-width=".5" d="M1025 377.362h100v100h-100z"/></clipPath><clipPath id="g"><path d="M404.42 194.505c-1.394 4.232-1.206 11.903 1.377 17.104 4.262 7.46 8.19 15.878 15.693 20.93 5.98 2.29 12.927 1.382 18.99-.697 8.994-2.25 18.288-1.5 27.51-1.624 7.606-.006 11.035 6.448 10 13.156.637 6.523.098 14.743-8.57 13.638-8.596 1.7-17.927.945-25.714 5.348-7.65 1.398-15.093 7.707-16.063 15.36-2.12 10.446-.515 21.403-1.218 32.05-5.258 6.88-14.858 8.795-21.29 14.02-9.653 4.266-1.218 15.31 6.658 14.285 6.387 2.466 8.754 11.243 13.34 16.428 4.49 4.46 9.312 8.627 14.287 10 4.653 1.054 9.953.645 15 .714 7.66-4.737 10.41-14.338 17.476-20.027 6.364-4.315 13.787-8.05 21.326-8.545 4.734.315 9.97-.95 14.072 1.396 3.98 2.156 7.426 5.886 10.968 9.59 5.475 4.536 9.61 10.917 17.586 10.443 7.443.358 10.2 3.05 17.696 2.857 5.353.624 9.92-.75 14.447-3.572 5.208-3.617 10.288-9.328 9.287-16.175-.242-5.978 1.124-12.43-2.857-17.396-1.75-5.403-6.802-15.183-6.43-17.856-3.653-6.05-.806-12.224 5.318-14.21.71-1.696 9.956-7.05 9.683-11.505 6.403-6.17 7.82-7.373 14.287-10 1.626-3.805 2.56-10.12 0-14.286-1.992-6.142-7.194-9.14-6.43-15.715-.927-5.44 4-8.82 5-12.858.027-4.77-.37-10.522 2.168-13.562 1.318-3.723 2.554-7.523 2.12-11.99.05-4.635-.926-6.524-3.572-8.02-2.553-4.402-10.65-2.928-14.286-6.428-2.297-6.426-9.67-6.746-15.714-7.857-4.3-1.61-11.995-4.66-15.715.714-5.754 1.985-11.154 8.613-18.473 11.248-6.885 3.163-14.19 2.758-21.527 3.75-10.006-.175-20.176.518-30-.713-6.82-5.2-8.33-6.15-15.497-11.082-3.07-2.9-13.357-7-16.644-3.918-2.288 2.62-4.07 5.362-7.265 6.35-2.17 3.57-11.897 2.91-17.25 3.65-4.065.23-9.225-.595-12.27.748-.9 1.18-6.106.02-7.5 4.252z" fill="none" fill-rule="evenodd" stroke="#000"/></clipPath><clipPath id="h"><path fill="#f9f9f9" stroke-width=".5" d="M1025 277.362h50v50h-50z"/></clipPath><clipPath id="i"><path d="M404.42 194.505c-1.394 4.232-1.206 11.903 1.377 17.104 4.262 7.46 8.19 15.878 15.693 20.93 5.98 2.29 12.927 1.382 18.99-.697 8.994-2.25 18.288-1.5 27.51-1.624 7.606-.006 11.035 6.448 10 13.156.637 6.523.098 14.743-8.57 13.638-8.596 1.7-17.927.945-25.714 5.348-7.65 1.398-15.093 7.707-16.063 15.36-2.12 10.446-.515 21.403-1.218 32.05-5.258 6.88-14.858 8.795-21.29 14.02-9.653 4.266-1.218 15.31 6.658 14.285 6.387 2.466 8.754 11.243 13.34 16.428 4.49 4.46 9.312 8.627 14.287 10 4.653 1.054 9.953.645 15 .714 7.66-4.737 10.41-14.338 17.476-20.027 6.364-4.315 13.787-8.05 21.326-8.545 4.734.315 9.97-.95 14.072 1.396 3.98 2.156 7.426 5.886 10.968 9.59 5.475 4.536 9.61 10.917 17.586 10.443 7.443.358 10.2 3.05 17.696 2.857 5.353.624 9.92-.75 14.447-3.572 5.208-3.617 10.288-9.328 9.287-16.175-.242-5.978 1.124-12.43-2.857-17.396-1.75-5.403-6.802-15.183-6.43-17.856-3.653-6.05-.806-12.224 5.318-14.21.71-1.696 9.956-7.05 9.683-11.505 6.403-6.17 7.82-7.373 14.287-10 1.626-3.805 2.56-10.12 0-14.286-1.992-6.142-7.194-9.14-6.43-15.715-.927-5.44 4-8.82 5-12.858.027-4.77-.37-10.522 2.168-13.562 1.318-3.723 2.554-7.523 2.12-11.99.05-4.635-.926-6.524-3.572-8.02-2.553-4.402-10.65-2.928-14.286-6.428-2.297-6.426-9.67-6.746-15.714-7.857-4.3-1.61-11.995-4.66-15.715.714-5.754 1.985-11.154 8.613-18.473 11.248-6.885 3.163-14.19 2.758-21.527 3.75-10.006-.175-20.176.518-30-.713-6.82-5.2-8.33-6.15-15.497-11.082-3.07-2.9-13.357-7-16.644-3.918-2.288 2.62-4.07 5.362-7.265 6.35-2.17 3.57-11.897 2.91-17.25 3.65-4.065.23-9.225-.595-12.27.748-.9 1.18-6.106.02-7.5 4.252z" fill="none" fill-rule="evenodd" stroke="#000"/></clipPath><clipPath id="j"><path fill="#f9f9f9" stroke-width=".5" d="M1025 327.362h50v50h-50z"/></clipPath><clipPath id="k"><path d="M404.42 194.505c-1.394 4.232-1.206 11.903 1.377 17.104 4.262 7.46 8.19 15.878 15.693 20.93 5.98 2.29 12.927 1.382 18.99-.697 8.994-2.25 18.288-1.5 27.51-1.624 7.606-.006 11.035 6.448 10 13.156.637 6.523.098 14.743-8.57 13.638-8.596 1.7-17.927.945-25.714 5.348-7.65 1.398-15.093 7.707-16.063 15.36-2.12 10.446-.515 21.403-1.218 32.05-5.258 6.88-14.858 8.795-21.29 14.02-9.653 4.266-1.218 15.31 6.658 14.285 6.387 2.466 8.754 11.243 13.34 16.428 4.49 4.46 9.312 8.627 14.287 10 4.653 1.054 9.953.645 15 .714 7.66-4.737 10.41-14.338 17.476-20.027 6.364-4.315 13.787-8.05 21.326-8.545 4.734.315 9.97-.95 14.072 1.396 3.98 2.156 7.426 5.886 10.968 9.59 5.475 4.536 9.61 10.917 17.586 10.443 7.443.358 10.2 3.05 17.696 2.857 5.353.624 9.92-.75 14.447-3.572 5.208-3.617 10.288-9.328 9.287-16.175-.242-5.978 1.124-12.43-2.857-17.396-1.75-5.403-6.802-15.183-6.43-17.856-3.653-6.05-.806-12.224 5.318-14.21.71-1.696 9.956-7.05 9.683-11.505 6.403-6.17 7.82-7.373 14.287-10 1.626-3.805 2.56-10.12 0-14.286-1.992-6.142-7.194-9.14-6.43-15.715-.927-5.44 4-8.82 5-12.858.027-4.77-.37-10.522 2.168-13.562 1.318-3.723 2.554-7.523 2.12-11.99.05-4.635-.926-6.524-3.572-8.02-2.553-4.402-10.65-2.928-14.286-6.428-2.297-6.426-9.67-6.746-15.714-7.857-4.3-1.61-11.995-4.66-15.715.714-5.754 1.985-11.154 8.613-18.473 11.248-6.885 3.163-14.19 2.758-21.527 3.75-10.006-.175-20.176.518-30-.713-6.82-5.2-8.33-6.15-15.497-11.082-3.07-2.9-13.357-7-16.644-3.918-2.288 2.62-4.07 5.362-7.265 6.35-2.17 3.57-11.897 2.91-17.25 3.65-4.065.23-9.225-.595-12.27.748-.9 1.18-6.106.02-7.5 4.252z" fill="none" fill-rule="evenodd" stroke="#000"/></clipPath><clipPath id="l"><path fill="#f9f9f9" stroke-width=".5" d="M1075 327.362h50v50h-50z"/></clipPath><clipPath id="m"><path d="M404.42 194.505c-1.394 4.232-1.206 11.903 1.377 17.104 4.262 7.46 8.19 15.878 15.693 20.93 5.98 2.29 12.927 1.382 18.99-.697 8.994-2.25 18.288-1.5 27.51-1.624 7.606-.006 11.035 6.448 10 13.156.637 6.523.098 14.743-8.57 13.638-8.596 1.7-17.927.945-25.714 5.348-7.65 1.398-15.093 7.707-16.063 15.36-2.12 10.446-.515 21.403-1.218 32.05-5.258 6.88-14.858 8.795-21.29 14.02-9.653 4.266-1.218 15.31 6.658 14.285 6.387 2.466 8.754 11.243 13.34 16.428 4.49 4.46 9.312 8.627 14.287 10 4.653 1.054 9.953.645 15 .714 7.66-4.737 10.41-14.338 17.476-20.027 6.364-4.315 13.787-8.05 21.326-8.545 4.734.315 9.97-.95 14.072 1.396 3.98 2.156 7.426 5.886 10.968 9.59 5.475 4.536 9.61 10.917 17.586 10.443 7.443.358 10.2 3.05 17.696 2.857 5.353.624 9.92-.75 14.447-3.572 5.208-3.617 10.288-9.328 9.287-16.175-.242-5.978 1.124-12.43-2.857-17.396-1.75-5.403-6.802-15.183-6.43-17.856-3.653-6.05-.806-12.224 5.318-14.21.71-1.696 9.956-7.05 9.683-11.505 6.403-6.17 7.82-7.373 14.287-10 1.626-3.805 2.56-10.12 0-14.286-1.992-6.142-7.194-9.14-6.43-15.715-.927-5.44 4-8.82 5-12.858.027-4.77-.37-10.522 2.168-13.562 1.318-3.723 2.554-7.523 2.12-11.99.05-4.635-.926-6.524-3.572-8.02-2.553-4.402-10.65-2.928-14.286-6.428-2.297-6.426-9.67-6.746-15.714-7.857-4.3-1.61-11.995-4.66-15.715.714-5.754 1.985-11.154 8.613-18.473 11.248-6.885 3.163-14.19 2.758-21.527 3.75-10.006-.175-20.176.518-30-.713-6.82-5.2-8.33-6.15-15.497-11.082-3.07-2.9-13.357-7-16.644-3.918-2.288 2.62-4.07 5.362-7.265 6.35-2.17 3.57-11.897 2.91-17.25 3.65-4.065.23-9.225-.595-12.27.748-.9 1.18-6.106.02-7.5 4.252z" fill="none" fill-rule="evenodd" stroke="#000"/></clipPath><clipPath id="n"><path fill="#f9f9f9" stroke-width=".5" d="M1075 271.112h56.25v56.25H1075z"/></clipPath><clipPath id="o"><path d="M404.42 194.505c-1.394 4.232-1.206 11.903 1.377 17.104 4.262 7.46 8.19 15.878 15.693 20.93 5.98 2.29 12.927 1.382 18.99-.697 8.994-2.25 18.288-1.5 27.51-1.624 7.606-.006 11.035 6.448 10 13.156.637 6.523.098 14.743-8.57 13.638-8.596 1.7-17.927.945-25.714 5.348-7.65 1.398-15.093 7.707-16.063 15.36-2.12 10.446-.515 21.403-1.218 32.05-5.258 6.88-14.858 8.795-21.29 14.02-9.653 4.266-1.218 15.31 6.658 14.285 6.387 2.466 8.754 11.243 13.34 16.428 4.49 4.46 9.312 8.627 14.287 10 4.653 1.054 9.953.645 15 .714 7.66-4.737 10.41-14.338 17.476-20.027 6.364-4.315 13.787-8.05 21.326-8.545 4.734.315 9.97-.95 14.072 1.396 3.98 2.156 7.426 5.886 10.968 9.59 5.475 4.536 9.61 10.917 17.586 10.443 7.443.358 10.2 3.05 17.696 2.857 5.353.624 9.92-.75 14.447-3.572 5.208-3.617 10.288-9.328 9.287-16.175-.242-5.978 1.124-12.43-2.857-17.396-1.75-5.403-6.802-15.183-6.43-17.856-3.653-6.05-.806-12.224 5.318-14.21.71-1.696 9.956-7.05 9.683-11.505 6.403-6.17 7.82-7.373 14.287-10 1.626-3.805 2.56-10.12 0-14.286-1.992-6.142-7.194-9.14-6.43-15.715-.927-5.44 4-8.82 5-12.858.027-4.77-.37-10.522 2.168-13.562 1.318-3.723 2.554-7.523 2.12-11.99.05-4.635-.926-6.524-3.572-8.02-2.553-4.402-10.65-2.928-14.286-6.428-2.297-6.426-9.67-6.746-15.714-7.857-4.3-1.61-11.995-4.66-15.715.714-5.754 1.985-11.154 8.613-18.473 11.248-6.885 3.163-14.19 2.758-21.527 3.75-10.006-.175-20.176.518-30-.713-6.82-5.2-8.33-6.15-15.497-11.082-3.07-2.9-13.357-7-16.644-3.918-2.288 2.62-4.07 5.362-7.265 6.35-2.17 3.57-11.897 2.91-17.25 3.65-4.065.23-9.225-.595-12.27.748-.9 1.18-6.106.02-7.5 4.252z" fill="none" fill-rule="evenodd" stroke="#000"/></clipPath></defs><text y="321.124" x="351.92" style="line-height:125%;-inkscape-font-specification:'Helvetica, Light';text-align:start" font-weight="300" font-size="17.5" font-family="Helvetica" letter-spacing="0" word-spacing="0" transform="translate(-1056.63 -147.32)"/><text y="287.374" x="387.5" style="line-height:125%" font-weight="400" font-size="40" font-family="sans-serif" letter-spacing="0" word-spacing="0" transform="translate(-1056.63 -147.32)"/><text y="181.124" x="631.25" style="line-height:125%" font-weight="400" font-size="40" font-family="sans-serif" letter-spacing="0" word-spacing="0" transform="translate(-1056.63 -147.32)"/><g transform="translate(-86.924 -144.818)" clip-path="url(#a)"><rect width="200" height="200" x="400" y="177.362" ry="0" opacity=".99" fill="#e48366" fill-opacity=".999"/><path d="M500 177.362v200M400 277.362h200M550 177.362v100M500 227.362h100" fill="none" stroke="#cecab4"/></g><path d="M313.077 19.544h200.01" fill="none" stroke="#323232"/><text y="160.163" x="1368.447" style="line-height:125%;-inkscape-font-specification:'Helvetica, Light';text-align:start" font-weight="300" font-size="17.5" font-family="Helvetica" letter-spacing="0" word-spacing="0" fill="#323232" transform="translate(-1056.63 -147.32)"><tspan y="160.163" x="1368.447">Bioregions</tspan></text><path d="M317.497 49.687c-1.394 4.232-1.206 11.903 1.377 17.104 4.262 7.462 8.19 15.88 15.693 20.933 5.98 2.29 12.927 1.38 18.99-.698 8.994-2.25 18.288-1.5 27.51-1.624 7.606-.01 11.035 6.45 10 13.158.637 6.523.098 14.743-8.57 13.638-8.597 1.7-17.927.945-25.715 5.348-7.65 1.398-15.092 7.707-16.062 15.36-2.12 10.446-.515 21.403-1.218 32.05-5.258 6.88-14.858 8.795-21.29 14.02-9.653 4.266-1.218 15.31 6.658 14.285 6.387 2.465 8.754 11.242 13.34 16.427 4.49 4.46 9.312 8.627 14.287 10 4.653 1.054 9.953.645 15 .714 7.66-4.735 10.41-14.336 17.476-20.025 6.364-4.315 13.787-8.05 21.326-8.545 4.733.315 9.968-.95 14.07 1.396 3.982 2.156 7.427 5.886 10.97 9.59 5.474 4.536 9.61 10.917 17.585 10.442 7.442.36 10.2 3.052 17.696 2.858 5.354.624 9.92-.75 14.448-3.572 5.207-3.617 10.287-9.33 9.286-16.175-.242-5.98 1.124-12.432-2.857-17.397-1.75-5.404-6.802-15.184-6.43-17.857-3.653-6.05-.806-12.224 5.318-14.21.71-1.696 9.956-7.05 9.683-11.505 6.4-6.17 7.82-7.37 14.286-10 1.626-3.803 2.56-10.118 0-14.284-1.992-6.142-7.194-9.14-6.43-15.715-.927-5.437 4-8.817 5-12.856.027-4.77-.37-10.522 2.168-13.562 1.318-3.724 2.554-7.523 2.12-11.99.05-4.635-.926-6.524-3.572-8.02-2.553-4.402-10.65-2.928-14.286-6.428-2.297-6.426-9.67-6.746-15.714-7.857-4.3-1.61-11.995-4.66-15.715.714-5.754 1.987-11.154 8.615-18.473 11.25-6.885 3.163-14.19 2.758-21.527 3.75-10.006-.175-20.176.518-30-.713-6.82-5.2-8.33-6.15-15.497-11.082-3.07-2.9-13.358-7-16.646-3.918-2.287 2.62-4.07 5.362-7.264 6.35-2.17 3.57-11.898 2.908-17.252 3.65-4.064.23-9.224-.595-12.27.748-.9 1.18-6.105.02-7.5 4.252z" fill="none" stroke="#646464"/><text y="202.968" x="1378.918" style="line-height:125%;-inkscape-font-specification:'Helvetica, Normal';text-align:start" font-weight="400" font-size="10" font-family="Helvetica" letter-spacing="0" word-spacing="0" fill="#323232" transform="translate(-1056.63 -147.32)"><tspan y="202.968" x="1378.918">1</tspan></text><text y="291.015" x="1400.758" style="line-height:125%;-inkscape-font-specification:'Helvetica, Normal';text-align:start" font-weight="400" font-size="10" font-family="Helvetica" letter-spacing="0" word-spacing="0" fill="#323232" transform="translate(-1056.63 -147.32)"><tspan y="291.015" x="1400.758">2</tspan></text><text y="208.871" x="1472.961" style="line-height:125%;-inkscape-font-specification:'Helvetica, Normal';text-align:start" font-weight="400" font-size="10" font-family="Helvetica" letter-spacing="0" word-spacing="0" fill="#323232" transform="translate(-1056.63 -147.32)"><tspan y="208.871" x="1472.961">4</tspan></text><text y="190.871" x="1523.09" style="line-height:125%;-inkscape-font-specification:'Helvetica, Normal';text-align:start" font-weight="400" font-size="10" font-family="Helvetica" letter-spacing="0" word-spacing="0" fill="#323232" transform="translate(-1056.63 -147.32)"><tspan y="190.871" x="1523.09">7</tspan></text><text y="291.381" x="1473.214" style="line-height:125%;-inkscape-font-specification:'Helvetica, Normal';text-align:start" font-weight="400" font-size="10" font-family="Helvetica" letter-spacing="0" word-spacing="0" fill="#323232" transform="translate(-1056.63 -147.32)"><tspan y="291.381" x="1473.214">3</tspan></text><text y="240.874" x="1472.961" style="line-height:125%;-inkscape-font-specification:'Helvetica, Normal';text-align:start" font-weight="400" font-size="10" font-family="Helvetica" letter-spacing="0" word-spacing="0" fill="#323232" transform="translate(-1056.63 -147.32)"><tspan y="240.874" x="1472.961">5</tspan></text><text y="240.66" x="1522.973" style="line-height:125%;-inkscape-font-specification:'Helvetica, Normal';text-align:start" font-weight="400" font-size="10" font-family="Helvetica" letter-spacing="0" word-spacing="0" fill="#323232" transform="translate(-1056.63 -147.32)"><tspan y="240.66" x="1522.973">6</tspan></text><text style="line-height:125%;-inkscape-font-specification:'Helvetica, Light';text-align:start" x="351.92" y="317.362" font-weight="300" font-size="17.5" font-family="Helvetica" letter-spacing="0" word-spacing="0" transform="translate(-412.915 -144.082)"/><text style="line-height:125%" x="387.5" y="283.612" font-weight="400" font-size="40" font-family="sans-serif" letter-spacing="0" word-spacing="0" transform="translate(-412.915 -144.082)"/><text style="line-height:125%" x="631.25" y="177.362" font-weight="400" font-size="40" font-family="sans-serif" letter-spacing="0" word-spacing="0" transform="translate(-412.915 -144.082)"/><g transform="translate(-993.94 -142.67)"><circle r="7.071" cy="330.348" cx="1001.511" fill="#b6abe5" stroke="#7763cd"/><circle r="7.071" cy="256.51" cx="1001.511" fill="#e17a5c" stroke="#d14c26"/><g transform="matrix(.36738 0 0 .36738 766.983 72.386)" clip-path="url(#b)"><g clip-path="url(#c)" transform="translate(525 100)"><rect ry="0" y="177.362" x="400" height="200" width="200" opacity=".99" fill="#e17a5c"/><path d="M500 177.362v200M400 277.362h200M550 177.362v100M500 227.362h100" fill="none" stroke="#cecab4"/></g><path d="M929.42 294.505c-1.394 4.232-1.206 11.903 1.377 17.104 4.262 7.46 8.19 15.878 15.693 20.93 5.98 2.29 12.927 1.382 18.99-.697 8.994-2.25 18.288-1.5 27.51-1.624 7.606-.006 11.036 6.448 10 13.156.637 6.523.098 14.743-8.57 13.638-8.596 1.7-17.927.945-25.714 5.348-7.65 1.398-15.093 7.707-16.063 15.36-2.12 10.446-.515 21.403-1.218 32.05-5.258 6.88-14.858 8.795-21.29 14.02-9.653 4.266-1.218 15.31 6.658 14.285 6.388 2.466 8.754 11.243 13.34 16.428 4.49 4.46 9.313 8.627 14.287 10 4.653 1.054 9.953.645 15 .714 7.66-4.737 10.41-14.338 17.476-20.027 6.364-4.315 13.787-8.05 21.326-8.545 4.735.315 9.97-.95 14.072 1.396 3.98 2.156 7.426 5.886 10.968 9.59 5.475 4.536 9.61 10.917 17.586 10.443 7.443.358 10.2 3.05 17.696 2.857 5.353.624 9.92-.75 14.447-3.572 5.208-3.617 10.288-9.328 9.287-16.175-.242-5.978 1.124-12.43-2.857-17.396-1.75-5.403-6.802-15.183-6.43-17.856-3.653-6.05-.806-12.224 5.318-14.21.71-1.696 9.956-7.05 9.683-11.505 6.403-6.17 7.82-7.373 14.287-10 1.626-3.805 2.56-10.12 0-14.286-1.992-6.142-7.194-9.14-6.43-15.715-.927-5.44 4-8.82 5-12.858.027-4.77-.37-10.522 2.168-13.562 1.318-3.723 2.554-7.523 2.12-11.99.05-4.635-.926-6.524-3.572-8.02-2.553-4.402-10.65-2.928-14.286-6.428-2.297-6.426-9.67-6.746-15.714-7.857-4.3-1.61-11.995-4.66-15.715.714-5.754 1.985-11.154 8.613-18.473 11.248-6.885 3.163-14.19 2.758-21.527 3.75-10.006-.175-20.176.518-30-.713-6.82-5.2-8.33-6.15-15.497-11.082-3.07-2.9-13.357-7-16.644-3.918-2.288 2.62-4.07 5.362-7.265 6.35-2.17 3.57-11.897 2.91-17.25 3.65-4.065.23-9.225-.595-12.27.748-.9 1.18-6.106.02-7.5 4.252z" fill="none" stroke="#646464" stroke-width="1.361"/><text style="line-height:125%;-inkscape-font-specification:'Helvetica, Normal';text-align:start" x="966.874" y="316.797" font-weight="400" font-size="27.22" font-family="Helvetica" letter-spacing="0" word-spacing="0" fill="#323232"><tspan x="966.874" y="316.797">1</tspan></text><text style="line-height:125%;-inkscape-font-specification:'Helvetica, Normal';text-align:start" x="956.051" y="388.513" font-weight="400" font-size="10" font-family="Helvetica" letter-spacing="0" word-spacing="0" fill="#323232"><tspan x="956.051" y="388.513">2</tspan></text><text style="line-height:125%;-inkscape-font-specification:'Helvetica, Normal';text-align:start" x="1028.254" y="306.369" font-weight="400" font-size="10" font-family="Helvetica" letter-spacing="0" word-spacing="0" fill="#323232"><tspan x="1028.254" y="306.369">4</tspan></text><text style="line-height:125%;-inkscape-font-specification:'Helvetica, Normal';text-align:start" x="1078.383" y="288.369" font-weight="400" font-size="10" font-family="Helvetica" letter-spacing="0" word-spacing="0" fill="#323232"><tspan x="1078.383" y="288.369">7</tspan></text><text style="line-height:125%;-inkscape-font-specification:'Helvetica, Normal';text-align:start" x="1028.507" y="388.879" font-weight="400" font-size="10" font-family="Helvetica" letter-spacing="0" word-spacing="0" fill="#323232"><tspan x="1028.507" y="388.879">3</tspan></text><text style="line-height:125%;-inkscape-font-specification:'Helvetica, Normal';text-align:start" x="1028.254" y="338.372" font-weight="400" font-size="10" font-family="Helvetica" letter-spacing="0" word-spacing="0" fill="#323232"><tspan x="1028.254" y="338.372">5</tspan></text><text style="line-height:125%;-inkscape-font-specification:'Helvetica, Normal';text-align:start" x="1078.266" y="338.158" font-weight="400" font-size="10" font-family="Helvetica" letter-spacing="0" word-spacing="0" fill="#323232"><tspan x="1078.266" y="338.158">6</tspan></text></g><circle r="7.071" cy="293.429" cx="1001.511" fill="#b6abe5" stroke="#7763cd"/><circle r="7.071" cy="219.591" cx="1001.511" fill="#e17a5c" stroke="#d14c26"/><g clip-path="url(#d)" transform="matrix(.36738 0 0 .36738 766.983 74.663)"><g clip-path="url(#e)" transform="translate(525 100)"><rect ry="0" y="177.362" x="400" height="200" width="200" opacity=".99" fill="#e17a5c"/><path d="M500 177.362v200M400 277.362h200M550 177.362v100M500 227.362h100" fill="none" stroke="#cecab4"/></g><path d="M929.42 294.505c-1.394 4.232-1.206 11.903 1.377 17.104 4.262 7.46 8.19 15.878 15.693 20.93 5.98 2.29 12.927 1.382 18.99-.697 8.994-2.25 18.288-1.5 27.51-1.624 7.606-.006 11.036 6.448 10 13.156.637 6.523.098 14.743-8.57 13.638-8.596 1.7-17.927.945-25.714 5.348-7.65 1.398-15.093 7.707-16.063 15.36-2.12 10.446-.515 21.403-1.218 32.05-5.258 6.88-14.858 8.795-21.29 14.02-9.653 4.266-1.218 15.31 6.658 14.285 6.388 2.466 8.754 11.243 13.34 16.428 4.49 4.46 9.313 8.627 14.287 10 4.653 1.054 9.953.645 15 .714 7.66-4.737 10.41-14.338 17.476-20.027 6.364-4.315 13.787-8.05 21.326-8.545 4.735.315 9.97-.95 14.072 1.396 3.98 2.156 7.426 5.886 10.968 9.59 5.475 4.536 9.61 10.917 17.586 10.443 7.443.358 10.2 3.05 17.696 2.857 5.353.624 9.92-.75 14.447-3.572 5.208-3.617 10.288-9.328 9.287-16.175-.242-5.978 1.124-12.43-2.857-17.396-1.75-5.403-6.802-15.183-6.43-17.856-3.653-6.05-.806-12.224 5.318-14.21.71-1.696 9.956-7.05 9.683-11.505 6.403-6.17 7.82-7.373 14.287-10 1.626-3.805 2.56-10.12 0-14.286-1.992-6.142-7.194-9.14-6.43-15.715-.927-5.44 4-8.82 5-12.858.027-4.77-.37-10.522 2.168-13.562 1.318-3.723 2.554-7.523 2.12-11.99.05-4.635-.926-6.524-3.572-8.02-2.553-4.402-10.65-2.928-14.286-6.428-2.297-6.426-9.67-6.746-15.714-7.857-4.3-1.61-11.995-4.66-15.715.714-5.754 1.985-11.154 8.613-18.473 11.248-6.885 3.163-14.19 2.758-21.527 3.75-10.006-.175-20.176.518-30-.713-6.82-5.2-8.33-6.15-15.497-11.082-3.07-2.9-13.357-7-16.644-3.918-2.288 2.62-4.07 5.362-7.265 6.35-2.17 3.57-11.897 2.91-17.25 3.65-4.065.23-9.225-.595-12.27.748-.9 1.18-6.106.02-7.5 4.252z" fill="none" stroke="#646464" stroke-width="1.361"/><text style="line-height:125%;-inkscape-font-specification:'Helvetica, Normal';text-align:start" x="934.211" y="300.466" font-weight="400" font-size="10" font-family="Helvetica" letter-spacing="0" word-spacing="0" fill="#323232"/><text style="line-height:125%;-inkscape-font-specification:'Helvetica, Normal';text-align:start" x="972.383" y="421.176" font-weight="400" font-size="27.22" font-family="Helvetica" letter-spacing="0" word-spacing="0" fill="#323232"><tspan x="972.383" y="421.176">2</tspan></text><text style="line-height:125%;-inkscape-font-specification:'Helvetica, Normal';text-align:start" x="1028.254" y="306.369" font-weight="400" font-size="10" font-family="Helvetica" letter-spacing="0" word-spacing="0" fill="#323232"><tspan x="1028.254" y="306.369">4</tspan></text><text style="line-height:125%;-inkscape-font-specification:'Helvetica, Normal';text-align:start" x="1078.383" y="288.369" font-weight="400" font-size="10" font-family="Helvetica" letter-spacing="0" word-spacing="0" fill="#323232"><tspan x="1078.383" y="288.369">7</tspan></text><text style="line-height:125%;-inkscape-font-specification:'Helvetica, Normal';text-align:start" x="1028.507" y="388.879" font-weight="400" font-size="10" font-family="Helvetica" letter-spacing="0" word-spacing="0" fill="#323232"><tspan x="1028.507" y="388.879">3</tspan></text><text style="line-height:125%;-inkscape-font-specification:'Helvetica, Normal';text-align:start" x="1028.254" y="338.372" font-weight="400" font-size="10" font-family="Helvetica" letter-spacing="0" word-spacing="0" fill="#323232"><tspan x="1028.254" y="338.372">5</tspan></text><text style="line-height:125%;-inkscape-font-specification:'Helvetica, Normal';text-align:start" x="1078.266" y="338.158" font-weight="400" font-size="10" font-family="Helvetica" letter-spacing="0" word-spacing="0" fill="#323232"><tspan x="1078.266" y="338.158">6</tspan></text></g><g clip-path="url(#f)" transform="matrix(.36738 0 0 .36738 730.36 109.41)"><g clip-path="url(#g)" transform="translate(525 100)"><rect ry="0" y="177.362" x="400" height="200" width="200" opacity=".99" fill="#fff8db"/><path d="M500 177.362v200M400 277.362h200M550 177.362v100M500 227.362h100" fill="none" stroke="#cecab4"/></g><path d="M929.42 294.505c-1.394 4.232-1.206 11.903 1.377 17.104 4.262 7.46 8.19 15.878 15.693 20.93 5.98 2.29 12.927 1.382 18.99-.697 8.994-2.25 18.288-1.5 27.51-1.624 7.606-.006 11.036 6.448 10 13.156.637 6.523.098 14.743-8.57 13.638-8.596 1.7-17.927.945-25.714 5.348-7.65 1.398-15.093 7.707-16.063 15.36-2.12 10.446-.515 21.403-1.218 32.05-5.258 6.88-14.858 8.795-21.29 14.02-9.653 4.266-1.218 15.31 6.658 14.285 6.388 2.466 8.754 11.243 13.34 16.428 4.49 4.46 9.313 8.627 14.287 10 4.653 1.054 9.953.645 15 .714 7.66-4.737 10.41-14.338 17.476-20.027 6.364-4.315 13.787-8.05 21.326-8.545 4.735.315 9.97-.95 14.072 1.396 3.98 2.156 7.426 5.886 10.968 9.59 5.475 4.536 9.61 10.917 17.586 10.443 7.443.358 10.2 3.05 17.696 2.857 5.353.624 9.92-.75 14.447-3.572 5.208-3.617 10.288-9.328 9.287-16.175-.242-5.978 1.124-12.43-2.857-17.396-1.75-5.403-6.802-15.183-6.43-17.856-3.653-6.05-.806-12.224 5.318-14.21.71-1.696 9.956-7.05 9.683-11.505 6.403-6.17 7.82-7.373 14.287-10 1.626-3.805 2.56-10.12 0-14.286-1.992-6.142-7.194-9.14-6.43-15.715-.927-5.44 4-8.82 5-12.858.027-4.77-.37-10.522 2.168-13.562 1.318-3.723 2.554-7.523 2.12-11.99.05-4.635-.926-6.524-3.572-8.02-2.553-4.402-10.65-2.928-14.286-6.428-2.297-6.426-9.67-6.746-15.714-7.857-4.3-1.61-11.995-4.66-15.715.714-5.754 1.985-11.154 8.613-18.473 11.248-6.885 3.163-14.19 2.758-21.527 3.75-10.006-.175-20.176.518-30-.713-6.82-5.2-8.33-6.15-15.497-11.082-3.07-2.9-13.357-7-16.644-3.918-2.288 2.62-4.07 5.362-7.265 6.35-2.17 3.57-11.897 2.91-17.25 3.65-4.065.23-9.225-.595-12.27.748-.9 1.18-6.106.02-7.5 4.252z" fill="#e17a5c" fill-rule="evenodd" stroke="#646464" stroke-width="1.361"/><text style="line-height:125%;-inkscape-font-specification:'Helvetica, Normal';text-align:start" x="934.211" y="300.466" font-weight="400" font-size="10" font-family="Helvetica" letter-spacing="0" word-spacing="0" fill="#323232"><tspan x="934.211" y="300.466">1</tspan></text><text style="line-height:125%;-inkscape-font-specification:'Helvetica, Normal';text-align:start" x="956.051" y="388.513" font-weight="400" font-size="10" font-family="Helvetica" letter-spacing="0" word-spacing="0" fill="#323232"><tspan x="956.051" y="388.513">2</tspan></text><text style="line-height:125%;-inkscape-font-specification:'Helvetica, Normal';text-align:start" x="1028.254" y="306.369" font-weight="400" font-size="10" font-family="Helvetica" letter-spacing="0" word-spacing="0" fill="#323232"><tspan x="1028.254" y="306.369">4</tspan></text><text style="line-height:125%;-inkscape-font-specification:'Helvetica, Normal';text-align:start" x="1078.383" y="288.369" font-weight="400" font-size="10" font-family="Helvetica" letter-spacing="0" word-spacing="0" fill="#323232"><tspan x="1078.383" y="288.369">7</tspan></text><text style="line-height:125%;-inkscape-font-specification:'Helvetica, Normal';text-align:start" x="1055.726" y="421.543" font-weight="400" font-size="27.22" font-family="Helvetica" letter-spacing="0" word-spacing="0" fill="#323232"><tspan x="1055.726" y="421.543">3</tspan></text><text style="line-height:125%;-inkscape-font-specification:'Helvetica, Normal';text-align:start" x="1028.254" y="338.372" font-weight="400" font-size="10" font-family="Helvetica" letter-spacing="0" word-spacing="0" fill="#323232"><tspan x="1028.254" y="338.372">5</tspan></text><text style="line-height:125%;-inkscape-font-specification:'Helvetica, Normal';text-align:start" x="1078.266" y="338.158" font-weight="400" font-size="10" font-family="Helvetica" letter-spacing="0" word-spacing="0" fill="#323232"><tspan x="1078.266" y="338.158">6</tspan></text></g><g clip-path="url(#h)" transform="matrix(.36738 0 0 .36738 730.36 180.895)"><g clip-path="url(#i)" transform="translate(525 100)"><rect ry="0" y="177.362" x="400" height="200" width="200" opacity=".99" fill="#fff8db"/><path d="M500 177.362v200M400 277.362h200M550 177.362v100M500 227.362h100" fill="none" stroke="#cecab4"/></g><path d="M929.42 294.505c-1.394 4.232-1.206 11.903 1.377 17.104 4.262 7.46 8.19 15.878 15.693 20.93 5.98 2.29 12.927 1.382 18.99-.697 8.994-2.25 18.288-1.5 27.51-1.624 7.606-.006 11.036 6.448 10 13.156.637 6.523.098 14.743-8.57 13.638-8.596 1.7-17.927.945-25.714 5.348-7.65 1.398-15.093 7.707-16.063 15.36-2.12 10.446-.515 21.403-1.218 32.05-5.258 6.88-14.858 8.795-21.29 14.02-9.653 4.266-1.218 15.31 6.658 14.285 6.388 2.466 8.754 11.243 13.34 16.428 4.49 4.46 9.313 8.627 14.287 10 4.653 1.054 9.953.645 15 .714 7.66-4.737 10.41-14.338 17.476-20.027 6.364-4.315 13.787-8.05 21.326-8.545 4.735.315 9.97-.95 14.072 1.396 3.98 2.156 7.426 5.886 10.968 9.59 5.475 4.536 9.61 10.917 17.586 10.443 7.443.358 10.2 3.05 17.696 2.857 5.353.624 9.92-.75 14.447-3.572 5.208-3.617 10.288-9.328 9.287-16.175-.242-5.978 1.124-12.43-2.857-17.396-1.75-5.403-6.802-15.183-6.43-17.856-3.653-6.05-.806-12.224 5.318-14.21.71-1.696 9.956-7.05 9.683-11.505 6.403-6.17 7.82-7.373 14.287-10 1.626-3.805 2.56-10.12 0-14.286-1.992-6.142-7.194-9.14-6.43-15.715-.927-5.44 4-8.82 5-12.858.027-4.77-.37-10.522 2.168-13.562 1.318-3.723 2.554-7.523 2.12-11.99.05-4.635-.926-6.524-3.572-8.02-2.553-4.402-10.65-2.928-14.286-6.428-2.297-6.426-9.67-6.746-15.714-7.857-4.3-1.61-11.995-4.66-15.715.714-5.754 1.985-11.154 8.613-18.473 11.248-6.885 3.163-14.19 2.758-21.527 3.75-10.006-.175-20.176.518-30-.713-6.82-5.2-8.33-6.15-15.497-11.082-3.07-2.9-13.357-7-16.644-3.918-2.288 2.62-4.07 5.362-7.265 6.35-2.17 3.57-11.897 2.91-17.25 3.65-4.065.23-9.225-.595-12.27.748-.9 1.18-6.106.02-7.5 4.252z" fill="#e17a5c" fill-rule="evenodd" stroke="#646464" stroke-width="1.361"/><text style="line-height:125%;-inkscape-font-specification:'Helvetica, Normal';text-align:start" x="934.211" y="300.466" font-weight="400" font-size="10" font-family="Helvetica" letter-spacing="0" word-spacing="0" fill="#323232"><tspan x="934.211" y="300.466">1</tspan></text><text style="line-height:125%;-inkscape-font-specification:'Helvetica, Normal';text-align:start" x="956.051" y="388.513" font-weight="400" font-size="10" font-family="Helvetica" letter-spacing="0" word-spacing="0" fill="#323232"><tspan x="956.051" y="388.513">2</tspan></text><text style="line-height:125%;-inkscape-font-specification:'Helvetica, Normal';text-align:start" x="1039.142" y="317.257" font-weight="400" font-size="27.22" font-family="Helvetica" letter-spacing="0" word-spacing="0" fill="#323232"><tspan x="1039.142" y="317.257">4</tspan></text><text style="line-height:125%;-inkscape-font-specification:'Helvetica, Normal';text-align:start" x="1078.383" y="288.369" font-weight="400" font-size="10" font-family="Helvetica" letter-spacing="0" word-spacing="0" fill="#323232"><tspan x="1078.383" y="288.369">7</tspan></text><text style="line-height:125%;-inkscape-font-specification:'Helvetica, Normal';text-align:start" x="1028.507" y="388.879" font-weight="400" font-size="10" font-family="Helvetica" letter-spacing="0" word-spacing="0" fill="#323232"><tspan x="1028.507" y="388.879">3</tspan></text><text style="line-height:125%;-inkscape-font-specification:'Helvetica, Normal';text-align:start" x="1028.254" y="338.372" font-weight="400" font-size="10" font-family="Helvetica" letter-spacing="0" word-spacing="0" fill="#323232"><tspan x="1028.254" y="338.372">5</tspan></text><text style="line-height:125%;-inkscape-font-specification:'Helvetica, Normal';text-align:start" x="1078.266" y="338.158" font-weight="400" font-size="10" font-family="Helvetica" letter-spacing="0" word-spacing="0" fill="#323232"><tspan x="1078.266" y="338.158">6</tspan></text></g><g clip-path="url(#j)" transform="matrix(.36738 0 0 .36738 730.36 183.17)"><g clip-path="url(#k)" transform="translate(525 100)"><rect ry="0" y="177.362" x="400" height="200" width="200" opacity=".99" fill="#fff8db"/><path d="M500 177.362v200M400 277.362h200M550 177.362v100M500 227.362h100" fill="none" stroke="#cecab4"/></g><path d="M929.42 294.505c-1.394 4.232-1.206 11.903 1.377 17.104 4.262 7.46 8.19 15.878 15.693 20.93 5.98 2.29 12.927 1.382 18.99-.697 8.994-2.25 18.288-1.5 27.51-1.624 7.606-.006 11.036 6.448 10 13.156.637 6.523.098 14.743-8.57 13.638-8.596 1.7-17.927.945-25.714 5.348-7.65 1.398-15.093 7.707-16.063 15.36-2.12 10.446-.515 21.403-1.218 32.05-5.258 6.88-14.858 8.795-21.29 14.02-9.653 4.266-1.218 15.31 6.658 14.285 6.388 2.466 8.754 11.243 13.34 16.428 4.49 4.46 9.313 8.627 14.287 10 4.653 1.054 9.953.645 15 .714 7.66-4.737 10.41-14.338 17.476-20.027 6.364-4.315 13.787-8.05 21.326-8.545 4.735.315 9.97-.95 14.072 1.396 3.98 2.156 7.426 5.886 10.968 9.59 5.475 4.536 9.61 10.917 17.586 10.443 7.443.358 10.2 3.05 17.696 2.857 5.353.624 9.92-.75 14.447-3.572 5.208-3.617 10.288-9.328 9.287-16.175-.242-5.978 1.124-12.43-2.857-17.396-1.75-5.403-6.802-15.183-6.43-17.856-3.653-6.05-.806-12.224 5.318-14.21.71-1.696 9.956-7.05 9.683-11.505 6.403-6.17 7.82-7.373 14.287-10 1.626-3.805 2.56-10.12 0-14.286-1.992-6.142-7.194-9.14-6.43-15.715-.927-5.44 4-8.82 5-12.858.027-4.77-.37-10.522 2.168-13.562 1.318-3.723 2.554-7.523 2.12-11.99.05-4.635-.926-6.524-3.572-8.02-2.553-4.402-10.65-2.928-14.286-6.428-2.297-6.426-9.67-6.746-15.714-7.857-4.3-1.61-11.995-4.66-15.715.714-5.754 1.985-11.154 8.613-18.473 11.248-6.885 3.163-14.19 2.758-21.527 3.75-10.006-.175-20.176.518-30-.713-6.82-5.2-8.33-6.15-15.497-11.082-3.07-2.9-13.357-7-16.644-3.918-2.288 2.62-4.07 5.362-7.265 6.35-2.17 3.57-11.897 2.91-17.25 3.65-4.065.23-9.225-.595-12.27.748-.9 1.18-6.106.02-7.5 4.252z" fill="#b6abe5" fill-rule="evenodd" stroke="#646464" stroke-width="1.361"/><text style="line-height:125%;-inkscape-font-specification:'Helvetica, Normal';text-align:start" x="934.211" y="300.466" font-weight="400" font-size="10" font-family="Helvetica" letter-spacing="0" word-spacing="0" fill="#323232"><tspan x="934.211" y="300.466">1</tspan></text><text style="line-height:125%;-inkscape-font-specification:'Helvetica, Normal';text-align:start" x="956.051" y="388.513" font-weight="400" font-size="10" font-family="Helvetica" letter-spacing="0" word-spacing="0" fill="#323232"><tspan x="956.051" y="388.513">2</tspan></text><text style="line-height:125%;-inkscape-font-specification:'Helvetica, Normal';text-align:start" x="1028.254" y="306.369" font-weight="400" font-size="10" font-family="Helvetica" letter-spacing="0" word-spacing="0" fill="#323232"><tspan x="1028.254" y="306.369">4</tspan></text><text style="line-height:125%;-inkscape-font-specification:'Helvetica, Normal';text-align:start" x="1078.383" y="288.369" font-weight="400" font-size="10" font-family="Helvetica" letter-spacing="0" word-spacing="0" fill="#323232"><tspan x="1078.383" y="288.369">7</tspan></text><text style="line-height:125%;-inkscape-font-specification:'Helvetica, Normal';text-align:start" x="1028.507" y="388.879" font-weight="400" font-size="10" font-family="Helvetica" letter-spacing="0" word-spacing="0" fill="#323232"><tspan x="1028.507" y="388.879">3</tspan></text><text style="line-height:125%;-inkscape-font-specification:'Helvetica, Normal';text-align:start" x="1078.266" y="338.158" font-weight="400" font-size="10" font-family="Helvetica" letter-spacing="0" word-spacing="0" fill="#323232"><tspan x="1078.266" y="338.158">6</tspan></text><text style="line-height:125%;-inkscape-font-specification:'Helvetica, Normal';text-align:start" x="1039.142" y="360.147" font-weight="400" font-size="27.22" font-family="Helvetica" letter-spacing="0" word-spacing="0" fill="#323232"><tspan x="1039.142" y="360.147">5</tspan></text></g><g clip-path="url(#l)" transform="matrix(.36738 0 0 .36738 711.99 203.817)"><g clip-path="url(#m)" transform="translate(525 100)"><rect ry="0" y="177.362" x="400" height="200" width="200" opacity=".99" fill="#fff8db"/><path d="M500 177.362v200M400 277.362h200M550 177.362v100M500 227.362h100" fill="none" stroke="#cecab4"/></g><path d="M929.42 294.505c-1.394 4.232-1.206 11.903 1.377 17.104 4.262 7.46 8.19 15.878 15.693 20.93 5.98 2.29 12.927 1.382 18.99-.697 8.994-2.25 18.288-1.5 27.51-1.624 7.606-.006 11.036 6.448 10 13.156.637 6.523.098 14.743-8.57 13.638-8.596 1.7-17.927.945-25.714 5.348-7.65 1.398-15.093 7.707-16.063 15.36-2.12 10.446-.515 21.403-1.218 32.05-5.258 6.88-14.858 8.795-21.29 14.02-9.653 4.266-1.218 15.31 6.658 14.285 6.388 2.466 8.754 11.243 13.34 16.428 4.49 4.46 9.313 8.627 14.287 10 4.653 1.054 9.953.645 15 .714 7.66-4.737 10.41-14.338 17.476-20.027 6.364-4.315 13.787-8.05 21.326-8.545 4.735.315 9.97-.95 14.072 1.396 3.98 2.156 7.426 5.886 10.968 9.59 5.475 4.536 9.61 10.917 17.586 10.443 7.443.358 10.2 3.05 17.696 2.857 5.353.624 9.92-.75 14.447-3.572 5.208-3.617 10.288-9.328 9.287-16.175-.242-5.978 1.124-12.43-2.857-17.396-1.75-5.403-6.802-15.183-6.43-17.856-3.653-6.05-.806-12.224 5.318-14.21.71-1.696 9.956-7.05 9.683-11.505 6.403-6.17 7.82-7.373 14.287-10 1.626-3.805 2.56-10.12 0-14.286-1.992-6.142-7.194-9.14-6.43-15.715-.927-5.44 4-8.82 5-12.858.027-4.77-.37-10.522 2.168-13.562 1.318-3.723 2.554-7.523 2.12-11.99.05-4.635-.926-6.524-3.572-8.02-2.553-4.402-10.65-2.928-14.286-6.428-2.297-6.426-9.67-6.746-15.714-7.857-4.3-1.61-11.995-4.66-15.715.714-5.754 1.985-11.154 8.613-18.473 11.248-6.885 3.163-14.19 2.758-21.527 3.75-10.006-.175-20.176.518-30-.713-6.82-5.2-8.33-6.15-15.497-11.082-3.07-2.9-13.357-7-16.644-3.918-2.288 2.62-4.07 5.362-7.265 6.35-2.17 3.57-11.897 2.91-17.25 3.65-4.065.23-9.225-.595-12.27.748-.9 1.18-6.106.02-7.5 4.252z" fill="#b6abe5" fill-rule="evenodd" stroke="#646464" stroke-width="1.361"/><text style="line-height:125%;-inkscape-font-specification:'Helvetica, Normal';text-align:start" x="934.211" y="300.466" font-weight="400" font-size="10" font-family="Helvetica" letter-spacing="0" word-spacing="0" fill="#323232"><tspan x="934.211" y="300.466">1</tspan></text><text style="line-height:125%;-inkscape-font-specification:'Helvetica, Normal';text-align:start" x="956.051" y="388.513" font-weight="400" font-size="10" font-family="Helvetica" letter-spacing="0" word-spacing="0" fill="#323232"><tspan x="956.051" y="388.513">2</tspan></text><text style="line-height:125%;-inkscape-font-specification:'Helvetica, Normal';text-align:start" x="1028.254" y="306.369" font-weight="400" font-size="10" font-family="Helvetica" letter-spacing="0" word-spacing="0" fill="#323232"><tspan x="1028.254" y="306.369">4</tspan></text><text style="line-height:125%;-inkscape-font-specification:'Helvetica, Normal';text-align:start" x="1078.383" y="288.369" font-weight="400" font-size="10" font-family="Helvetica" letter-spacing="0" word-spacing="0" fill="#323232"><tspan x="1078.383" y="288.369">7</tspan></text><text style="line-height:125%;-inkscape-font-specification:'Helvetica, Normal';text-align:start" x="1028.507" y="388.879" font-weight="400" font-size="10" font-family="Helvetica" letter-spacing="0" word-spacing="0" fill="#323232"><tspan x="1028.507" y="388.879">3</tspan></text><text style="line-height:125%;-inkscape-font-specification:'Helvetica, Normal';text-align:start" x="1028.254" y="338.372" font-weight="400" font-size="10" font-family="Helvetica" letter-spacing="0" word-spacing="0" fill="#323232"><tspan x="1028.254" y="338.372">5</tspan></text><text style="line-height:125%;-inkscape-font-specification:'Helvetica, Normal';text-align:start" x="1088.92" y="359.811" font-weight="400" font-size="27.22" font-family="Helvetica" letter-spacing="0" word-spacing="0" fill="#323232"><tspan x="1088.92" y="359.811">6</tspan></text></g><g clip-path="url(#n)" transform="matrix(.36738 0 0 .36738 711.99 243.084)"><g clip-path="url(#o)" transform="translate(525 100)"><rect ry="0" y="177.362" x="400" height="200" width="200" opacity=".99" fill="#fff8db"/><path d="M500 177.362v200M400 277.362h200M550 177.362v100M500 227.362h100" fill="none" stroke="#cecab4"/></g><path d="M929.42 294.505c-1.394 4.232-1.206 11.903 1.377 17.104 4.262 7.46 8.19 15.878 15.693 20.93 5.98 2.29 12.927 1.382 18.99-.697 8.994-2.25 18.288-1.5 27.51-1.624 7.606-.006 11.036 6.448 10 13.156.637 6.523.098 14.743-8.57 13.638-8.596 1.7-17.927.945-25.714 5.348-7.65 1.398-15.093 7.707-16.063 15.36-2.12 10.446-.515 21.403-1.218 32.05-5.258 6.88-14.858 8.795-21.29 14.02-9.653 4.266-1.218 15.31 6.658 14.285 6.388 2.466 8.754 11.243 13.34 16.428 4.49 4.46 9.313 8.627 14.287 10 4.653 1.054 9.953.645 15 .714 7.66-4.737 10.41-14.338 17.476-20.027 6.364-4.315 13.787-8.05 21.326-8.545 4.735.315 9.97-.95 14.072 1.396 3.98 2.156 7.426 5.886 10.968 9.59 5.475 4.536 9.61 10.917 17.586 10.443 7.443.358 10.2 3.05 17.696 2.857 5.353.624 9.92-.75 14.447-3.572 5.208-3.617 10.288-9.328 9.287-16.175-.242-5.978 1.124-12.43-2.857-17.396-1.75-5.403-6.802-15.183-6.43-17.856-3.653-6.05-.806-12.224 5.318-14.21.71-1.696 9.956-7.05 9.683-11.505 6.403-6.17 7.82-7.373 14.287-10 1.626-3.805 2.56-10.12 0-14.286-1.992-6.142-7.194-9.14-6.43-15.715-.927-5.44 4-8.82 5-12.858.027-4.77-.37-10.522 2.168-13.562 1.318-3.723 2.554-7.523 2.12-11.99.05-4.635-.926-6.524-3.572-8.02-2.553-4.402-10.65-2.928-14.286-6.428-2.297-6.426-9.67-6.746-15.714-7.857-4.3-1.61-11.995-4.66-15.715.714-5.754 1.985-11.154 8.613-18.473 11.248-6.885 3.163-14.19 2.758-21.527 3.75-10.006-.175-20.176.518-30-.713-6.82-5.2-8.33-6.15-15.497-11.082-3.07-2.9-13.357-7-16.644-3.918-2.288 2.62-4.07 5.362-7.265 6.35-2.17 3.57-11.897 2.91-17.25 3.65-4.065.23-9.225-.595-12.27.748-.9 1.18-6.106.02-7.5 4.252z" fill="#b6abe5" fill-rule="evenodd" stroke="#646464" stroke-width="1.361"/><text style="line-height:125%;-inkscape-font-specification:'Helvetica, Normal';text-align:start" x="934.211" y="300.466" font-weight="400" font-size="10" font-family="Helvetica" letter-spacing="0" word-spacing="0" fill="#323232"><tspan x="934.211" y="300.466">1</tspan></text><text style="line-height:125%;-inkscape-font-specification:'Helvetica, Normal';text-align:start" x="956.051" y="388.513" font-weight="400" font-size="10" font-family="Helvetica" letter-spacing="0" word-spacing="0" fill="#323232"><tspan x="956.051" y="388.513">2</tspan></text><text style="line-height:125%;-inkscape-font-specification:'Helvetica, Normal';text-align:start" x="1028.254" y="306.369" font-weight="400" font-size="10" font-family="Helvetica" letter-spacing="0" word-spacing="0" fill="#323232"><tspan x="1028.254" y="306.369">4</tspan></text><text style="line-height:125%;-inkscape-font-specification:'Helvetica, Normal';text-align:start" x="1088.24" y="315.3" font-weight="400" font-size="27.22" font-family="Helvetica" letter-spacing="0" word-spacing="0" fill="#323232"><tspan x="1088.24" y="315.3">7</tspan></text><text style="line-height:125%;-inkscape-font-specification:'Helvetica, Normal';text-align:start" x="1028.507" y="388.879" font-weight="400" font-size="10" font-family="Helvetica" letter-spacing="0" word-spacing="0" fill="#323232"><tspan x="1028.507" y="388.879">3</tspan></text><text style="line-height:125%;-inkscape-font-specification:'Helvetica, Normal';text-align:start" x="1028.254" y="338.372" font-weight="400" font-size="10" font-family="Helvetica" letter-spacing="0" word-spacing="0" fill="#323232"><tspan x="1028.254" y="338.372">5</tspan></text><text style="line-height:125%;-inkscape-font-specification:'Helvetica, Normal';text-align:start" x="1078.266" y="338.158" font-weight="400" font-size="10" font-family="Helvetica" letter-spacing="0" word-spacing="0" fill="#323232"><tspan x="1078.266" y="338.158">6</tspan></text></g><path d="M995.072 161.97h147.802" fill="none" stroke="#323232"/><text y="155.269" x="993.654" style="line-height:125%;-inkscape-font-specification:'Helvetica, Light';text-align:start" font-weight="300" font-size="17.5" font-family="Helvetica" letter-spacing="0" word-spacing="0" fill="#323232"><tspan y="155.269" x="993.654">Network clusters</tspan></text><path d="M1013.286 218.72l87.5 6.25M1013.286 218.72l87.5-25M1100.786 293.72l-87.5-75" fill="none" stroke="#e17a5c"/><path d="M1013.286 256.22l87.5-31.25M1013.286 256.22l87.5 6.25" fill="#8fbfa7" fill-rule="evenodd" stroke="#e17a5c"/><path d="M1100.786 331.22l-87.5-75" fill="#8fbfa7" fill-rule="evenodd" stroke="#646464"/><path d="M1100.786 312.47l-87.5-18.75M1100.786 331.22l-87.5-37.5M1100.786 349.97l-87.5-56.25M1100.786 331.22h-87.5M1100.786 349.97l-87.5-18.75" fill="none" stroke="#b6abe5"/></g><g fill="none" stroke="#323232" stroke-width="2"><path d="M294 539.862h75M362.75 533.612l6.25 6.25-6.25 6.25" transform="matrix(1.19624 0 0 .98998 -157.986 -403.92)"/></g><text y="266.999" x="1249.817" style="line-height:125%;-inkscape-font-specification:'Helvetica, Light';text-align:start" font-weight="300" font-size="17.5" font-family="Helvetica" letter-spacing="0" word-spacing="0" fill="#323232" transform="translate(-1056.63 -147.32)"><tspan y="266.999" x="1249.817">Bioregions</tspan></text><g><g transform="translate(-386.924 -1051.112)" clip-path="url(#p)"><g transform="translate(300 906.248)" clip-path="url(#q)"><rect width="200" height="200" x="400" y="177.362" ry="0" opacity=".99" fill="#b6abe5"/><path d="M500 177.362v200M400 277.362h200M550 177.362v100M500 227.362h100" fill="none" stroke="#cecab4"/></g><path d="M704.42 1100.753c-1.394 4.232-1.206 11.903 1.378 17.104 4.262 7.46 8.19 15.88 15.692 20.932 5.98 2.29 12.927 1.38 18.99-.698 8.994-2.25 18.29-1.5 27.512-1.624 7.605-.01 11.034 6.448 10 13.156.635 6.523.096 14.743-8.57 13.638-8.598 1.7-17.928.946-25.716 5.348-7.65 1.398-15.093 7.708-16.063 15.36-2.12 10.446-.514 21.403-1.217 32.05-5.258 6.88-14.86 8.795-21.292 14.02-9.65 4.266-1.217 15.31 6.66 14.285 6.387 2.466 8.753 11.243 13.34 16.428 4.49 4.46 9.312 8.628 14.286 10 4.653 1.054 9.953.645 15 .715 7.66-4.736 10.41-14.338 17.476-20.027 6.364-4.314 13.787-8.047 21.326-8.544 4.735.315 9.97-.95 14.072 1.396 3.982 2.157 7.427 5.886 10.97 9.59 5.473 4.536 9.61 10.917 17.585 10.443 7.44.358 10.2 3.05 17.695 2.857 5.352.625 9.92-.75 14.447-3.572 5.206-3.617 10.287-9.328 9.285-16.175-.242-5.977 1.124-12.43-2.857-17.396-1.75-5.405-6.8-15.185-6.428-17.858-3.655-6.05-.808-12.224 5.317-14.21.71-1.696 9.954-7.05 9.682-11.504 6.4-6.17 7.818-7.373 14.285-10 1.626-3.805 2.56-10.12 0-14.286-1.992-6.142-7.194-9.14-6.428-15.714-.93-5.438 3.996-8.82 5-12.858.025-4.77-.373-10.522 2.165-13.56 1.318-3.725 2.555-7.525 2.12-11.993.05-4.633-.925-6.522-3.572-8.018-2.553-4.404-10.65-2.93-14.286-6.43-2.297-6.426-9.668-6.745-15.714-7.857-4.3-1.61-11.995-4.66-15.714.715-5.756 1.986-11.155 8.613-18.474 11.248-6.886 3.164-14.192 2.758-21.527 3.752-10.008-.177-20.178.516-30-.715-6.823-5.2-8.33-6.15-15.5-11.082-3.068-2.898-13.356-6.998-16.644-3.917-2.287 2.62-4.07 5.362-7.265 6.35-2.17 3.57-11.897 2.91-17.25 3.65-4.065.23-9.225-.595-12.27.748-.9 1.182-6.106.02-7.5 4.253z" fill="none" stroke="#646464"/><text y="1106.714" x="709.211" style="line-height:125%;-inkscape-font-specification:'Helvetica, Normal';text-align:start" font-weight="400" font-size="10" font-family="Helvetica" letter-spacing="0" word-spacing="0" fill="#323232"><tspan y="1106.714" x="709.211">1</tspan></text><text y="1194.761" x="731.052" style="line-height:125%;-inkscape-font-specification:'Helvetica, Normal';text-align:start" font-weight="400" font-size="10" font-family="Helvetica" letter-spacing="0" word-spacing="0" fill="#323232"><tspan y="1194.761" x="731.052">2</tspan></text><text y="1112.617" x="803.254" style="line-height:125%;-inkscape-font-specification:'Helvetica, Normal';text-align:start" font-weight="400" font-size="10" font-family="Helvetica" letter-spacing="0" word-spacing="0" fill="#323232"><tspan y="1112.617" x="803.254">4</tspan></text><text y="1094.617" x="853.383" style="line-height:125%;-inkscape-font-specification:'Helvetica, Normal';text-align:start" font-weight="400" font-size="10" font-family="Helvetica" letter-spacing="0" word-spacing="0" fill="#323232"><tspan y="1094.617" x="853.383">7</tspan></text><text y="1195.127" x="803.507" style="line-height:125%;-inkscape-font-specification:'Helvetica, Normal';text-align:start" font-weight="400" font-size="10" font-family="Helvetica" letter-spacing="0" word-spacing="0" fill="#323232"><tspan y="1195.127" x="803.507">3</tspan></text><text y="1144.62" x="803.254" style="line-height:125%;-inkscape-font-specification:'Helvetica, Normal';text-align:start" font-weight="400" font-size="10" font-family="Helvetica" letter-spacing="0" word-spacing="0" fill="#323232"><tspan y="1144.62" x="803.254">5</tspan></text><text y="1144.406" x="853.266" style="line-height:125%;-inkscape-font-specification:'Helvetica, Normal';text-align:start" font-weight="400" font-size="10" font-family="Helvetica" letter-spacing="0" word-spacing="0" fill="#323232"><tspan y="1144.406" x="853.266">6</tspan></text></g></g></svg>