<!-- Created with Inkscape (http://www.inkscape.org/) -->
<svg xmlns:rdf="http://www.w3.org/1999/02/22-rdf-syntax-ns#" xmlns="http://www.w3.org/2000/svg" version="1.1" xmlns:cc="http://creativecommons.org/ns#" xmlns:dc="http://purl.org/dc/elements/1.1/" viewBox="0 0 119.5 93.07">
 <metadata>
  <rdf:RDF>
   <cc:Work rdf:about="">
    <dc:format>image/svg+xml</dc:format>
    <dc:type rdf:resource="http://purl.org/dc/dcmitype/StillImage"/>
    <dc:title/>
   </cc:Work>
  </rdf:RDF>
 </metadata>
 <g transform="translate(-231.65619,-440.11302)">
  <path stroke-linejoin="miter" d="m261.8,519.9c20.93,1.004,51.68,2.619,68.49-0.522" stroke="#555" stroke-linecap="butt" stroke-miterlimit="4" stroke-dasharray="none" stroke-width="1.40810657" fill="none"/>
  <path stroke-linejoin="miter" d="m329.5,519.1c-3.67-7.094-5.209-22.48-0.6888-23.22" stroke="#555" stroke-linecap="butt" stroke-miterlimit="4" stroke-dasharray="none" stroke-width="2.11215949" fill="none"/>
  <path stroke-linejoin="miter" d="m263,519.7c25.16-4.589,50.15-13.5,65.42-23.06" stroke="#555" stroke-linecap="butt" stroke-miterlimit="4" stroke-dasharray="none" stroke-width="3.52026653" fill="none"/>
  <path stroke-linejoin="miter" d="m257.2,491.6c14.01,2.32,54.37,5.086,70.8,4.413" stroke="#555" stroke-linecap="butt" stroke-miterlimit="4" stroke-dasharray="none" stroke-width="2.81621313" fill="none"/>
  <path d="m296.3,519.1a32.16,13.76,0,0,1,-64.31,0,32.16,13.76,0,1,1,64.31,0z" stroke="#FFF" stroke-miterlimit="4" stroke-dasharray="none" stroke-width="0.70405328" fill="#555"/>
  <path d="m277.8,491.8a20.39,8.728,0,0,1,-40.78,0,20.39,8.728,0,1,1,40.78,0z" stroke="#FFF" stroke-miterlimit="4" stroke-dasharray="none" stroke-width="0.70405328" fill="#555"/>
  <path d="m350.8,495.4a23.28,9.962,0,0,1,-46.55,0,23.28,9.962,0,1,1,46.55,0z" stroke="#FFF" stroke-miterlimit="4" stroke-dasharray="none" stroke-width="0.70405328" fill="#555"/>
  <path d="m343.9,520.4a14.63,6.26,0,0,1,-29.25,0,14.63,6.26,0,1,1,29.25,0z" stroke="#FFF" stroke-miterlimit="4" stroke-dasharray="none" stroke-width="0.70405328" fill="#555"/>
  <path stroke-linejoin="miter" d="m313.3,463.6,28.57,0-14.29,33.16z" stroke="#FFF" stroke-linecap="butt" stroke-width="1px" fill="#B22"/>
  <path d="m-75.93,74.5a11.5,11.5,0,1,1,-23,0,11.5,11.5,0,1,1,23,0z" transform="translate(414.99972,382.11302)" stroke-dashoffset="0" stroke="#B22" stroke-dasharray="none" stroke-miterlimit="4" stroke-width="10" fill="none"/>
 </g>
</svg>
