<svg xmlns="http://www.w3.org/2000/svg" aria-label="Accept node move" viewBox="0 0 800 640"><path fill="#fbfaf8" d="M0 0h800v640H0z"/><text x="34" y="44" fill="#6b7280" font-family="Open Sans, Arial, sans-serif" font-size="14" font-weight="700">Move nodes greedily</text><text x="560" y="44" fill="#374151" font-family="Monaco, Consolas, monospace" font-size="13">L = 5.521   Delta L = -0.230</text><path fill="#ebc384" fill-opacity=".09" stroke="#ebc384" stroke-linejoin="round" stroke-opacity=".55" stroke-width="2" d="M224.97 183.024c-2.001-4.832-5.189-9.603-8.888-13.301s-8.469-6.887-13.301-8.888-10.46-3.121-15.69-3.121-10.858 1.119-15.69 3.121-9.603 5.189-13.301 8.888-6.887 8.469-8.888 13.301-3.121 10.46-3.121 15.69 1.119 10.858 3.121 15.69 5.189 9.603 8.888 13.301 8.469 6.887 13.301 8.888 10.46 3.121 15.69 3.121 10.858-1.12 15.69-3.121 9.603-5.19 13.301-8.888 6.887-8.469 8.888-13.301 3.121-10.46 3.121-15.69-1.12-10.858-3.121-15.69"/><rect width="32" height="20" x="173.091" y="163.714" fill="#fbfaf8" fill-opacity=".9" rx="10"/><text x="189.091" y="177.714" fill="#ebc384" font-family="Open Sans, Arial, sans-serif" font-size="11" font-weight="700" text-anchor="middle">M1</text><path fill="#dfdda2" fill-opacity=".09" stroke="#dfdda2" stroke-linejoin="round" stroke-opacity=".55" stroke-width="2" d="M410.318 137.522c-2.604-6.285-6.751-12.491-11.561-17.301-4.81-4.811-8.412-7.694-17.302-11.561-21.775-9.472-98.703-23.695-121.527-28.655-8.904-1.934-12.425-3.707-18.638-3.707-6.212 0-12.898 1.33-18.637 3.707-5.74 2.378-11.407 6.165-15.8 10.558s-8.18 10.06-10.557 15.8c-2.378 5.739-3.708 12.425-3.708 18.637s1.33 12.898 3.708 18.637c2.377 5.74 6.164 11.408 10.557 15.8s7.676 6.661 15.8 10.558c20.728 9.943 94.783 31.26 117.985 37.207 9.515 2.439 13.606 4.06 20.409 4.06s14.123-1.457 20.408-4.06 12.492-6.75 17.302-11.56 8.957-11.017 11.561-17.302 4.059-13.606 4.059-20.409-1.456-14.124-4.059-20.409"/><rect width="32" height="20" x="227.29" y="124" fill="#fbfaf8" fill-opacity=".9" rx="10"/><text x="243.29" y="138" fill="#dfdda2" font-family="Open Sans, Arial, sans-serif" font-size="11" font-weight="700" text-anchor="middle">M2</text><path fill="#b4ccdf" fill-opacity=".09" stroke="#b4ccdf" stroke-linejoin="round" stroke-opacity=".55" stroke-width="2" d="M321.376 176.294c-2.685-6.482-6.962-12.882-11.923-17.843s-11.361-9.238-17.843-11.923c-6.482-2.684-14.032-4.186-21.048-4.186s-14.565 1.502-21.047 4.186-12.883 6.962-17.844 11.923-6.775 9.73-11.922 17.843c-10.533 16.602-39.737 59.951-46.332 77.005-2.96 7.654-3.532 11.838-3.532 17.757s1.267 12.288 3.532 17.757c2.265 5.468 5.874 10.868 10.059 15.054 4.185 4.185 9.585 7.793 15.054 10.058s11.838 3.532 17.757 3.532 12.289-1.267 17.757-3.532 8.809-4.629 15.054-10.058c13.974-12.149 48.276-52.032 60.355-67.634 5.877-7.592 9.238-11.362 11.923-17.844 2.685-6.481 4.186-14.031 4.186-21.047s-1.501-14.566-4.186-21.048"/><rect width="32" height="20" x="256.562" y="148.342" fill="#fbfaf8" fill-opacity=".9" rx="10"/><text x="272.562" y="162.342" fill="#b4ccdf" font-family="Open Sans, Arial, sans-serif" font-size="11" font-weight="700" text-anchor="middle">M3</text><path fill="#5b8e8a" fill-opacity=".09" stroke="#5b8e8a" stroke-linejoin="round" stroke-opacity=".55" stroke-width="2" d="M363.272 244.411c-2.397-5.788-6.216-11.503-10.646-15.932-4.429-4.43-10.144-8.249-15.932-10.646-5.787-2.397-12.529-3.738-18.793-3.738-6.265 0-13.006 1.341-18.794 3.738-5.787 2.397-11.502 6.216-15.932 10.646-4.429 4.429-8.248 10.144-10.645 15.932-2.398 5.787-3.739 12.529-3.739 18.793 0 6.265 1.341 13.006 3.739 18.793 2.397 5.788 6.216 11.503 10.645 15.933 4.43 4.429 10.145 8.248 15.932 10.645s12.529 3.738 18.794 3.738c6.264 0 13.006-1.34 18.793-3.738 5.788-2.397 11.503-6.216 15.932-10.645 4.43-4.43 8.249-10.145 10.646-15.933 2.397-5.787 3.738-12.528 3.738-18.793s-1.341-13.006-3.738-18.793"/><rect width="32" height="20" x="303.901" y="220.095" fill="#fbfaf8" fill-opacity=".9" rx="10"/><text x="319.901" y="234.095" fill="#5b8e8a" font-family="Open Sans, Arial, sans-serif" font-size="11" font-weight="700" text-anchor="middle">M6</text><path fill="#ebc384" fill-opacity=".09" stroke="#ebc384" stroke-linejoin="round" stroke-opacity=".55" stroke-width="2" d="M503.952 154.128c-2.557-6.171-6.629-12.265-11.352-16.989-4.723-4.723-10.818-8.795-16.989-11.351s-13.36-3.986-20.04-3.986-13.868 1.43-20.039 3.986-12.266 6.628-16.989 11.351-8.796 10.818-11.352 16.989-3.986 13.36-3.986 20.04 1.43 13.868 3.986 20.04 6.628 12.265 11.352 16.989c4.723 4.723 10.817 8.795 16.989 11.351 6.171 2.557 13.359 3.986 20.039 3.986s13.869-1.429 20.04-3.986c6.171-2.556 12.266-6.628 16.989-11.351s8.795-10.818 11.352-16.989c2.556-6.172 3.986-13.36 3.986-20.04s-1.43-13.868-3.986-20.04"/><rect width="32" height="20" x="441.571" y="127.802" fill="#fbfaf8" fill-opacity=".9" rx="10"/><text x="457.571" y="141.802" fill="#ebc384" font-family="Open Sans, Arial, sans-serif" font-size="11" font-weight="700" text-anchor="middle">M7</text><path fill="#dfdda2" fill-opacity=".09" stroke="#dfdda2" stroke-linejoin="round" stroke-opacity=".55" stroke-width="2" d="M642.056 173.946c-2.43-5.867-6.301-11.661-10.792-16.151s-10.284-8.362-16.151-10.792-12.7-3.789-19.051-3.789-13.184 1.359-19.051 3.789-11.66 6.301-16.151 10.792-8.361 10.284-10.791 16.151-3.79 12.7-3.79 19.051 1.36 13.184 3.79 19.051 6.301 11.66 10.791 16.151 10.284 8.361 16.151 10.791 12.701 3.79 19.051 3.79c6.351 0 13.184-1.36 19.051-3.79s11.661-6.301 16.151-10.791 8.362-10.284 10.792-16.151 3.789-12.701 3.789-19.051c0-6.351-1.359-13.184-3.789-19.051"/><rect width="32" height="20" x="582.062" y="149.214" fill="#fbfaf8" fill-opacity=".9" rx="10"/><text x="598.062" y="163.214" fill="#dfdda2" font-family="Open Sans, Arial, sans-serif" font-size="11" font-weight="700" text-anchor="middle">M8</text><path fill="#b4ccdf" fill-opacity=".09" stroke="#b4ccdf" stroke-linejoin="round" stroke-opacity=".55" stroke-width="2" d="M560.788 226.577c-2.542-6.138-6.593-12.199-11.291-16.897s-10.759-8.749-16.897-11.291c-6.139-2.543-13.289-3.965-19.933-3.965s-10.622 1.73-19.932 3.965c-22.487 5.399-93.585 22.723-114.117 32.189-8.37 3.859-11.828 6.391-16.382 10.946s-8.482 10.431-10.947 16.382-3.843 12.883-3.843 19.324 1.378 13.373 3.843 19.324 6.392 11.828 10.947 16.383 10.431 8.481 16.382 10.946 12.882 3.844 19.324 3.844c6.441 0 10.221-1.786 19.324-3.844 22.37-5.058 94.448-19.957 115.334-29.252 8.631-3.842 12.199-6.593 16.897-11.291s8.749-10.759 11.291-16.898c2.543-6.138 3.965-13.288 3.965-19.932s-1.422-13.794-3.965-19.933"/><rect width="32" height="20" x="498.667" y="200.424" fill="#fbfaf8" fill-opacity=".9" rx="10"/><text x="514.667" y="214.424" fill="#b4ccdf" font-family="Open Sans, Arial, sans-serif" font-size="11" font-weight="700" text-anchor="middle">M9</text><path fill="#82a3c9" fill-opacity=".09" stroke="#82a3c9" stroke-linejoin="round" stroke-opacity=".55" stroke-width="2" d="M551.714 290.422c-2.285-5.516-5.924-10.963-10.145-15.184-4.222-4.222-9.668-7.861-15.184-10.146-5.516-2.284-11.94-3.562-17.91-3.562s-12.395 1.278-17.911 3.562c-5.515 2.285-10.962 5.924-15.184 10.146-4.221 4.221-7.86 9.668-10.145 15.184-2.285 5.515-3.563 11.94-3.563 17.91s1.278 12.395 3.563 17.91 5.924 10.963 10.145 15.184c4.222 4.222 9.669 7.861 15.184 10.145 5.516 2.285 11.94 3.563 17.911 3.563 5.97 0 12.394-1.278 17.91-3.563 5.516-2.284 10.962-5.923 15.184-10.145s7.86-9.668 10.145-15.184c2.285-5.515 3.563-11.94 3.563-17.91s-1.278-12.395-3.563-17.91"/><rect width="40" height="20" x="494.475" y="267.53" fill="#fbfaf8" fill-opacity=".9" rx="10"/><text x="514.475" y="281.53" fill="#82a3c9" font-family="Open Sans, Arial, sans-serif" font-size="11" font-weight="700" text-anchor="middle">M11</text><path fill="#5b8e8a" fill-opacity=".09" stroke="#5b8e8a" stroke-linejoin="round" stroke-opacity=".55" stroke-width="2" d="M688.222 278.858c-2.34-5.649-6.068-11.228-10.392-15.551s-9.902-8.052-15.551-10.392-12.23-3.649-18.345-3.649-12.695 1.309-18.344 3.649-11.228 6.068-15.551 10.392-8.052 9.902-10.392 15.551-3.649 12.23-3.649 18.344 1.309 12.695 3.649 18.345 6.068 11.228 10.392 15.551 9.902 8.052 15.551 10.392 12.23 3.648 18.344 3.648 12.695-1.308 18.345-3.648 11.228-6.068 15.551-10.392 8.052-9.902 10.392-15.551 3.648-12.23 3.648-18.345-1.308-12.695-3.648-18.344"/><rect width="40" height="20" x="629.934" y="255.266" fill="#fbfaf8" fill-opacity=".9" rx="10"/><text x="649.934" y="269.266" fill="#5b8e8a" font-family="Open Sans, Arial, sans-serif" font-size="11" font-weight="700" text-anchor="middle">M12</text><path fill="#ebc384" fill-opacity=".09" stroke="#ebc384" stroke-linejoin="round" stroke-opacity=".55" stroke-width="2" d="M554.37 360.291c-2.425-5.854-6.288-11.636-10.768-16.116s-10.262-8.344-16.117-10.769c-5.854-2.425-12.674-3.782-19.01-3.782s-13.157 1.357-19.011 3.782c-5.855 2.425-11.636 6.288-16.116 10.769s-8.344 10.262-10.769 16.116c-2.425 5.855-3.782 12.674-3.782 19.011s1.357 13.156 3.782 19.01 6.288 11.636 10.769 16.117 10.261 8.343 16.116 10.768c5.854 2.425 12.674 3.782 19.011 3.782s13.156-1.357 19.01-3.782 11.636-6.287 16.117-10.768c4.48-4.481 8.343-10.262 10.768-16.117 2.425-5.854 3.782-12.673 3.782-19.01s-1.357-13.156-3.782-19.011"/><rect width="40" height="20" x="494.475" y="335.624" fill="#fbfaf8" fill-opacity=".9" rx="10"/><text x="514.475" y="349.624" fill="#ebc384" font-family="Open Sans, Arial, sans-serif" font-size="11" font-weight="700" text-anchor="middle">M13</text><path fill="#b4ccdf" fill-opacity=".09" stroke="#b4ccdf" stroke-linejoin="round" stroke-opacity=".55" stroke-width="2" d="M647.348 517.525c-2.448-5.91-5.743-8.984-10.871-16.27-11.055-15.707-40.598-60.189-54.138-73.088-6.17-5.878-9.999-8.129-15.703-10.492s-12.348-3.684-18.522-3.684-12.818 1.321-18.522 3.684c-5.705 2.363-11.337 6.126-15.703 10.492s-8.129 9.998-10.492 15.702-3.684 12.349-3.684 18.523 1.321 12.818 3.684 18.522 5.644 8.53 10.492 15.703c10.674 15.791 38.202 62.236 51.668 75.559 6.226 6.159 10.359 8.422 16.269 10.871s12.794 3.817 19.191 3.817 13.281-1.369 19.191-3.817 11.746-6.348 16.269-10.871c4.524-4.524 8.423-10.359 10.871-16.27s3.817-12.793 3.817-19.19-1.369-13.281-3.817-19.191"/><rect width="40" height="20" x="534.114" y="419.991" fill="#fbfaf8" fill-opacity=".9" rx="10"/><text x="554.114" y="433.991" fill="#b4ccdf" font-family="Open Sans, Arial, sans-serif" font-size="11" font-weight="700" text-anchor="middle">M15</text><path fill="#e68c6c" fill-opacity=".09" stroke="#e68c6c" stroke-linejoin="round" stroke-opacity=".55" stroke-width="2" d="M559.393 572.319c-2.255-5.445-5.848-10.822-10.016-14.989-4.167-4.168-9.544-7.76-14.989-10.016-5.445-2.255-11.787-3.517-17.681-3.517-5.893 0-12.236 1.262-17.681 3.517s-10.821 5.848-14.989 10.016c-4.167 4.167-7.76 9.544-10.015 14.989s-3.517 11.787-3.517 17.681 1.261 12.236 3.517 17.681c2.255 5.445 5.848 10.822 10.015 14.989s9.544 7.76 14.989 10.016c5.445 2.255 11.788 3.517 17.681 3.517s12.236-1.262 17.681-3.517 10.822-5.848 14.989-10.016c4.168-4.167 7.761-9.544 10.016-14.989s3.517-11.787 3.517-17.681-1.262-12.236-3.517-17.681"/><rect width="40" height="20" x="502.707" y="549.797" fill="#fbfaf8" fill-opacity=".9" rx="10"/><text x="522.707" y="563.797" fill="#e68c6c" font-family="Open Sans, Arial, sans-serif" font-size="11" font-weight="700" text-anchor="middle">M16</text><path fill="#82a3c9" fill-opacity=".09" stroke="#82a3c9" stroke-linejoin="round" stroke-opacity=".55" stroke-width="2" d="M513.113 504.897c-2.512-6.067-6.515-12.057-11.158-16.7s-10.633-8.645-16.699-11.158-13.133-3.918-19.699-3.918-13.632 1.405-19.698 3.918-12.056 6.515-16.699 11.158-8.646 10.633-11.159 16.7c-2.512 6.066-3.918 13.132-3.918 19.698s1.406 13.632 3.918 19.698 6.516 12.057 11.159 16.7 10.633 8.645 16.699 11.158 13.132 3.918 19.698 3.918 13.632-1.405 19.699-3.918c6.066-2.513 12.056-6.515 16.699-11.158s8.646-10.633 11.158-16.7c2.513-6.066 3.919-13.132 3.919-19.698s-1.406-13.632-3.919-19.698"/><rect width="40" height="20" x="451.557" y="479.121" fill="#fbfaf8" fill-opacity=".9" rx="10"/><text x="471.557" y="493.121" fill="#82a3c9" font-family="Open Sans, Arial, sans-serif" font-size="11" font-weight="700" text-anchor="middle">M17</text><path fill="#5b8e8a" fill-opacity=".17" stroke="#4b5563" stroke-linejoin="round" stroke-opacity=".74" stroke-width="3" d="M428.802 382.429c-2.392-5.774-6.202-11.476-10.621-15.896s-10.122-8.229-15.896-10.621-12.5-3.73-18.751-3.73c-6.25 0-12.976 1.338-18.75 3.73-5.775 2.392-11.476 6.201-15.896 10.621s-6.821 7.838-10.621 15.896c-9.162 19.423-26.637 84.773-32.022 106.365-2.317 9.292-4.013 13.45-4.013 20.174s1.44 13.961 4.013 20.174 6.673 12.347 11.428 17.102c4.754 4.755 10.889 8.854 17.102 11.427 6.212 2.574 13.449 4.013 20.173 4.013 6.725 0 13.961-1.439 20.174-4.013s12.347-6.672 17.102-11.427 7.684-8.434 11.428-17.102c8.739-20.235 20.569-87.862 25.15-109.212 1.892-8.818 3.73-12.5 3.73-18.75 0-6.251-1.338-12.977-3.73-18.751"/><rect width="40" height="20" x="369.534" y="358.182" fill="#fbfaf8" fill-opacity=".9" rx="10"/><text x="389.534" y="372.182" fill="#5b8e8a" font-family="Open Sans, Arial, sans-serif" font-size="11" font-weight="700" text-anchor="middle">M18</text><path fill="#ebc384" fill-opacity=".09" stroke="#ebc384" stroke-linejoin="round" stroke-opacity=".55" stroke-width="2" d="M197.893 414.727c-2.21-5.335-5.731-10.604-9.814-14.688-4.084-4.083-9.353-7.604-14.688-9.814s-11.55-3.446-17.325-3.446c-5.776 0-11.99 1.236-17.326 3.446-5.335 2.21-10.604 5.731-14.687 9.814s-7.604 9.353-9.814 14.688-3.447 11.55-3.447 17.325c0 5.776 1.237 11.99 3.447 17.326 2.21 5.335 5.73 10.604 9.814 14.687s9.352 7.604 14.687 9.814c5.336 2.211 11.55 3.447 17.326 3.447s11.989-1.236 17.325-3.447c5.335-2.21 10.604-5.73 14.688-9.814 4.083-4.083 7.604-9.352 9.814-14.687 2.21-5.336 3.446-11.55 3.446-17.326s-1.236-11.989-3.446-17.325"/><rect width="40" height="20" x="142.066" y="392.779" fill="#fbfaf8" fill-opacity=".9" rx="10"/><text x="162.066" y="406.779" fill="#ebc384" font-family="Open Sans, Arial, sans-serif" font-size="11" font-weight="700" text-anchor="middle">M19</text><path fill="#dfdda2" fill-opacity=".09" stroke="#dfdda2" stroke-linejoin="round" stroke-opacity=".55" stroke-width="2" d="M228.793 513.97c-2.425-5.854-6.288-11.635-10.768-16.116s-10.262-8.343-16.116-10.768c-5.855-2.425-12.674-3.782-19.011-3.782s-13.155 1.357-19.01 3.782c-5.854 2.425-11.635 6.287-16.116 10.768s-8.343 10.262-10.768 16.116-3.782 12.674-3.782 19.01 1.357 13.156 3.782 19.011 6.287 11.635 10.768 16.116 10.262 8.343 16.116 10.768c5.855 2.425 12.674 3.781 19.01 3.781s13.156-1.356 19.011-3.781 11.635-6.288 16.116-10.768 8.343-10.262 10.768-16.116c2.425-5.855 3.781-12.674 3.781-19.011s-1.356-13.156-3.781-19.01"/><rect width="40" height="20" x="168.898" y="489.304" fill="#fbfaf8" fill-opacity=".9" rx="10"/><text x="188.898" y="503.304" fill="#dfdda2" font-family="Open Sans, Arial, sans-serif" font-size="11" font-weight="700" text-anchor="middle">M20</text><path fill="#b4ccdf" fill-opacity=".09" stroke="#b4ccdf" stroke-linejoin="round" stroke-opacity=".55" stroke-width="2" d="M306.481 469.236c-2.248-5.427-5.83-10.787-9.984-14.941-4.154-4.155-9.514-7.736-14.942-9.984-5.427-2.248-11.75-3.506-17.625-3.506s-12.197 1.258-17.625 3.506c-5.427 2.248-10.787 5.829-14.941 9.984-4.155 4.154-7.736 9.514-9.984 14.941s-3.506 11.75-3.506 17.625 1.257 12.198 3.506 17.625c2.248 5.428 5.829 10.788 9.984 14.942 4.154 4.155 9.514 7.736 14.941 9.984s11.75 3.506 17.625 3.506 12.198-1.258 17.625-3.506c5.428-2.248 10.788-5.829 14.942-9.984 4.154-4.154 7.736-9.514 9.984-14.942 2.248-5.427 3.506-11.75 3.506-17.625s-1.258-12.197-3.506-17.625"/><rect width="40" height="20" x="249.93" y="446.805" fill="#fbfaf8" fill-opacity=".9" rx="10"/><text x="269.93" y="460.805" fill="#b4ccdf" font-family="Open Sans, Arial, sans-serif" font-size="11" font-weight="700" text-anchor="middle">M21</text><path fill="#5b8e8a" fill-opacity=".09" stroke="#5b8e8a" stroke-linejoin="round" stroke-opacity=".55" stroke-width="2" d="M361.308 313.453c-2.507-6.052-6.501-12.029-11.133-16.661s-10.609-8.626-16.661-11.133-13.102-3.909-19.653-3.909-13.601 1.403-19.654 3.909c-6.052 2.507-12.028 6.501-16.661 11.133-4.632 4.632-6.085 8.968-11.132 16.661-11.171 17.027-45.482 63.549-53.153 82.518-3.582 8.857-4.174 13.992-4.174 20.988s1.497 14.524 4.174 20.988c2.677 6.463 6.942 12.846 11.889 17.792s11.329 9.212 17.793 11.889 13.991 4.175 20.987 4.175 14.525-1.498 20.988-4.175c6.464-2.677 12.846-6.942 17.793-11.889s6.857-9.499 11.888-17.792c10.72-17.671 39.873-66.399 46.709-85.187 3.104-8.533 3.909-13.102 3.909-19.653 0-6.552-1.402-13.601-3.909-19.654"/><rect width="40" height="20" x="299.861" y="287.75" fill="#fbfaf8" fill-opacity=".9" rx="10"/><text x="319.861" y="301.75" fill="#5b8e8a" font-family="Open Sans, Arial, sans-serif" font-size="11" font-weight="700" text-anchor="middle">M24</text><path fill="#82a3c9" fill-opacity=".09" stroke="#82a3c9" stroke-linejoin="round" stroke-opacity=".55" stroke-width="2" d="M227.638 332.637c-2.267-5.474-5.878-10.879-10.068-15.069-4.189-4.189-9.594-7.801-15.068-10.068s-11.849-3.535-17.774-3.535-12.301 1.268-17.774 3.535-10.879 5.879-15.068 10.068c-4.19 4.19-7.801 9.595-10.069 15.069-2.267 5.473-3.535 11.849-3.535 17.774 0 5.924 1.268 12.3 3.535 17.774 2.268 5.473 5.879 10.879 10.069 15.068 4.189 4.189 9.594 7.801 15.068 10.068 5.473 2.267 11.849 3.536 17.774 3.536s12.3-1.269 17.774-3.536 10.879-5.879 15.068-10.068c4.19-4.189 7.801-9.595 10.068-15.068 2.268-5.474 3.536-11.85 3.536-17.774s-1.268-12.301-3.536-17.774"/><rect width="40" height="20" x="170.728" y="309.965" fill="#fbfaf8" fill-opacity=".9" rx="10"/><text x="190.728" y="323.965" fill="#82a3c9" font-family="Open Sans, Arial, sans-serif" font-size="11" font-weight="700" text-anchor="middle">M23</text><path stroke="#6f6a62" stroke-linecap="round" stroke-opacity=".26" stroke-width="3.66" d="m203.089 198.451 37.477-.616"/><path stroke="#6f6a62" stroke-linecap="round" stroke-opacity=".26" stroke-width="4.932" d="m250.181 146.971 9.129 22.561"/><path stroke="#90a3b2" stroke-linecap="round" stroke-opacity=".52" stroke-width="6.425" d="m252.775 221.5-23.799 32.322"/><path stroke="#b2b182" stroke-linecap="round" stroke-opacity=".52" stroke-width="9" d="m264.144 131.284 69.586 19.136"/><path stroke="#6f6a62" stroke-linecap="round" stroke-opacity=".26" stroke-width="5.914" d="m298.067 185.362 37.006-16.118"/><path stroke="#6f6a62" stroke-linecap="round" stroke-opacity=".26" stroke-width="6.177" d="m288.071 221.702 15.759 21.925"/><path stroke="#6f6a62" stroke-linecap="round" stroke-opacity=".26" stroke-width="4.829" d="m350.303 184.145-23.259 56.751"/><path stroke="#6f6a62" stroke-linecap="round" stroke-opacity=".26" stroke-width="4.042" d="m237.625 269.407 56.238-4.346"/><path stroke="#6f6a62" stroke-linecap="round" stroke-opacity=".26" stroke-width="3.447" d="m388.968 162.727 39.632 6.808"/><path stroke="#6f6a62" stroke-linecap="round" stroke-opacity=".26" stroke-width="8.214" d="m482.695 177.803 88.804 11.902"/><path stroke="#6f6a62" stroke-linecap="round" stroke-opacity=".26" stroke-width="4.383" d="m575.204 206.381-39.741 25.501"/><path stroke="#6f6a62" stroke-linecap="round" stroke-opacity=".26" stroke-width="5.286" d="m472.526 195.65 23.361 29.598"/><path stroke="#90a3b2" stroke-linecap="round" stroke-opacity=".52" stroke-width="5.388" d="m486.503 253.516-63.933 17.119"/><path stroke="#6f6a62" stroke-linecap="round" stroke-opacity=".26" stroke-width="4.353" d="m442.215 198.054-31.83 56.923"/><path stroke="#6f6a62" stroke-linecap="round" stroke-opacity=".26" stroke-width="2.599" d="m510.835 273.533-.885 13.047"/><path stroke="#6f6a62" stroke-linecap="round" stroke-opacity=".26" stroke-width="3.575" d="m606.408 215.517 27.952 60.844"/><path stroke="#6f6a62" stroke-linecap="round" stroke-opacity=".26" stroke-width="2.715" d="m530.203 306.547 90.872-7.466"/><path stroke="#6f6a62" stroke-linecap="round" stroke-opacity=".26" stroke-width="3.564" d="m537.934 256.267 84.604 32.673"/><path stroke="#6f6a62" stroke-linecap="round" stroke-opacity=".26" stroke-width="6.179" d="M508.475 330.134v24.49"/><path stroke="#6f6a62" stroke-linecap="round" stroke-opacity=".26" stroke-width="3.635" d="m416.673 294.528 73.672 68.032"/><path stroke="#6f6a62" stroke-linecap="round" stroke-opacity=".26" stroke-width="3.784" d="m624.32 309.09-94.742 57.421"/><path stroke="#6f6a62" stroke-linecap="round" stroke-opacity=".26" stroke-width="2.85" d="m519.1 401.574 18.938 39.697"/><path stroke="#90a3b2" stroke-linecap="round" stroke-opacity=".52" stroke-width="5.556" d="m561.684 481.457 24.75 34.77"/><path stroke="#6f6a62" stroke-linecap="round" stroke-opacity=".26" stroke-width="4.455" d="m579.759 550.151-45.129 28.522"/><path stroke="#6f6a62" stroke-linecap="round" stroke-opacity=".26" stroke-width="5.501" d="m529.424 476.474-42.722 32.19"/><path stroke="#6f6a62" stroke-linecap="round" stroke-opacity=".26" stroke-width="6.787" d="m575.969 534.474-84.043-7.52"/><path stroke="#6f6a62" stroke-linecap="round" stroke-opacity=".26" stroke-width="5.733" d="m503.646 573.298-21.78-27.849"/><path stroke="#6f6a62" stroke-linecap="round" stroke-opacity=".26" stroke-width="1.6" d="m439.343 520.892-56.951-8.047"/><path stroke="#6f6a62" stroke-linecap="round" stroke-opacity=".26" stroke-width="4.778" d="m327.498 512.799-120.16 16.77"/><path stroke="#6f6a62" stroke-linecap="round" stroke-opacity=".26" stroke-width="5.084" d="m204.344 520.775 41.286-23.498"/><path stroke="#6f6a62" stroke-linecap="round" stroke-opacity=".26" stroke-width="2.682" d="m328.015 502.427-43.623-10.596"/><path stroke="#6f6a62" stroke-linecap="round" stroke-opacity=".26" stroke-width="4.589" d="m335.457 489.264-50.538-51.088"/><path stroke="#6f6a62" stroke-linecap="round" stroke-opacity=".26" stroke-width="2.61" d="m197.028 512.75 49.814-71.324"/><path stroke="#6f6a62" stroke-linecap="round" stroke-opacity=".26" stroke-width="2.675" d="M263.93 465.805v-19.002"/><path stroke="#6f6a62" stroke-linecap="round" stroke-opacity=".26" stroke-width="4.959" d="m176.143 429.243 58.231-8.148"/><path stroke="#6f6a62" stroke-linecap="round" stroke-opacity=".26" stroke-width="4.742" d="m241.081 397.761-39.934-33.554"/><path stroke="#6f6a62" stroke-linecap="round" stroke-opacity=".26" stroke-width="5.788" d="m205.984 347.562 81.754-10.955"/><path stroke="#6f6a62" stroke-linecap="round" stroke-opacity=".26" stroke-width="4.485" d="m376.707 291.342-40.895 27.177"/><path stroke="#49726e" stroke-linecap="round" stroke-opacity=".52" stroke-width="5.58" d="m279.199 391.317 21.177-35.565"/><path stroke="#4b5563" stroke-linecap="round" stroke-opacity=".72" stroke-width="3.552" d="m332.713 351.525 33.657 32.884"/><path stroke="#4b5563" stroke-linecap="round" stroke-opacity=".72" stroke-width="2.53" d="m293.518 413.056 66.225-8.738"/><path stroke="#49726e" stroke-linecap="round" stroke-opacity=".78" stroke-width="8.782" d="m362.053 482.178 15.33-57.803"/><path stroke="#6f6a62" stroke-linecap="round" stroke-opacity=".26" stroke-width="3.975" d="m176.558 509.133-15.284-57.488"/><circle cx="187.091" cy="198.714" r="11" fill="#ebc384" stroke="#fff" stroke-width="3"/><text x="187.091" y="203.714" fill="#fff" font-family="Open Sans, Arial, sans-serif" font-size="12" font-weight="700" text-anchor="middle">0</text><circle cx="241.29" cy="125" r="18.702" fill="#dfdda2" stroke="#fff" stroke-width="3"/><text x="241.29" y="130" fill="#fff" font-family="Open Sans, Arial, sans-serif" font-size="14" font-weight="700" text-anchor="middle">1</text><circle cx="270.562" cy="197.342" r="25" fill="#b4ccdf" stroke="#fff" stroke-width="3"/><text x="270.562" y="202.342" fill="#fff" font-family="Open Sans, Arial, sans-serif" font-size="14" font-weight="700" text-anchor="middle">2</text><circle cx="216.287" cy="271.056" r="16.402" fill="#b4ccdf" stroke="#fff" stroke-width="3"/><text x="216.287" y="276.056" fill="#fff" font-family="Open Sans, Arial, sans-serif" font-size="12" font-weight="700" text-anchor="middle">3</text><circle cx="361.047" cy="157.931" r="23.331" fill="#dfdda2" stroke="#fff" stroke-width="3"/><text x="361.047" y="162.931" fill="#fff" font-family="Open Sans, Arial, sans-serif" font-size="14" font-weight="700" text-anchor="middle">4</text><circle cx="317.901" cy="263.204" r="19.109" fill="#5b8e8a" stroke="#fff" stroke-width="3"/><text x="317.901" y="268.204" fill="#fff" font-family="Open Sans, Arial, sans-serif" font-size="14" font-weight="700" text-anchor="middle">5</text><circle cx="455.571" cy="174.168" r="22.366" fill="#ebc384" stroke="#fff" stroke-width="3"/><text x="455.571" y="179.168" fill="#fff" font-family="Open Sans, Arial, sans-serif" font-size="14" font-weight="700" text-anchor="middle">6</text><circle cx="596.062" cy="192.997" r="19.783" fill="#dfdda2" stroke="#fff" stroke-width="3"/><text x="596.062" y="197.997" fill="#fff" font-family="Open Sans, Arial, sans-serif" font-size="14" font-weight="700" text-anchor="middle">7</text><circle cx="512.667" cy="246.51" r="22.086" fill="#b4ccdf" stroke="#fff" stroke-width="3"/><text x="512.667" y="251.51" fill="#fff" font-family="Open Sans, Arial, sans-serif" font-size="14" font-weight="700" text-anchor="middle">8</text><circle cx="397.942" cy="277.23" r="20.496" fill="#b4ccdf" stroke="#fff" stroke-width="3"/><text x="397.942" y="282.23" fill="#fff" font-family="Open Sans, Arial, sans-serif" font-size="14" font-weight="700" text-anchor="middle">9</text><circle cx="508.475" cy="308.332" r="16.802" fill="#82a3c9" stroke="#fff" stroke-width="3"/><text x="508.475" y="313.332" fill="#fff" font-family="Open Sans, Arial, sans-serif" font-size="12" font-weight="700" text-anchor="middle">10</text><circle cx="643.934" cy="297.202" r="17.936" fill="#5b8e8a" stroke="#fff" stroke-width="3"/><text x="643.934" y="302.202" fill="#fff" font-family="Open Sans, Arial, sans-serif" font-size="14" font-weight="700" text-anchor="middle">11</text><circle cx="508.475" cy="379.302" r="19.677" fill="#ebc384" stroke="#fff" stroke-width="3"/><text x="508.475" y="384.302" fill="#fff" font-family="Open Sans, Arial, sans-serif" font-size="14" font-weight="700" text-anchor="middle">12</text><circle cx="548.114" cy="462.392" r="18.401" fill="#b4ccdf" stroke="#fff" stroke-width="3"/><text x="548.114" y="467.392" fill="#fff" font-family="Open Sans, Arial, sans-serif" font-size="14" font-weight="700" text-anchor="middle">13</text><circle cx="601.017" cy="536.716" r="20.148" fill="#b4ccdf" stroke="#fff" stroke-width="3"/><text x="601.017" y="541.716" fill="#fff" font-family="Open Sans, Arial, sans-serif" font-size="14" font-weight="700" text-anchor="middle">14</text><circle cx="516.707" cy="590" r="16.203" fill="#e68c6c" stroke="#fff" stroke-width="3"/><text x="516.707" y="595" fill="#fff" font-family="Open Sans, Arial, sans-serif" font-size="12" font-weight="700" text-anchor="middle">15</text><circle cx="465.557" cy="524.595" r="21.474" fill="#82a3c9" stroke="#fff" stroke-width="3"/><text x="465.557" y="529.595" fill="#fff" font-family="Open Sans, Arial, sans-serif" font-size="14" font-weight="700" text-anchor="middle">16</text><circle cx="354.948" cy="508.968" r="22.716" fill="#5b8e8a" stroke="#fff" stroke-width="3"/><text x="354.948" y="513.968" fill="#fff" font-family="Open Sans, Arial, sans-serif" font-size="14" font-weight="700" text-anchor="middle">17</text><circle cx="156.066" cy="432.052" r="15.273" fill="#ebc384" stroke="#fff" stroke-width="3"/><text x="156.066" y="437.052" fill="#fff" font-family="Open Sans, Arial, sans-serif" font-size="12" font-weight="700" text-anchor="middle">18</text><circle cx="182.898" cy="532.98" r="19.676" fill="#dfdda2" stroke="#fff" stroke-width="3"/><text x="182.898" y="537.98" fill="#fff" font-family="Open Sans, Arial, sans-serif" font-size="14" font-weight="700" text-anchor="middle">19</text><circle cx="263.93" cy="486.861" r="16.056" fill="#b4ccdf" stroke="#fff" stroke-width="3"/><text x="263.93" y="491.861" fill="#fff" font-family="Open Sans, Arial, sans-serif" font-size="12" font-weight="700" text-anchor="middle">20</text><circle cx="263.93" cy="416.959" r="24.844" fill="#5b8e8a" stroke="#fff" stroke-width="3"/><text x="263.93" y="421.959" fill="#fff" font-family="Open Sans, Arial, sans-serif" font-size="14" font-weight="700" text-anchor="middle">21</text><circle cx="184.728" cy="350.411" r="16.446" fill="#82a3c9" stroke="#fff" stroke-width="3"/><text x="184.728" y="355.411" fill="#fff" font-family="Open Sans, Arial, sans-serif" font-size="12" font-weight="700" text-anchor="middle">22</text><circle cx="313.861" cy="333.107" r="21.356" fill="#5b8e8a" stroke="#fff" stroke-width="3"/><text x="313.861" y="338.107" fill="#fff" font-family="Open Sans, Arial, sans-serif" font-size="14" font-weight="700" text-anchor="middle">23</text><circle cx="383.534" cy="401.18" r="22.998" fill="#5b8e8a" stroke="#4b5563" stroke-width="4"/><text x="383.534" y="406.18" fill="#fff" font-family="Open Sans, Arial, sans-serif" font-size="14" font-weight="700" text-anchor="middle">24</text></svg>