<svg xmlns="http://www.w3.org/2000/svg" aria-label="Test candidate modules" viewBox="0 0 800 640"><path fill="#fbfaf8" d="M0 0h800v640H0z"/><text x="34" y="44" fill="#6b7280" font-family="Open Sans, Arial, sans-serif" font-size="14" font-weight="700">Fine tune</text><text x="560" y="44" fill="#374151" font-family="Monaco, Consolas, monospace" font-size="13">L = 3.048</text><path fill="#ebc384" fill-opacity=".09" stroke="#ebc384" stroke-linejoin="round" stroke-opacity=".55" stroke-width="2" d="M410.318 137.522c-2.604-6.285-6.751-12.491-11.561-17.301-4.81-4.811-8.412-7.694-17.302-11.561-21.775-9.472-98.703-23.695-121.527-28.655-8.904-1.934-12.425-3.707-18.638-3.707-6.212 0-12.898 1.33-18.637 3.707-5.74 2.378-11.407 6.165-15.8 10.558s-5.875 8.493-10.557 15.8c-10.188 15.897-40.694 60.358-47.084 76.661-2.695 6.875-3.121 10.46-3.121 15.69s1.269 8.596 3.121 15.69c4.097 15.688 16.878 59.309 24.205 74.409 3.525 7.263 5.874 10.868 10.059 15.054 4.185 4.185 9.585 7.793 15.054 10.058s9.355 2.919 17.757 3.532c19.918 1.455 81.297-2.622 101.614-5.144 8.817-1.094 13.006-1.34 18.793-3.738 5.788-2.397 11.503-6.216 15.932-10.645 4.43-4.43 6.258-8.043 10.646-15.933 10.695-19.23 40.132-82.163 47.046-103.657 2.956-9.19 4.059-13.606 4.059-20.409s-1.456-14.124-4.059-20.409"/><rect width="32" height="20" x="227.29" y="124" fill="#fbfaf8" fill-opacity=".9" rx="10"/><text x="243.29" y="138" fill="#ebc384" font-family="Open Sans, Arial, sans-serif" font-size="11" font-weight="700" text-anchor="middle">M1</text><path fill="#dfdda2" fill-opacity=".09" stroke="#dfdda2" stroke-linejoin="round" stroke-opacity=".55" stroke-width="2" d="M688.222 278.858c-6.573-20.844-35.489-85.45-46.166-104.912-4.396-8.012-6.301-11.661-10.792-16.151s-10.284-8.362-16.151-10.792-9.741-2.155-19.051-3.789c-25.181-4.421-114.842-21.991-140.491-21.412-9.725.219-13.868 1.43-20.039 3.986s-12.266 6.628-16.989 11.351-6.4 8.757-11.352 16.989c-11.894 19.772-48.27 82.556-55.902 103.778-3.12 8.676-3.843 12.883-3.843 19.324s1.378 13.373 3.843 19.324 4.707 9.12 10.947 16.383c17.245 20.07 90.314 85.197 111.112 101.492 7.463 5.848 10.261 8.343 16.116 10.768 5.854 2.425 12.674 3.782 19.011 3.782s10.247-.322 19.01-3.782c25.072-9.899 112.07-69.066 134.794-83.707 7.801-5.027 11.228-6.068 15.551-10.392s8.052-9.902 10.392-15.551 3.648-12.23 3.648-18.345-.994-9.924-3.648-18.344"/><rect width="32" height="20" x="441.571" y="127.802" fill="#fbfaf8" fill-opacity=".9" rx="10"/><text x="457.571" y="141.802" fill="#dfdda2" font-family="Open Sans, Arial, sans-serif" font-size="11" font-weight="700" text-anchor="middle">M2</text><path fill="#b4ccdf" fill-opacity=".09" stroke="#b4ccdf" stroke-linejoin="round" stroke-opacity=".55" stroke-width="2" d="M647.348 517.525c-2.448-5.91-5.743-8.984-10.871-16.27-11.055-15.707-40.598-60.189-54.138-73.088-6.17-5.878-9.999-8.129-15.703-10.492s-12.348-3.684-18.522-3.684-12.818 1.321-18.522 3.684c-5.705 2.363-8.433 5.489-15.703 10.492-17.048 11.731-70.228 45.127-84.729 60.03-6.378 6.555-8.646 10.633-11.159 16.7-2.512 6.066-3.918 13.132-3.918 19.698s1.406 13.632 3.918 19.698 5.688 9.623 11.159 16.7c11.092 14.349 41.765 50.261 54.877 61.677 6.128 5.335 9.544 7.76 14.989 10.016 5.445 2.255 11.788 3.517 17.681 3.517s9.903-.586 17.681-3.517c18.242-6.874 68.568-38.902 85.82-49.639 7.664-4.771 11.746-6.348 16.269-10.871 4.524-4.524 8.423-10.359 10.871-16.27s3.817-12.793 3.817-19.19-1.369-13.281-3.817-19.191"/><rect width="32" height="20" x="534.114" y="419.991" fill="#fbfaf8" fill-opacity=".9" rx="10"/><text x="550.114" y="433.991" fill="#b4ccdf" font-family="Open Sans, Arial, sans-serif" font-size="11" font-weight="700" text-anchor="middle">M3</text><path fill="#e68c6c" fill-opacity=".09" stroke="#e68c6c" stroke-linejoin="round" stroke-opacity=".55" stroke-width="2" d="M428.802 382.429c-2.392-5.774-5.084-9.062-10.621-15.896-12.498-15.425-52.509-56.858-68.006-69.741-7.029-5.843-10.609-8.626-16.661-11.133s-10.212-3.786-19.653-3.909c-24.144-.314-105.852 17.897-129.133 22.215-8.658 1.605-12.301 1.268-17.774 3.535s-10.879 5.879-15.068 10.068c-4.19 4.19-6.446 7.693-10.069 15.069-7.919 16.122-22.966 64.768-27.578 82.09-2.084 7.824-3.447 11.55-3.447 17.325 0 5.776 1.727 9.153 3.447 17.326 4.193 19.936 14.637 83.585 22.765 102.613 3.49 8.17 6.287 11.635 10.768 16.116s10.262 8.343 16.116 10.768c5.855 2.425 9.455 3.423 19.01 3.781 28.573 1.073 142.837-16.293 172.05-20.972 10.064-1.612 13.961-1.439 20.174-4.013s12.347-6.672 17.102-11.427 7.684-8.434 11.428-17.102c8.739-20.235 20.569-87.862 25.15-109.212 1.892-8.818 3.73-12.5 3.73-18.75 0-6.251-1.338-12.977-3.73-18.751"/><rect width="32" height="20" x="299.861" y="287.75" fill="#fbfaf8" fill-opacity=".9" rx="10"/><text x="315.861" y="301.75" fill="#e68c6c" font-family="Open Sans, Arial, sans-serif" font-size="11" font-weight="700" text-anchor="middle">M4</text><path stroke="#bc9c6a" stroke-linecap="round" stroke-opacity=".52" stroke-width="3.66" d="m203.089 198.451 37.477-.616"/><path stroke="#bc9c6a" stroke-linecap="round" stroke-opacity=".52" stroke-width="4.932" d="m250.181 146.971 9.129 22.561"/><path stroke="#bc9c6a" stroke-linecap="round" stroke-opacity=".52" stroke-width="6.425" d="m252.775 221.5-23.799 32.322"/><path stroke="#bc9c6a" stroke-linecap="round" stroke-opacity=".52" stroke-width="9" d="m264.144 131.284 69.586 19.136"/><path stroke="#bc9c6a" stroke-linecap="round" stroke-opacity=".52" stroke-width="5.914" d="m298.067 185.362 37.006-16.118"/><path stroke="#bc9c6a" stroke-linecap="round" stroke-opacity=".52" stroke-width="6.177" d="m288.071 221.702 15.759 21.925"/><path stroke="#bc9c6a" stroke-linecap="round" stroke-opacity=".52" stroke-width="4.829" d="m350.303 184.145-23.259 56.751"/><path stroke="#bc9c6a" stroke-linecap="round" stroke-opacity=".52" stroke-width="4.042" d="m237.625 269.407 56.238-4.346"/><path stroke="#6f6a62" stroke-linecap="round" stroke-opacity=".26" stroke-width="3.447" d="m388.968 162.727 39.632 6.808"/><path stroke="#b2b182" stroke-linecap="round" stroke-opacity=".52" stroke-width="8.214" d="m482.695 177.803 88.804 11.902"/><path stroke="#b2b182" stroke-linecap="round" stroke-opacity=".52" stroke-width="4.383" d="m575.204 206.381-39.741 25.501"/><path stroke="#b2b182" stroke-linecap="round" stroke-opacity=".52" stroke-width="5.286" d="m472.526 195.65 23.361 29.598"/><path stroke="#b2b182" stroke-linecap="round" stroke-opacity=".52" stroke-width="5.388" d="m486.503 253.516-63.933 17.119"/><path stroke="#b2b182" stroke-linecap="round" stroke-opacity=".52" stroke-width="4.353" d="m442.215 198.054-31.83 56.923"/><path stroke="#b2b182" stroke-linecap="round" stroke-opacity=".78" stroke-width="2.599" d="m510.835 273.533-.885 13.047"/><path stroke="#b2b182" stroke-linecap="round" stroke-opacity=".52" stroke-width="3.575" d="m606.408 215.517 27.952 60.844"/><path stroke="#b2b182" stroke-linecap="round" stroke-opacity=".78" stroke-width="2.715" d="m530.203 306.547 90.872-7.466"/><path stroke="#b2b182" stroke-linecap="round" stroke-opacity=".52" stroke-width="3.564" d="m537.934 256.267 84.604 32.673"/><path stroke="#b2b182" stroke-linecap="round" stroke-opacity=".78" stroke-width="6.179" d="M508.475 330.134v24.49"/><path stroke="#b2b182" stroke-linecap="round" stroke-opacity=".52" stroke-width="3.635" d="m416.673 294.528 73.672 68.032"/><path stroke="#b2b182" stroke-linecap="round" stroke-opacity=".52" stroke-width="3.784" d="m624.32 309.09-94.742 57.421"/><path stroke="#6f6a62" stroke-linecap="round" stroke-opacity=".26" stroke-width="2.85" d="m519.1 401.574 18.938 39.697"/><path stroke="#90a3b2" stroke-linecap="round" stroke-opacity=".52" stroke-width="5.556" d="m561.684 481.457 24.75 34.77"/><path stroke="#90a3b2" stroke-linecap="round" stroke-opacity=".52" stroke-width="4.455" d="m579.759 550.151-45.129 28.522"/><path stroke="#90a3b2" stroke-linecap="round" stroke-opacity=".52" stroke-width="5.501" d="m529.424 476.474-42.722 32.19"/><path stroke="#90a3b2" stroke-linecap="round" stroke-opacity=".52" stroke-width="6.787" d="m575.969 534.474-84.043-7.52"/><path stroke="#90a3b2" stroke-linecap="round" stroke-opacity=".52" stroke-width="5.733" d="m503.646 573.298-21.78-27.849"/><path stroke="#6f6a62" stroke-linecap="round" stroke-opacity=".26" stroke-width="1.6" d="m439.343 520.892-56.951-8.047"/><path stroke="#b87056" stroke-linecap="round" stroke-opacity=".52" stroke-width="4.778" d="m327.498 512.799-120.16 16.77"/><path stroke="#b87056" stroke-linecap="round" stroke-opacity=".52" stroke-width="5.084" d="m204.344 520.775 41.286-23.498"/><path stroke="#b87056" stroke-linecap="round" stroke-opacity=".52" stroke-width="2.682" d="m328.015 502.427-43.623-10.596"/><path stroke="#b87056" stroke-linecap="round" stroke-opacity=".52" stroke-width="4.589" d="m335.457 489.264-50.538-51.088"/><path stroke="#b87056" stroke-linecap="round" stroke-opacity=".52" stroke-width="2.61" d="m197.028 512.75 49.814-71.324"/><path stroke="#b87056" stroke-linecap="round" stroke-opacity=".52" stroke-width="2.675" d="M263.93 465.805v-19.002"/><path stroke="#b87056" stroke-linecap="round" stroke-opacity=".52" stroke-width="4.959" d="m176.143 429.243 58.231-8.148"/><path stroke="#b87056" stroke-linecap="round" stroke-opacity=".52" stroke-width="4.742" d="m241.081 397.761-39.934-33.554"/><path stroke="#b87056" stroke-linecap="round" stroke-opacity=".52" stroke-width="5.788" d="m205.984 347.562 81.754-10.955"/><path stroke="#6f6a62" stroke-linecap="round" stroke-opacity=".26" stroke-width="4.485" d="m376.707 291.342-40.895 27.177"/><path stroke="#b87056" stroke-linecap="round" stroke-opacity=".52" stroke-width="5.58" d="m279.199 391.317 21.177-35.565"/><path stroke="#b87056" stroke-linecap="round" stroke-opacity=".52" stroke-width="3.552" d="m332.713 351.525 33.657 32.884"/><path stroke="#b87056" stroke-linecap="round" stroke-opacity=".52" stroke-width="2.53" d="m293.518 413.056 66.225-8.738"/><path stroke="#b87056" stroke-linecap="round" stroke-opacity=".52" stroke-width="8.782" d="m362.053 482.178 15.33-57.803"/><path stroke="#b87056" stroke-linecap="round" stroke-opacity=".52" stroke-width="3.975" d="m176.558 509.133-15.284-57.488"/><circle cx="187.091" cy="198.714" r="11" fill="#ebc384" stroke="#fff" stroke-width="3"/><text x="187.091" y="203.714" fill="#fff" font-family="Open Sans, Arial, sans-serif" font-size="12" font-weight="700" text-anchor="middle">0</text><circle cx="241.29" cy="125" r="18.702" fill="#ebc384" stroke="#fff" stroke-width="3"/><text x="241.29" y="130" fill="#fff" font-family="Open Sans, Arial, sans-serif" font-size="14" font-weight="700" text-anchor="middle">1</text><circle cx="270.562" cy="197.342" r="25" fill="#ebc384" stroke="#fff" stroke-width="3"/><text x="270.562" y="202.342" fill="#fff" font-family="Open Sans, Arial, sans-serif" font-size="14" font-weight="700" text-anchor="middle">2</text><circle cx="216.287" cy="271.056" r="16.402" fill="#ebc384" stroke="#fff" stroke-width="3"/><text x="216.287" y="276.056" fill="#fff" font-family="Open Sans, Arial, sans-serif" font-size="12" font-weight="700" text-anchor="middle">3</text><circle cx="361.047" cy="157.931" r="23.331" fill="#ebc384" stroke="#fff" stroke-width="3"/><text x="361.047" y="162.931" fill="#fff" font-family="Open Sans, Arial, sans-serif" font-size="14" font-weight="700" text-anchor="middle">4</text><circle cx="317.901" cy="263.204" r="19.109" fill="#ebc384" stroke="#fff" stroke-width="3"/><text x="317.901" y="268.204" fill="#fff" font-family="Open Sans, Arial, sans-serif" font-size="14" font-weight="700" text-anchor="middle">5</text><circle cx="455.571" cy="174.168" r="22.366" fill="#dfdda2" stroke="#fff" stroke-width="3"/><text x="455.571" y="179.168" fill="#fff" font-family="Open Sans, Arial, sans-serif" font-size="14" font-weight="700" text-anchor="middle">6</text><circle cx="596.062" cy="192.997" r="19.783" fill="#dfdda2" stroke="#fff" stroke-width="3"/><text x="596.062" y="197.997" fill="#fff" font-family="Open Sans, Arial, sans-serif" font-size="14" font-weight="700" text-anchor="middle">7</text><circle cx="512.667" cy="246.51" r="22.086" fill="#dfdda2" stroke="#fff" stroke-width="3"/><text x="512.667" y="251.51" fill="#fff" font-family="Open Sans, Arial, sans-serif" font-size="14" font-weight="700" text-anchor="middle">8</text><circle cx="397.942" cy="277.23" r="20.496" fill="#dfdda2" stroke="#fff" stroke-width="3"/><text x="397.942" y="282.23" fill="#fff" font-family="Open Sans, Arial, sans-serif" font-size="14" font-weight="700" text-anchor="middle">9</text><circle cx="508.475" cy="308.332" r="20.802" fill="#dfdda2" stroke="#4b5563" stroke-width="4"/><text x="508.475" y="313.332" fill="#fff" font-family="Open Sans, Arial, sans-serif" font-size="12" font-weight="700" text-anchor="middle">10</text><circle cx="643.934" cy="297.202" r="17.936" fill="#dfdda2" stroke="#fff" stroke-width="3"/><text x="643.934" y="302.202" fill="#fff" font-family="Open Sans, Arial, sans-serif" font-size="14" font-weight="700" text-anchor="middle">11</text><circle cx="508.475" cy="379.302" r="19.677" fill="#dfdda2" stroke="#fff" stroke-width="3"/><text x="508.475" y="384.302" fill="#fff" font-family="Open Sans, Arial, sans-serif" font-size="14" font-weight="700" text-anchor="middle">12</text><circle cx="548.114" cy="462.392" r="18.401" fill="#b4ccdf" stroke="#fff" stroke-width="3"/><text x="548.114" y="467.392" fill="#fff" font-family="Open Sans, Arial, sans-serif" font-size="14" font-weight="700" text-anchor="middle">13</text><circle cx="601.017" cy="536.716" r="20.148" fill="#b4ccdf" stroke="#fff" stroke-width="3"/><text x="601.017" y="541.716" fill="#fff" font-family="Open Sans, Arial, sans-serif" font-size="14" font-weight="700" text-anchor="middle">14</text><circle cx="516.707" cy="590" r="16.203" fill="#b4ccdf" stroke="#fff" stroke-width="3"/><text x="516.707" y="595" fill="#fff" font-family="Open Sans, Arial, sans-serif" font-size="12" font-weight="700" text-anchor="middle">15</text><circle cx="465.557" cy="524.595" r="21.474" fill="#b4ccdf" stroke="#fff" stroke-width="3"/><text x="465.557" y="529.595" fill="#fff" font-family="Open Sans, Arial, sans-serif" font-size="14" font-weight="700" text-anchor="middle">16</text><circle cx="354.948" cy="508.968" r="22.716" fill="#e68c6c" stroke="#fff" stroke-width="3"/><text x="354.948" y="513.968" fill="#fff" font-family="Open Sans, Arial, sans-serif" font-size="14" font-weight="700" text-anchor="middle">17</text><circle cx="156.066" cy="432.052" r="15.273" fill="#e68c6c" stroke="#fff" stroke-width="3"/><text x="156.066" y="437.052" fill="#fff" font-family="Open Sans, Arial, sans-serif" font-size="12" font-weight="700" text-anchor="middle">18</text><circle cx="182.898" cy="532.98" r="19.676" fill="#e68c6c" stroke="#fff" stroke-width="3"/><text x="182.898" y="537.98" fill="#fff" font-family="Open Sans, Arial, sans-serif" font-size="14" font-weight="700" text-anchor="middle">19</text><circle cx="263.93" cy="486.861" r="16.056" fill="#e68c6c" stroke="#fff" stroke-width="3"/><text x="263.93" y="491.861" fill="#fff" font-family="Open Sans, Arial, sans-serif" font-size="12" font-weight="700" text-anchor="middle">20</text><circle cx="263.93" cy="416.959" r="24.844" fill="#e68c6c" stroke="#fff" stroke-width="3"/><text x="263.93" y="421.959" fill="#fff" font-family="Open Sans, Arial, sans-serif" font-size="14" font-weight="700" text-anchor="middle">21</text><circle cx="184.728" cy="350.411" r="16.446" fill="#e68c6c" stroke="#fff" stroke-width="3"/><text x="184.728" y="355.411" fill="#fff" font-family="Open Sans, Arial, sans-serif" font-size="12" font-weight="700" text-anchor="middle">22</text><circle cx="313.861" cy="333.107" r="21.356" fill="#e68c6c" stroke="#fff" stroke-width="3"/><text x="313.861" y="338.107" fill="#fff" font-family="Open Sans, Arial, sans-serif" font-size="14" font-weight="700" text-anchor="middle">23</text><circle cx="383.534" cy="401.18" r="18.998" fill="#e68c6c" stroke="#fff" stroke-width="3"/><text x="383.534" y="406.18" fill="#fff" font-family="Open Sans, Arial, sans-serif" font-size="14" font-weight="700" text-anchor="middle">24</text></svg>