<svg xmlns="http://www.w3.org/2000/svg" aria-label="Final partition" viewBox="0 0 800 640"><path fill="#fbfaf8" d="M0 0h800v640H0z"/><text x="34" y="44" fill="#6b7280" font-family="Open Sans, Arial, sans-serif" font-size="14" font-weight="700">Final partition</text><text x="560" y="44" fill="#374151" font-family="Monaco, Consolas, monospace" font-size="13">L = 3.048</text><path stroke="#bc9c6a" stroke-linecap="round" stroke-opacity=".52" stroke-width="3.66" d="m203.089 198.451 37.477-.616"/><path stroke="#bc9c6a" stroke-linecap="round" stroke-opacity=".52" stroke-width="4.932" d="m250.181 146.971 9.129 22.561"/><path stroke="#bc9c6a" stroke-linecap="round" stroke-opacity=".52" stroke-width="6.425" d="m252.775 221.5-23.799 32.322"/><path stroke="#bc9c6a" stroke-linecap="round" stroke-opacity=".52" stroke-width="9" d="m264.144 131.284 69.586 19.136"/><path stroke="#bc9c6a" stroke-linecap="round" stroke-opacity=".52" stroke-width="5.914" d="m298.067 185.362 37.006-16.118"/><path stroke="#bc9c6a" stroke-linecap="round" stroke-opacity=".52" stroke-width="6.177" d="m288.071 221.702 15.759 21.925"/><path stroke="#bc9c6a" stroke-linecap="round" stroke-opacity=".52" stroke-width="4.829" d="m350.303 184.145-23.259 56.751"/><path stroke="#bc9c6a" stroke-linecap="round" stroke-opacity=".52" stroke-width="4.042" d="m237.625 269.407 56.238-4.346"/><path stroke="#6f6a62" stroke-linecap="round" stroke-opacity=".26" stroke-width="3.447" d="m388.968 162.727 39.632 6.808"/><path stroke="#b2b182" stroke-linecap="round" stroke-opacity=".52" stroke-width="8.214" d="m482.695 177.803 88.804 11.902"/><path stroke="#b2b182" stroke-linecap="round" stroke-opacity=".52" stroke-width="4.383" d="m575.204 206.381-39.741 25.501"/><path stroke="#b2b182" stroke-linecap="round" stroke-opacity=".52" stroke-width="5.286" d="m472.526 195.65 23.361 29.598"/><path stroke="#b2b182" stroke-linecap="round" stroke-opacity=".52" stroke-width="5.388" d="m486.503 253.516-63.933 17.119"/><path stroke="#b2b182" stroke-linecap="round" stroke-opacity=".52" stroke-width="4.353" d="m442.215 198.054-31.83 56.923"/><path stroke="#b2b182" stroke-linecap="round" stroke-opacity=".52" stroke-width="2.599" d="m510.835 273.533-.885 13.047"/><path stroke="#b2b182" stroke-linecap="round" stroke-opacity=".52" stroke-width="3.575" d="m606.408 215.517 27.952 60.844"/><path stroke="#b2b182" stroke-linecap="round" stroke-opacity=".52" stroke-width="2.715" d="m530.203 306.547 90.872-7.466"/><path stroke="#b2b182" stroke-linecap="round" stroke-opacity=".52" stroke-width="3.564" d="m537.934 256.267 84.604 32.673"/><path stroke="#b2b182" stroke-linecap="round" stroke-opacity=".52" stroke-width="6.179" d="M508.475 330.134v24.49"/><path stroke="#b2b182" stroke-linecap="round" stroke-opacity=".52" stroke-width="3.635" d="m416.673 294.528 73.672 68.032"/><path stroke="#b2b182" stroke-linecap="round" stroke-opacity=".52" stroke-width="3.784" d="m624.32 309.09-94.742 57.421"/><path stroke="#6f6a62" stroke-linecap="round" stroke-opacity=".26" stroke-width="2.85" d="m519.1 401.574 18.938 39.697"/><path stroke="#90a3b2" stroke-linecap="round" stroke-opacity=".52" stroke-width="5.556" d="m561.684 481.457 24.75 34.77"/><path stroke="#90a3b2" stroke-linecap="round" stroke-opacity=".52" stroke-width="4.455" d="m579.759 550.151-45.129 28.522"/><path stroke="#90a3b2" stroke-linecap="round" stroke-opacity=".52" stroke-width="5.501" d="m529.424 476.474-42.722 32.19"/><path stroke="#90a3b2" stroke-linecap="round" stroke-opacity=".52" stroke-width="6.787" d="m575.969 534.474-84.043-7.52"/><path stroke="#90a3b2" stroke-linecap="round" stroke-opacity=".52" stroke-width="5.733" d="m503.646 573.298-21.78-27.849"/><path stroke="#6f6a62" stroke-linecap="round" stroke-opacity=".26" stroke-width="1.6" d="m439.343 520.892-56.951-8.047"/><path stroke="#b87056" stroke-linecap="round" stroke-opacity=".52" stroke-width="4.778" d="m327.498 512.799-120.16 16.77"/><path stroke="#b87056" stroke-linecap="round" stroke-opacity=".52" stroke-width="5.084" d="m204.344 520.775 41.286-23.498"/><path stroke="#b87056" stroke-linecap="round" stroke-opacity=".52" stroke-width="2.682" d="m328.015 502.427-43.623-10.596"/><path stroke="#b87056" stroke-linecap="round" stroke-opacity=".52" stroke-width="4.589" d="m335.457 489.264-50.538-51.088"/><path stroke="#b87056" stroke-linecap="round" stroke-opacity=".52" stroke-width="2.61" d="m197.028 512.75 49.814-71.324"/><path stroke="#b87056" stroke-linecap="round" stroke-opacity=".52" stroke-width="2.675" d="M263.93 465.805v-19.002"/><path stroke="#b87056" stroke-linecap="round" stroke-opacity=".52" stroke-width="4.959" d="m176.143 429.243 58.231-8.148"/><path stroke="#b87056" stroke-linecap="round" stroke-opacity=".52" stroke-width="4.742" d="m241.081 397.761-39.934-33.554"/><path stroke="#b87056" stroke-linecap="round" stroke-opacity=".52" stroke-width="5.788" d="m205.984 347.562 81.754-10.955"/><path stroke="#6f6a62" stroke-linecap="round" stroke-opacity=".26" stroke-width="4.485" d="m376.707 291.342-40.895 27.177"/><path stroke="#b87056" stroke-linecap="round" stroke-opacity=".52" stroke-width="5.58" d="m279.199 391.317 21.177-35.565"/><path stroke="#b87056" stroke-linecap="round" stroke-opacity=".52" stroke-width="3.552" d="m332.713 351.525 33.657 32.884"/><path stroke="#b87056" stroke-linecap="round" stroke-opacity=".52" stroke-width="2.53" d="m293.518 413.056 66.225-8.738"/><path stroke="#b87056" stroke-linecap="round" stroke-opacity=".52" stroke-width="8.782" d="m362.053 482.178 15.33-57.803"/><path stroke="#b87056" stroke-linecap="round" stroke-opacity=".52" stroke-width="3.975" d="m176.558 509.133-15.284-57.488"/><circle cx="187.091" cy="198.714" r="11" fill="#ebc384" stroke="#fff" stroke-width="3"/><text x="187.091" y="203.714" fill="#fff" font-family="Open Sans, Arial, sans-serif" font-size="12" font-weight="700" text-anchor="middle">0</text><circle cx="241.29" cy="125" r="18.702" fill="#ebc384" stroke="#fff" stroke-width="3"/><text x="241.29" y="130" fill="#fff" font-family="Open Sans, Arial, sans-serif" font-size="14" font-weight="700" text-anchor="middle">1</text><circle cx="270.562" cy="197.342" r="25" fill="#ebc384" stroke="#fff" stroke-width="3"/><text x="270.562" y="202.342" fill="#fff" font-family="Open Sans, Arial, sans-serif" font-size="14" font-weight="700" text-anchor="middle">2</text><circle cx="216.287" cy="271.056" r="16.402" fill="#ebc384" stroke="#fff" stroke-width="3"/><text x="216.287" y="276.056" fill="#fff" font-family="Open Sans, Arial, sans-serif" font-size="12" font-weight="700" text-anchor="middle">3</text><circle cx="361.047" cy="157.931" r="23.331" fill="#ebc384" stroke="#fff" stroke-width="3"/><text x="361.047" y="162.931" fill="#fff" font-family="Open Sans, Arial, sans-serif" font-size="14" font-weight="700" text-anchor="middle">4</text><circle cx="317.901" cy="263.204" r="19.109" fill="#ebc384" stroke="#fff" stroke-width="3"/><text x="317.901" y="268.204" fill="#fff" font-family="Open Sans, Arial, sans-serif" font-size="14" font-weight="700" text-anchor="middle">5</text><circle cx="455.571" cy="174.168" r="22.366" fill="#dfdda2" stroke="#fff" stroke-width="3"/><text x="455.571" y="179.168" fill="#fff" font-family="Open Sans, Arial, sans-serif" font-size="14" font-weight="700" text-anchor="middle">6</text><circle cx="596.062" cy="192.997" r="19.783" fill="#dfdda2" stroke="#fff" stroke-width="3"/><text x="596.062" y="197.997" fill="#fff" font-family="Open Sans, Arial, sans-serif" font-size="14" font-weight="700" text-anchor="middle">7</text><circle cx="512.667" cy="246.51" r="22.086" fill="#dfdda2" stroke="#fff" stroke-width="3"/><text x="512.667" y="251.51" fill="#fff" font-family="Open Sans, Arial, sans-serif" font-size="14" font-weight="700" text-anchor="middle">8</text><circle cx="397.942" cy="277.23" r="20.496" fill="#dfdda2" stroke="#fff" stroke-width="3"/><text x="397.942" y="282.23" fill="#fff" font-family="Open Sans, Arial, sans-serif" font-size="14" font-weight="700" text-anchor="middle">9</text><circle cx="508.475" cy="308.332" r="16.802" fill="#dfdda2" stroke="#fff" stroke-width="3"/><text x="508.475" y="313.332" fill="#fff" font-family="Open Sans, Arial, sans-serif" font-size="12" font-weight="700" text-anchor="middle">10</text><circle cx="643.934" cy="297.202" r="17.936" fill="#dfdda2" stroke="#fff" stroke-width="3"/><text x="643.934" y="302.202" fill="#fff" font-family="Open Sans, Arial, sans-serif" font-size="14" font-weight="700" text-anchor="middle">11</text><circle cx="508.475" cy="379.302" r="19.677" fill="#dfdda2" stroke="#fff" stroke-width="3"/><text x="508.475" y="384.302" fill="#fff" font-family="Open Sans, Arial, sans-serif" font-size="14" font-weight="700" text-anchor="middle">12</text><circle cx="548.114" cy="462.392" r="18.401" fill="#b4ccdf" stroke="#fff" stroke-width="3"/><text x="548.114" y="467.392" fill="#fff" font-family="Open Sans, Arial, sans-serif" font-size="14" font-weight="700" text-anchor="middle">13</text><circle cx="601.017" cy="536.716" r="20.148" fill="#b4ccdf" stroke="#fff" stroke-width="3"/><text x="601.017" y="541.716" fill="#fff" font-family="Open Sans, Arial, sans-serif" font-size="14" font-weight="700" text-anchor="middle">14</text><circle cx="516.707" cy="590" r="16.203" fill="#b4ccdf" stroke="#fff" stroke-width="3"/><text x="516.707" y="595" fill="#fff" font-family="Open Sans, Arial, sans-serif" font-size="12" font-weight="700" text-anchor="middle">15</text><circle cx="465.557" cy="524.595" r="21.474" fill="#b4ccdf" stroke="#fff" stroke-width="3"/><text x="465.557" y="529.595" fill="#fff" font-family="Open Sans, Arial, sans-serif" font-size="14" font-weight="700" text-anchor="middle">16</text><circle cx="354.948" cy="508.968" r="22.716" fill="#e68c6c" stroke="#fff" stroke-width="3"/><text x="354.948" y="513.968" fill="#fff" font-family="Open Sans, Arial, sans-serif" font-size="14" font-weight="700" text-anchor="middle">17</text><circle cx="156.066" cy="432.052" r="15.273" fill="#e68c6c" stroke="#fff" stroke-width="3"/><text x="156.066" y="437.052" fill="#fff" font-family="Open Sans, Arial, sans-serif" font-size="12" font-weight="700" text-anchor="middle">18</text><circle cx="182.898" cy="532.98" r="19.676" fill="#e68c6c" stroke="#fff" stroke-width="3"/><text x="182.898" y="537.98" fill="#fff" font-family="Open Sans, Arial, sans-serif" font-size="14" font-weight="700" text-anchor="middle">19</text><circle cx="263.93" cy="486.861" r="16.056" fill="#e68c6c" stroke="#fff" stroke-width="3"/><text x="263.93" y="491.861" fill="#fff" font-family="Open Sans, Arial, sans-serif" font-size="12" font-weight="700" text-anchor="middle">20</text><circle cx="263.93" cy="416.959" r="24.844" fill="#e68c6c" stroke="#fff" stroke-width="3"/><text x="263.93" y="421.959" fill="#fff" font-family="Open Sans, Arial, sans-serif" font-size="14" font-weight="700" text-anchor="middle">21</text><circle cx="184.728" cy="350.411" r="16.446" fill="#e68c6c" stroke="#fff" stroke-width="3"/><text x="184.728" y="355.411" fill="#fff" font-family="Open Sans, Arial, sans-serif" font-size="12" font-weight="700" text-anchor="middle">22</text><circle cx="313.861" cy="333.107" r="21.356" fill="#e68c6c" stroke="#fff" stroke-width="3"/><text x="313.861" y="338.107" fill="#fff" font-family="Open Sans, Arial, sans-serif" font-size="14" font-weight="700" text-anchor="middle">23</text><circle cx="383.534" cy="401.18" r="18.998" fill="#e68c6c" stroke="#fff" stroke-width="3"/><text x="383.534" y="406.18" fill="#fff" font-family="Open Sans, Arial, sans-serif" font-size="14" font-weight="700" text-anchor="middle">24</text></svg>